<svg xmlns="http://www.w3.org/2000/svg" width="102.528" height="102.528" viewBox="0 0 102.528 102.528"><g transform="translate(0 0)" opacity="0.1"><g transform="translate(0 0)"><path d="M87.628,15.152a51.249,51.249,0,1,0,14.9,36.112,50.506,50.506,0,0,0-14.9-36.112ZM48.637,40.405l-4.192,4.04a2.525,2.525,0,0,1-3.283,0,3.738,3.738,0,0,0-2.626-1.111h0a3.788,3.788,0,0,0-2.677,1.111A3.939,3.939,0,0,0,34.8,47.072,3.839,3.839,0,0,0,35.859,49.7a10.1,10.1,0,0,0,13.839,0l4.192-4.243a2.172,2.172,0,0,1,1.667-.556,2.273,2.273,0,0,1,1.566.606,2.374,2.374,0,0,1,.606,1.566,2.172,2.172,0,0,1-.606,1.566l-8.485,8.384A8.485,8.485,0,0,1,40.4,59.092a3.737,3.737,0,0,0-1.919,7.222,16.364,16.364,0,0,0,15.152-4.04,8.334,8.334,0,0,1,11.667,0L69.5,66.466a2.172,2.172,0,0,1,0,3.081,2.424,2.424,0,0,1-3.283,0l-4.192-4.192a3.788,3.788,0,0,0-5.051,0L54.85,67.476A17.071,17.071,0,1,1,30.657,43.435l2.121-2.121a3.535,3.535,0,0,0,1.061-2.626V36.264a10.909,10.909,0,0,1,3.131-7.677,8.233,8.233,0,0,1,5.808-2.374,8.3,8.3,0,0,1,5.859,14.192Zm40.4-10.1a5.354,5.354,0,0,1-5.051,5.354A12.627,12.627,0,0,0,71.416,48.233a5.051,5.051,0,0,1-5.051,5.051h-.909a17.425,17.425,0,0,0-2.172-.606,9.748,9.748,0,0,0-1.01-12.273,9.293,9.293,0,0,0-4.192-2.424,15.758,15.758,0,0,0-4.192-14.5A15.556,15.556,0,0,0,42.779,18.94h0a15.556,15.556,0,0,0-11.061,4.546,18.283,18.283,0,0,0-5.051,12.93v.909l-1.01,1.01A24.306,24.306,0,0,0,59.5,73.234L61.062,74.8a9.6,9.6,0,0,0,6.869,2.828h0A9.647,9.647,0,0,0,74.85,74.8a9.546,9.546,0,0,0,0-13.586l-2.172-2.172a12.576,12.576,0,0,0,6.01-10.758,5.051,5.051,0,0,1,5.051-5.051,12.325,12.325,0,0,0,8.941-3.84l.453-.4a43.71,43.71,0,1,1-4.141-9.7,8.942,8.942,0,0,0,.2,1.01Z" transform="translate(0 0)" fill="#707070"/></g></g></svg>