<svg xmlns="http://www.w3.org/2000/svg" width="58" height="58" viewBox="0 0 58 58"><g opacity="0.34"><g transform="translate(0 0)"><path d="M49.571,8.571A28.991,28.991,0,1,0,58,29,28.571,28.571,0,0,0,49.571,8.571ZM27.514,22.857l-2.371,2.286a1.429,1.429,0,0,1-1.857,0,2.114,2.114,0,0,0-1.486-.629h0a2.143,2.143,0,0,0-1.514.629,2.229,2.229,0,0,0-.6,1.486,2.171,2.171,0,0,0,.6,1.486,5.714,5.714,0,0,0,7.829,0l2.371-2.4a1.229,1.229,0,0,1,.943-.314,1.286,1.286,0,0,1,.886.343,1.343,1.343,0,0,1,.343.886,1.229,1.229,0,0,1-.343.886l-4.8,4.743a4.8,4.8,0,0,1-4.657,1.171,2.114,2.114,0,0,0-1.086,4.086,9.257,9.257,0,0,0,8.571-2.286,4.714,4.714,0,0,1,6.6,0L39.314,37.6a1.229,1.229,0,0,1,0,1.743,1.371,1.371,0,0,1-1.857,0l-2.371-2.371a2.143,2.143,0,0,0-2.857,0l-1.2,1.2a9.657,9.657,0,1,1-13.686-13.6l1.2-1.2a2,2,0,0,0,.6-1.486V20.514a6.171,6.171,0,0,1,1.771-4.343A4.657,4.657,0,0,1,24.2,14.829a4.694,4.694,0,0,1,3.314,8.029Zm22.857-5.714a3.029,3.029,0,0,1-2.857,3.029A7.143,7.143,0,0,0,40.4,27.286a2.857,2.857,0,0,1-2.857,2.857h-.514A9.858,9.858,0,0,0,35.8,29.8a5.514,5.514,0,0,0-.571-6.943,5.257,5.257,0,0,0-2.371-1.371,8.914,8.914,0,0,0-2.371-8.2A8.8,8.8,0,0,0,24.2,10.714h0a8.8,8.8,0,0,0-6.257,2.571A10.343,10.343,0,0,0,15.086,20.6v.514l-.571.571A13.75,13.75,0,0,0,33.657,41.428l.886.886a5.429,5.429,0,0,0,3.886,1.6h0a5.457,5.457,0,0,0,3.914-1.6,5.4,5.4,0,0,0,0-7.686L41.114,33.4a7.114,7.114,0,0,0,3.4-6.086,2.857,2.857,0,0,1,2.857-2.857,6.972,6.972,0,0,0,5.058-2.172l.256-.228a24.726,24.726,0,1,1-2.343-5.486,5.058,5.058,0,0,0,.114.571Z" transform="translate(0 0)" fill="#c33091"/></g></g></svg>