<svg id="Layer_2" data-name="Layer 2" xmlns="http://www.w3.org/2000/svg" xmlns:xlink="http://www.w3.org/1999/xlink" width="57" height="57" viewBox="0 0 57 57">
  <defs>
    <linearGradient id="linear-gradient" x1="0.93" y1="0.123" x2="0.31" y2="1" gradientUnits="objectBoundingBox">
      <stop offset="0" stop-color="#9bf8fb"/>
      <stop offset="1" stop-color="#afb3fc"/>
    </linearGradient>
  </defs>
  <g id="Capa_1" data-name="Capa 1" transform="translate(0 0)">
    <path id="Path_39919" data-name="Path 39919" d="M48.717,8.424A28.492,28.492,0,1,0,57,28.5,28.079,28.079,0,0,0,48.717,8.424ZM27.04,22.463l-2.331,2.246a1.4,1.4,0,0,1-1.825,0,2.078,2.078,0,0,0-1.46-.618h0a2.106,2.106,0,0,0-1.488.618,2.19,2.19,0,0,0-.59,1.46,2.134,2.134,0,0,0,.59,1.46,5.616,5.616,0,0,0,7.694,0l2.331-2.359a1.207,1.207,0,0,1,.927-.309,1.264,1.264,0,0,1,.87.337,1.32,1.32,0,0,1,.337.87,1.207,1.207,0,0,1-.337.87L27.04,31.7a4.717,4.717,0,0,1-4.577,1.151A2.078,2.078,0,0,0,21.4,36.867a9.1,9.1,0,0,0,8.424-2.246,4.633,4.633,0,0,1,6.486,0l2.331,2.331a1.207,1.207,0,0,1,0,1.713,1.348,1.348,0,0,1-1.825,0l-2.331-2.331a2.106,2.106,0,0,0-2.808,0l-1.179,1.179a9.491,9.491,0,1,1-13.45-13.365l1.179-1.179a1.966,1.966,0,0,0,.59-1.46V20.161a6.065,6.065,0,0,1,1.741-4.268,4.577,4.577,0,0,1,3.229-1.32,4.613,4.613,0,0,1,3.257,7.89ZM49.5,16.847a2.976,2.976,0,0,1-2.808,2.976A7.02,7.02,0,0,0,39.7,26.815,2.808,2.808,0,0,1,36.9,29.623H36.39a9.688,9.688,0,0,0-1.207-.337,5.419,5.419,0,0,0-.562-6.823,5.166,5.166,0,0,0-2.331-1.348,8.761,8.761,0,0,0-2.331-8.059,8.648,8.648,0,0,0-6.177-2.527h0a8.648,8.648,0,0,0-6.149,2.527,10.164,10.164,0,0,0-2.808,7.188v.505l-.562.562a13.513,13.513,0,0,0,18.813,19.4l.87.87a5.335,5.335,0,0,0,3.819,1.572h0a5.363,5.363,0,0,0,3.847-1.572,5.307,5.307,0,0,0,0-7.553l-1.207-1.207a6.992,6.992,0,0,0,3.341-5.981,2.808,2.808,0,0,1,2.808-2.808A6.852,6.852,0,0,0,51.525,21.9l.252-.224a24.3,24.3,0,1,1-2.3-5.391,4.97,4.97,0,0,0,.112.562Z" transform="translate(0 0)" fill="url(#linear-gradient)"/>
  </g>
</svg>
