<svg xmlns="http://www.w3.org/2000/svg" width="32.779" height="34.6" viewBox="0 0 32.779 34.6"><path d="M5.463,3.642A3.642,3.642,0,0,1,9.105,0H29.137a3.642,3.642,0,0,1,3.642,3.642V29.137A5.456,5.456,0,0,1,27.315,34.6H5.463A5.456,5.456,0,0,1,0,29.137V25.494a1.826,1.826,0,0,1,1.821-1.821H5.463ZM27.315,30.958a1.826,1.826,0,0,0,1.821-1.821V5.463a1.821,1.821,0,0,0-1.821-1.821H10.926A1.821,1.821,0,0,0,9.105,5.463v18.21H23.673a1.826,1.826,0,0,1,1.821,1.821v3.642A1.826,1.826,0,0,0,27.315,30.958Zm-3.642-18.21H14.568a1.821,1.821,0,0,1,0-3.642h9.105a1.821,1.821,0,1,1,0,3.642Zm0,5.463H14.568a1.821,1.821,0,0,1,0-3.642h9.105a1.821,1.821,0,1,1,0,3.642Z" fill="#c33091" fill-rule="evenodd"/></svg>