<svg xmlns="http://www.w3.org/2000/svg" width="58" height="58" viewBox="0 0 58 58"><g transform="translate(-376 -6482)"><path d="M29,58A29.007,29.007,0,0,1,17.712,2.279,28.819,28.819,0,0,1,29,0h.071a28.8,28.8,0,0,1,20.5,8.572A28.57,28.57,0,0,1,58,29,28.975,28.975,0,0,1,29,58ZM28.83,4.228A24.61,24.61,0,0,0,11.3,11.494,24.853,24.853,0,0,0,28.857,53.886,24.943,24.943,0,0,0,53.078,23.613a22.876,22.876,0,0,0-3.415-8.139A24.811,24.811,0,0,0,28.857,4.228ZM25.677,45.194h0a13.726,13.726,0,0,1-9.606-23.515l.571-.572v-.514A10.279,10.279,0,0,1,19.5,13.279a8.745,8.745,0,0,1,6.217-2.571h.111a8.74,8.74,0,0,1,6.215,2.572,8.88,8.88,0,0,1,2.372,8.2,5.269,5.269,0,0,1,2.371,1.372,5.514,5.514,0,0,1,.571,6.943c.289.061.577.135.855.22,1.193.386,2.319,1.237,4.463,3.372a.037.037,0,0,0,0,.008L43.9,34.622a5.443,5.443,0,0,1-3.86,9.286h-.091a5.464,5.464,0,0,1-3.848-1.6l-.886-.887A13.9,13.9,0,0,1,25.677,45.194Zm.066-30.372a4.629,4.629,0,0,0-3.272,1.343A6.132,6.132,0,0,0,20.7,20.508v1.371a2.006,2.006,0,0,1-.6,1.486l-1.2,1.2a9.657,9.657,0,1,0,13.685,13.6l1.2-1.2a2.144,2.144,0,0,1,2.858,0l2.371,2.371a1.37,1.37,0,0,0,1.857,0,1.235,1.235,0,0,0,.363-.871,1.223,1.223,0,0,0-.363-.872L38.5,35.222a4.713,4.713,0,0,0-6.6,0,9.256,9.256,0,0,1-8.572,2.285,2.114,2.114,0,0,1,1.086-4.085A4.8,4.8,0,0,0,29.07,32.25l4.8-4.743a1.233,1.233,0,0,0,.343-.886,1.337,1.337,0,0,0-.343-.886A1.281,1.281,0,0,0,33,25.393h-.011c-.038,0-.077-.005-.115-.005a1.228,1.228,0,0,0-.827.32l-2.371,2.4a5.714,5.714,0,0,1-7.828,0,2.158,2.158,0,0,1-.6-1.486,2.224,2.224,0,0,1,.6-1.486,2.156,2.156,0,0,1,1.514-.628,2.1,2.1,0,0,1,1.486.628,1.428,1.428,0,0,0,1.857,0L29.07,22.85a4.714,4.714,0,0,0,0-6.686,4.69,4.69,0,0,0-3.3-1.343h-.031Z" transform="translate(376 6482)" fill="#c33091"/></g></svg>