<svg xmlns="http://www.w3.org/2000/svg" width="102.528" height="102.527" viewBox="0 0 102.528 102.527"><g transform="translate(-447.736 -146.473)"><path d="M51.264,102.527a51.277,51.277,0,0,1-19.954-98.5A50.944,50.944,0,0,1,51.264,0h.125a50.912,50.912,0,0,1,36.24,15.152,50.5,50.5,0,0,1,14.9,36.111,51.22,51.22,0,0,1-51.264,51.264Zm-.3-95.053A43.5,43.5,0,0,0,19.979,20.318,43.933,43.933,0,0,0,51.011,95.255,44.092,44.092,0,0,0,93.828,41.741a40.438,40.438,0,0,0-6.037-14.387A43.859,43.859,0,0,0,51.011,7.474ZM45.389,79.89h0A24.264,24.264,0,0,1,28.409,38.322l1.01-1.01V36.4a18.17,18.17,0,0,1,5.05-12.93,15.459,15.459,0,0,1,10.99-4.546h.2a15.449,15.449,0,0,1,10.986,4.546,15.7,15.7,0,0,1,4.192,14.5,9.314,9.314,0,0,1,4.192,2.425,9.746,9.746,0,0,1,1.009,12.273c.512.107,1.02.239,1.511.389,2.108.683,4.1,2.187,7.89,5.96a.066.066,0,0,0-.006.015L77.6,61.2a9.621,9.621,0,0,1-6.824,16.414h-.16a9.659,9.659,0,0,1-6.8-2.827l-1.565-1.567A24.562,24.562,0,0,1,45.389,79.89Zm.117-53.69a8.182,8.182,0,0,0-5.784,2.374,10.84,10.84,0,0,0-3.131,7.678v2.423A3.546,3.546,0,0,1,35.53,41.3l-2.121,2.121A17.071,17.071,0,1,0,57.6,67.463l2.121-2.121a3.79,3.79,0,0,1,5.051,0l4.192,4.192a2.422,2.422,0,0,0,3.282,0,2.184,2.184,0,0,0,.641-1.54,2.162,2.162,0,0,0-.641-1.542l-4.192-4.191a8.331,8.331,0,0,0-11.666,0A16.361,16.361,0,0,1,41.236,66.3a3.737,3.737,0,0,1,1.92-7.221,8.482,8.482,0,0,0,8.232-2.071l8.485-8.384a2.18,2.18,0,0,0,.606-1.565,2.363,2.363,0,0,0-.606-1.565,2.265,2.265,0,0,0-1.547-.606h-.019c-.067-.006-.136-.01-.2-.01a2.17,2.17,0,0,0-1.462.565l-4.192,4.243a10.1,10.1,0,0,1-13.838,0,3.816,3.816,0,0,1-1.061-2.627,3.931,3.931,0,0,1,1.061-2.627,3.812,3.812,0,0,1,2.676-1.11,3.718,3.718,0,0,1,2.627,1.11,2.525,2.525,0,0,0,3.282,0l4.192-4.039a8.333,8.333,0,0,0,0-11.819A8.29,8.29,0,0,0,45.561,26.2h-.055Z" transform="translate(447.736 146.473)" fill="#707070" opacity="0.1"/></g></svg>