<svg xmlns="http://www.w3.org/2000/svg" width="30.471" height="30.47" viewBox="0 0 30.471 30.47"><path d="M14.885,0A14.885,14.885,0,1,0,29.771,14.885,14.885,14.885,0,0,0,14.885,0ZM25.976,13.645H21.662a22.784,22.784,0,0,0-2.839-9.193,11.18,11.18,0,0,1,7.154,9.193ZM12.014,17.366h5.743a21.02,21.02,0,0,1-2.872,7.319,21.011,21.011,0,0,1-2.872-7.319Zm-.164-3.721a20.152,20.152,0,0,1,3.035-8.559,20.146,20.146,0,0,1,3.035,8.559Zm-.9-9.193a22.784,22.784,0,0,0-2.839,9.193H3.794a11.18,11.18,0,0,1,7.154-9.193ZM4.009,17.366H8.238a23.452,23.452,0,0,0,2.71,7.952A11.19,11.19,0,0,1,4.009,17.366Zm14.813,7.952a23.424,23.424,0,0,0,2.71-7.952h4.229a11.19,11.19,0,0,1-6.939,7.952Z" transform="translate(0.35 0.35)" fill="#707070" stroke="#fff" stroke-width="0.7" opacity="0.5"/></svg>