<svg xmlns="http://www.w3.org/2000/svg" width="31.939" height="35.4" viewBox="0 0 31.939 35.4"><g transform="translate(0.4 0.4)" opacity="0.55"><path d="M28.026,3.145H26.469V1.557A1.557,1.557,0,0,0,24.912,0h0a1.557,1.557,0,0,0-1.557,1.557V3.145H7.785V1.557A1.557,1.557,0,0,0,6.228,0h0A1.557,1.557,0,0,0,4.671,1.557V3.145H3.114A3.139,3.139,0,0,0,0,6.291V31.454A3.139,3.139,0,0,0,3.114,34.6H28.026a3.139,3.139,0,0,0,3.114-3.145V6.291A3.139,3.139,0,0,0,28.026,3.145Zm0,26.233a2.076,2.076,0,0,1-2.076,2.076H5.19a2.076,2.076,0,0,1-2.076-2.076V14.154H28.026Zm0-19.58a1.211,1.211,0,0,1-1.211,1.211H4.325A1.211,1.211,0,0,1,3.114,9.8V7.5A1.211,1.211,0,0,1,4.325,6.291h22.49A1.211,1.211,0,0,1,28.026,7.5Z" transform="translate(0 0)" fill="#707070" stroke="#707070" stroke-width="0.8"/><path d="M10.73,11h5.19a1.735,1.735,0,0,1,1.73,1.73v5.19a1.735,1.735,0,0,1-1.73,1.73H10.73A1.735,1.735,0,0,1,9,17.92V12.73A1.735,1.735,0,0,1,10.73,11Z" transform="translate(6.57 8.03)" fill="#707070" stroke="#707070" stroke-width="0.8"/></g></svg>