<svg xmlns="http://www.w3.org/2000/svg" width="145.797" height="124.461" viewBox="0 0 145.797 124.461">
  <g id="Group_31195" data-name="Group 31195" transform="translate(16759.398 8346.461)">
    <path id="Path_40713" data-name="Path 40713" d="M71.872,22.156a16,16,0,0,1,27.256,0L156,114.617A16,16,0,0,1,142.374,139H28.626A16,16,0,0,1,15,114.617Z" transform="translate(-16772 -8361)" fill="#fff"/>
    <g id="Danger" transform="translate(-16721.873 -8331.738)">
      <path id="Path_40705" data-name="Path 40705" d="M8.572,62.688H63.951a7.818,7.818,0,0,0,7.533-8.116,7.553,7.553,0,0,0-.577-2.508L43.08,4.737A8.068,8.068,0,0,0,32.273,1.72a7.8,7.8,0,0,0-3.109,3.017L1.337,52.064A7.657,7.657,0,0,0,5.708,62.131a8.328,8.328,0,0,0,2.585.557" transform="translate(-0.751 -0.75)" fill="none" stroke="#707070" stroke-linecap="round" stroke-linejoin="round" stroke-width="5"/>
      <path id="Path_40706" data-name="Path 40706" d="M9.99,19.993V7.3" transform="translate(25.382 14.359)" fill="none" stroke="#707070" stroke-linecap="round" stroke-linejoin="round" stroke-width="6"/>
      <path id="Path_40704" data-name="Path 40704" d="M9.25,16.332a3.816,3.816,0,0,1,3.789-3.819,3.768,3.768,0,0,1,3.788,3.763v.056a3.789,3.789,0,0,1-7.577,0Z" transform="translate(22.333 28.447)" fill="#707070"/>
    </g>
  </g>
</svg>
