<svg xmlns="http://www.w3.org/2000/svg" xmlns:xlink="http://www.w3.org/1999/xlink" width="86" height="86" viewBox="0 0 86 86"><defs><linearGradient id="a" x1="0.5" x2="0.5" y2="1" gradientUnits="objectBoundingBox"><stop offset="0" stop-color="#7c73e6"/><stop offset="1" stop-color="#b2abff"/></linearGradient></defs><g transform="translate(-346 -351)"><path d="M43,0A43,43,0,1,0,86,43,43.016,43.016,0,0,0,43,0Zm0,77.4A34.4,34.4,0,1,1,77.4,43,34.446,34.446,0,0,1,43,77.4ZM59.684,27.047,34.4,52.331l-8.084-8.084a4.287,4.287,0,1,0-6.063,6.063L31.39,61.447a4.282,4.282,0,0,0,6.063,0L65.79,33.11a4.282,4.282,0,0,0,0-6.063,4.334,4.334,0,0,0-6.106,0Z" transform="translate(346 351)" fill="url(#a)"/></g></svg>