<svg xmlns="http://www.w3.org/2000/svg" width="31.742" height="28.913" viewBox="0 0 31.742 28.913">
  <g id="Danger" transform="translate(0.513 0.511)">
    <path id="Path_40705" data-name="Path 40705" d="M3.982,27.083h22.88a3.281,3.281,0,0,0,2.874-4.517L18.239,2.445a3.287,3.287,0,0,0-5.749,0L.993,22.567A3.286,3.286,0,0,0,2.8,26.847a3.358,3.358,0,0,0,1.068.237" transform="translate(0 0)" fill="none" stroke="#707070" stroke-linecap="round" stroke-linejoin="round" stroke-width="2.5"/>
    <path id="Path_40706" data-name="Path 40706" d="M9.99,12.194V7.3" transform="translate(5.358 3.796)" fill="none" stroke="#707070" stroke-linecap="round" stroke-linejoin="round" stroke-width="2.5"/>
    <path id="Path_40704" data-name="Path 40704" d="M9.25,14.091a1.577,1.577,0,0,1,1.565-1.578,1.557,1.557,0,0,1,1.565,1.555v.023a1.565,1.565,0,0,1-3.13,0Z" transform="translate(4.532 6.44)" fill="#707070"/>
  </g>
</svg>
