<svg xmlns="http://www.w3.org/2000/svg" xmlns:xlink="http://www.w3.org/1999/xlink" width="116.775" height="78.514" viewBox="0 0 116.775 78.514"><defs><filter id="a" x="0" y="0" width="116.775" height="78.514" filterUnits="userSpaceOnUse"><feOffset input="SourceAlpha"/><feGaussianBlur stdDeviation="5" result="b"/><feFlood flood-color="#5f9bdf" flood-opacity="0.2"/><feComposite operator="in" in2="b"/><feComposite in="SourceGraphic"/></filter></defs><g transform="translate(-454.125 -1005.74)"><g transform="matrix(1, 0, 0, 1, 454.13, 1005.74)" filter="url(#a)"><path d="M-1.146,0h55.8C61.967,0,67.9,7.6,67.9,16.98V31.534c0,9.378-5.928,16.98-13.241,16.98h-55.8L-18.875,24.181Z" transform="translate(33.88 15)" fill="#fff"/></g><path d="M23.508.552a1.816,1.816,0,0,0-2.571,0l-8.916,8.9L3.1.533A1.818,1.818,0,0,0,.533,3.1L9.45,12.021.533,20.937A1.818,1.818,0,0,0,3.1,23.508l8.916-8.916,8.916,8.916A1.818,1.818,0,1,0,23.5,20.937l-8.916-8.916L23.508,3.1a1.827,1.827,0,0,0,0-2.548Z" transform="translate(504.918 1032.979)" fill="#c33091"/></g></svg>