<svg id="Layer_2" data-name="Layer 2" xmlns="http://www.w3.org/2000/svg" xmlns:xlink="http://www.w3.org/1999/xlink" width="326.163" height="287.747" viewBox="0 0 326.163 287.747">
  <defs>
    <linearGradient id="linear-gradient" x1="0.5" x2="0.5" y2="1" gradientUnits="objectBoundingBox">
      <stop offset="0" stop-color="#5be7a9"/>
      <stop offset="1" stop-color="#94fbcd"/>
    </linearGradient>
    <linearGradient id="linear-gradient-2" x1="0.5" x2="0.5" y2="1" gradientUnits="objectBoundingBox">
      <stop offset="0" stop-color="#69e3e6"/>
      <stop offset="1" stop-color="#565aa7"/>
    </linearGradient>
    <linearGradient id="linear-gradient-3" x1="0.5" x2="0.5" y2="1" gradientUnits="objectBoundingBox">
      <stop offset="0" stop-color="#9bf8fb"/>
      <stop offset="1" stop-color="#afb3fc"/>
    </linearGradient>
    <linearGradient id="linear-gradient-4" x1="0.436" y1="1" x2="0.471" y2="0.127" xlink:href="#linear-gradient"/>
    <linearGradient id="linear-gradient-5" x1="0.057" y1="-0.245" x2="0.309" y2="0.857" xlink:href="#linear-gradient-2"/>
    <linearGradient id="linear-gradient-6" x1="0.319" y1="0.806" x2="0.377" y2="0.028" xlink:href="#linear-gradient"/>
    <linearGradient id="linear-gradient-7" x1="0.391" y1="0.643" x2="0.386" y2="-0.114" xlink:href="#linear-gradient"/>
    <linearGradient id="linear-gradient-39" x1="0.491" y1="0.217" x2="0.249" y2="1.297" gradientUnits="objectBoundingBox">
      <stop offset="0" stop-color="#c33091"/>
      <stop offset="1" stop-color="#ffa5fc"/>
    </linearGradient>
    <linearGradient id="linear-gradient-40" x1="0.545" y1="0.43" x2="0.5" y2="1" xlink:href="#linear-gradient-39"/>
    <linearGradient id="linear-gradient-43" x1="0.5" x2="0.5" y2="1" gradientUnits="objectBoundingBox">
      <stop offset="0" stop-color="#7c73e6"/>
      <stop offset="1" stop-color="#b2abff"/>
    </linearGradient>
    <linearGradient id="linear-gradient-46" x1="0.5" y1="0" x2="0.986" y2="0.91" xlink:href="#linear-gradient-39"/>
    <linearGradient id="linear-gradient-47" x1="0.5" y1="0" x2="0.5" y2="1" xlink:href="#linear-gradient-39"/>
  </defs>
  <g id="Layer_3" data-name="Layer 3">
    <path id="Path_40696" data-name="Path 40696" d="M98.393,129.437a27.4,27.4,0,0,0,3.521,12.708,53.239,53.239,0,0,0,3.173,4.836,47.208,47.208,0,0,1,3.853,6.044c.559,1.1,1.012,2.267,1.511,3.385a20.885,20.885,0,0,0,3.113,5.893,17.045,17.045,0,0,0,9.732,5.606,17.484,17.484,0,0,0,4.533.257,4.972,4.972,0,0,1-.317-1.964,5.742,5.742,0,0,1,3.657-4.745,10.578,10.578,0,0,1,5.591-.514,18.3,18.3,0,0,1,6.044,1.934,36.055,36.055,0,0,0,10.215-9.837c3.022-4.533,4.715-7.918,4.609-12.98a26.856,26.856,0,0,0-.453-4.156c-.121-.725-.272-1.511-.438-2.191a3.585,3.585,0,0,0-.212-.861h0c-.151-.62-.317-1.254-.5-1.874-.378-1.375-.816-2.72-1.239-4.035h0l-.317-.982h0a1.7,1.7,0,0,1-.076-.2q-.589-1.783-1.269-3.445c-.484-1.194-1-2.327-1.511-3.43a42.649,42.649,0,0,0-3.113-5.259c-5.516-7.918-13.434-12.3-21.73-12.089C110.149,102.147,98,114.1,98.393,129.437Zm36.448,9.611a.846.846,0,0,1,.574-.136,7.555,7.555,0,0,0,4.428-1.194,7.133,7.133,0,0,0,1.587-1.844,6.952,6.952,0,0,0,.544-1.511c0-.257,0-1.39.6-.937s0,2.765-.212,3.46a5,5,0,0,1-2.206,2.765,6.407,6.407,0,0,1-1.662.68,4.775,4.775,0,0,1-3.536-.438.574.574,0,0,1-.121-.861ZM128.8,158.254a1.058,1.058,0,0,1,1.3-.7,7.556,7.556,0,0,0,9.716-7.676,1.043,1.043,0,0,1,2.07-.121,9.626,9.626,0,0,1-9.656,10.2,9.37,9.37,0,0,1-2.735-.408,1.043,1.043,0,0,1-.619-1.315ZM114.789,151.3a4.9,4.9,0,0,0,2.3.242,4.79,4.79,0,0,0,2.9-1.617,12.558,12.558,0,0,0,1.647-3.022,1.511,1.511,0,0,1,.559-.8c1.39-.831.725,2.7.544,3.2a5.41,5.41,0,0,1-6.2,3.611,5.334,5.334,0,0,1-2.3-.831c-.5-.514.091-.952.62-.8Z" transform="translate(50.246 51.943)" fill="#f1c8aa"/>
    <path id="Path_40697" data-name="Path 40697" d="M225.978,15.375c-.181,1.3-1.708,2.267-3.128,2.554a14.537,14.537,0,0,1-4.9-.151h-.484c-30.554-4.065-52.889,11.394-68.921,25.326a108.875,108.875,0,0,0-27.472,36.554,11.756,11.756,0,0,0-6.437-2.372l-.922-.151a87.084,87.084,0,0,1-9.263-2.282l-2.161-.6A97.5,97.5,0,0,1,76.137,63.02c-.846-.529-1.647-1.118-2.448-1.708L73.16,60.9a32.625,32.625,0,0,0-4.08-2.75c2.614-3.355,5.41-6.573,7.964-9.5l2.3-2.66a130.287,130.287,0,0,1,30.116-25.628c14.718-9.127,38.08-19.826,65.491-18.934,9.067.3,21.019,1.088,32.292,4.609a113.762,113.762,0,0,1,10.925,4.156c1.36.6,2.463,1.148,3.385,1.632C226.114,14.242,225.993,15.375,225.978,15.375Z" transform="translate(35.269 0.751)" fill="url(#linear-gradient)"/>
    <path id="Path_40698" data-name="Path 40698" d="M134.131,152.559a20.883,20.883,0,0,1,6.876,7.555,1.012,1.012,0,0,1-.438,1.39.922.922,0,0,1-.484.121,1.073,1.073,0,0,1-.922-.544,18.571,18.571,0,0,0-13.3-9.58,8.492,8.492,0,0,0-4.533.363,3.717,3.717,0,0,0-2.372,3.022,4.02,4.02,0,0,0,2.4,3.46,6.452,6.452,0,0,0,1.511.544h0a18.556,18.556,0,0,0,3.324.484,17.513,17.513,0,0,1,1.118,1.647c.378.589.725,1.194,1.073,1.8a17.453,17.453,0,0,0,3.778,5.032,8.9,8.9,0,0,0,10,.393,10.88,10.88,0,0,0,4.82-9.248,13.857,13.857,0,0,0-4.533-9.822,1.012,1.012,0,0,1,0-1.511,1.028,1.028,0,0,1,1.511,0,15.882,15.882,0,0,1,5.183,11.318,12.543,12.543,0,0,1-.212,2.493,12.091,12.091,0,0,1,.665-1.828c2.267-5,6.966-11.182,13.343-13.6a1.04,1.04,0,1,1,.725,1.949c-5.772,2.146-10.079,7.843-12.164,12.467a9.716,9.716,0,0,0,0,8.462,10.245,10.245,0,0,0,6.921,5.38c4.73,1.164,9.822.272,15.489-.922l8.855-1.859,2.085-.438c.287.65.589,1.3.907,1.934a21.034,21.034,0,0,0,3.43,5.395,5.138,5.138,0,0,0,4.307,1.949,4.261,4.261,0,0,0,3.022-2.644c.831-1.708.257-3.884-.3-6.044-.121-.484-.242-.952-.348-1.405a25.282,25.282,0,0,0-2.433-6.845,6.316,6.316,0,0,0-2.7-2.675,3.733,3.733,0,0,0-1.511-.332,20.868,20.868,0,0,1-13.056,4.745h-1.511a1.043,1.043,0,1,1,.166-2.07,18.345,18.345,0,0,0,10.986-2.75,20.358,20.358,0,0,0,2.539-1.874,17.726,17.726,0,0,0,3.279-3.838,18.632,18.632,0,0,0,2.01-14.552A20.732,20.732,0,0,0,184,126.991a21.019,21.019,0,0,0-14.159-2.644c-1.647.287-3.324.74-4.956,1.194-3.944,1.073-8.009,2.191-12.3,1.3a16.622,16.622,0,0,1-3.672-1.209c.121.967.2,1.934.227,2.871.121,5.591-1.738,9.444-4.972,14.2a38.019,38.019,0,0,1-10.034,9.852Z" transform="translate(60.762 63.456)" fill="#c33091"/>
    <path id="Path_40699" data-name="Path 40699" d="M125.392,72.263a15.4,15.4,0,0,0-2.75,7.359,23.361,23.361,0,0,0,.151,2.932,19,19,0,0,1,.121,3.188,5.425,5.425,0,0,1-2.388,4.533c-5.032,3.34-16.622-.181-20.1-1.345l-2.116-.71c-4.533-1.511-9.067-3.022-13.419-4.911a89.38,89.38,0,0,1-14.809-8.16c-.8-.544-1.677-1.1-2.6-1.692-1.511-.907-2.932-1.844-4.307-2.856-3.566-2.6-6.332-5.682-5.41-9.852A23.151,23.151,0,0,1,60.445,54.7c.272-.468.529-.937.786-1.405a21.474,21.474,0,0,0,1.828-5.108c.363-1.511,1.828-6.5,4.911-8.251a4.533,4.533,0,0,1,3.717-.348,19.645,19.645,0,0,1,6.044,3.551l.529.408c.831.62,1.692,1.239,2.6,1.813A99.507,99.507,0,0,0,107.622,56.79l2.131.6a84.624,84.624,0,0,0,9.5,2.327l.937.151c2.7.423,4.851.756,6.377,3.022C128.9,66.31,127.281,69.045,125.392,72.263Z" transform="translate(29.397 20.158)" fill="url(#linear-gradient-2)"/>
    <path id="Path_40700" data-name="Path 40700" d="M136.18,116.816a3.188,3.188,0,0,1,1.511-1.164,2.372,2.372,0,0,1,2.3.408,2.735,2.735,0,0,1,.121,3.521c-.121.166-.317.348-.514.287a.348.348,0,0,1-.242-.242.983.983,0,0,1,0-.589c.151-.6,0-1.511-.861-1.36a1.662,1.662,0,0,0-1.073,1.3,5.485,5.485,0,0,0,.136,1.768h0c.635,1.934,1.284,3.989,1.828,6.044a4.624,4.624,0,0,0,1.239-.982c1.677-1.889,2.4-4.715,2.221-8.643a10.427,10.427,0,0,0-.892-4.261,3.944,3.944,0,0,0-2.856-2.267c-1.964-.227-4.76,2.146-3.823,4.246C135.636,115.546,135.908,116.181,136.18,116.816Z" transform="translate(69.004 56.586)" fill="#f1c8aa"/>
    <path id="Path_40701" data-name="Path 40701" d="M299.05,187.441a1.919,1.919,0,0,0-1.511,0c-3.581,1.8-7.117,3.7-10.578,5.531-8.84,4.745-17.181,9.233-26.55,12.225a97.71,97.71,0,0,1-25.175,4.065,6.634,6.634,0,0,1-.62,2.765,6.044,6.044,0,0,1-4.533,3.793,4.531,4.531,0,0,1-.786,0,7.556,7.556,0,0,1-5.349-2.644,23.755,23.755,0,0,1-4.035-6.377l-9.293,1.964a54.859,54.859,0,0,1-11.137,1.511,22.182,22.182,0,0,1-5.289-.589,12.316,12.316,0,0,1-8.3-6.5,11.469,11.469,0,0,1-.982-7.087,12.6,12.6,0,0,1-5.274,7.208,11.122,11.122,0,0,1-5.893,1.662,10.472,10.472,0,0,1-6.513-2.176,19.342,19.342,0,0,1-4.276-5.621c-.5-.861-.982-1.708-1.511-2.493a13.267,13.267,0,0,1-4.533-1.148,7.555,7.555,0,0,1-1.995-1.511,23.129,23.129,0,0,1-2.524.136,18.844,18.844,0,0,1-3.657-.348,19.116,19.116,0,0,1-10.91-6.3,22.667,22.667,0,0,1-3.46-6.467c-.453-1.133-.876-2.191-1.39-3.234a47.7,47.7,0,0,0-3.7-5.8c-1.133-1.6-2.3-3.264-3.294-5.017a29.6,29.6,0,0,1-3.853-13.615,27.97,27.97,0,0,1,5.939-18.133,10.019,10.019,0,0,1-1.511,1.33,20.868,20.868,0,0,1-11.227,3.853h0a1.043,1.043,0,1,1,0-2.085,18.647,18.647,0,0,0,10.079-3.46,5.878,5.878,0,0,0,1.889-1.919,2.04,2.04,0,0,0,0-1.995,2.221,2.221,0,0,0-2.221-.635,8.372,8.372,0,0,0-2.176.982c-.393.227-.786.453-1.194.65s-.725.363-1.088.544a22.276,22.276,0,0,1-2.493,1.148,21.82,21.82,0,0,1-22.319-4.533,1.043,1.043,0,0,1,1.42-1.511,19.765,19.765,0,0,0,20.173,4.05,20.408,20.408,0,0,0,2.267-1.058l1.133-.559a10.922,10.922,0,0,0,1.073-.589l1-.544h0a12.708,12.708,0,0,1,.544-6.331v-.091c1.874-3.748,5.863-3.9,9.067-4.02a19.728,19.728,0,0,0,2.614-.181c3.264-.665,4.866-1.692,4.866-3.143a.786.786,0,0,1,0-.257c.393-1.511-1-3.219-2.584-4.02h0a31.99,31.99,0,0,1-14.839-25.25,19.144,19.144,0,0,1-3.128.242A48.87,48.87,0,0,1,104.8,80.969l-2.161-.62c-4.533-1.511-9.172-3.022-13.6-4.987a90.666,90.666,0,0,1-15.111-8.341c-.771-.529-1.632-1.073-2.554-1.647-1.254-.786-2.614-1.647-3.929-2.6a23.2,23.2,0,0,1-4.533-4.156,150.611,150.611,0,0,0-13.449,87.795,128.248,128.248,0,0,0,9.822,33.592,104.4,104.4,0,0,0,7.963,14.4c1.511,2.267,3.173,4.367,4.73,6.573a69.512,69.512,0,0,0,5.319,7.012l2.131,2.3a217.228,217.228,0,0,0,17.514,16.622l10.865,7.752a82.22,82.22,0,0,0,15.685,7.979,123.914,123.914,0,0,0,16.97,5.757c5.561,1.511,10.955,3.279,16.622,4.382,5.41,1.058,10.85,1.8,16.32,2.478a134.993,134.993,0,0,0,20.082,0c10.321-.529,20.294-3.143,29.95-5.682,2.07-.786,4.307-1.511,6.467-2.342s4.4-1.511,6.467-2.312a148.3,148.3,0,0,0,43.822-29.451c6.407-6.044,11.076-12.708,16.018-19.841,1-1.511,2.01-2.916,3.022-4.4a8.07,8.07,0,0,0,.393-3.022,1.269,1.269,0,0,0-.574-.771ZM92.845,96.186a.589.589,0,0,1-.529,0,.53.53,0,0,1,0-.121.514.514,0,0,1,0-.393c.181-.3.484-.423.756-.635a4.534,4.534,0,0,0,.831-.786,4.942,4.942,0,0,0,1.028-2.116V91.4a9.281,9.281,0,0,1-.892-.378h-.166a6.044,6.044,0,0,1-4.911,3.022.559.559,0,0,1-.5-.2.242.242,0,0,1,0-.136.468.468,0,0,1,.151-.378,2.342,2.342,0,0,1,.907-.393,4.775,4.775,0,0,0,1.043-.514,5.38,5.38,0,0,0,1.647-1.708,2.689,2.689,0,0,0,.181-.363v-.091c-.408-.257-.831-.529-1.239-.831a6.543,6.543,0,0,1-6.044,1.36.6.6,0,0,1-.453-.393.212.212,0,0,1,0-.136.574.574,0,0,1,.287-.332,2.569,2.569,0,0,1,1.073-.091,6.951,6.951,0,0,0,1.36-.272,5.878,5.878,0,0,0,2.282-1.179l.272-.257a4.533,4.533,0,0,1-1.511-2.78c-.227-3.279,4.4,1.345,4.956,1.723a17.8,17.8,0,0,0,9.323,3.143,12.936,12.936,0,0,0,3.324-.332c.62-.151,2.252-1.133,2.856-.937,1.511.468-.7,1.98-1.209,2.252a15.776,15.776,0,0,1-11.076.725,5.924,5.924,0,0,1-3.748,4.261Z" transform="translate(24.408 30.009)" fill="url(#linear-gradient-3)"/>
    <path id="Path_40702" data-name="Path 40702" d="M113.62,186.68h0" transform="translate(58.033 95.46)" fill="none" stroke="#5f173d" stroke-linecap="round" stroke-linejoin="round" stroke-width="0"/>
    <path id="Path_40703" data-name="Path 40703" d="M115,186h0" transform="translate(58.738 95.113)" fill="none" stroke="#5f173d" stroke-linecap="round" stroke-linejoin="round" stroke-width="0"/>
    <path id="Path_40704" data-name="Path 40704" d="M172.4,255.23a53.953,53.953,0,0,0,10.351.453c2.886-.181,5.878.544,8.7-.181.559-.136,1.179-.408,1.3-.967.2-.861-.952-1.375-1.828-1.511-4.82-.786-9.535-1.012-14.34-1.511-4.428-.484-7.646-2.614-11.424-4.639s-8.069-1.164-12.361-1.36a19.115,19.115,0,0,1-10.8-4.02c-3.022-2.327-4.276-4.987-8.145-6.044-3.128-.861-6.483-.332-9.731-.665a18.134,18.134,0,0,1-8.734-3.445c-2.8-2.055-3.838-4.745-6.044-7.223-1.738-2.04-4.79-3.173-6.951-4.805a42.494,42.494,0,0,1-7.208-6.77,129.26,129.26,0,0,1-7.948-11.2,39.379,39.379,0,0,1-5.818-13.978,15.111,15.111,0,0,0-1.405-4.73c-1.148-1.964-3.249-3.143-4.866-4.745a16.169,16.169,0,0,1-4.276-10.079c-.484-5.47,2.131-11.741,0-16.955-1.511-3.536-4.125-6.467-5.531-10.064s-.62-6.83-.952-10.457c-.408-4.322-.514-7.283,1.436-11.379s4.292-7.888,4.02-12.225c-.181-2.811-1.511-5.5-1.511-8.326.136-3.838,2.8-7.027,4.79-10.306a13.011,13.011,0,0,0,2.01-8.689,19.1,19.1,0,0,1,.907-7.9c2.327-8.659-12.391-14.28-17.317-6.709a16.26,16.26,0,0,0-1.844,5.138,244.466,244.466,0,0,0-4.73,89.865c2.735,20.43,16.29,36.78,28.711,53.251a87.644,87.644,0,0,0,33.834,26.429,116.149,116.149,0,0,0,15.292,5.742c6.724,2.01,12.376,5.667,19.508,5.531,3.612,0,7.253,1.375,10.744,2.191A117.742,117.742,0,0,0,172.4,255.23Z" transform="translate(25.517 31.353)" fill="rgba(255,255,255,0.25)" opacity="0.68"/>
    <path id="Path_40705" data-name="Path 40705" d="M57.038,157.789c2.675,18.8,11.227,36.569,22.349,52.45l-2.131-2.3a69.513,69.513,0,0,1-5.319-7.011c-1.511-2.206-3.234-4.307-4.73-6.573a104.4,104.4,0,0,1-7.964-14.4,128.246,128.246,0,0,1-9.822-33.592A150.611,150.611,0,0,1,62.871,58.57,23.2,23.2,0,0,0,67.4,62.726a1.68,1.68,0,0,1-.151.438c-.544,1.6-1.058,3.219-1.511,4.836C57.34,98.962,52.474,125.9,57.038,157.789Z" transform="translate(24.387 29.983)" fill="#fff" opacity="0.33"/>
    <path id="Path_40706" data-name="Path 40706" d="M61.757,90.5c1.179,2.9,3.687,3.748,6.77,5.455,2.161,1.209,4.322,3.279,6.74,2.7C87.445,95.79,85.209,73.38,92.009,65.417c2.69-3.143,6.18-5.455,9.278-8.19,4.73-4.216,5.168-11.031,9.384-15.564,3.9-4.2,8.009-9.067,13.6-10.91,3.612-1.194,7.556-1.315,11.091-2.66,5.44-2.04,8.613-6.407,12.361-10.578a20.974,20.974,0,0,1,14.325-6.422c4.186-.3,7.8-2.176,11.771-3.264,4.987-1.36,9.9-2.75,14.854-4.428A27.047,27.047,0,0,0,184.76,1.21a18.133,18.133,0,0,0-4.171.62c-3.838.544-7.707.846-11.53,1.511a162.715,162.715,0,0,0-64.977,25.9A112.411,112.411,0,0,0,65.852,73.063c-2.07,4.292-5.757,8.024-5.213,13.116A15.927,15.927,0,0,0,61.757,90.5Z" transform="translate(30.926 0.667)" fill="url(#linear-gradient-4)"/>
    <path id="Path_40707" data-name="Path 40707" d="M77.853,43.13l.529.408-.287.393A109.9,109.9,0,0,0,63.18,70.571c-3.566-2.6-6.332-5.682-5.41-9.852a23.15,23.15,0,0,1,2.675-6.044c.272-.468.529-.937.786-1.405a21.472,21.472,0,0,0,1.828-5.108c.363-1.511,1.828-6.5,4.911-8.251a4.533,4.533,0,0,1,3.717-.348,19.644,19.644,0,0,1,6.165,3.566Z" transform="translate(29.397 20.143)" fill="url(#linear-gradient-5)"/>
    <path id="Path_40708" data-name="Path 40708" d="M221.58,11.824l-.937-.272c-15.323-4.4-30.162-7.1-47.418-5.682A135.017,135.017,0,0,0,111.633,26.5,154.132,154.132,0,0,0,73.689,61.252l-.529-.408a32.626,32.626,0,0,0-4.08-2.75c2.614-3.355,5.41-6.573,7.964-9.5l2.3-2.66a130.287,130.287,0,0,1,30.116-25.568c14.718-9.127,38.08-19.826,65.491-18.934,9.067.3,21.019,1.088,32.292,4.609a113.762,113.762,0,0,1,10.925,4.156C219.525,10.8,220.628,11.386,221.58,11.824Z" transform="translate(35.269 0.751)" fill="url(#linear-gradient-6)"/>
    <path id="Path_40709" data-name="Path 40709" d="M208.586,9.015c-6.044-1.8-13.464-1.164-19.1-2.025s-13.6-2.372-18.979.453c-2.025,1.058-4.1,2.4-6.135,3.324-2.508,1.133-5.38.771-8.084,1.028-5.833.544-9.293,5.485-13.388,9.142A38.881,38.881,0,0,1,132.8,27.45c-3.249,1.511-7.042,1.692-10.155,3.219-7.4,3.642-13.993,5.289-18.133,13.147-2.282,4.352-4.08,9.218-7.9,12.315-4.08,3.324-11.862,6.044-9.686,13.026,1.511,4.987,8.311,4,12.451,4.911,2.04.453,4.1.6,6.044,1.164s4.2,1.949,6.5,1.284c3.249-.937,4.533-5.5,5.939-8.22a62.847,62.847,0,0,1,8.1-12.089c3.022-3.566,5.576-7.555,8.689-11.122a89.518,89.518,0,0,1,32.277-23.422,73.757,73.757,0,0,1,29.587-5.954c2.342,0,4.684.574,7.027.786l7.963.725a8.387,8.387,0,0,0,3.022-.091c3.188-.907,1.511-3.521-.106-5.047a15.337,15.337,0,0,0-5.833-3.068Z" transform="translate(44.198 3.016)" fill="url(#linear-gradient-7)"/>
    <path id="Path_40710" data-name="Path 40710" d="M230.243,201.339c-2.116-.393-7.132,0-8.915,1.42a10.426,10.426,0,0,0-2.236,2.871,5.818,5.818,0,0,1-2.4,2.433c-2.4,1.194-5.863.7-6.709-2.085a4.715,4.715,0,0,1-.2-1.043,12.723,12.723,0,0,1-2.131-2.886c-.317-.574-.408-.937-.876-1.179l-1.813-.332a31.4,31.4,0,0,0-5.5.952c-5.228,1.012-12.814,3.355-18.133.635a8.13,8.13,0,0,1-4.412-1.33,5.349,5.349,0,0,1-2.8-2.524,23.106,23.106,0,0,1-1.36-4.533c-.589-1.269-1.148-2.554-1.753-3.823l-.5-.227c-1.511,1.9-3.188,3.748-4.609,5.772-1.783,2.524-6.543,2.539-9.067,1.828a7.329,7.329,0,0,1-3.491-1.889,2.916,2.916,0,0,1-.892-2.493c-.257-.317-.65-.846-.71-.937a6.845,6.845,0,0,1-1.632-3.808h-1.179a10.321,10.321,0,0,1-5.108-1.33,16.32,16.32,0,0,1-6.785-1.194c-.907-.363-1.768-.831-2.644-1.269-.287-.166-1.315-.62-.952-.484a24.587,24.587,0,0,1-3.748-1.511,21.473,21.473,0,0,1-6.044-6.407,21.156,21.156,0,0,1-3.491-6.936,5.032,5.032,0,0,1-1.949-1.39c-4.125-5.123-9.459-12.467-8.961-19.4s.3-13.494,3.9-19.75c.922-1.6,2.342-4.684.6-6.165-1.133-.952-3.188-.106-4.231-1.194-2.539-2.66,2.3-9.641,4.866-10.85s5.682-1.511,6.664-3.944c1.179-2.932-1.949-5.576-4.261-7.707-5.138-4.669-7.767-11.62-8.3-18.541,0-.756-.091-1.511-.106-2.282a12.463,12.463,0,0,1-1.511.423,12.753,12.753,0,0,1-4.08-.121,57.42,57.42,0,0,1-14.174-3.687c-2.191-.892-4.352-1.753-6.588-2.508-1.088-.363-2.176-.725-3.249-1.133-.589-.227-1.164-.453-1.738-.71a9.892,9.892,0,0,1-1.315-.65,5.668,5.668,0,0,0-.65,1.859,7.148,7.148,0,0,0,1.949,5.7,23.271,23.271,0,0,0,11.545,7.057c2.554.71,6.936,1.511,8.417,3.974s.65,6.6.725,9.354c.121,4.246,1.36,10.88-.468,14.627a10.019,10.019,0,0,1-9.293,5.5c-2.614-.121-5.3-1.3-7.782-.408-3.808,1.36-4.443,6.83-2.478,10.366s5.546,5.8,8.477,8.583c11.877,11.243,7.027,24.4,10.578,38.594,2.025,8.084,6.8,15.882,14.28,19.554,6.815,3.324,15.474,3.158,20.883,8.492,4.745,4.684,5.712,12.572,11.2,16.35,9.067,6.256,18.405-2.4,27.4-.332a30,30,0,0,1,8.447,4.186,16.139,16.139,0,0,0,8.84,2.932c3.324-.181,6.271-2.146,8.855-4.261,5.47-4.533,9.2-6.634,16.184-6.558,7.374.076,13.963-.7,19.327-6.452a5.38,5.38,0,0,0,1.753-3.43,4.2,4.2,0,0,0-3.672-3.763Z" transform="translate(38.317 35.529)" fill="rgba(255,255,255,0.27)" opacity="0.31"/>
    <path id="Path_40711" data-name="Path 40711" d="M79.2,80.168c1.133.378,2.3.725,3.445,1.058,2.131.635,4.186,1.39,6.271,2.206a54.986,54.986,0,0,0,6.407,1.949,56.347,56.347,0,0,0,7.253,1.39,11.7,11.7,0,0,0,3.158.242,15.881,15.881,0,0,0,2.206-.6,65.492,65.492,0,0,1,2.916-16.622c1.405-4.881,2.932-9.747,4.669-14.522-.771-.227-1.511-.484-2.3-.7a27.608,27.608,0,0,0-3.143-.65c-2.116-.332-4.231-.725-6.316-1.179A66.4,66.4,0,0,1,91.681,49.1a9.3,9.3,0,0,1-.8,2.01c-1.511,2.7-4.11,4.035-5.863,6.407A13.011,13.011,0,0,0,82.8,62.231c-.861,3.536-.257,7.556-2.025,10.668-1.224,2.221-3.476,3.868-4.881,5.893A35.441,35.441,0,0,0,79.2,80.168Z" transform="translate(38.749 25.143)" fill="url(#linear-gradient-2)"/>
    <path id="Path_40712" data-name="Path 40712" d="M184.724,17.817a5.667,5.667,0,0,1-2.856,4.881,6.044,6.044,0,0,1-6.528-.272,5.954,5.954,0,0,1-2.221-6.044,5.531,5.531,0,0,1,3.022-3.687,6.044,6.044,0,0,1,2.569-.574,6.362,6.362,0,0,1,2.66.589,5.727,5.727,0,0,1,3.34,4.533A4.9,4.9,0,0,1,184.724,17.817Z" transform="translate(88.37 6.243)" fill="url(#linear-gradient)"/>
    <path id="Path_40713" data-name="Path 40713" d="M174.015,17.257c.151-.559.529-.922,1.315-.423s1.33,1.209,2.116,1.647a3.551,3.551,0,0,0,2.916.408,4.956,4.956,0,0,0,2.433-1.617,4.067,4.067,0,0,1,.665-.771.922.922,0,0,1,.952-.181.846.846,0,0,1,.438.574,1.512,1.512,0,0,1,0,.74,6.286,6.286,0,0,1-4.05,4.533,4.654,4.654,0,0,1-5.047-.71,5.289,5.289,0,0,1-1.738-3.158,3.023,3.023,0,0,1,0-1.043Z" transform="translate(88.878 8.358)" fill="url(#linear-gradient)"/>
    <path id="Path_40714" data-name="Path 40714" d="M183.072,19.846a4.654,4.654,0,0,1-6.724,1.043,8.916,8.916,0,0,1-1.874-2.614c-.332-.635,0-1.874.65-.892s1.269,2.221,2.7,2.539a4.246,4.246,0,0,0,2.886-.378,2.81,2.81,0,0,0,1-.831c.332-.438.8-.756,1.133-1.194a2.872,2.872,0,0,1,.589-.62.741.741,0,0,1,.8,0,.892.892,0,0,1,.181.952A5.228,5.228,0,0,1,183.072,19.846Z" transform="translate(89.069 8.625)" fill="#fff" opacity="0.49"/>
    <path id="Path_40715" data-name="Path 40715" d="M174.33,21.55a4.033,4.033,0,0,0-.181-1.028A4.624,4.624,0,0,1,174.6,17.2a4.261,4.261,0,0,1,5.787-1.647,6.92,6.92,0,0,1,1.315,1.073,2.232,2.232,0,0,0,1.511.74,1.028,1.028,0,0,0,.816-.967,2.327,2.327,0,0,0-.393-1.284,6.256,6.256,0,0,0-3.022-2.614,3.959,3.959,0,0,0-4.624-.151,6.558,6.558,0,0,0-3.309,4.08,5.41,5.41,0,0,0,.74,4.276c.151.227.5,1.511.907,1.088A.317.317,0,0,0,174.33,21.55Z" transform="translate(88.14 6.015)" fill="url(#linear-gradient)"/>
    <path id="Path_40716" data-name="Path 40716" d="M176.52,14.783a6.362,6.362,0,0,1,5.606.227,1.088,1.088,0,0,0,.453.2.423.423,0,0,0,.438-.151.635.635,0,0,0-.121-.62,5.138,5.138,0,0,0-3.445-2.327,6.044,6.044,0,0,0-7.072,4.684,5.063,5.063,0,0,0,.272,3.4,5.593,5.593,0,0,0,.756,1.118,2.448,2.448,0,0,0,.589.423,1.584,1.584,0,0,1,.62.212,5.606,5.606,0,0,1-.846-4.246,4.533,4.533,0,0,1,2.75-2.916Z" transform="translate(87.975 6.179)" fill="#fff" opacity="0.49"/>
    <path id="Path_40717" data-name="Path 40717" d="M187.126,17.568a7.465,7.465,0,0,0-4.412-5.924,7.979,7.979,0,0,0-6.77,0,7.3,7.3,0,0,0-3.989,4.881,7.692,7.692,0,0,0,2.9,8.009,7.782,7.782,0,0,0,4.533,1.436,7.888,7.888,0,0,0,3.989-1.058c.3-.2.6-.393.892-.62A7.389,7.389,0,0,0,187.126,17.568ZM183.2,22.857a5.591,5.591,0,0,1-.7.468,6.044,6.044,0,0,1-6.528-.272,5.954,5.954,0,0,1-2.221-6.044,5.531,5.531,0,0,1,3.022-3.687,6.044,6.044,0,0,1,2.569-.574,6.362,6.362,0,0,1,2.66.589,5.727,5.727,0,0,1,3.34,4.533,4.9,4.9,0,0,1,0,.665,5.591,5.591,0,0,1-2.146,4.322Z" transform="translate(87.735 5.615)" fill="#34323f"/>
    <path id="Path_40718" data-name="Path 40718" d="M164.306,197.205c6.135-1.3,12.27-2.9,17.544-6.362,6.044-3.944,11.016-8.628,18.254-10.411,3.642-.892,7.556-1.058,10.819-2.932,2.1-1.209,3.173-3.34,5.047-4.669a17.906,17.906,0,0,0,4.533-3.747c2.478-3.219,4.2-7.4,7.918-9.475a26.507,26.507,0,0,1,5.364-1.859,11.061,11.061,0,0,0,4.337-2.629,74.375,74.375,0,0,0,8.78-8.81c.378-.468,1.012-.967,1.511-.635s.317.907.166,1.375c-.725,2.085-2.267,3.355-3.415,5.123-1.345,2.055-2.75,4.065-4.261,6.044a120.9,120.9,0,0,1-10.442,11.8,127.449,127.449,0,0,1-16.819,14.96A52.889,52.889,0,0,1,192.9,193.9c-10.442,1.859-20.6,6.966-30.947,9.883-3.536,1-8.477,2.085-11.8-.212-2.493-1.723-2.584-3.415.166-5.017C154.272,196.162,159.954,198.142,164.306,197.205Z" transform="translate(75.739 74.448)" fill="url(#linear-gradient-3)"/>
    <path id="Path_40719" data-name="Path 40719" d="M168.588,182.382c1.511-.5,3.022-1.209,4.533-1.617.876-.892,1.753-1.8,2.614-2.7-1.753.484-3.46,1.043-5.244,1.708-5.334,1.949-10.925,3.627-16.622,3.249-2.01-.136-2.01,3.022,0,3.128a14.022,14.022,0,0,0,4.533-.121c1.42-.393,2.811-1.148,4.246-1.632C164.4,184.392,166.926,182.941,168.588,182.382Z" transform="translate(77.834 91.055)" fill="url(#linear-gradient-3)"/>
    <path id="Path_40720" data-name="Path 40720" d="M208.323,169.9a99.806,99.806,0,0,1,5.032-8.825,81.6,81.6,0,0,0-7.3,6.241c-2.025,2.131-4.08,5.062-7.057,5.939-1.844.544-3.657.317-5.334,1.36s-3.022,2.932-5.108,3.627c-1.753.6-3.687.227-5.531.468a10.442,10.442,0,0,0-6.3,3.642,12.179,12.179,0,0,1-6.241,3.7c-.937,1-1.859,1.995-2.8,3.022a8.583,8.583,0,0,0,1.9-.408c1.405-.484,2.841-.922,4.246-1.405,2.07-.74,3.959-1.919,6.044-2.69,3.476-1.284,7.163-1.043,10.291-3.385a31.235,31.235,0,0,1,2.66-2.055,5.561,5.561,0,0,1,3.022-.574,6.044,6.044,0,0,0,3.022-1.179c2.025-1.269,3.778-2.916,5.742-4.292a26.812,26.812,0,0,0,3.7-3.188Z" transform="translate(85.668 82.376)" fill="url(#linear-gradient-3)"/>
    <path id="Path_40721" data-name="Path 40721" d="M204,158.654a8.583,8.583,0,0,0-2.221,2.675c.3.151.544.393.438.529a57.221,57.221,0,0,0-5.092,7.9,6.851,6.851,0,0,1,.756-.544c3.6-2.267,4.533-6.558,7.964-9.067a45.659,45.659,0,0,0,4.533-3.672c.544-.5,1.239-.922,1.738-1.405s.544-1.36.937-1.783C210.539,156.01,206.821,156.63,204,158.654Z" transform="translate(100.71 78.395)" fill="url(#linear-gradient-3)"/>
    <path id="Path_40722" data-name="Path 40722" d="M194.09,164.358a8.3,8.3,0,0,1,2.1-.3c2.206,0,4.443,1.012,6.573.453a11.5,11.5,0,0,0,4.292-3.022,22.289,22.289,0,0,1,5.274-2.614c2.191-1.028,4.412-1.889,6.528-3.022a57.423,57.423,0,0,0,11.666-8.432,3.158,3.158,0,0,0,1.345-2.433,2.221,2.221,0,0,0-2.69-1.511,6.422,6.422,0,0,0-2.267,1.254,11.752,11.752,0,0,1-2.055,1,38.871,38.871,0,0,0-5.092,2.811,115.58,115.58,0,0,1-19.387,9.58c-6.634,2.539-14.174,3.022-20.6,5.924a7.027,7.027,0,0,0,5.712,3.188,14.628,14.628,0,0,0,5.334-1.6A19.84,19.84,0,0,1,194.09,164.358Z" transform="translate(91.847 73.341)" fill="url(#linear-gradient-3)"/>
    <path id="Path_40723" data-name="Path 40723" d="M232.145,145.218c-10.17,8.417-22.923,15.7-35.994,18.133a60.93,60.93,0,0,1-9.792.982c-2.765,0-5.969-.65-8.628-.393,18.6-1.828,34.937-12.5,51.846-20.475a3.778,3.778,0,0,1,2.07-.514,1.317,1.317,0,0,1,1.179,1.511A1.813,1.813,0,0,1,232.145,145.218Z" transform="translate(90.8 73.109)" fill="#fff" opacity="0.28"/>
    <path id="Path_40732" data-name="Path 40732" d="M99.171,93.955c.348,3.6-3.022,6.407-4.639,9.308a26.021,26.021,0,0,0-3.113,10.578,5.092,5.092,0,0,0,.982,4.05,3.536,3.536,0,0,0,4.125.393c2.116-1.148,2.357-3.324,2.508-5.47a8.356,8.356,0,0,1,3.34-6.165c1.692-.982,3.884-.544,5.727-.62a28.712,28.712,0,0,0,6.422-.529c.892-.227,1.9-.7,2.055-1.6a2.191,2.191,0,0,0-.892-1.874c-1.677-1.511-4.08-1.919-5.727-3.491a54.657,54.657,0,0,1-6.165-7.555,19.07,19.07,0,0,1-3.9-8.084c-.242-1.753-.559-7.767-3.657-6.906-3.43.952-.363,8.553.363,10.578C97.554,89.029,98.929,91.25,99.171,93.955Z" transform="translate(46.642 38.843)" fill="rgba(255,255,255,0.34)"/>
    <path id="Path_40733" data-name="Path 40733" d="M113.023,59.1c0-2.69-4.533-3.022-6.286-3.627-3.37-1.028-6.74-1.934-10.215-2.735-1.828-.408-4.307-.544-5.2,1.511-.468,1.133-.106,2.539-.74,3.6s-1.859,1.3-2.765,2.025a4.971,4.971,0,0,0-1.647,3.491c-.121,1.511.6,3.022,0,4.533-.453,1.118-1.617,1.783-2.4,2.629a5.848,5.848,0,0,0-.831,6.634c1.587,2.856,4.7,2.75,7.465,3.46,3.476.876,6.876,2.508,10.487,2.7a6.8,6.8,0,0,0,5.742-2.252c3.022-3.732.166-9.339,2.055-13.6.892-1.964,2.584-3.476,3.551-5.395a5.8,5.8,0,0,0,.786-2.977Z" transform="translate(43.94 24.805)" fill="url(#linear-gradient-2)"/>
    <path id="Path_40734" data-name="Path 40734" d="M143,27.418c3.732-2.932,7.707-5.636,11.454-8.568a5.41,5.41,0,0,0,1.345-1.345,1.783,1.783,0,0,0,.091-1.8c-.468-.74-10.139,3.9-11.5,4.261a24.525,24.525,0,0,0-10.88,5.289c-2.236,2.146-3.748,5-6.165,6.921-3.9,3.022-9.5,3.279-13.328,6.452-3.264,2.72-4.533,7.057-6.543,10.819-2.75,5.3-7.072,7.163-12.678,8.009a10.578,10.578,0,0,0-4.307,1.315,3.43,3.43,0,0,0-1.511,3.9A3.37,3.37,0,0,0,91.3,64.546c4.533,1.194,11.107,4.745,15.942,3.717,2.252-.468,3.022-1.949,4.11-3.732s2.357-3.687,3.6-5.41c2.312-3.188,4.337-6.619,6.649-9.837a107.994,107.994,0,0,1,10.487-12.542c1.511-1.617,3.37-2.644,4.987-4.156A64.772,64.772,0,0,1,143,27.418Z" transform="translate(45.367 8.035)" fill="#fff" opacity="0.24"/>
    <path id="Path_40735" data-name="Path 40735" d="M161.541,10.45a1.42,1.42,0,0,0,.393-.212.665.665,0,0,0,.2-.892c-.2-.257-.589-.242-.907-.212-2.811.272-5.621.529-8.417,1-2.1.363-4.156-.287-6.256.393-1.753.574-3.022,1.949-4.73,2.629s-3.627,1.164-5.395,1.859c-.771.287-1.662.861-1.511,1.677a1.345,1.345,0,0,0,1.511,1.012c2.146-.151,4.624-1.511,6.664-2.131q4.11-1.36,8.251-2.493c2.236-.62,4.533-1.194,6.74-1.738.982-.242,1.995-.574,3.022-.771A3.522,3.522,0,0,0,161.541,10.45Z" transform="translate(68.909 4.709)" fill="#fff" opacity="0.3"/>
    <path id="Path_40736" data-name="Path 40736" d="M156,8.809a1.753,1.753,0,0,0-.68.181.6.6,0,0,0-.348.574c.076.423.6.514,1.028.529h7.329a.514.514,0,0,0,.332-.076.348.348,0,0,0-.106-.544,1.012,1.012,0,0,0-.635-.091,11.53,11.53,0,0,1-3.294-.212c-1.3-.332-3.506-1.058-4.533.227" transform="translate(79.167 4.477)" fill="#fff" opacity="0.3"/>
    <path id="Path_40737" data-name="Path 40737" d="M74.765,111.257a3.023,3.023,0,0,1-.257.348,19.639,19.639,0,0,1-1.723,2.252,7.1,7.1,0,0,1-6.513,1.511,6.377,6.377,0,0,1-4.972-6.876c.076-1.36.68-2.675,2.282-2.357,1.179.212,1.36,1.3,2.146,1.964a2.826,2.826,0,0,0,3.581.378c1.179-.846,1.42-2.236,2.176-3.355a2.191,2.191,0,0,1,3.294,0,3.929,3.929,0,0,1,1.058,3.385,6.316,6.316,0,0,1-1.073,2.75Z" transform="translate(31.276 53.395)" fill="url(#linear-gradient-3)"/>
    <path id="Path_40738" data-name="Path 40738" d="M217.92,185.968c-2.508.982-4.05,3.793-6.588,4.533a4.715,4.715,0,0,1-3.914-.892,15.608,15.608,0,0,1-2.856-3.294,6.045,6.045,0,0,0-3.823-1.738,11.363,11.363,0,0,0-5.5,1.405,19.841,19.841,0,0,1-5.364,1.36c-7.3,1.028-15.564,2.372-21.246-3.808a14.945,14.945,0,0,0-3.234-3.1c-2.282-1.33-5.395.2-7.556,1.012a10.472,10.472,0,0,1-7.994.317c-3.022-1.194-3.884-3.642-5.334-6.165a10.835,10.835,0,0,0-7.979-4.684,46.574,46.574,0,0,1-11-2.9c-2.252-.831-5.667-2.025-7.314-3.853-1.919-2.146-2.206-5.606-3.763-8.054-3.309-5.213-6.8-9.656-9.308-15.4-.091-.227-.2-.453-.287-.665a39.515,39.515,0,0,1-3.234-15.731c0-2.327,0-6.211,1.42-8.205s4.035-2.735,5.667-4.125l.151-.136a29.6,29.6,0,0,1,1.949-5.032c-1.073-1.723-3.022-.3-4.4.468a27.563,27.563,0,0,1-13.237,3.642,26.612,26.612,0,0,1-4.9-.363c-.831-.151-2.418-.952-3.234-.62-3.521,1.511,0,5.788,1.828,6.891a41.658,41.658,0,0,1,4.231,2.448c3.6,2.765,4.428,7.8,4.639,12.331s.181,9.414,2.811,13.116c1.753,2.493,4.533,4.156,6.18,6.709,1.949,3.022,2.055,6.876,3.113,10.336,3.158,10.321,16.32,11.515,23.619,17.423a25.13,25.13,0,0,1,5.485,7.329,21.156,21.156,0,0,0,5.772,7.087c3.022,2.1,6.377,1.194,9.747,1.33,4.73.2,9.2,0,13.947-.227,3.929,1.511,7.147,5,11.137,6.362a11.182,11.182,0,0,0,2.1.514,2.446,2.446,0,0,0,.5.2c4.715,1.254,7.933-1.33,11.5-4.11a27.275,27.275,0,0,1,12.6-5.274h.151c4.82-.816,9.883.348,14.582-1.209,1.511-.529,3.309-1.511,3.355-3.188C222.393,185.182,219.975,185.167,217.92,185.968Z" transform="translate(42.661 54.225)" fill="rgba(255,255,255,0.34)" opacity="0.38"/>
    <path id="Path_40739" data-name="Path 40739" d="M82.033,152.5a5.349,5.349,0,0,0,2.191,1.8,2.735,2.735,0,0,0,2.675-.332,3.385,3.385,0,0,0,.907-2.856c-.212-2.508-3.022-6.74-6.044-6.558C77.726,144.718,80.462,150.551,82.033,152.5Z" transform="translate(40.675 73.926)" fill="url(#linear-gradient-3)"/>
    <path id="Path_40740" data-name="Path 40740" d="M99.427,150.884c.181-3.929-2.221-9.716-6.5-10.578s-5.576,3.581-4.533,7.012a12.542,12.542,0,0,0,5.47,6.785,4.065,4.065,0,0,0,3.521.6,4.14,4.14,0,0,0,2.04-3.823Z" transform="translate(44.966 71.703)" fill="url(#linear-gradient-3)"/>
    <path id="Path_40741" data-name="Path 40741" d="M103.945,158.171c2.418-1.889-.121-5.531-2.025-6.558a3.475,3.475,0,0,0-2.584-.423,2.765,2.765,0,0,0-1.738,1.692,3.6,3.6,0,0,0,.091,2.448C98.429,157.2,102.011,159.682,103.945,158.171Z" transform="translate(49.756 77.277)" fill="url(#linear-gradient-3)"/>
    <path id="Path_40742" data-name="Path 40742" d="M94.64,159.011c2.433-1.889-.106-5.546-2.01-6.558a3.476,3.476,0,0,0-2.584-.423,2.7,2.7,0,0,0-1.738,1.677,3.627,3.627,0,0,0,.091,2.463C89.14,158.074,92.721,160.507,94.64,159.011Z" transform="translate(45.008 77.706)" fill="url(#linear-gradient-3)"/>
    <path id="Path_40743" data-name="Path 40743" d="M180.992,169.592a2.3,2.3,0,0,0,.907-.786,1.194,1.194,0,0,0,0-1.164,1.375,1.375,0,0,0-1.133-.589c-1.088-.106-3.022.771-3.234,2.04C177.4,170.831,180.055,170.105,180.992,169.592Z" transform="translate(90.696 85.424)" fill="url(#linear-gradient-3)"/>
    <path id="Path_40744" data-name="Path 40744" d="M176.852,169.441c-.242-1.3-2.131-1.043-2.9-.529a1.511,1.511,0,0,0-.665.907,1.179,1.179,0,0,0,.3,1,1.511,1.511,0,0,0,.952.453C175.4,171.36,177.048,170.468,176.852,169.441Z" transform="translate(88.52 86.165)" fill="url(#linear-gradient-3)"/>
    <path id="Path_40745" data-name="Path 40745" d="M178.068,166.751c0-1.027-1.511-1.194-2.116-.922a1.149,1.149,0,0,0-.68.559.907.907,0,0,0,0,.816,1.163,1.163,0,0,0,.65.514C176.6,167.945,178.023,167.658,178.068,166.751Z" transform="translate(89.494 84.744)" fill="url(#linear-gradient-3)"/>
    <path id="Path_40746" data-name="Path 40746" d="M65.307,102.271c2.418-1.889-.121-5.546-2.025-6.558a3.476,3.476,0,0,0-2.584-.423,2.644,2.644,0,0,0-1.723,1.677A3.551,3.551,0,0,0,59.1,99.43C59.792,101.3,63.373,103.767,65.307,102.271Z" transform="translate(30.02 48.706)" fill="url(#linear-gradient-3)"/>
    <path id="Path_40747" data-name="Path 40747" d="M65.426,92.227c1.844-1.511-.091-4.216-1.511-4.987a2.644,2.644,0,0,0-1.964-.317,2.025,2.025,0,0,0-1.315,1.284,2.72,2.72,0,0,0,0,1.859C61.27,91.486,63.96,93.375,65.426,92.227Z" transform="translate(30.869 44.44)" fill="url(#linear-gradient-3)"/>
    <path id="Path_40748" data-name="Path 40748" d="M69.955,97.347c1.42-1.118-.076-3.264-1.194-3.868a2.085,2.085,0,0,0-1.511-.242,1.6,1.6,0,0,0-1.012.982,2.086,2.086,0,0,0,0,1.511C66.706,96.773,68.822,98.223,69.955,97.347Z" transform="translate(33.743 47.676)" fill="url(#linear-gradient-3)"/>
    <path id="Path_40749" data-name="Path 40749" d="M66.845,62.087C70.577,63.6,73.615,58.4,73.8,55.65a3.959,3.959,0,0,0-.967-3.128,3.566,3.566,0,0,0-3.022-.831,5.425,5.425,0,0,0-3.022,1.677C64.881,55.378,63.868,60.924,66.845,62.087Z" transform="translate(33.167 26.436)" fill="#fff"/>
    <path id="Path_40750" data-name="Path 40750" d="M70.51,50.775c1.813,1.511,4.11-.982,4.533-2.629a2.916,2.916,0,0,0-.121-2.085,2.07,2.07,0,0,0-1.511-1.073,2.554,2.554,0,0,0-1.828.453C70.313,46.318,69.059,49.551,70.51,50.775Z" transform="translate(35.667 23.03)" fill="#fff"/>
    <path id="Path_40751" data-name="Path 40751" d="M74.816,41.95c1.148,1.118,3.022-.378,3.4-1.405a1.708,1.708,0,0,0,0-1.33,1.375,1.375,0,0,0-1-.771,1.934,1.934,0,0,0-1.3.181C75.027,39.109,73.894,41.058,74.816,41.95Z" transform="translate(38.025 19.676)" fill="#fff"/>
    <path id="Path_40752" data-name="Path 40752" d="M77.678,37.538c.393.423,1-.136,1.148-.529a.756.756,0,0,0,0-.514.544.544,0,0,0-.332-.3.68.68,0,0,0-.453,0C77.739,36.45,77.376,37.19,77.678,37.538Z" transform="translate(39.605 18.527)" fill="#fff"/>
    <path id="Path_40753" data-name="Path 40753" d="M87.586,160.508a2.6,2.6,0,0,0-1.133,3.022,4.624,4.624,0,0,0,1.118,1.511,5.138,5.138,0,0,0,1.511,1.088,1.965,1.965,0,0,0,1.768,0c1.3-.756.725-3.022.181-4.171a3.022,3.022,0,0,0-2.327-1.708A1.98,1.98,0,0,0,87.586,160.508Z" transform="translate(44.084 81.95)" fill="url(#linear-gradient-3)"/>
    <path id="Path_40754" data-name="Path 40754" d="M72.3,106.924a11.618,11.618,0,0,1-.257,1.617c-.922,3.143-5.485,2.78-7.314.65-.589-.7-1.647-2.312-2.69-1.511s0,2.841.589,3.657a7.1,7.1,0,0,0,7.314,3.476,6.966,6.966,0,0,0,5.38-5.334c.2-1.073.363-3.219-.468-4.035s-2.221,0-2.463.967Z" transform="translate(31.443 53.769)" fill="#fff" opacity="0.25"/>
    <path id="Path_40755" data-name="Path 40755" d="M84.672,124.95a7.072,7.072,0,0,1-2.161,2.055,5.289,5.289,0,0,1-4.926.484,5.939,5.939,0,0,1-3.022-3.868,3.506,3.506,0,0,1,.2-2.569,1.3,1.3,0,0,1,2.221,0c.861,1.058,1.511,2.765,3.2,2.675a6.664,6.664,0,0,0,2.01-.71,2.191,2.191,0,0,1,2.055,0,1.345,1.345,0,0,1,.423,1.934Z" transform="translate(37.991 61.598)" fill="url(#linear-gradient-3)"/>
    <path id="Path_40756" data-name="Path 40756" d="M80.215,124.11c1.36,0,2.07-1.284,3.324-1.511a1.088,1.088,0,0,1,.7.106c.574.378.484,1.511.242,2.07a3.022,3.022,0,0,1-1.632,1.511,6.86,6.86,0,0,1-3.521.559c-1.783-.212-4.533-1.949-4.533-4a1.39,1.39,0,0,1,.8-1.284c1.028-.393,1.269.816,1.8,1.36A4.276,4.276,0,0,0,80.215,124.11Z" transform="translate(38.187 62.136)" fill="#fff" opacity="0.25"/>
    <path id="Path_40757" data-name="Path 40757" d="M67.994,140.217a7.677,7.677,0,0,1-1.33-1.632,3.143,3.143,0,0,1-.544-1.738,1.511,1.511,0,0,1,.952-1.436c1.511-.514,2.146.967,3.173,1.662a1.511,1.511,0,0,0,1.315.242,1.6,1.6,0,0,0,.937-1.179,13.729,13.729,0,0,0,.212-1.511c.121-.725.7-1.844,1.6-1.723,1.39.181,1.768,1.768,1.964,2.886a5.757,5.757,0,0,1-.71,4.14,4.4,4.4,0,0,1-4.881,1.995A8.371,8.371,0,0,1,67.994,140.217Z" transform="translate(33.756 67.97)" fill="url(#linear-gradient-3)"/>
    <path id="Path_40758" data-name="Path 40758" d="M66.773,137.345a5.123,5.123,0,0,0,6.694,2.932,4.231,4.231,0,0,0,2.418-3.219,5.153,5.153,0,0,0-.453-2.811c-.514-1.1-1.949-1.315-2.131.227a6.331,6.331,0,0,1-.65,2.947,3.022,3.022,0,0,1-3.143.68c-.816-.348-.967-1.39-1.738-1.768a.8.8,0,0,0-1.043.272.982.982,0,0,0,.045.74Z" transform="translate(34.04 68.213)" fill="#fff" opacity="0.25"/>
    <path id="Path_40759" data-name="Path 40759" d="M105.308,171.55a7.979,7.979,0,0,0,4.73-1.738,10.321,10.321,0,0,0,3.884-6.286,2.886,2.886,0,0,0-1.209-3.022,2.6,2.6,0,0,0-2.221,0c-2.4,1.1-3.173,4.1-5.908,4.745a4.624,4.624,0,0,1-2.841-.453c-1.194-.423-3.022-1.617-4.065-.272-.816,1.012.136,2.221.725,3.128A8.266,8.266,0,0,0,105.308,171.55Z" transform="translate(49.723 81.955)" fill="url(#linear-gradient-3)"/>
    <path id="Path_40760" data-name="Path 40760" d="M105.064,165.264a4.761,4.761,0,0,1-1.511.559c-1.632.227-2.69-1.511-4.261-1.36-2.357.227.635,3.264,1.315,3.748a6.543,6.543,0,0,0,4.669,1.254,6.83,6.83,0,0,0,5.636-5.153,3.264,3.264,0,0,0,0-1.662,1.511,1.511,0,0,0-1.164-1.1c-.967-.166-1.708.8-2.3,1.511a7.873,7.873,0,0,1-2.388,2.206Z" transform="translate(50.254 82.605)" fill="#fff" opacity="0.25"/>
    <path id="Path_40761" data-name="Path 40761" d="M120.158,171.531a3.612,3.612,0,0,0,.725-3.022A2.206,2.206,0,0,0,118.6,166.8c-1.1.151-1.768,1.209-2.388,2.131a8.524,8.524,0,0,1-1.8,2.025,3.914,3.914,0,0,1-2.508.861h-1.043a1.164,1.164,0,0,0-.922.378c-.68.8,1.043,2.04,1.662,2.357a5.017,5.017,0,0,0,3.022.348,8.931,8.931,0,0,0,5.531-3.37Z" transform="translate(56.074 85.298)" fill="url(#linear-gradient-3)"/>
    <path id="Path_40762" data-name="Path 40762" d="M156.511,176.764a7.553,7.553,0,0,0,.257-1.39,6.473,6.473,0,0,0,.136-.922,1.028,1.028,0,0,0-1.768-.725,2.448,2.448,0,0,0-.725,1.345,12.874,12.874,0,0,1-.348,1.511c-.408,1.088-1.511,1.511-2.508,1.995a.786.786,0,0,0-.332.257.484.484,0,0,0,.181.589,1.058,1.058,0,0,0,.635.166,4.534,4.534,0,0,0,3.022-.952,4.776,4.776,0,0,0,.982-.831A3.355,3.355,0,0,0,156.511,176.764Z" transform="translate(77.233 88.679)" fill="url(#linear-gradient-3)"/>
    <path id="Path_40763" data-name="Path 40763" d="M115.758,173.014a5.243,5.243,0,0,0,2.826-4.186,1.239,1.239,0,0,0-.136-.816.975.975,0,0,0-1.511.136,6.376,6.376,0,0,0-.756,1.662,3.9,3.9,0,0,1-2.6,2.191,4.73,4.73,0,0,1-1.844,0c-.363,0-1.405-.106-1.133.589.136.363,1.133.7,1.511.786a6.044,6.044,0,0,0,3.642-.363Z" transform="translate(56.469 85.764)" fill="#fff" opacity="0.25"/>
    <path id="Path_40764" data-name="Path 40764" d="M154.6,177.765a1.965,1.965,0,0,0,.423-.514,3.339,3.339,0,0,0,.348-2.342.892.892,0,0,0-.2-.453c-.272-.257-.665,0-.786.3a5.105,5.105,0,0,0-.121,1.088,2.327,2.327,0,0,1-.937,1.617,7.133,7.133,0,0,1-1.164.725.294.294,0,0,0-.257.332c.045.151,1.058,0,1.3,0A3.491,3.491,0,0,0,154.6,177.765Z" transform="translate(77.6 89.159)" fill="#fff" opacity="0.25"/>
    <path id="Path_40765" data-name="Path 40765" d="M163.262,170c-.559-.937-1.844-1.708-2.388-.393a23.715,23.715,0,0,0-.438,2.554,3.732,3.732,0,0,1-1.239,1.587,6.89,6.89,0,0,0-1.511,1.42,1.8,1.8,0,0,0-.121,1.919,2.07,2.07,0,0,0,2.146.6A5.153,5.153,0,0,0,163.216,170Z" transform="translate(80.38 86.376)" fill="url(#linear-gradient-3)"/>
    <path id="Path_40766" data-name="Path 40766" d="M163.528,176.024a1.949,1.949,0,0,1-.2,1.058,4.684,4.684,0,0,1-.907.907,1.133,1.133,0,0,0-.438,1.118c.181.5.861.6,1.375.5a3.294,3.294,0,0,0,2.478-2.463,3.022,3.022,0,0,0-.982-3.022C163.528,173.274,163.422,175.253,163.528,176.024Z" transform="translate(82.743 88.935)" fill="url(#linear-gradient-3)"/>
    <path id="Path_40767" data-name="Path 40767" d="M192.874,159.457a1.113,1.113,0,0,0,0-.212,1.239,1.239,0,0,0-1-.725,1.268,1.268,0,0,0-1.148,1.073c-.151.544-.151.68-.272,1.012-.287.8-.967,1.088-1.647,1.511s-1.073.756-.725,1.42c.514,1.012,2.07.861,2.916.438a3.974,3.974,0,0,0,1.889-3.113A3.446,3.446,0,0,0,192.874,159.457Z" transform="translate(96.025 81.068)" fill="url(#linear-gradient-3)"/>
    <path id="Path_40768" data-name="Path 40768" d="M196.753,156.961a1.3,1.3,0,0,0-1.39-.453,1.043,1.043,0,0,0-.62,1.179c0,.468.438,1.028.212,1.511s-.831.5-1.179.846a1.058,1.058,0,0,0,0,1.375,1.511,1.511,0,0,0,1.375.438,3.249,3.249,0,0,0,1.36-.6,2.644,2.644,0,0,0,1.209-1.647,2.9,2.9,0,0,0-.393-1.677,3.339,3.339,0,0,0-.574-.967Z" transform="translate(98.871 80.013)" fill="url(#linear-gradient-3)"/>
    <path id="Path_40769" data-name="Path 40769" d="M160.9,173.843a3.415,3.415,0,0,0,.756-2.886.815.815,0,0,0-.2-.453c-.257-.242-.665,0-.786.3a4.291,4.291,0,0,0-.106,1.088,2.4,2.4,0,0,1-.952,1.617c-.423.348-1.028.529-1.33.982a.348.348,0,0,0,0,.348c0,.166.272.2.453.181A3.279,3.279,0,0,0,160.9,173.843Z" transform="translate(80.838 87.142)" fill="#fff" opacity="0.25"/>
    <path id="Path_40770" data-name="Path 40770" d="M164.155,177.349a3.022,3.022,0,0,0,.378-2.282.861.861,0,0,0-.166-.378c-.181-.212-.423,0-.484.212a3.34,3.34,0,0,0,0,.876,1.888,1.888,0,0,1-.544,1.254c-.257.242-.65.378-.831.71a.468.468,0,0,0,0,.287.3.3,0,0,0,.3.166,1.8,1.8,0,0,0,1.345-.846Z" transform="translate(83.008 89.287)" fill="#fff" opacity="0.25"/>
    <path id="Path_40771" data-name="Path 40771" d="M190.112,162.314a2.282,2.282,0,0,0,.786-.6,2.357,2.357,0,0,0,.423-1.028,2.539,2.539,0,0,0-.091-1.012c-.091-.317-.5-.484-.62-.106a4.532,4.532,0,0,0,0,.786,1.511,1.511,0,0,1-1.028,1.239,2.675,2.675,0,0,0-.907.3.438.438,0,0,0-.136.227.242.242,0,0,0,.166.242,1.753,1.753,0,0,0,1.405-.045Z" transform="translate(96.324 81.49)" fill="#fff" opacity="0.25"/>
    <path id="Path_40772" data-name="Path 40772" d="M196.066,157.532a.68.68,0,0,0-.484-.242.453.453,0,0,0-.408.317.891.891,0,0,0,.136.5,1.285,1.285,0,0,1,.181.74.816.816,0,0,1-.529.7,2.569,2.569,0,0,0-.876.332.438.438,0,0,0-.136.227.287.287,0,0,0,.181.242,1.723,1.723,0,0,0,1.39-.106,1.511,1.511,0,0,0,.982-1.224,2.176,2.176,0,0,0-.438-1.481Z" transform="translate(99.09 80.439)" fill="#fff" opacity="0.25"/>
    <path id="Path_40773" data-name="Path 40773" d="M139.26,151.2a6.256,6.256,0,0,0,.363,1.511,13.208,13.208,0,0,1-.363-1.511Z" transform="translate(71.138 77.326)" fill="#82bddb"/>
    <path id="Path_40774" data-name="Path 40774" d="M193.633,162.242a10.82,10.82,0,0,0-2.871-4.156c-1.133-.831-2.6-.181-3.748.287a1.36,1.36,0,0,1-1.148-.212c-.121-.076-.74-.574-.378-.725l.846-.317-.287-.2-.408.257a16.5,16.5,0,0,1-9.626,2.7c-.348,0-1.33-.3-1.315-.8,0-.242.2-.227.378-.257a12.367,12.367,0,0,1,1.98,0,13.5,13.5,0,0,0,2.448-.484,23.573,23.573,0,0,0,11.469-8.281,18.512,18.512,0,0,0,1.859-5.455c.725-4.367-.227-8.417-1-12.648-.74,3.521-.665,6.6-2.584,9.9-3.717,6.407-10.442,14.99-18.677,14.809a16.078,16.078,0,0,1-9.067-3.022,4.836,4.836,0,0,1-1.224-5.38c.559-1.239,2.524-4.367,3.868-4.82-6.226,2.116-14.491,4.156-20.566.438a69.258,69.258,0,0,1,.876,8.628,9.066,9.066,0,0,1-2.342,6.437c-4.337,4.533-9.369.242-12.527-3.355-1.9-2.176-5.108-4.79-8.145-4.684a2.69,2.69,0,0,0-1.511.408,1.511,1.511,0,0,0-.574.831l-.227.181a1.33,1.33,0,0,0,0,1.844,6.649,6.649,0,0,0,4.1,1.9,5.289,5.289,0,0,1,3.324,1.753,39.569,39.569,0,0,1,2.267,3.43,18.134,18.134,0,0,0,3.823,3.4c1.647,1.39,2.629,2.66,5.032,2.7a8.22,8.22,0,0,0,5.727-2.388,19.645,19.645,0,0,0,3.506-5.364c1.511-2.9,2.327-2.176,2.629.635a1.818,1.818,0,0,0,.121.8,8.7,8.7,0,0,1,0-1.662,17.407,17.407,0,0,1,3.022-8.009,1.043,1.043,0,0,1,.287-.287c.272-.378.574-.756.876-1.118s.62-.756.907-1.148a9.619,9.619,0,0,0,.771-1.254c.106-.2.348-.227.589-.212a7.812,7.812,0,0,1,1.405-1.662,1.3,1.3,0,0,1,1.284,0,1.224,1.224,0,0,1,.529.378c0,.106.121.317,0,.423a23.665,23.665,0,0,0-2.614,3.249.5.5,0,0,1-.348.091c-.227.3-.453.589-.7.876s-.574.665-.831,1.012a.391.391,0,0,1,0,.121,16.109,16.109,0,0,0-2.9,8.175,7.812,7.812,0,0,0,3.022,5.606,17.393,17.393,0,0,0,6.044,3.43,14.944,14.944,0,0,0,3.128.74,34.261,34.261,0,0,0,3.521.106,28.425,28.425,0,0,0,3.763,0c1.224-.166,2.826-.242,4.231-.393,1.723-.2,3.43-.438,5.153-.71,1.058-.166,3.355-1.148,4.156,0,.363.544.559,1.345.907,1.919s.952,1.3,1.39,1.98.544,1.254.952,1.813a5.153,5.153,0,0,0,5.047,2.252,4.4,4.4,0,0,0,2.629-1.995,11.12,11.12,0,0,0,.332-2.856,22.2,22.2,0,0,0-2.584-9.671Z" transform="translate(60.662 67.493)" fill="url(#linear-gradient-39)"/>
    <path id="Path_40775" data-name="Path 40775" d="M165.3,148.322a5.56,5.56,0,0,1,1.98.242,4.533,4.533,0,0,0-1.511-.514Z" transform="translate(84.447 75.717)" fill="#82bddb"/>
    <path id="Path_40776" data-name="Path 40776" d="M193.254,170.317c-1.043-2.6-1.949-5.455-4.533-6.891a7.163,7.163,0,0,0-3.309-.876,17.89,17.89,0,0,0-3.022-.529H182.3a14.779,14.779,0,0,1,4.533.106c.635.091,1.269.181,1.889.242a16.426,16.426,0,0,0-8.356-1.723c-4.836.151-9.6,1.964-14.431,2.418a11.59,11.59,0,0,1-10.079-3.34c-1.98-2.236-1.511-7.027-.907-9.747a29.405,29.405,0,0,1,4.261-9.067,21,21,0,0,1-4.231,2.614,7.178,7.178,0,0,1-4.035.287,8.1,8.1,0,0,1-4.231-1.42,8.569,8.569,0,0,0-1.42-.937c-.332-.136-1.889-.468-2.04-.725a16.29,16.29,0,0,1,1.043,12.693c-1.1,3.34-4.533,6.362-8.235,5.788a8.447,8.447,0,0,1-4.971-3.022c-1.42-1.647-2.131-4.367-3.914-5.546a14.038,14.038,0,0,0-6.332-2.267c-.65,0-1.647.287-1.194,1.118a4.125,4.125,0,0,0,1.632.8,9.626,9.626,0,0,1,6.437,4.08,22.274,22.274,0,0,0,4.533,5.334,8.13,8.13,0,0,0,2.07,1.511,8.357,8.357,0,0,0,3.551.68,7,7,0,0,0,3.128-.589l-1.118-.529a6.812,6.812,0,0,0,1.133-.408,10.336,10.336,0,0,0,5.062-5.228,9.214,9.214,0,0,0,.423-1.239,9.973,9.973,0,0,0,.514-2.282,22.26,22.26,0,0,0-.453-5.969,9.067,9.067,0,0,1,1.194,3.687l.725,4.836c1.028-1.511,2.07-3.022,3.143-4.533-.076.151-.151.287-.212.438a12.98,12.98,0,0,0,.453,11.469,12.527,12.527,0,0,0,8.795,5.274,23.981,23.981,0,0,0,11.167-1.118l.861-.3a.71.71,0,0,0,.771,0,15.4,15.4,0,0,1,8.371-1.98,14.72,14.72,0,0,1,2.8.423c.393.62.71,1.375,1.043,1.889s.937,1.345,1.405,2.04a2.024,2.024,0,0,1,.106.272,10.575,10.575,0,0,0,.982,1.934l.136.166a4.534,4.534,0,0,0,1.269,1.511,1.949,1.949,0,0,0,1.36.937A1.776,1.776,0,0,0,193.254,170.317Z" transform="translate(61.056 71.975)" fill="url(#linear-gradient-40)"/>
    <path id="Path_40777" data-name="Path 40777" d="M185.815,141.357a17.484,17.484,0,0,0-4.216-9.943,22.455,22.455,0,0,0-8.689-6.437,18.013,18.013,0,0,0-3.158-.937c-9.777-1.828-19.644,3.612-29.21.65-2.886-.892-4.11,3.627-1.239,4.533,8.326,2.569,16.441-.725,24.812-.907h1.919a3.718,3.718,0,0,0-.861.68,5.516,5.516,0,0,0-1.511,3.491l.166,1.315a4.941,4.941,0,0,0,1.269,2.176l1.012.786a4.972,4.972,0,0,0,2.493.665h.438a3.6,3.6,0,0,0,1.9-.423,4.412,4.412,0,0,0,2.614-2.614,3.6,3.6,0,0,0,.423-1.9l-.166-1.315a1.729,1.729,0,0,0-.2-.574,15.02,15.02,0,0,1,1.692,1.315c4.035,3.717,7.253,7.9,7.389,13.6a23.165,23.165,0,0,1-5.228,15.262,46.18,46.18,0,0,0,5.047-6.044,24.509,24.509,0,0,0,2.916-7.767,19.887,19.887,0,0,0,.378-5.606Z" transform="translate(70.324 63.248)" fill="#c33091"/>
    <path id="Path_40778" data-name="Path 40778" d="M101.325,110.3a32.641,32.641,0,0,0-3.415,6.664,36.837,36.837,0,0,1,2.9-4.1,21.049,21.049,0,0,1,.514-2.569Z" transform="translate(50.004 56.422)" fill="#fff"/>
    <path id="Path_40779" data-name="Path 40779" d="M158.844,115.713a4.156,4.156,0,0,0-4.533-.151c-.876.529-1.39,1.632-2.418,1.9s-2.372-.68-3.1-1.511c-1.617-1.995-2.418-4.533-4.125-6.528a27.2,27.2,0,0,0-13.887-8.341c-5.757-1.511-11.484,0-16.622,2.342a32.593,32.593,0,0,0-6.936,3.974,26.643,26.643,0,0,0-3.022,2.735,32.825,32.825,0,0,1-2.372,3.022c2.765-2.267,6.044-5.047,9.475-6.226a33.7,33.7,0,0,1,15.277-1.859,24.933,24.933,0,0,1,9.187,3.022,6.513,6.513,0,0,0,.317,7.555,6.619,6.619,0,0,0,6.906,2.131,2.222,2.222,0,0,0,.952-.514c.121-.106,5.712,10.034,6.18,11.107a35.631,35.631,0,0,1,3.188,12.89,24.54,24.54,0,0,1-3.566,14.219,23.2,23.2,0,0,0,6.573-14.476c.2-2.7,0-5.561.937-8.069a.922.922,0,0,1-.393-.121h-.2c-.3,0-.816,0-.846-.438-.091-1.043-.348-2.085-.438-3.128a52.419,52.419,0,0,0-4.02-8.9,2.494,2.494,0,0,0,.212-.892c0,.423,2.372-1.723,2.463-1.783a2.675,2.675,0,0,1,2.387-.408,3.581,3.581,0,0,1,1.708,1.98,15.111,15.111,0,0,1,.982,9.429C159.977,125.081,162.622,118.6,158.844,115.713Z" transform="translate(52.007 51.403)" fill="#f1c8aa"/>
    <path id="Path_40780" data-name="Path 40780" d="M124.122,107.583a2.3,2.3,0,0,0-.6-1.028l-.468-.363a2.312,2.312,0,0,0-1.179-.332h-.227a1.859,1.859,0,0,0-.907.212,1.753,1.753,0,0,0-.756.484,1.677,1.677,0,0,0-.484.756,1.647,1.647,0,0,0-.2.892v.635a2.448,2.448,0,0,0,.6,1.028l.484.363a2.3,2.3,0,0,0,1.179.317h.3a1.647,1.647,0,0,0,.892-.2A2.085,2.085,0,0,0,124,109.109a1.829,1.829,0,0,0,.212-.907Z" transform="translate(60.935 54.153)" fill="#fff" opacity="0.41"/>
    <path id="Path_40781" data-name="Path 40781" d="M117.433,104.84a1.043,1.043,0,1,0,1.043,1.043,1.043,1.043,0,0,0-1.043-1.043Z" transform="translate(59.449 53.632)" fill="#fff" opacity="0.41"/>
    <path id="Path_40782" data-name="Path 40782" d="M164.653,132.592a1.134,1.134,0,0,0-.272-.423.967.967,0,0,0-.423-.272.937.937,0,0,0-.5-.106h-.348a1.3,1.3,0,0,0-.574.332l-.2.257a1.3,1.3,0,0,0-.181.665v.166a1.088,1.088,0,0,0,.106.5,1.179,1.179,0,0,0,.7.7,1.089,1.089,0,0,0,.5.106h.348a1.376,1.376,0,0,0,.574-.332l.2-.272a1.239,1.239,0,0,0,.181-.65v-.166a.937.937,0,0,0-.106-.5Z" transform="translate(82.842 67.405)" fill="#fff" opacity="0.41"/>
    <path id="Path_40783" data-name="Path 40783" d="M165.151,134.266a.363.363,0,0,0-.136-.227h-.106a.393.393,0,0,0-.257-.076h-.091a.468.468,0,0,0-.2,0,.453.453,0,0,0-.272.272.469.469,0,0,0,0,.2v.136a.771.771,0,0,0,.136.242l.106.076a.514.514,0,0,0,.257,0h.091a.424.424,0,0,0,.2,0,.453.453,0,0,0,.166-.106.287.287,0,0,0,.106-.166.272.272,0,0,0,0-.212Z" transform="translate(83.825 68.512)" fill="#fff" opacity="0.41"/>
    <path id="Path_40784" data-name="Path 40784" d="M139.623,151.719a13.036,13.036,0,0,0-.922-1.118,20.415,20.415,0,0,0-1.964-2.584,18.874,18.874,0,0,0-8.659-5.319,26.713,26.713,0,0,0-4.05-.952,5.833,5.833,0,0,0-2.04.212c-.589.136-1.224.62-1.8.71a14.658,14.658,0,0,1,8.779,1.738,21.443,21.443,0,0,1,7.707,6.77,5.514,5.514,0,0,0,.468.544,3.264,3.264,0,0,0,1.511.982.892.892,0,0,0,.982-.212.665.665,0,0,0-.015-.771Z" transform="translate(61.391 72.486)" fill="#fff" opacity="0.1"/>
    <path id="Path_40785" data-name="Path 40785" d="M124.041,143.019a2.343,2.343,0,0,1,1.088,0,4.941,4.941,0,0,0-4.186-.121c-.3.136-1.133.514-.831.967.121.181.393.181.6.136a6.44,6.44,0,0,0,1.39-.65,4.7,4.7,0,0,1,.982-.332,6.742,6.742,0,0,1,.952,0Z" transform="translate(61.318 72.875)" fill="#fff" opacity="0.1"/>
    <path id="Path_40827" data-name="Path 40827" d="M112.937,65.92c.012,0,4.491,4.207,14.263,8.415-.271.135-4.207,29.179-15.065,30.129-.271,0-12.079-6.242-17.1-10.857C95.034,93.471,104.917,68.77,112.937,65.92Z" transform="translate(-4.749 -3.294)" fill="url(#linear-gradient-2)"/>
    <path id="Path_40786" data-name="Path 40786" d="M130.9,156.9a11.288,11.288,0,0,1-7.933-.106c-3.022-1.224-4.639-3.46-6.165-6.226s-3.748-5.546-5.349-8.508q-.005-.113,0-.227-.725-1.043-1.405-2.131a43.278,43.278,0,0,1-8.749-18.964,25.688,25.688,0,0,1,.166-9.883c-1.043,1.8-2.146,3.551-3.143,5.364-.091.227-.166.453-.242.7a21.745,21.745,0,0,0-.514,8.326,18.726,18.726,0,0,0,.106,2.418h0c1.073,3.324,2.644,6.452,4.02,9.641.2.453.363.892.544,1.345.423.484.846.952,1.254,1.511,3.642,4.307,5.455,9.535,7.707,14.612a14.507,14.507,0,0,0,4.412,6.3,15.746,15.746,0,0,0,2.282,1.33,11.349,11.349,0,0,1,4.881.816,17.3,17.3,0,0,0,5.924,1.889c0-1.8-1-2.448-.121-4.307.589-1.224,1.995-3.657,3.264-4.246a9.167,9.167,0,0,1-.937.348Z" transform="translate(49.731 56.709)" fill="#ebbc99"/>
    <path id="Path_40787" data-name="Path 40787" d="M127.6,148.269c.408.227.816.468,1.209.725s5.349-4.307,5.8-4.82c1.511-1.738,3.445-3.1,4.941-4.851,1.753-2.04,2.342-4.533,3.778-6.634a36.493,36.493,0,0,1-8.749,9.067c-2.04,1.511-7.465,5.636-10.109,4.987A7.3,7.3,0,0,1,127.6,148.269Z" transform="translate(63.578 67.866)" fill="#c4a28a"/>
    <path id="Path_40788" data-name="Path 40788" d="M95.241,82.554c.514-.272,2.675-1.783,1.209-2.252-.6-.2-2.236.786-2.856.937a12.936,12.936,0,0,1-3.324.332,17.8,17.8,0,0,1-9.339-3.143c-.559-.393-5.183-5-4.956-1.723a4.609,4.609,0,0,0,1.511,2.78l-.272.257a5.682,5.682,0,0,1-2.327,1.179,6.952,6.952,0,0,1-1.254.166,2.569,2.569,0,0,0-1.073.091.484.484,0,0,0-.287.332.5.5,0,0,0,0,.151c0,.2.257.3.453.378a6.543,6.543,0,0,0,6.044-1.36,14.54,14.54,0,0,0,1.239.816V81.6a2.689,2.689,0,0,1-.181.363,5.379,5.379,0,0,1-1.647,1.708,5.562,5.562,0,0,1-1.043.514,2.342,2.342,0,0,0-.907.393.468.468,0,0,0-.151.378.241.241,0,0,0,0,.136.529.529,0,0,0,.5.2,6.044,6.044,0,0,0,4.911-3.022h.166l.892.378v.348a2.269,2.269,0,0,1,0,.393,4.942,4.942,0,0,1-1.073,2.07,4.532,4.532,0,0,1-.831.786c-.272.212-.574.332-.74.635a.453.453,0,0,0,0,.393.53.53,0,0,0,0,.121.589.589,0,0,0,.529,0,5.954,5.954,0,0,0,3.808-4.261,15.776,15.776,0,0,0,11-.574Z" transform="translate(36.897 38.654)" fill="#34323f"/>
    <path id="Path_40789" data-name="Path 40789" d="M302.481,217.841a3.234,3.234,0,0,0-1.828-2.312,3.929,3.929,0,0,0-3.279,0c-3.612,1.8-7.178,3.717-10.578,5.561-8.764,4.7-17.015,9.067-26.172,12.089a94.4,94.4,0,0,1-24.782,4.08c-.151-.876-.378-1.738-.589-2.569-.136-.468-.242-.907-.348-1.345a27.685,27.685,0,0,0-2.644-7.4,8.19,8.19,0,0,0-3.672-3.551l-.5-.2a18.376,18.376,0,0,0,2.3-3.022,20.627,20.627,0,0,0,2.282-16.154,22.938,22.938,0,0,0-10.578-14.371,23.286,23.286,0,0,0-15.564-2.886c-1.738.3-3.476.786-5.138,1.239-3.884,1.058-7.556,2.055-11.333,1.269a16,16,0,0,1-4.533-1.708c-.076-.363-.151-.74-.242-1.118a5.818,5.818,0,0,0,2.3-1.662c2.04-2.312,2.947-5.621,2.75-10.109a12.3,12.3,0,0,0-1.118-5.107,5.954,5.954,0,0,0-4.533-3.385,6.044,6.044,0,0,0-5.667,3.128,34.968,34.968,0,0,0-2.433-3.944c-5.924-8.492-14.507-13.207-23.5-12.9a32.594,32.594,0,0,0-21.488,8.659,25.371,25.371,0,0,0-2.236,2.372,3.777,3.777,0,0,0,.348-.589,4.065,4.065,0,0,0,0-4.125,4.171,4.171,0,0,0-4.125-1.511h0a10.472,10.472,0,0,1,.468-4.851c1.33-2.584,4.216-2.7,7.253-2.826a27.65,27.65,0,0,0,2.856-.2h0c1.6-.317,6.452-1.284,6.558-5.047a6.044,6.044,0,0,0-3.642-6.256,29.738,29.738,0,0,1-13.8-24.011,8.825,8.825,0,0,0,2.116-1.012,7.556,7.556,0,0,0,3.324-6.044,21.049,21.049,0,0,0-.136-3.536,23.686,23.686,0,0,1-.166-2.735A13.932,13.932,0,0,1,132.89,93.4c1.919-3.279,4.1-6.981,1.239-11.394A106.76,106.76,0,0,1,161.5,45.349c15.715-13.6,37.551-28.711,67.274-24.827h.484a16.894,16.894,0,0,0,5.591.121,5.712,5.712,0,0,0,4.79-4.292,2.478,2.478,0,0,0-.3-1.587c-.725-1.36-2.916-3.2-8.719-5.8a116.7,116.7,0,0,0-11.167-4.246C207.931,1.18,195.858.379,186.61.016c-28-.861-51.665,10.019-66.67,19.3a132.085,132.085,0,0,0-30.6,26.036l-2.282,2.629c-2.675,3.022-5.606,6.468-8.341,9.988l-.71-.242a6.573,6.573,0,0,0-5.349.544c-3.7,2.085-5.364,7.374-5.908,9.55a19.644,19.644,0,0,1-1.632,4.533c-.257.468-.5.922-.771,1.39A25.039,25.039,0,0,0,61.46,80.3a8.915,8.915,0,0,0,.771,6.135,153.029,153.029,0,0,0-14.174,90.152A131.541,131.541,0,0,0,57.7,210.059a116.355,116.355,0,0,0,17.5,27.578c1.6,1.874,3.022,3.853,4.684,5.636s3.113,3.2,4.715,4.76c3.476,3.34,7.087,6.543,10.759,9.671l.937.8h0l10.925,7.812h0a128.881,128.881,0,0,0,32.927,13.947c5.7,1.511,11.2,3.355,17,4.533,5.5,1.073,11.061,1.828,16.622,2.523q5.108.378,10.23.393t10.2-.393c10.578-.529,20.627-3.188,30.388-5.757h.106c2.07-.786,4.322-1.511,6.483-2.342s4.427-1.511,6.528-2.342h0a150.217,150.217,0,0,0,44.532-29.844c6.558-6.135,11.288-12.95,16.29-20.173,1.012-1.511,2.04-2.947,3.022-4.443l.091-.136a9.821,9.821,0,0,0,.62-4.11.756.756,0,0,0,.227-.332ZM186.126,191.956a23.431,23.431,0,0,0-.227-2.871,16.622,16.622,0,0,0,3.672,1.209c4.292.891,8.356-.227,12.3-1.3,1.632-.453,3.309-.907,4.956-1.194a21.019,21.019,0,0,1,14.25,2.614,20.732,20.732,0,0,1,9.6,13.056,18.632,18.632,0,0,1-2.01,14.552,17.724,17.724,0,0,1-3.279,3.838,20.352,20.352,0,0,1-2.539,1.874,18.345,18.345,0,0,1-10.986,2.75,1.043,1.043,0,1,0-.166,2.07h1.511a20.868,20.868,0,0,0,13.056-4.745,3.733,3.733,0,0,1,1.511.332,6.317,6.317,0,0,1,2.7,2.675,25.28,25.28,0,0,1,2.433,6.845c.106.453.227.922.348,1.405.559,2.1,1.133,4.276.3,6.044a4.261,4.261,0,0,1-3.022,2.644,5.138,5.138,0,0,1-4.307-1.949,21.033,21.033,0,0,1-3.43-5.395c-.317-.635-.62-1.284-.907-1.934l-2.085.438-8.855,1.859c-5.667,1.194-10.759,2.085-15.489.922a10.245,10.245,0,0,1-6.921-5.38,9.716,9.716,0,0,1,0-8.462c2.085-4.624,6.392-10.321,12.164-12.467a1.04,1.04,0,1,0-.725-1.949c-6.377,2.372-11.076,8.553-13.343,13.6a12.087,12.087,0,0,0-.665,1.828,12.544,12.544,0,0,0,.212-2.493A15.882,15.882,0,0,0,181,211.057a1.028,1.028,0,0,0-1.511,0,1.012,1.012,0,0,0,0,1.511,13.857,13.857,0,0,1,4.533,9.822,10.88,10.88,0,0,1-4.82,9.248,8.9,8.9,0,0,1-10-.393,17.453,17.453,0,0,1-3.778-5.032c-.348-.6-.7-1.209-1.073-1.8a17.513,17.513,0,0,0-1.118-1.647,18.56,18.56,0,0,1-3.324-.484h0a6.452,6.452,0,0,1-1.511-.544,4.019,4.019,0,0,1-2.4-3.46,3.717,3.717,0,0,1,2.372-3.022,8.492,8.492,0,0,1,4.533-.363,18.571,18.571,0,0,1,13.3,9.58,1.073,1.073,0,0,0,.922.544.922.922,0,0,0,.484-.121,1.012,1.012,0,0,0,.438-1.39,20.883,20.883,0,0,0-6.876-7.555,38.018,38.018,0,0,0,9.958-9.822c3.324-4.73,5.2-8.583,5.062-14.2Zm-1.692-24.737a3.944,3.944,0,0,1,2.856,2.267,10.427,10.427,0,0,1,.892,4.261c.181,3.929-.544,6.755-2.221,8.643a4.624,4.624,0,0,1-1.239.982c-.544-2.07-1.194-4.125-1.828-6.044h0a5.486,5.486,0,0,1-.136-1.768,1.647,1.647,0,0,1,1.073-1.3c.846-.166,1.012.756.861,1.345a1.027,1.027,0,0,0,0,.6.348.348,0,0,0,.242.242.7.7,0,0,0,.529-.287,2.75,2.75,0,0,0-.136-3.521,2.372,2.372,0,0,0-2.3-.408,3.188,3.188,0,0,0-1.511,1.164c-.272-.635-.544-1.269-.831-1.9-.952-2.131,1.844-4.5,3.808-4.276Zm-31.295-13.706c8.3-.272,16.214,4.11,21.73,12.089a42.641,42.641,0,0,1,3.113,5.259,31.854,31.854,0,0,1,1.511,3.43c.438,1.194.876,2.252,1.269,3.445a1.687,1.687,0,0,0,.076.2h0l.317.982h0c.423,1.315.861,2.66,1.239,4.035.181.62.348,1.254.5,1.874h0a4.477,4.477,0,0,0,.212.861c.166.74.317,1.511.438,2.191a26.851,26.851,0,0,1,.453,4.156c.106,5.062-1.511,8.477-4.609,12.98a36.055,36.055,0,0,1-10.215,9.837,18.3,18.3,0,0,0-6.044-1.934,10.578,10.578,0,0,0-5.591.514,5.742,5.742,0,0,0-3.657,4.745,4.973,4.973,0,0,0,.317,1.964,17.484,17.484,0,0,1-4.533-.257,17.045,17.045,0,0,1-9.732-5.606,20.884,20.884,0,0,1-3.113-5.893A31.8,31.8,0,0,0,135.308,205a47.208,47.208,0,0,0-3.853-6.044,53.242,53.242,0,0,1-3.173-4.836,27.4,27.4,0,0,1-3.324-12.769c-.393-15.338,11.756-27.29,28.242-27.834ZM88.63,49.323l2.3-2.66a130.287,130.287,0,0,1,30.116-25.583c14.718-9.127,38.08-19.826,65.491-18.934,9.067.3,21.019,1.088,32.292,4.609a113.761,113.761,0,0,1,10.925,4.156,39.877,39.877,0,0,1,4.926,2.539c2.932,1.783,2.871,2.644,2.856,2.644-.181,1.3-1.708,2.267-3.128,2.554a14.537,14.537,0,0,1-4.9-.151h-.484c-30.554-4.065-52.888,11.394-68.921,25.326a108.875,108.875,0,0,0-27.472,36.554A11.756,11.756,0,0,0,126.2,78l-.922-.151a87.091,87.091,0,0,1-9.233-2.282l-2.161-.6A97.5,97.5,0,0,1,87.723,63.739l-.227-.257c-.952-.6-1.874-1.3-2.75-1.964a32.625,32.625,0,0,0-4.08-2.75C83.281,55.474,86.076,52.255,88.63,49.323ZM63.485,80.8a23.15,23.15,0,0,1,2.675-6.044c.272-.468.529-.937.786-1.405a21.472,21.472,0,0,0,1.828-5.108c.363-1.511,1.828-6.5,4.911-8.251a4.533,4.533,0,0,1,3.717-.348A19.644,19.644,0,0,1,83.447,63.2c.876.665,1.783,1.345,2.75,1.964l.378.257a99.507,99.507,0,0,0,26.762,11.5l2.131.6a84.622,84.622,0,0,0,9.5,2.327l.937.151c2.7.423,4.851.756,6.377,3.022,2.327,3.4.71,6.165-1.179,9.354a15.4,15.4,0,0,0-2.75,7.374,23.366,23.366,0,0,0,.151,2.932,19,19,0,0,1,.121,3.188,5.425,5.425,0,0,1-2.388,4.533c-5.032,3.34-16.622-.181-20.1-1.345l-2.116-.71c-4.533-1.511-9.067-3.022-13.419-4.911A89.38,89.38,0,0,1,75.8,95.276c-.8-.544-1.677-1.1-2.6-1.692l-1.964-1.239C66.689,89.307,62.412,85.862,63.485,80.8ZM300.048,221.211c-1.043,1.511-2.055,3.022-3.022,4.4-4.941,7.132-9.611,13.857-16.018,19.841A148.3,148.3,0,0,1,237.186,274.9c-2.07.771-4.307,1.511-6.467,2.312s-4.4,1.511-6.468,2.342c-9.656,2.539-19.644,5.153-29.95,5.682a134.99,134.99,0,0,1-20.083,0c-5.47-.68-10.91-1.42-16.32-2.478-5.651-1.1-11.046-2.916-16.622-4.382a123.906,123.906,0,0,1-17.06-5.757,82.216,82.216,0,0,1-15.746-8.039L97.606,256.9q-5.788-4.911-11.137-10.139c-2.916-2.856-5.742-5.772-8.507-8.795a69.517,69.517,0,0,1-5.319-7.011c-1.511-2.206-3.234-4.307-4.73-6.573a104.4,104.4,0,0,1-7.964-14.4,128.247,128.247,0,0,1-9.822-33.592A150.611,150.611,0,0,1,63.576,88.6a28.983,28.983,0,0,0,6.936,5.757l1.511,1c.922.574,1.783,1.118,2.554,1.647a90.668,90.668,0,0,0,15.111,8.341c4.4,1.9,9.067,3.476,13.6,4.987l2.116.7a48.868,48.868,0,0,0,14.612,2.886,19.145,19.145,0,0,0,3.128-.242,31.99,31.99,0,0,0,14.839,25.25h0c1.511.8,3.022,2.433,2.584,4.02a.785.785,0,0,0,0,.257c0,1.511-1.6,2.478-4.866,3.143-.786.106-1.677.136-2.614.181-3.2.121-7.193.272-9.067,4.02v.091a12.708,12.708,0,0,0-.544,6.332h0l-1,.544a10.919,10.919,0,0,1-1.073.589l-1.133.559a20.414,20.414,0,0,1-2.267,1.058,19.765,19.765,0,0,1-20.113-4.05,1.043,1.043,0,0,0-1.42,1.511,21.82,21.82,0,0,0,22.319,4.533,22.278,22.278,0,0,0,2.493-1.148c.363-.181.725-.378,1.088-.544s.8-.423,1.194-.65a8.371,8.371,0,0,1,2.176-.982,2.221,2.221,0,0,1,2.221.635,2.04,2.04,0,0,1,0,1.995,5.878,5.878,0,0,1-1.889,1.919A18.647,18.647,0,0,1,116,166.388a1.043,1.043,0,1,0,0,2.085h0a20.868,20.868,0,0,0,11.227-3.853,10.02,10.02,0,0,0,1.511-1.33,27.971,27.971,0,0,0-5.878,18.058,29.6,29.6,0,0,0,3.778,13.691c1,1.753,2.161,3.415,3.294,5.017a47.7,47.7,0,0,1,3.7,5.8c.514,1.043.937,2.1,1.39,3.234a22.668,22.668,0,0,0,3.46,6.467,19.115,19.115,0,0,0,10.91,6.3,18.845,18.845,0,0,0,3.657.348,23.125,23.125,0,0,0,2.524-.136,7.557,7.557,0,0,0,1.995,1.511,13.268,13.268,0,0,0,4.533,1.148c.544.786,1.028,1.632,1.511,2.493a19.341,19.341,0,0,0,4.276,5.621,10.472,10.472,0,0,0,6.513,2.176,11.122,11.122,0,0,0,5.893-1.662,12.6,12.6,0,0,0,5.274-7.208,11.469,11.469,0,0,0,.982,7.087,12.315,12.315,0,0,0,8.3,6.5,22.182,22.182,0,0,0,5.289.589,54.853,54.853,0,0,0,11.137-1.511l9.293-1.964a23.755,23.755,0,0,0,4.035,6.377,7.556,7.556,0,0,0,5.349,2.644,4.528,4.528,0,0,0,.786,0,6.044,6.044,0,0,0,4.533-3.793,6.633,6.633,0,0,0,.62-2.765,97.7,97.7,0,0,0,25.175-4.065c9.369-3.022,17.71-7.555,26.55-12.225,3.43-1.828,6.966-3.732,10.578-5.531a1.919,1.919,0,0,1,1.511,0,1.269,1.269,0,0,1,.665.816A8.069,8.069,0,0,1,300.048,221.211Z" transform="translate(23.682 0.032)" fill="#34323f"/>
    <path id="Path_40790" data-name="Path 40790" d="M122.676,129.148a4.775,4.775,0,0,0,3.536.438,6.407,6.407,0,0,0,1.662-.68,5,5,0,0,0,2.206-2.765c.242-.7.907-2.886.212-3.46s-.529.68-.6.937a6.949,6.949,0,0,1-.544,1.511,7.132,7.132,0,0,1-1.587,1.844,7.556,7.556,0,0,1-4.428,1.194.846.846,0,0,0-.574.136.574.574,0,0,0,.121.846Z" transform="translate(62.531 62.674)" fill="#34323f"/>
    <path id="Path_40791" data-name="Path 40791" d="M111.307,137.868a5.41,5.41,0,0,0,6.2-3.612c.181-.5.846-4.035-.544-3.2a1.511,1.511,0,0,0-.559.8,12.558,12.558,0,0,1-1.647,3.022,4.79,4.79,0,0,1-2.9,1.617,4.9,4.9,0,0,1-2.3-.242c-.529-.151-1.118.287-.544.771a5.335,5.335,0,0,0,2.3.846Z" transform="translate(55.556 66.965)" fill="#34323f"/>
    <path id="Path_40792" data-name="Path 40792" d="M119.24,143.527a9.367,9.367,0,0,0,2.735.408,9.626,9.626,0,0,0,9.656-10.2,1.043,1.043,0,0,0-2.07.121,7.555,7.555,0,0,1-9.716,7.676,1.043,1.043,0,0,0-.6,1.995Z" transform="translate(60.543 67.954)" fill="#34323f"/>
    <path id="Path_40793" data-name="Path 40793" d="M68.341,118.127a8.961,8.961,0,0,1-5.485-1.844,9.067,9.067,0,0,1-2.569-10.744.907.907,0,1,1,1.647.756,7.072,7.072,0,1,0,12.784,0,.937.937,0,0,1,.438-1.224.907.907,0,0,1,1.209.423,9.067,9.067,0,0,1-2.508,10.729A8.931,8.931,0,0,1,68.341,118.127Z" transform="translate(30.371 53.703)" fill="#34323f"/>
    <path id="Path_40794" data-name="Path 40794" d="M71.134,143.29a6.724,6.724,0,0,1-4.05-1.405A6.452,6.452,0,0,1,64.44,136.9a.892.892,0,0,1,.846-.892h0a.892.892,0,0,1,.907.892,4.624,4.624,0,1,0,8.749-2.312.907.907,0,1,1,1.511-.876,6.74,6.74,0,0,1-4,9.414A5.876,5.876,0,0,1,71.134,143.29Z" transform="translate(32.897 68.04)" fill="#34323f"/>
    <path id="Path_40795" data-name="Path 40795" d="M79.281,129.072a6.6,6.6,0,0,1-1.088-.091,6.785,6.785,0,0,1-5.364-7.238.913.913,0,0,1,1.813.212A4.76,4.76,0,0,0,84,123.647a.922.922,0,0,1,1.1-.665.907.907,0,0,1,.665,1.1A6.8,6.8,0,0,1,79.281,129.072Z" transform="translate(37.171 61.858)" fill="#34323f"/>
    <path id="Path_40796" data-name="Path 40796" d="M114.141,176.584a7.737,7.737,0,0,1-4.866-1.708.907.907,0,0,1-.136-1.284.892.892,0,0,1,1.284-.121,5.818,5.818,0,0,0,9.5-4.639.892.892,0,0,1,.892-.922.907.907,0,0,1,.922.892,7.707,7.707,0,0,1-4.292,7.027A7.374,7.374,0,0,1,114.141,176.584Z" transform="translate(55.638 85.867)" fill="#34323f"/>
    <path id="Path_40797" data-name="Path 40797" d="M151.4,181.1l-.514-.212a.7.7,0,0,1-.3-.937.665.665,0,0,1,.922-.3,3.536,3.536,0,0,0,4.533-5.183.7.7,0,1,1,1.133-.8,4.911,4.911,0,0,1-5.742,7.435Z" transform="translate(76.887 88.639)" fill="#34323f"/>
    <path id="Path_40798" data-name="Path 40798" d="M157.959,178.656a.907.907,0,0,1-.468-.861.922.922,0,0,1,.952-.861,4.2,4.2,0,0,0,3.9-2.221,4.246,4.246,0,0,0-.453-4.533.892.892,0,0,1,.136-1.269.907.907,0,0,1,1.284.136,5.939,5.939,0,0,1-4.956,9.656A1.073,1.073,0,0,1,157.959,178.656Z" transform="translate(80.454 86.273)" fill="#34323f"/>
    <path id="Path_40799" data-name="Path 40799" d="M162.577,180.009a.514.514,0,0,1-.317-.484.544.544,0,0,1,.529-.559,2.524,2.524,0,0,0,2.221-1.511,2.554,2.554,0,0,0-.484-2.66.544.544,0,1,1,.786-.74,3.551,3.551,0,0,1-2.493,6.044.438.438,0,0,1-.242-.091Z" transform="translate(82.893 88.894)" fill="#34323f"/>
    <path id="Path_40800" data-name="Path 40800" d="M188.162,164.8a.909.909,0,0,1,.861-1.6,2.372,2.372,0,0,0,2.584-.635,2.327,2.327,0,0,0,.212-2.66.907.907,0,0,1,.317-1.254.876.876,0,0,1,1.239.3,4.11,4.11,0,0,1-5.047,5.939Z" transform="translate(95.887 81.061)" fill="#34323f"/>
    <path id="Path_40801" data-name="Path 40801" d="M193.722,162.848a.876.876,0,0,1-.317-.982.892.892,0,0,1,1.133-.6,1.964,1.964,0,0,0,1.511-3.612.913.913,0,0,1,.876-1.6A3.793,3.793,0,0,1,193.979,163a.786.786,0,0,1-.257-.151Z" transform="translate(98.789 79.747)" fill="#34323f"/>
    <path id="Path_40802" data-name="Path 40802" d="M104.99,172.974a10.185,10.185,0,0,1-9.308-6.226.907.907,0,0,1,.514-1.179.937.937,0,0,1,1.194.514,8.024,8.024,0,0,0,15.428-2.916.907.907,0,1,1,1.813,0,10.109,10.109,0,0,1-8.024,9.641,9.066,9.066,0,0,1-1.617.166Z" transform="translate(48.832 82.979)" fill="#34323f"/>
    <path id="Path_40804" data-name="Path 40804" d="M81.819,104.974c3.536-.348,7.646-3.309,8.387-6.876.846-4.11-.907-9.444-5.153-11.107a11.439,11.439,0,0,0-5.621-.423c-5.833.892-9.928,5.757-7.963,11.681a10.185,10.185,0,0,0,10.351,6.724Z" transform="translate(36.235 44.205)" fill="url(#linear-gradient-3)"/>
    <g id="Group_31130" data-name="Group 31130" transform="translate(111.021 135.133)" opacity="0.31">
      <path id="Path_40805" data-name="Path 40805" d="M78.534,99.626,75.1,92.161l-1.3.892,5.682,5.38A.831.831,0,0,0,80.8,97.54l-2.8-7.178-1.3.892,5.107,5.032c.559.544,1.662-.151,1.315-.892L80.544,90.03l-1.315.907a52.044,52.044,0,0,1,5.108,4.533.82.82,0,0,0,1.073-1.239A52.047,52.047,0,0,0,80.3,89.7c-.589-.468-1.692.091-1.315.892l2.584,5.349,1.315-.892L77.733,90a.831.831,0,0,0-1.315.907l2.8,7.163,1.3-.892-5.636-5.425c-.574-.544-1.662.136-1.315.892l3.43,7.465a.846.846,0,0,0,1.043.5.831.831,0,0,0,.5-1.043Z" transform="translate(-73.496 -89.327)" fill="#fff"/>
      <path id="Path_40806" data-name="Path 40806" d="M79.812,90.551a20.946,20.946,0,0,0,2.554,2.07.642.642,0,1,0,.861-.952,22.665,22.665,0,0,1-2.554-2.085.62.62,0,0,0-.892,0,.635.635,0,0,0,0,.892Z" transform="translate(-70.376 -89.395)" fill="#fff"/>
    </g>
    <path id="Path_40807" data-name="Path 40807" d="M121.962,122.841a8.17,8.17,0,0,1,0,.846,16.18,16.18,0,0,1-.332,2.252,9.445,9.445,0,0,0-.559,2.025,7.072,7.072,0,0,0-3.566-5.2,7.1,7.1,0,0,1,1.723,5.259,18.421,18.421,0,0,1-1.33,5.5,8.4,8.4,0,0,0-1.738-5.017,8.311,8.311,0,0,0-1.995-1.919c-.242-.181-.937-.423-1.405-.71a1.013,1.013,0,0,1-.484-.453,5.41,5.41,0,0,1-1.284,5.183,3.6,3.6,0,0,0-1-3.884c-.982-1.028-2.282-1.723-3.309-2.7a8.1,8.1,0,0,1-1.511-9.293,3.82,3.82,0,0,1,.2-.332c2.856-4.367,8.054-4.443,12.089-1.36a11.741,11.741,0,0,1,4.216,6.815A14.43,14.43,0,0,1,121.962,122.841Z" transform="translate(51.403 51.681)" fill="#34323f"/>
    <path id="Path_40808" data-name="Path 40808" d="M114.042,115.713a6.588,6.588,0,0,0-.771,0,12.21,12.21,0,0,1-4.669-.3,9.565,9.565,0,0,1-3.022-1.511,7.178,7.178,0,0,0,1.511,7.722A14.686,14.686,0,0,0,108.6,122.8a13.719,13.719,0,0,1,1.859,1.511,3.793,3.793,0,0,1,.892,2.131c-.106-.907-.786-2.327-.242-3.188s2.7.317,3.37.786a10.033,10.033,0,0,1,2.236,2.146,11.109,11.109,0,0,1,1.012,1.662,10.924,10.924,0,0,0,.181-1.511,6.982,6.982,0,0,0-.393-2.78,11.787,11.787,0,0,1-1.012-2.327,1.043,1.043,0,0,1,.227-.861c.846-.876,2.025.7,2.493,1.224s1.511,1.39,1.511,2.055A18.359,18.359,0,0,0,120,119.7a6.18,6.18,0,0,0-2.3-3.2,6.271,6.271,0,0,0-3.657-.786Z" transform="translate(51.768 53.217)" fill="#67666f" opacity="0.24"/>
    <path id="Path_40809" data-name="Path 40809" d="M113.165,113.014a5.546,5.546,0,0,1,3.506.952,9.248,9.248,0,0,0-4.216-2.131c-1.98-.378-4.533-.181-5.863,1.511a1.375,1.375,0,0,0-.317.65c-.106.635.438.907.982.831a3.868,3.868,0,0,0,.876-.332,11.106,11.106,0,0,1,4.684-1.511Z" transform="translate(52.388 52.079)" fill="#fff" opacity="0.18"/>
    <path id="Path_40810" data-name="Path 40810" d="M113.2,114.177a2.751,2.751,0,0,1,.559.2,8.025,8.025,0,0,1,2.191,1.42c-.332-.3-.574-.725-.907-1.043a6.634,6.634,0,0,0-1.179-.876,3.34,3.34,0,0,0-2.629-.6.287.287,0,0,0-.242.166.212.212,0,0,0,.091.2.393.393,0,0,0,.2.091C111.9,113.935,112.517,114,113.2,114.177Z" transform="translate(54.804 52.865)" fill="#fff" opacity="0.18"/>
    <path id="Path_40811" data-name="Path 40811" d="M57.152,206.514c-8.674,0-14.476-4.73-19.644-9.6a4.926,4.926,0,0,0-3.476-1.662,12.527,12.527,0,0,0-4.533,1.42,32.112,32.112,0,0,1-5.123,1.889,25.961,25.961,0,0,1-6.437.861,17.725,17.725,0,0,1-13.524-5.893A17.03,17.03,0,0,1,.108,180.447v-.106a13.358,13.358,0,0,1,1.8-5.364,12.769,12.769,0,0,1,11.379-6.241,17.073,17.073,0,0,1,2.886.257c-1.028-3.612-1.511-7.555,1.511-11.348a15.217,15.217,0,0,1,11.8-5.123h.453a26.279,26.279,0,0,1,8.538,1.859,35.964,35.964,0,0,1,1.405-10.427c1.662-5.183,5.032-8.855,8.946-12.784a25.084,25.084,0,0,1,18.133-7.48A31.174,31.174,0,0,1,98,155.484a13.493,13.493,0,0,1,2.221-.181,15.353,15.353,0,0,1,13.434,8.024,13.131,13.131,0,0,1,6.044-1.511,14.9,14.9,0,0,1,12.285,7.419,17.181,17.181,0,0,1,1.405,16.335,15.111,15.111,0,0,1-13.147,8.87h-.6a13.3,13.3,0,0,1-8.764-4.065,17.332,17.332,0,0,1-12.5,8.175,15.318,15.318,0,0,1-1.859.106,17.272,17.272,0,0,1-12.3-5.213c-5.123,8.659-16.864,12.844-26.384,13.071Z" transform="translate(-0.025 63.266)" fill="#34323f"/>
    <path id="Path_40812" data-name="Path 40812" d="M131.344,183.873l-.166.378c-2.131,4.533-6.966,8.115-12.089,7.858a11.424,11.424,0,0,1-9.172-5.652,15.111,15.111,0,0,1-26.7,3.188c-3.823,9.58-16.38,14.3-26.051,14.522-8.13.212-13.494-3.9-19.07-9.067-5.047-4.715-8.507-.363-14.763,1.224-6.694,1.708-13.207.937-18.254-4.533a14.643,14.643,0,0,1-3.022-5.047,13.132,13.132,0,0,1-.7-2.735,13.479,13.479,0,0,1-.181-3.113,3.559,3.559,0,0,1,.076-.876h0a11.636,11.636,0,0,1,1.511-4.654c3.249-5.576,9.958-6.468,15.383-4.352-1.375-4.4-3.022-8.644.3-12.784A13.6,13.6,0,0,1,29.3,153.7a28.575,28.575,0,0,1,11.62,3.34c-2.66-1.3-.65-11.152,0-13.131,1.587-4.941,4.941-8.492,8.523-12.089,7.707-7.752,18.662-8.749,28.711-4.4a29.618,29.618,0,0,1,17.166,29.8,13.313,13.313,0,0,1,16.788,8.024c8.628-5.818,17.408.635,19.644,8.946a16.35,16.35,0,0,1,.484,2.539A14.129,14.129,0,0,1,131.344,183.873Z" transform="translate(0.552 63.859)" fill="url(#linear-gradient-43)"/>
    <path id="Path_40813" data-name="Path 40813" d="M107.974,173.274c-2.4-5.924-8.885-6.845-14.567-6.15-2.735.332-5.651,1.345-8.115.106a14.7,14.7,0,0,1-3.793-3.7,12.527,12.527,0,0,0-5.259-3.445c-2.025-.635-4.08-.106-6.15-.635a5.138,5.138,0,0,1-3.521-2.765,9.6,9.6,0,0,1,0-4.9c.952-7.132-2.856-14.068-7.389-19.327a11.817,11.817,0,0,0-5.395-3.491c-1.9-.71-3.581-1.949-5.576-2.478,3.929.982,7.979.831,11.469,3.022a24.555,24.555,0,0,1,7.812,8.915,36.794,36.794,0,0,1,2.569,5.47,25.946,25.946,0,0,1,1.33,12.421,13.313,13.313,0,0,1,16.788,8.024,11.7,11.7,0,0,1,13.6,0,25.763,25.763,0,0,1,4.533,3.959c1.39,1.632,1.209,3.491,1.889,5.41A1.349,1.349,0,0,1,107.974,173.274Z" transform="translate(24.602 64.697)" fill="url(#linear-gradient-43)"/>
    <path id="Path_40814" data-name="Path 40814" d="M89.015,135.826c-.8-.68-1.632-1.33-2.478-1.934-6.8-4.73-17.091-7.556-24.782-3.445-7.042,3.732-12.769,8.931-13.827,17.3-.438,3.445,0,7.072-1.405,10.245a7.707,7.707,0,0,1-9.867,4.639c-2.66-.74-5.228-2.085-7.994-2.04a8.477,8.477,0,0,0-7.9,9.172,8.643,8.643,0,0,1,.227,3.506c-.8,2.72-4,2.75-6.044,1.98a11.288,11.288,0,0,0-8.568,0,12.089,12.089,0,0,0-5.123,4.73,11.635,11.635,0,0,1,1.511-4.654c3.249-5.576,9.958-6.467,15.383-4.352-1.375-4.4-3.022-8.643.3-12.784a13.6,13.6,0,0,1,10.85-4.533A28.575,28.575,0,0,1,40.916,157c-2.66-1.3-.65-11.152,0-13.131,1.587-4.941,4.941-8.492,8.523-12.089,7.707-7.752,18.662-8.749,28.711-4.4a28.243,28.243,0,0,1,10.865,8.447Z" transform="translate(0.601 63.839)" fill="url(#linear-gradient-43)"/>
    <circle id="Ellipse_932" data-name="Ellipse 932" cx="7.389" cy="7.389" r="7.389" transform="translate(50.191 197.292)" fill="#fff" opacity="0.16"/>
    <path id="Path_40815" data-name="Path 40815" d="M131.275,167.317l-.166.378c-2.131,4.533-6.966,8.115-12.089,7.858a11.424,11.424,0,0,1-9.172-5.652,15.111,15.111,0,0,1-26.7,3.188c-3.823,9.58-16.38,14.3-26.051,14.522-8.13.212-13.494-3.9-19.07-9.067-5.047-4.715-8.508-.363-14.763,1.224-6.694,1.708-13.207.937-18.254-4.533a14.643,14.643,0,0,1-3.022-5.047,13.132,13.132,0,0,1-.7-2.735,18.133,18.133,0,0,0,11.454,1.436c5.062-1.088,9.414-4.322,14.28-6.044,5.531-1.995,13.267-2.327,18.6.5,2.176,1.133,3.022,3.022,5.576,3.717a16.3,16.3,0,0,0,9.671-.74c6.619-2.463,10.971-8.069,18.284-8.931a9.807,9.807,0,0,1,8.583,2.7,11.288,11.288,0,0,0,10.109,2.342c4.1-1.073,7.555-4.443,11.8-4.443,3.37,0,6.256,2.116,9.5,2.69s6.437,1.617,9.641.317a4.941,4.941,0,0,0,3.022-3.128A12.572,12.572,0,0,1,131.275,167.317Z" transform="translate(0.621 80.416)" fill="rgba(255,255,255,0.07)"/>
    <path id="Path_40816" data-name="Path 40816" d="M131.125,165.4a15.111,15.111,0,0,1-3.581,4.79,12.361,12.361,0,0,1-8.749,3.4,11.424,11.424,0,0,1-9.172-5.652,15.111,15.111,0,0,1-26.7,3.188c-3.823,9.58-16.38,14.3-26.051,14.522-8.13.212-13.494-3.9-19.07-9.067-5.047-4.715-8.507-.363-14.763,1.224-6.694,1.708-13.207.937-18.254-4.533a14.643,14.643,0,0,1-3.022-5.047,10.865,10.865,0,0,0,6.286,3.521c5.2.453,10.109-1.995,14.93-3.974s10.381-3.506,15.111-1.3c4.941,2.312,7.707,8.22,12.92,9.792,6.044,1.8,11.8-2.916,16.275-7.3s10.155-9.187,16.214-7.556c5.44,1.511,9.535,7.9,15.111,6.8,2.554-.514,4.125-2.554,6.3-3.748a9.157,9.157,0,0,1,6.906-.967c2.176.665,4.08,2.01,6.226,2.75,5.5,1.919,10.668-.68,14.083-4.941-.242.317-.2,1.254-.257,1.662a10.246,10.246,0,0,1-.74,2.433Z" transform="translate(0.861 82.378)" fill="rgba(255,255,255,0.1)"/>
    <path id="Path_40817" data-name="Path 40817" d="M188.4,131.177a1.95,1.95,0,0,1-1.148-.363L169.6,117.789l-21.579,3.9h-.348a1.919,1.919,0,0,1-1.813-2.539l6.921-20.808L142.417,79.014a1.919,1.919,0,0,1,1.692-2.826l21.941.166,15.111-15.836a1.919,1.919,0,0,1,1.39-.6,2.192,2.192,0,0,1,.438,0,1.874,1.874,0,0,1,1.39,1.284l6.634,20.914,19.811,9.671a1.949,1.949,0,0,1,1.073,1.511,1.9,1.9,0,0,1-.8,1.723l-17.816,12.769-3.022,21.775a1.934,1.934,0,0,1-1.164,1.511A2.131,2.131,0,0,1,188.4,131.177Z" transform="translate(72.635 30.664)" fill="#5f173d"/>
    <path id="Path_40818" data-name="Path 40818" d="M209.349,92.8l-18.511,13.252L187.755,128.6l-18.315-13.509-19.584,3.536h-.015l-2.811.514,7.193-21.609L152.26,93.87v-.015l-7.012-13.026-1.8-3.34,22.772.151L181.968,61.2l.831,2.629,6.044,19.085Z" transform="translate(73.279 31.327)" fill="url(#linear-gradient-46)"/>
    <path id="Path_40819" data-name="Path 40819" d="M151.046,100.826h0a4.972,4.972,0,0,1,.332-3.4,14.792,14.792,0,0,0,1.768-3.158c.332-1.39.106-2.765.484-4.14a5.47,5.47,0,0,0,.257-3.944c-1.179-2.66-2.3.967-2.66,1.98-.922,2.584-.876,5.334-1.828,7.948a17.163,17.163,0,0,1-.937,1.813,50.548,50.548,0,0,0-3.022,7.435,1.511,1.511,0,0,0,0,1.42c.952,1.133,3.476.212,4.292-.725A7.374,7.374,0,0,0,151.046,100.826Z" transform="translate(74.206 43.608)" fill="url(#linear-gradient-47)"/>
    <path id="Path_40820" data-name="Path 40820" d="M171.517,75.837a4.14,4.14,0,0,0,1.148-1.028,18.287,18.287,0,0,0,1.148-2.614,6.724,6.724,0,0,1,2.252-1.964,6.347,6.347,0,0,0,2.372-2.4,11.167,11.167,0,0,1,.982-1.405,13.748,13.748,0,0,0,.74-1.405,10.064,10.064,0,0,0,1.511-3.687c-2.493.227-3.551,3.022-5.077,4.639a26.231,26.231,0,0,0-2.66,3.249,16.218,16.218,0,0,1-1.073,1.511c-.363.408-.952.317-1.436.574-2.327,1.209-3.188,4.035-5.788,4.881a12.633,12.633,0,0,1-2.9.468c-2.493.242-5.047,0-7.556,0a31.958,31.958,0,0,1-6.8,0c-1.224-.272-4-1.088-4.972,0-1.647,1.934,4.05,2.675,4.956,2.69a5.258,5.258,0,0,1,2.131.151c.514.272.982.846,1.511,1.148,2.04,1.239,3.974-.559,6.044-.272,1.405.2,2.267,1.315,3.491,1.813a6.044,6.044,0,0,0,4.261.287c1.677-.635,1.934-1.6,2.342-3.113a4.533,4.533,0,0,1,1.995-2.675C170.55,76.4,171.049,76.139,171.517,75.837Z" transform="translate(73.107 31.394)" fill="url(#linear-gradient-47)"/>
    <path id="Path_40821" data-name="Path 40821" d="M207.619,93.239a1.949,1.949,0,0,1-.786,1.723l-2.524,1.8L189,107.731l-2.614,19.176-.408,2.6a1.949,1.949,0,0,1-1.164,1.511,1.8,1.8,0,0,1-.74.151,1.919,1.919,0,0,1-1.148-.363l-15.746-11.62-1.889-1.405-2.932.529-11.8,2.131a59.037,59.037,0,0,1,7.722-6.044c3.022-1.738,6.891-4.156,8.236-7.555,1.073-2.644-.816-5.621-.076-8.4,1.043-4.02,4.231-7.072,7-10,4.533-4.866,3.143-12.089,3.974-18.133.257-1.753.453-3.521.635-5.289l.453-5h.257a1.919,1.919,0,0,1,1.405,1.284l5.712,18,.922,2.916,19.75,9.52a1.889,1.889,0,0,1,1.073,1.511Z" transform="translate(76.913 30.719)" fill="rgba(255,255,255,0.42)" opacity="0.47"/>
    <path id="Path_40822" data-name="Path 40822" d="M177.486,79.786c1.058.68,2.131,1.345,3.234,1.995.861.5,1.844.816,2.75,1.284s1.738.7,2.614,1.073,2.221.831,3.355,1.209a12.6,12.6,0,0,0,5.062.952,1.058,1.058,0,0,0,.892-1.375c-.151-.6-.574-.771-1.1-1.028l-5.727-2.72-8.507-4.11a21.714,21.714,0,0,0-4.881-2.267c-1.179-.227-1.874.2-1.511,1.511a4.534,4.534,0,0,0,2.07,2.342Z" transform="translate(88.671 38.249)" fill="url(#linear-gradient-47)"/>
    <path id="Path_40823" data-name="Path 40823" d="M177.163,108.312a43.731,43.731,0,0,0-5.939-6.452,21.91,21.91,0,0,0-7.1-4.533,6.286,6.286,0,0,0-3.7-.317,5.431,5.431,0,0,1,.559.725,8.447,8.447,0,0,1,1.179,2.539l12.663,9.354a13.933,13.933,0,0,0,4.02,1.118C178.311,109.914,177.752,109.158,177.163,108.312Z" transform="translate(81.952 49.556)" fill="url(#linear-gradient-47)"/>
    <path id="Path_40824" data-name="Path 40824" d="M179.407,63.26c-.181,1.768-.378,3.536-.635,5.289-.831,6.044.6,13.343-3.974,18.133-2.765,2.932-5.954,6.044-7,10-.74,2.78,1.148,5.757.076,8.4-1.345,3.355-5.213,5.772-8.235,7.556a28.2,28.2,0,0,0-4.82,3.6c-.922.8-1.874,1.617-2.9,2.463l-3.853.7a.876.876,0,0,1-.151-.7c.076-.453.71-.982,1.511-1.511s2.025-1.148,2.478-1.511c2.856-1.919,5.788-3.974,7.178-7.253,1.632-3.823,0-8.281,1.617-12.089,1.98-4.533,6.875-6.044,9.9-9.565s2.675-6.86,3.128-11.167c.166-2.161,1.526-3.672,2.644-5.531a15.356,15.356,0,0,0,1.511-3.264C178.274,65.889,178.471,63.91,179.407,63.26Z" transform="translate(75.552 32.38)" fill="rgba(255,255,255,0.16)" opacity="0.45"/>
    <path id="Path_40825" data-name="Path 40825" d="M181.538,95.8c-1.118,4.911-2.4,10.064-5.727,13.993a40.98,40.98,0,0,1-8.583,7.737l-1.889-1.405-2.932.529-11.847,2.176a59.037,59.037,0,0,1,7.722-6.044c3.022-1.738,6.891-4.156,8.236-7.555,1.073-2.644-.816-5.621-.076-8.4,1.043-4.02,4.231-7.072,7-10,4.533-4.866,3.143-12.089,3.974-18.133.257-1.753.453-3.521.635-5.289a.649.649,0,0,1,.317-.166c1.511-.514,1.511,2.025,1.692,3.022a26.763,26.763,0,0,1,1.088,6.2,22.529,22.529,0,0,1-.363,5.243,14.265,14.265,0,0,0-.5,5.636c.348,1.844,1.511,3.37,1.768,5.228a20.52,20.52,0,0,1-.514,7.238Z" transform="translate(76.913 32.332)" fill="none"/>
    <circle id="Ellipse_933" data-name="Ellipse 933" cx="1.541" cy="1.541" r="1.541" transform="translate(229.332 113.335)" fill="#fff" opacity="0.45"/>
    <circle id="Ellipse_934" data-name="Ellipse 934" cx="0.71" cy="0.71" r="0.71" transform="translate(226.053 113.577)" fill="#fff" opacity="0.45"/>
    <path id="Path_40826" data-name="Path 40826" d="M210.81,91.737,191.06,82.2l-.922-2.916-5.712-18A1.919,1.919,0,0,0,183.021,60h-.257a.272.272,0,0,0-.151,0,1.934,1.934,0,0,0-1.405.6L166.066,76.339l-21.941-.166a1.934,1.934,0,0,0-1.647.937,1.874,1.874,0,0,0,0,1.9l10.381,19.312-6.936,20.823a1.934,1.934,0,0,0,.363,1.859,1.9,1.9,0,0,0,1.511.665h.348l3.022-.544,3.853-.7,11.847-2.131,2.932-.529,1.889,1.405,15.534,11.59a1.919,1.919,0,0,0,1.148.363,1.8,1.8,0,0,0,.74-.151,1.949,1.949,0,0,0,1.164-1.511l.348-2.569,2.644-19.161,15.323-10.955,2.524-1.8a1.949,1.949,0,0,0,.786-1.723A1.889,1.889,0,0,0,210.81,91.737Zm-4.065,4.05-15.277,10.925-2.614,19.146-.468,3.4-18.315-13.509-1.859.332-10.487,1.9-5.455.967-1.783.332h0l-2.811.514,7.193-21.609L152.9,94.532h0l-7.011-13.011-1.813-3.385,22.772.151L182.6,61.862l.831,2.614,5.591,17.65.453,1.436,20.506,9.883Z" transform="translate(72.649 30.71)" fill="#34323f"/>
  </g>
</svg>
