<svg width="25" height="24" viewBox="0 0 25 24" fill="none" xmlns="http://www.w3.org/2000/svg">
<path fill-rule="evenodd" clip-rule="evenodd" d="M11.7606 3H8.46285C6.5509 3 4.88431 4.24919 4.42059 6.02986L2.73177 12.5149C2.40305 13.7772 3.39754 15 4.7529 15H9.89712L8.53581 17.2403C7.52309 18.907 8.77536 21 10.7852 21H11.9805L16.0099 14.2306C16.0998 14.0795 16.1471 13.9085 16.1471 13.7344L16.1471 5.53518C16.1471 5.20083 15.9731 4.8886 15.6833 4.70313L14.0718 3.6718C13.3874 3.23375 12.5832 3 11.7606 3ZM20.8346 15H19.793C18.6424 15 17.7096 14.1046 17.7096 13L17.7096 6C17.7096 4.89543 18.6424 4 19.793 4H20.8346C21.9852 4 22.918 4.89543 22.918 6V13C22.918 14.1046 21.9852 15 20.8346 15Z" fill="#C43092"/>
</svg>
