<svg width="20" height="20" viewBox="0 0 20 20" fill="none" xmlns="http://www.w3.org/2000/svg">
<path d="M14.9987 13.3333L16.6654 13.3333C17.5858 13.3333 18.332 12.5871 18.332 11.6667L18.332 4.16667C18.332 3.24619 17.5858 2.5 16.6654 2.5L14.9987 2.5C14.0782 2.5 13.332 3.24619 13.332 4.16667L13.332 11.6667C13.332 12.5871 14.0782 13.3333 14.9987 13.3333Z" stroke="#ABABAB" stroke-linecap="round" stroke-linejoin="round"/>
<path d="M6.76795 2.5L9.82278 2.5C10.4809 2.5 11.1242 2.69479 11.6718 3.05983L12.9609 3.91928C13.1928 4.07383 13.332 4.33403 13.332 4.61265L13.332 11.4454C13.332 11.5904 13.2942 11.7329 13.2222 11.8588L9.9987 17.5L8.89144 17.5C7.22749 17.5 6.23501 15.6455 7.158 14.261L8.33203 12.5L3.79999 12.5C2.7157 12.5 1.92011 11.481 2.18309 10.4291L3.53414 5.02488C3.90511 3.54099 5.23839 2.5 6.76795 2.5Z" stroke="#ABABAB" stroke-linecap="round" stroke-linejoin="round"/>
</svg>
