<svg xmlns="http://www.w3.org/2000/svg" xmlns:xlink="http://www.w3.org/1999/xlink" width="42.921" height="42.921" viewBox="0 0 42.921 42.921"><defs><linearGradient id="a" x1="0.5" x2="0.5" y2="1" gradientUnits="objectBoundingBox"><stop offset="0" stop-color="#ff895d"/><stop offset="1" stop-color="#ffbaa1"/></linearGradient></defs><path d="M38.629,8.584H30.045V4.292A4.3,4.3,0,0,0,25.753,0H17.169a4.3,4.3,0,0,0-4.292,4.292V8.584H4.292A4.3,4.3,0,0,0,0,12.876V38.629a4.3,4.3,0,0,0,4.292,4.292H38.629a4.3,4.3,0,0,0,4.292-4.292V12.876A4.3,4.3,0,0,0,38.629,8.584ZM17.169,4.292h8.584V8.584H17.169ZM27.9,27.9H23.607v4.292a2.146,2.146,0,0,1-4.292,0V27.9H15.022a2.146,2.146,0,1,1,0-4.292h4.292V19.315a2.146,2.146,0,1,1,4.292,0v4.292H27.9a2.146,2.146,0,0,1,0,4.292Z" fill="url(#a)"/></svg>