<svg xmlns="http://www.w3.org/2000/svg" xmlns:xlink="http://www.w3.org/1999/xlink" width="178.286" height="134.997" viewBox="0 0 178.286 134.997"><defs><filter id="a" x="0" y="0" width="178.286" height="134.997" filterUnits="userSpaceOnUse"><feOffset dy="3" input="SourceAlpha"/><feGaussianBlur stdDeviation="4" result="b"/><feFlood flood-color="#fff"/><feComposite operator="in" in2="b"/><feComposite in="SourceGraphic"/></filter></defs><g transform="matrix(1, 0, 0, 1, 0, 0)" filter="url(#a)"><path d="M569.384,186.729H550.471a42.743,42.743,0,0,0,8.113-24.7,39.034,39.034,0,0,0-9.926-26.639h0a33.9,33.9,0,0,0-25.213-10.981,31.833,31.833,0,0,0-19.888,6.87,38.746,38.746,0,0,0-5.91,5.69,38.91,38.91,0,0,0-5.912-5.69,31.835,31.835,0,0,0-19.886-6.863A33.9,33.9,0,0,0,446.636,135.4a39.007,39.007,0,0,0-9.926,26.639,42.772,42.772,0,0,0,8.111,24.693H422.068a2.486,2.486,0,0,0,0,4.971h26.471l.331.407c7.216,8.71,17.463,17.44,29.349,27.569,4.015,3.419,8.557,7.279,13.272,11.415a9.344,9.344,0,0,0,12.306,0c4.675-4.09,9.192-7.941,13.178-11.337l.119-.1c11.865-10.111,22.114-18.844,29.326-27.55l.331-.407h22.632a2.486,2.486,0,0,0,0-4.971Zm-127.729-24.7a34.076,34.076,0,0,1,8.62-23.278,28.993,28.993,0,0,1,21.57-9.385,26.974,26.974,0,0,1,16.85,5.82,35.164,35.164,0,0,1,6.949,7.247,2.486,2.486,0,0,0,4.015,0,35.323,35.323,0,0,1,6.918-7.247,27.011,27.011,0,0,1,16.867-5.82,28.991,28.991,0,0,1,21.563,9.381,34.077,34.077,0,0,1,8.6,23.278c0,8.524-2.958,16.444-9.264,24.7H517.872l-7.279-16.58a2.455,2.455,0,0,0-2.295-1.482,2.486,2.486,0,0,0-2.27,1.512l-8.153,19.242-11.314-32.758a2.486,2.486,0,0,0-4.66-.09l-11.71,30.173H450.933c-6.31-8.281-9.276-16.19-9.276-24.714Zm72.209,53.845-.119.1c-4,3.407-8.526,7.279-13.236,11.379a4.379,4.379,0,0,1-5.767,0c-4.738-4.144-9.3-8.031-13.341-11.473C471,207,461.857,199.213,455.076,191.694h16.815a2.486,2.486,0,0,0,2.316-1.585l9.874-25.442,11.211,32.483a2.486,2.486,0,0,0,2.26,1.671h.086a2.486,2.486,0,0,0,2.295-1.512l8.43-19.9,5.625,12.811a2.486,2.486,0,0,0,2.273,1.482H540.2c-6.782,7.507-15.924,15.295-26.332,24.175Z" transform="translate(-406.58 -114.41)" fill="#707070" stroke="#707070" stroke-width="2" opacity="0.1"/></g></svg>