<svg width="213" height="123" viewBox="0 0 213 123" fill="none" xmlns="http://www.w3.org/2000/svg">
<path d="M152.223 119.343L155.682 119.343L157.327 106.002L152.223 106.002L152.223 119.343Z" fill="#FFB9B9"/>
<path d="M151.34 118.213L158.151 118.213C159.303 118.213 160.407 118.67 161.221 119.484C162.035 120.298 162.492 121.402 162.492 122.554V122.695L151.34 122.695L151.34 118.213Z" fill="#2F2E41"/>
<path d="M131.75 116.403L135.048 117.446L140.64 105.223L135.773 103.684L131.75 116.403Z" fill="#FFB9B9"/>
<path d="M131.25 115.06L137.744 117.114C138.842 117.461 139.757 118.23 140.288 119.252C140.818 120.273 140.921 121.464 140.574 122.562L140.532 122.696L129.898 119.333L131.25 115.06Z" fill="#2F2E41"/>
<path d="M139.542 58.4141L137.622 63.8273L137.568 93.0513L132.125 113.06L138.807 114.925L146.187 96.0583L148.554 79.4871L151.674 96.1546L151.245 115.965H158.255L158.784 85.4369C158.933 76.8633 157.433 68.3409 154.365 60.3334L139.542 58.4141Z" fill="#2F2E41"/>
<path d="M137.256 36.4873H148.587L153.322 41.2221L154.736 60.793L137.622 63.5468L132.125 44.8736L135.119 36.9373L137.256 36.4873Z" fill="#C43092"/>
<path d="M133.182 45.0591L115.735 38.495L115.281 35.7816L126.284 26.4717L129.946 29.2184L123.308 36.4861L135.12 36.936L133.182 45.0591Z" fill="#C43092"/>
<path d="M128.399 30.2811C129.957 30.2811 131.221 29.018 131.221 27.4599C131.221 25.9018 129.957 24.6387 128.399 24.6387C126.841 24.6387 125.578 25.9018 125.578 27.4599C125.578 29.018 126.841 30.2811 128.399 30.2811Z" fill="#FFB9B9"/>
<path d="M134.943 31.0132L136.218 25.2647C136.672 23.2234 137.919 21.4461 139.683 20.3233C141.448 19.2006 143.586 18.8242 145.627 19.277C147.669 19.7298 149.448 20.9747 150.572 22.7381C151.696 24.5014 152.075 26.6391 151.624 28.6812L150.349 34.4297C150.288 34.704 150.12 34.9428 149.883 35.0937C149.646 35.2447 149.359 35.2955 149.085 35.235L135.748 32.2774C135.474 32.2162 135.235 32.0488 135.084 31.8118C134.933 31.5748 134.882 31.2876 134.943 31.0132Z" fill="#2F2E41"/>
<path d="M142.109 33.4084C145.304 33.4084 147.894 30.8184 147.894 27.6236C147.894 24.4288 145.304 21.8389 142.109 21.8389C138.914 21.8389 136.324 24.4288 136.324 27.6236C136.324 30.8184 138.914 33.4084 142.109 33.4084Z" fill="#FFB9B9"/>
<path d="M134.291 25.3195C134.651 23.7044 135.637 22.298 137.033 21.409C138.429 20.52 140.12 20.2209 141.736 20.5774L142.886 20.8323C144.501 21.1924 145.907 22.1785 146.796 23.5741C147.685 24.9698 147.984 26.6611 147.628 28.277L147.602 28.392L145.172 27.8532L144.858 25.3489L144.178 27.6327L142.922 27.3542L142.764 26.0907L142.421 27.2429L134.266 25.4344L134.291 25.3195Z" fill="#2F2E41"/>
<path d="M140.129 33.9276C140.049 33.7478 140.022 33.5492 140.05 33.3545C140.078 33.1599 140.16 32.9771 140.288 32.8273C142.02 30.7801 144.676 26.8765 142.997 23.7337L142.876 23.5078L149.45 24.9656L147.261 34.8345L141.056 34.5639C140.993 34.5612 140.931 34.553 140.869 34.5394C140.706 34.5033 140.554 34.429 140.426 34.3226C140.297 34.2162 140.195 34.0809 140.129 33.9276Z" fill="#2F2E41"/>
<path d="M212.742 122.899H0.257078C0.188828 122.899 0.123441 122.869 0.0752502 122.816C0.0270598 122.763 0 122.692 0 122.617C0 122.542 0.0270598 122.471 0.0752502 122.418C0.123441 122.365 0.188828 122.335 0.257078 122.335H212.742C212.811 122.335 212.876 122.365 212.924 122.418C212.973 122.471 213 122.542 213 122.617C213 122.692 212.973 122.764 212.924 122.817C212.876 122.869 212.811 122.899 212.742 122.899Z" fill="#F3F3F3"/>
<path d="M106.606 41.6494H13.2925C12.5841 41.6494 11.8827 41.7894 11.2283 42.0613C10.5738 42.3332 9.9792 42.7318 9.47832 43.2343C8.97744 43.7367 8.58011 44.3333 8.30903 44.9898C8.03796 45.6463 7.89844 46.3499 7.89844 47.0605V69.5734C7.89844 70.284 8.03795 70.9877 8.30903 71.6442C8.5801 72.3007 8.97743 72.8972 9.47831 73.3997C9.97919 73.9021 10.5738 74.3007 11.2283 74.5726C11.8827 74.8445 12.5841 74.9845 13.2925 74.9845H14.6621V79.0519C14.6621 79.2987 14.7351 79.5399 14.8718 79.7452C15.0085 79.9504 15.2028 80.1103 15.4301 80.2048C15.6574 80.2992 15.9075 80.3239 16.1488 80.2758C16.3901 80.2276 16.6118 80.1088 16.7857 79.9342L21.7199 74.9845H106.606C107.315 74.9845 108.016 74.8445 108.671 74.5726C109.325 74.3007 109.92 73.9021 110.421 73.3997C110.921 72.8972 111.319 72.3007 111.59 71.6442C111.861 70.9877 112 70.284 112 69.5734V47.0605C112 46.3499 111.861 45.6463 111.59 44.9898C111.319 44.3333 110.921 43.7367 110.421 43.2343C109.92 42.7318 109.325 42.3332 108.671 42.0613C108.016 41.7894 107.315 41.6494 106.606 41.6494Z" fill="#EFEFEF"/>
<path d="M84.1538 72.1184H13.3216C12.6326 72.1176 11.972 71.8433 11.4847 71.3557C10.9975 70.8682 10.7234 70.2071 10.7227 69.5175V47.0714C10.7235 46.3819 10.9975 45.7209 11.4847 45.2333C11.9719 44.7458 12.6325 44.4715 13.3215 44.4707H106.583C107.272 44.4715 107.933 44.7457 108.42 45.2333C108.907 45.7209 109.181 46.382 109.182 47.0716C109.175 53.7121 106.535 60.0785 101.843 64.7741C97.1511 69.4697 90.7894 72.1109 84.1538 72.1184Z" fill="white"/>
<path d="M79.7722 49.2676H40.4146C39.4413 49.2676 38.6523 50.0886 38.6523 51.1014V51.1014C38.6523 52.1141 39.4413 52.9351 40.4146 52.9351H79.7722C80.7455 52.9351 81.5345 52.1141 81.5345 51.1014C81.5345 50.0886 80.7455 49.2676 79.7722 49.2676Z" fill="#FFCEEE"/>
<path d="M88.2251 56.3193H31.9514C30.975 56.3193 30.1836 57.1403 30.1836 58.1531V58.1531C30.1836 59.1659 30.975 59.9869 31.9514 59.9869H88.2251C89.2014 59.9869 89.9929 59.1659 89.9929 58.1531C89.9929 57.1403 89.2014 56.3193 88.2251 56.3193Z" fill="#F5F5F5"/>
<path d="M88.2251 63.373H31.9514C30.975 63.373 30.1836 64.194 30.1836 65.2068V65.2068C30.1836 66.2196 30.975 67.0406 31.9514 67.0406H88.2251C89.2014 67.0406 89.9929 66.2196 89.9929 65.2068C89.9929 64.194 89.2014 63.373 88.2251 63.373Z" fill="#F5F5F5"/>
<path d="M202.855 54.8691H138.117C137.626 54.8691 137.139 54.9659 136.685 55.154C136.231 55.3421 135.819 55.6177 135.471 55.9652C135.124 56.3127 134.848 56.7252 134.66 57.1793C134.472 57.6333 134.375 58.1199 134.375 58.6114V74.181C134.375 74.6724 134.472 75.1591 134.66 75.6131C134.848 76.0671 135.124 76.4797 135.471 76.8272C135.819 77.1747 136.231 77.4503 136.685 77.6384C137.139 77.8264 137.626 77.9232 138.117 77.9232H139.067V80.7362C139.067 80.9068 139.118 81.0737 139.213 81.2156C139.308 81.3575 139.442 81.4682 139.6 81.5335C139.758 81.5988 139.931 81.6159 140.099 81.5826C140.266 81.5493 140.42 81.4671 140.541 81.3464L143.964 77.9232H202.855C203.347 77.9232 203.833 77.8264 204.287 77.6384C204.741 77.4503 205.154 77.1747 205.501 76.8272C205.849 76.4797 206.125 76.0671 206.313 75.6131C206.501 75.1591 206.597 74.6725 206.597 74.181V58.6114C206.597 58.1199 206.501 57.6333 206.313 57.1793C206.125 56.7252 205.849 56.3127 205.501 55.9652C205.154 55.6177 204.741 55.3421 204.287 55.154C203.833 54.9659 203.347 54.8691 202.855 54.8691Z" fill="#EFEFEF"/>
<path d="M202.855 76.0236H138.117C137.628 76.0231 137.159 75.8287 136.814 75.4832C136.468 75.1376 136.274 74.6691 136.273 74.1805V58.6107C136.274 58.1221 136.468 57.6536 136.814 57.308C137.159 56.9625 137.628 56.7681 138.117 56.7676H187.285C191.902 56.7728 196.328 58.6091 199.592 61.8735C202.856 65.1379 204.693 69.5639 204.698 74.1805C204.697 74.6691 204.503 75.1376 204.157 75.4832C203.812 75.8287 203.343 76.0231 202.855 76.0236Z" fill="white"/>
<path d="M184.223 60.1738H156.884C156.208 60.1738 155.66 60.7219 155.66 61.3979C155.66 62.074 156.208 62.6221 156.884 62.6221H184.223C184.899 62.6221 185.447 62.074 185.447 61.3979C185.447 60.7219 184.899 60.1738 184.223 60.1738Z" fill="#FFCEEE"/>
<path d="M190.035 65.0693H151.068C150.392 65.0693 149.844 65.6174 149.844 66.2934C149.844 66.9695 150.392 67.5176 151.068 67.5176H190.035C190.711 67.5176 191.259 66.9695 191.259 66.2934C191.259 65.6174 190.711 65.0693 190.035 65.0693Z" fill="#F5F5F5"/>
<path d="M190.035 69.9658H151.068C150.392 69.9658 149.844 70.5139 149.844 71.1899C149.844 71.866 150.392 72.414 151.068 72.414H190.035C190.711 72.414 191.259 71.866 191.259 71.1899C191.259 70.5139 190.711 69.9658 190.035 69.9658Z" fill="#F5F5F5"/>
<path d="M64.7617 0.137695H129.5C129.991 0.137695 130.478 0.234489 130.932 0.422552C131.386 0.610616 131.798 0.886269 132.146 1.23377C132.493 1.58126 132.769 1.9938 132.957 2.44783C133.145 2.90186 133.242 3.38847 133.242 3.87991V19.4496C133.242 19.941 133.145 20.4276 132.957 20.8817C132.769 21.3357 132.493 21.7482 132.146 22.0957C131.798 22.4432 131.386 22.7189 130.932 22.9069C130.478 23.095 129.991 23.1918 129.5 23.1918H128.55V26.0047C128.55 26.1754 128.499 26.3423 128.404 26.4842C128.309 26.6261 128.175 26.7367 128.017 26.802C127.859 26.8673 127.686 26.8844 127.518 26.8511C127.351 26.8178 127.197 26.7356 127.076 26.6149L123.653 23.1918H64.7617C64.2703 23.1918 63.7837 23.095 63.3297 22.9069C62.8756 22.7189 62.4631 22.4432 62.1156 22.0957C61.7681 21.7482 61.4925 21.3357 61.3044 20.8817C61.1163 20.4276 61.0195 19.941 61.0195 19.4496V3.87991C61.0195 3.38847 61.1163 2.90186 61.3044 2.44783C61.4925 1.9938 61.7681 1.58126 62.1156 1.23377C62.4631 0.886269 62.8756 0.610616 63.3297 0.422552C63.7837 0.234489 64.2703 0.137695 64.7617 0.137695Z" fill="#EFEFEF"/>
<path d="M129.503 21.293H80.3347C75.7182 21.2878 71.2922 19.4516 68.0278 16.1872C64.7634 12.9229 62.9272 8.49692 62.9219 3.88039C62.9224 3.39171 63.1168 2.9232 63.4623 2.57764C63.8078 2.23207 64.2763 2.03768 64.765 2.03711H129.503C129.992 2.03765 130.46 2.23201 130.806 2.57755C131.151 2.92309 131.346 3.39159 131.346 3.88025V19.4498C131.346 19.9385 131.151 20.407 130.806 20.7525C130.46 21.0981 129.992 21.2924 129.503 21.293Z" fill="white"/>
<path d="M83.3983 7.88965L110.737 7.88965C111.413 7.88965 111.961 7.34159 111.961 6.66554C111.961 5.98948 111.413 5.44142 110.737 5.44142L83.3983 5.44142C82.7223 5.44142 82.1743 5.98948 82.1743 6.66554C82.1743 7.34159 82.7223 7.88965 83.3983 7.88965Z" fill="#FFCEEE"/>
<path d="M77.5857 12.7871L116.553 12.7871C117.229 12.7871 117.777 12.2391 117.777 11.563C117.777 10.8869 117.229 10.3389 116.553 10.3389L77.5857 10.3389C76.9096 10.3389 76.3616 10.8869 76.3616 11.563C76.3616 12.2391 76.9096 12.7871 77.5857 12.7871Z" fill="#F5F5F5"/>
<path d="M77.5857 17.6826L116.553 17.6826C117.229 17.6826 117.777 17.1346 117.777 16.4585C117.777 15.7824 117.229 15.2344 116.553 15.2344L77.5857 15.2344C76.9096 15.2344 76.3616 15.7824 76.3616 16.4585C76.3616 17.1346 76.9096 17.6826 77.5857 17.6826Z" fill="#F5F5F5"/>
<path d="M148.134 36.6055L166.589 39.2295L167.62 41.7798L158.899 53.2545L154.728 51.3674L159.631 42.833L148.004 44.9556L148.134 36.6055Z" fill="#C43092"/>
<path d="M156.325 56.5164C157.883 56.5164 159.146 55.2533 159.146 53.6952C159.146 52.1371 157.883 50.874 156.325 50.874C154.767 50.874 153.504 52.1371 153.504 53.6952C153.504 55.2533 154.767 56.5164 156.325 56.5164Z" fill="#FFB9B9"/>
</svg>
