<svg xmlns="http://www.w3.org/2000/svg" width="33.103" height="36.781" viewBox="0 0 33.103 36.781"><path d="M26.908,17.552H12.2a1.839,1.839,0,0,0,0,3.678H26.908a1.839,1.839,0,0,0,0-3.678ZM32.425,4.678H30.586V2.839a1.839,1.839,0,0,0-3.678,0V4.678H12.2V2.839a1.839,1.839,0,0,0-3.678,0V4.678H6.678A3.677,3.677,0,0,0,3,8.356V34.1a3.677,3.677,0,0,0,3.678,3.678H32.425A3.689,3.689,0,0,0,36.1,34.1V8.356A3.689,3.689,0,0,0,32.425,4.678ZM30.586,34.1H8.517a1.844,1.844,0,0,1-1.839-1.839V13.873H32.425V32.264A1.844,1.844,0,0,1,30.586,34.1Zm-9.2-9.2H12.2a1.839,1.839,0,0,0,0,3.678h9.2a1.839,1.839,0,1,0,0-3.678Z" transform="translate(-3 -1)" fill="#fff"/></svg>