<svg xmlns="http://www.w3.org/2000/svg" width="38.699" height="34.6" viewBox="0 0 38.699 34.6"><path d="M3.868,6.773a2.9,2.9,0,0,1,2.9-2.9H31.928a2.9,2.9,0,0,1,2.9,2.9V24.189a2.9,2.9,0,0,1-2.9,2.9H6.6a1.132,1.132,0,0,0-.8.331h0a1.132,1.132,0,0,1-1.933-.8ZM3.868,0A3.865,3.865,0,0,0,.017,3.87L0,31.689a2.9,2.9,0,0,0,4.955,2.054l1.931-1.931a2.9,2.9,0,0,1,2.053-.85H34.83a3.882,3.882,0,0,0,3.87-3.87V3.87A3.882,3.882,0,0,0,34.83,0Zm3.87,21.286a1.935,1.935,0,0,1,1.935-1.935H21.284a1.935,1.935,0,0,1,1.935,1.935h0a1.935,1.935,0,0,1-1.935,1.935H9.674a1.935,1.935,0,0,1-1.935-1.935Zm0-5.805a1.935,1.935,0,0,1,1.935-1.935H29.025a1.935,1.935,0,0,1,1.935,1.935h0a1.935,1.935,0,0,1-1.935,1.935H9.674a1.935,1.935,0,0,1-1.935-1.935Zm0-5.805A1.935,1.935,0,0,1,9.674,7.74H29.025A1.935,1.935,0,0,1,30.96,9.676h0a1.935,1.935,0,0,1-1.935,1.935H9.674A1.935,1.935,0,0,1,7.739,9.676Z" transform="translate(-0.002)" fill="#707070" opacity="0.55"/></svg>