<svg xmlns="http://www.w3.org/2000/svg" width="38.698" height="34.6" viewBox="0 0 38.698 34.6"><path d="M34.83,0H3.868A3.865,3.865,0,0,0,.017,3.87L0,31.689a2.9,2.9,0,0,0,4.955,2.054l1.931-1.931a2.9,2.9,0,0,1,2.053-.85H34.83a3.882,3.882,0,0,0,3.87-3.87V3.87A3.882,3.882,0,0,0,34.83,0ZM9.674,13.546H29.025a1.935,1.935,0,1,1,0,3.87H9.674a1.935,1.935,0,1,1,0-3.87Zm11.611,9.676H9.674a1.935,1.935,0,1,1,0-3.87H21.284a1.935,1.935,0,1,1,0,3.87Zm7.74-11.611H9.674a1.935,1.935,0,1,1,0-3.87H29.025a1.935,1.935,0,1,1,0,3.87Z" transform="translate(-0.002)" fill="#c33091"/></svg>