<svg xmlns="http://www.w3.org/2000/svg" xmlns:xlink="http://www.w3.org/1999/xlink" width="45.5" height="48.498" viewBox="0 0 45.5 48.498"><defs><linearGradient id="a" x1="0.5" x2="0.5" y2="1" gradientUnits="objectBoundingBox"><stop offset="0" stop-color="#7c73e6"/><stop offset="1" stop-color="#b2abff"/></linearGradient></defs><path d="M20713.389-3198.5a7.956,7.956,0,0,1-2.053-.267,7.962,7.962,0,0,1-1.848-.757,3.56,3.56,0,0,0-1.742-.456,3.565,3.565,0,0,0-1.742.456,8.013,8.013,0,0,1-1.844.757,7.954,7.954,0,0,1-2.053.266,10.959,10.959,0,0,1-5.293-1.517,20.282,20.282,0,0,1-4.926-3.949,28.02,28.02,0,0,1-3.961-5.477,24.338,24.338,0,0,1-2.406-6.1,19.429,19.429,0,0,1-.408-6.595,17.774,17.774,0,0,1,1.719-5.935,14.889,14.889,0,0,1,3.525-4.636,12.513,12.513,0,0,1,5.016-2.7,12.012,12.012,0,0,1,3.109-.412,13.012,13.012,0,0,1,7.057,2.164,13.843,13.843,0,0,0-3.4-8.134,1.787,1.787,0,0,1-.439-1.239,1.811,1.811,0,0,1,.52-1.211l2.166-2.212a1.792,1.792,0,0,1,1.293-.546,1.8,1.8,0,0,1,1.607.978,29.013,29.013,0,0,1,2.594,7.242,10.752,10.752,0,0,1,2.852-5.059,10.719,10.719,0,0,1,7.631-3.16,10.881,10.881,0,0,1,2.795.365,10.859,10.859,0,0,1,.021,5.5,10.8,10.8,0,0,1-2.816,4.922c-.236.236-.484.463-.74.675.2.043.359.084.5.123a12.517,12.517,0,0,1,5.014,2.7,14.859,14.859,0,0,1,3.525,4.636,17.674,17.674,0,0,1,1.719,5.935,19.379,19.379,0,0,1-.406,6.595,24.42,24.42,0,0,1-2.408,6.1,27.92,27.92,0,0,1-3.961,5.478,20.3,20.3,0,0,1-4.922,3.95A10.971,10.971,0,0,1,20713.389-3198.5Zm5.449-45.724a6.457,6.457,0,0,0-4.6,1.9,6.531,6.531,0,0,0-1.684,6.279,6.54,6.54,0,0,0,1.684.22,6.457,6.457,0,0,0,4.6-1.9,6.532,6.532,0,0,0,1.686-6.279A6.557,6.557,0,0,0,20718.838-3244.226Z" transform="translate(-20684.996 3247)" fill="url(#a)"/></svg>