<svg width="26" height="24" viewBox="0 0 26 24" fill="none" xmlns="http://www.w3.org/2000/svg">
<path d="M4.73183 1.10094C9.64006 0.464399 14.6099 0.464399 19.5182 1.10094C21.7605 1.39261 23.3577 3.27211 23.4907 5.44911C23.1006 5.31917 22.6964 5.23652 22.2867 5.20294C19.0178 4.93159 15.7322 4.93159 12.4633 5.20294C9.71233 5.43161 7.75 7.75794 7.75 10.3759V15.3763C7.7489 16.3373 8.0134 17.28 8.5143 18.1002C9.0152 18.9205 9.73302 19.5863 10.5885 20.0243L7.49333 23.1183C7.37097 23.2405 7.21512 23.3237 7.04549 23.3574C6.87586 23.3911 6.70005 23.3738 6.54026 23.3076C6.38047 23.2414 6.24387 23.1294 6.14771 22.9857C6.05155 22.8419 6.00015 22.6729 6 22.4999V17.7983C5.57673 17.7533 5.15398 17.7035 4.73183 17.6489C2.38917 17.3433 0.75 15.3051 0.75 13.0056V5.74428C0.75 3.44594 2.38917 1.40661 4.73183 1.10211V1.10094Z" fill="#C23092"/>
<path d="M17.375 6.75C15.7697 6.75 14.1795 6.8165 12.608 6.94717C10.8113 7.0965 9.5 8.62017 9.5 10.3772V15.3763C9.5 17.1345 10.816 18.6593 12.615 18.8063C14.0652 18.9253 15.5317 18.9895 17.011 18.9988L20.2567 22.2433C20.379 22.3656 20.5349 22.4488 20.7045 22.4825C20.8741 22.5162 21.05 22.4988 21.2097 22.4327C21.3695 22.3665 21.5061 22.2545 21.6023 22.1107C21.6984 21.967 21.7498 21.7979 21.75 21.625V18.8367L22.135 18.8063C23.934 18.6605 25.25 17.1345 25.25 15.3763V10.376C25.25 8.62017 23.9375 7.0965 22.142 6.946C20.5564 6.81489 18.966 6.7495 17.375 6.75V6.75Z" fill="#C23092"/>
</svg>
