<svg xmlns="http://www.w3.org/2000/svg" width="29.726" height="36.167" viewBox="0 0 29.726 36.167"><path d="M14.048,32.455,5.5,15.334A7.445,7.445,0,0,1,7.983,5.7,7.233,7.233,0,0,1,18.3,8.592l9.991,20a4.7,4.7,0,0,1-1.5,6.067,4.523,4.523,0,0,1-6.479-1.8L11.83,15.87a1.809,1.809,0,1,1,3.237-1.617l7.073,14.16A1.357,1.357,0,1,0,24.567,27.2l-6.96-13.933a4.7,4.7,0,0,0-5.751-2.445A4.523,4.523,0,0,0,9.4,17.083L17.753,33.8a7.445,7.445,0,0,0,9.2,3.8,7.223,7.223,0,0,0,3.887-9.989L20.918,7.751A10.237,10.237,0,0,0,8.275,2.52,9.958,9.958,0,0,0,2.931,16.271l8.69,17.4a1.357,1.357,0,0,0,2.427-1.213Z" transform="translate(-1.877 -1.889)" fill="#565aa7"/></svg>