<svg xmlns="http://www.w3.org/2000/svg" width="131.899" height="130.333" viewBox="0 0 131.899 130.333"><path d="M111.223,96.272V62.854c0-20.519-10.962-37.7-30.077-42.241V16.067A10.07,10.07,0,0,0,71.054,6.042,9.955,9.955,0,0,0,61.1,16.067v4.545C41.913,25.157,31.018,42.268,31.018,62.854V96.272l-8.689,8.622a6.685,6.685,0,0,0,4.679,11.429h88.025a6.7,6.7,0,0,0,4.745-11.429Zm-40.169,40.1a13.407,13.407,0,0,0,13.367-13.368H57.686A13.364,13.364,0,0,0,71.054,136.375ZM36.165,20.946a6.584,6.584,0,0,0,.2-9.558,6.68,6.68,0,0,0-9.291-.134,69.673,69.673,0,0,0-21.856,40.5A6.756,6.756,0,0,0,11.9,59.512a6.664,6.664,0,0,0,6.55-5.547A56.412,56.412,0,0,1,36.165,20.946Zm79.069-9.691a6.762,6.762,0,0,0-9.357.134,6.563,6.563,0,0,0,.2,9.491A56.781,56.781,0,0,1,123.789,53.9a6.561,6.561,0,0,0,6.55,5.547,6.708,6.708,0,0,0,6.617-7.753,70.1,70.1,0,0,0-21.722-40.437Z" transform="translate(-5.145 -6.042)" fill="#707070" opacity="0.1"/></svg>