<svg xmlns="http://www.w3.org/2000/svg" xmlns:xlink="http://www.w3.org/1999/xlink" width="94.038" height="93.975" viewBox="0 0 94.038 93.975"><defs><linearGradient id="a" x1="0.5" x2="0.5" y2="1" gradientUnits="objectBoundingBox"><stop offset="0" stop-color="#7c73e6"/><stop offset="1" stop-color="#b2abff"/></linearGradient></defs><path d="M4.568,93.975h0A4.606,4.606,0,0,1,.909,92.117a4.475,4.475,0,0,1-.723-3.975L6.871,65.431A46.263,46.263,0,0,1,2.429,45.788a45.78,45.78,0,0,1,79.7-30.769,45.713,45.713,0,0,1,11.695,35.3,44.715,44.715,0,0,1-4.129,14.83A46.652,46.652,0,0,1,68.884,86.585,44.851,44.851,0,0,1,54.17,91.164a46.666,46.666,0,0,1-5.935.383A45.3,45.3,0,0,1,28.62,87.089L5.91,93.774A4.632,4.632,0,0,1,4.568,93.975ZM46.306,63.588a5.969,5.969,0,1,0,0,11.938,5.834,5.834,0,0,0,4.221-1.766,6.152,6.152,0,0,0,1.724-4.227,5.83,5.83,0,0,0-5.946-5.946Zm0-37.054c3.259,0,5.737,1.315,6.976,3.7a7.286,7.286,0,0,1-.459,7.38,28.612,28.612,0,0,1-4.183,4.435l-.015.014A24.87,24.87,0,0,0,43.5,47.891a11.994,11.994,0,0,0-1.427,4.9A4.1,4.1,0,0,0,43.13,55.98a4.232,4.232,0,0,0,3.129,1.377h.286A4.4,4.4,0,0,0,49.4,56.3a4.086,4.086,0,0,0,1.428-2.657,6.6,6.6,0,0,1,.9-3,18.721,18.721,0,0,1,3.647-4.311l.008-.008a37.138,37.138,0,0,0,5.24-6,12.6,12.6,0,0,0,1.95-7.842,15.318,15.318,0,0,0-2.045-6.808,14.5,14.5,0,0,0-5.446-5.131,18.335,18.335,0,0,0-8.871-2.1,16.675,16.675,0,0,0-14.033,7.325,4.116,4.116,0,0,0-.565,3.558A4.158,4.158,0,0,0,34.082,32a4.058,4.058,0,0,0,1.564.316,4.529,4.529,0,0,0,3.668-2.028A8.151,8.151,0,0,1,46.306,26.535Z" transform="translate(-0.001)" fill="url(#a)"/></svg>