<svg xmlns="http://www.w3.org/2000/svg" width="157.356" height="130.334" viewBox="0 0 157.356 130.334"><g transform="translate(-117.346 -688.004)" opacity="0.1"><path d="M20709.832-10292.9a10.086,10.086,0,0,1-6.809-2.621l-.518-.463-.289-.267c-26.441-24.02-43.9-39.885-43.2-59.549a27.735,27.735,0,0,1,11.895-21.828,28.364,28.364,0,0,1,16.066-5.035,30.539,30.539,0,0,1,22.9,10.634,30.016,30.016,0,0,1,5.713-5.146,71.2,71.2,0,0,0,5.676,8.419,19.442,19.442,0,0,0-4.291,4.122c-1.178,1.549-3.66,4.151-7.1,4.151-3.4,0-5.871-2.574-7.051-4.115a20.272,20.272,0,0,0-15.838-7.894,17.415,17.415,0,0,0-17.8,17.807c0,14.728,15.99,29.2,40.182,51.12l.512.517.508-.512c17.074-15.459,30.557-27.672,36.588-38.636,2.586,2.38,5.314,4.872,7.672,7.012-7.232,11.743-20.506,23.79-37.328,39.045l-.066.057-.559.5A10.088,10.088,0,0,1,20709.832-10292.9Z" transform="translate(-20541.654 11111.236)" fill="#707070"/><path d="M89.848,5.039C76.42-4.117,59.838.156,50.886,10.634,41.934.156,25.352-4.168,11.923,5.039A27.832,27.832,0,0,0,.021,26.86C-.691,46.6,16.806,62.416,43.511,86.679l.509.458A10.152,10.152,0,0,0,57.7,87.086l.56-.509c26.7-24.212,44.151-40.032,43.49-59.768A27.815,27.815,0,0,0,89.848,5.039ZM51.395,79.1l-.509.509-.509-.509C26.166,57.177,10.194,42.68,10.194,27.979A17.384,17.384,0,0,1,28,10.176a20.339,20.339,0,0,1,15.842,7.887c1.727,2.276,4.2,4.118,7.056,4.118h0c2.873,0,5.356-1.863,7.09-4.153a20.255,20.255,0,0,1,15.791-7.851,17.384,17.384,0,0,1,17.8,17.8C91.578,42.68,75.606,57.177,51.395,79.1Z" transform="translate(172.933 688.004)" fill="#707070"/></g></svg>