<svg xmlns="http://www.w3.org/2000/svg" width="106.12" height="106.049" viewBox="0 0 106.12 106.049"><path d="M5.154,106.049h0a5.2,5.2,0,0,1-4.129-2.1A5.05,5.05,0,0,1,.21,99.466L7.753,73.837A52.206,52.206,0,0,1,2.741,51.671,51.662,51.662,0,0,1,92.679,16.949a51.586,51.586,0,0,1,13.2,39.838,50.46,50.46,0,0,1-4.659,16.735A52.646,52.646,0,0,1,77.734,97.709a50.613,50.613,0,0,1-16.6,5.167,52.661,52.661,0,0,1-6.7.432A51.126,51.126,0,0,1,32.3,98.277L6.669,105.821A5.227,5.227,0,0,1,5.154,106.049Zm47.1-34.291a6.736,6.736,0,1,0,0,13.472,6.584,6.584,0,0,0,4.764-1.993,6.942,6.942,0,0,0,1.946-4.77,6.579,6.579,0,0,0-6.709-6.709Zm0-41.814c3.678,0,6.474,1.484,7.872,4.179a8.222,8.222,0,0,1-.518,8.328,32.288,32.288,0,0,1-4.72,5l-.017.016a28.065,28.065,0,0,0-5.783,6.574,13.535,13.535,0,0,0-1.61,5.529,4.632,4.632,0,0,0,1.192,3.6A4.776,4.776,0,0,0,52.2,64.725h.322a4.961,4.961,0,0,0,3.22-1.187,4.611,4.611,0,0,0,1.611-3,7.449,7.449,0,0,1,1.02-3.382,21.126,21.126,0,0,1,4.115-4.865l.009-.009a41.91,41.91,0,0,0,5.913-6.773,14.224,14.224,0,0,0,2.2-8.85,17.286,17.286,0,0,0-2.308-7.682,16.366,16.366,0,0,0-6.146-5.791,20.691,20.691,0,0,0-10.011-2.368,18.817,18.817,0,0,0-15.835,8.266,4.645,4.645,0,0,0-.638,4.015,4.692,4.692,0,0,0,2.785,3.017,4.58,4.58,0,0,0,1.765.356,5.111,5.111,0,0,0,4.139-2.289A9.2,9.2,0,0,1,52.256,29.944Z" transform="translate(-0.001)" fill="#707070" opacity="0.1"/></svg>