<svg xmlns="http://www.w3.org/2000/svg" width="157.405" height="119.146" viewBox="0 0 157.405 119.146"><g opacity="0.1"><path d="M118.108,0C104.15,0,89.118,2.863,78.739,10.737,68.359,2.863,53.327,0,39.369,0,28.99,0,17.967,1.575,8.733,5.655A14.584,14.584,0,0,0,0,18.9V99.64a14.28,14.28,0,0,0,17.752,13.887,88.4,88.4,0,0,1,21.617-2.577c11.167,0,23.049,1.861,32.641,6.585a14.711,14.711,0,0,0,13.386,0c9.592-4.8,21.474-6.585,32.641-6.585a88.4,88.4,0,0,1,21.617,2.577A14.214,14.214,0,0,0,157.405,99.64V18.9a14.584,14.584,0,0,0-8.733-13.242C139.51,1.575,128.487,0,118.108,0Zm25.053,91.122a7.229,7.229,0,0,1-8.59,7.015,90.251,90.251,0,0,0-16.464-1.432c-12.169,0-29.706,4.653-39.369,10.737V25.053c9.663-6.084,27.2-10.737,39.369-10.737a90.812,90.812,0,0,1,19.327,2,7.261,7.261,0,0,1,5.726,7.015Z" transform="translate(0 0)" fill="#707070"/><path d="M17.583,18.827A5.358,5.358,0,0,1,15.937,8.376C26.96,4.8,41.2,3.652,54.3,5.155A5.367,5.367,0,0,1,53.087,15.82c-11.6-1.36-24.266-.286-33.858,2.792A14.88,14.88,0,0,1,17.583,18.827Z" transform="translate(75.329 27.772)" fill="#707070"/><path d="M17.583,21.487a5.358,5.358,0,0,1-1.646-10.451C26.888,7.457,41.2,6.312,54.3,7.815A5.367,5.367,0,0,1,53.087,18.48c-11.6-1.36-24.266-.286-33.858,2.792A6.938,6.938,0,0,1,17.583,21.487Z" transform="translate(75.329 44.153)" fill="#707070"/><path d="M17.583,24.147A5.358,5.358,0,0,1,15.937,13.7C26.888,10.117,41.2,8.972,54.3,10.475A5.367,5.367,0,0,1,53.087,21.14c-11.6-1.36-24.266-.286-33.858,2.792A6.938,6.938,0,0,1,17.583,24.147Z" transform="translate(75.329 60.533)" fill="#707070"/></g></svg>