<svg xmlns="http://www.w3.org/2000/svg" xmlns:xlink="http://www.w3.org/1999/xlink" width="51" height="25" viewBox="0 0 51 25"><defs><clipPath id="a"><rect width="51" height="25" fill="none"/></clipPath></defs><g opacity="0.15" clip-path="url(#a)"><g transform="translate(-202 -733)"><circle cx="3.5" cy="3.5" r="3.5" transform="translate(202 733)" fill="#fff"/><circle cx="3.5" cy="3.5" r="3.5" transform="translate(213 733)" fill="#fff"/><circle cx="3.5" cy="3.5" r="3.5" transform="translate(224 733)" fill="#fff"/><circle cx="3.5" cy="3.5" r="3.5" transform="translate(235 733)" fill="#fff"/><circle cx="3.5" cy="3.5" r="3.5" transform="translate(246 733)" fill="#fff"/></g><g transform="translate(-202 -722)"><circle cx="3.5" cy="3.5" r="3.5" transform="translate(202 733)" fill="#fff"/><circle cx="3.5" cy="3.5" r="3.5" transform="translate(213 733)" fill="#fff"/><circle cx="3.5" cy="3.5" r="3.5" transform="translate(224 733)" fill="#fff"/><circle cx="3.5" cy="3.5" r="3.5" transform="translate(235 733)" fill="#fff"/><circle cx="3.5" cy="3.5" r="3.5" transform="translate(246 733)" fill="#fff"/></g><g transform="translate(-202 -711)"><circle cx="3.5" cy="3.5" r="3.5" transform="translate(202 733)" fill="#fff"/><circle cx="3.5" cy="3.5" r="3.5" transform="translate(213 733)" fill="#fff"/><circle cx="3.5" cy="3.5" r="3.5" transform="translate(224 733)" fill="#fff"/><circle cx="3.5" cy="3.5" r="3.5" transform="translate(235 733)" fill="#fff"/><circle cx="3.5" cy="3.5" r="3.5" transform="translate(246 733)" fill="#fff"/></g></g></svg>