<svg xmlns="http://www.w3.org/2000/svg" width="120.938" height="107.5" viewBox="0 0 120.938 107.5"><path d="M115.294,25.531a6.7,6.7,0,0,0-6.584-5.375H12.228a6.7,6.7,0,0,0-6.584,5.375L0,53.75v6.719a6.739,6.739,0,0,0,6.719,6.719v33.594a6.738,6.738,0,0,0,6.719,6.719h53.75a6.738,6.738,0,0,0,6.719-6.719V67.188h26.875v33.594a6.719,6.719,0,0,0,13.438,0V67.188a6.738,6.738,0,0,0,6.719-6.719V53.75ZM60.469,94.062H20.156V67.188H60.469ZM13.437,13.437H107.5A6.719,6.719,0,1,0,107.5,0H13.437a6.719,6.719,0,0,0,0,13.437Z" fill="#707070" opacity="0.1"/></svg>