<svg xmlns="http://www.w3.org/2000/svg" width="143.826" height="75.75" viewBox="0 0 143.826 75.75"><path d="M145.826,13.615A13.655,13.655,0,0,1,132.211,27.23a11.57,11.57,0,0,1-3.472-.477L104.5,50.921a12.025,12.025,0,0,1,.477,3.54,13.615,13.615,0,1,1-27.23,0,12.025,12.025,0,0,1,.477-3.54L60.867,33.561a13.387,13.387,0,0,1-7.08,0l-25.033,25.1a11.57,11.57,0,0,1,.477,3.472A13.615,13.615,0,1,1,15.615,48.52,11.57,11.57,0,0,1,19.087,49l25.1-25.033a12.025,12.025,0,0,1-.477-3.54,13.615,13.615,0,1,1,27.23,0,12.026,12.026,0,0,1-.477,3.54L87.825,41.322a13.387,13.387,0,0,1,7.08,0l24.167-24.235a11.57,11.57,0,0,1-.477-3.472,13.615,13.615,0,0,1,27.23,0Zm0,0A13.655,13.655,0,0,1,132.211,27.23a11.57,11.57,0,0,1-3.472-.477L104.5,50.921a12.025,12.025,0,0,1,.477,3.54,13.615,13.615,0,1,1-27.23,0,12.025,12.025,0,0,1,.477-3.54L60.867,33.561a13.387,13.387,0,0,1-7.08,0l-25.033,25.1a11.57,11.57,0,0,1,.477,3.472A13.615,13.615,0,1,1,15.615,48.52,11.57,11.57,0,0,1,19.087,49l25.1-25.033a12.025,12.025,0,0,1-.477-3.54,13.615,13.615,0,1,1,27.23,0,12.026,12.026,0,0,1-.477,3.54L87.825,41.322a13.387,13.387,0,0,1,7.08,0l24.167-24.235a11.57,11.57,0,0,1-.477-3.472,13.615,13.615,0,0,1,27.23,0Z" transform="translate(-2)" fill="#707070" opacity="0.1"/></svg>