<svg xmlns="http://www.w3.org/2000/svg" width="103.852" height="130.332" viewBox="0 0 103.852 130.332"><path d="M19880.977-11129.67a12.992,12.992,0,0,1-12.973-12.988v-58.93a12.992,12.992,0,0,1,12.973-12.977h6.5v-12.977a32.488,32.488,0,0,1,32.445-32.461,32.5,32.5,0,0,1,32.465,32.461v12.977h6.492a13,13,0,0,1,12.977,12.977v58.93a13,13,0,0,1-12.977,12.988Zm-1.965-65.68v46.227a9,9,0,0,0,8.762,9.215h64.3a9.019,9.019,0,0,0,8.781-9.215v-46.227a9.015,9.015,0,0,0-8.781-9.207h-64.3A9,9,0,0,0,19879.012-11195.35Zm21.438-32.191v12.977h38.945v-12.977a19.493,19.493,0,0,0-19.473-19.469A19.493,19.493,0,0,0,19900.449-11227.541Zm6.5,55.41a12.992,12.992,0,0,1,12.973-12.977,13.008,13.008,0,0,1,12.992,12.977,13,13,0,0,1-12.992,12.977A12.982,12.982,0,0,1,19906.949-11172.131Z" transform="translate(-19868.004 11260.002)" fill="#707070" opacity="0.1"/></svg>