<svg xmlns="http://www.w3.org/2000/svg" width="81.108" height="109.695" viewBox="0 0 81.108 109.695"><path d="M-5875.531,19286.162a40.26,40.26,0,0,1-11.827-28.666c0-9.066,4.574-21.225,13.58-36.166a278.941,278.941,0,0,1,21.792-30.529,6.734,6.734,0,0,1,5.2-2.508,6.737,6.737,0,0,1,5.174,2.508,281.116,281.116,0,0,1,21.792,30.588c9.035,14.883,13.574,27.063,13.574,36.107a40.478,40.478,0,0,1-11.959,28.666,40.279,40.279,0,0,1-28.662,11.826A40.327,40.327,0,0,1-5875.531,19286.162Z" transform="translate(5887.358 -19188.293)" fill="#707070" opacity="0.1"/></svg>