<svg xmlns="http://www.w3.org/2000/svg" width="78.996" height="98.738" viewBox="0 0 78.996 98.738"><path d="M-14484.9,131.739h-59.229a9.891,9.891,0,0,1-9.877-9.882V62.625a9.888,9.888,0,0,1,9.877-9.877h9.871a19.633,19.633,0,0,1,5.777-13.969A19.648,19.648,0,0,1-14514.5,33a19.607,19.607,0,0,1,13.959,5.779,19.632,19.632,0,0,1,5.774,13.969h9.872a9.894,9.894,0,0,1,9.891,9.877v59.231A9.9,9.9,0,0,1-14484.9,131.739Zm-35.138-50.6a1.722,1.722,0,0,0-.9.253,1.713,1.713,0,0,0-.818,1.463l.029,35.351a1.232,1.232,0,0,0,.8,1.155l4.354,1.623a1.7,1.7,0,0,0,.6.109,1.72,1.72,0,0,0,.976-.309,1.707,1.707,0,0,0,.739-1.406V84.653a1.23,1.23,0,0,0-.674-1.1l-4.329-2.223A1.681,1.681,0,0,0-14520.034,81.142Zm-20.324-10c1.724,0,4.623.391,4.677,3.007l.024,37.832a1.715,1.715,0,0,0,1.117,1.606l4.039,1.5a1.682,1.682,0,0,0,.6.109,1.74,1.74,0,0,0,.979-.3,1.737,1.737,0,0,0,.736-1.412V78l-.059-5.041a1.1,1.1,0,0,1,.31-.766,1.086,1.086,0,0,1,.767-.32h18.275c.064,0,6.531.108,10.4,4.4,2.272,2.524,3.211,5.979,2.8,10.268-.4,4.057-2.131,7.071-5.146,8.956a14.492,14.492,0,0,1-6.58,2.012,1.072,1.072,0,0,0-1,1.069V99a1.078,1.078,0,0,0,1.049,1.075c.154,0,.318.006.482.006a22.447,22.447,0,0,0,14.936-5.779c3.537-3.141,6.351-11.306,2.892-17.467-3.241-5.792-9.545-7.847-13.958-7.847-.125,0-.252,0-.377.005-.946.02-4.646.031-10.991.031-9.5,0-22.335-.023-26.045-.031a1.079,1.079,0,0,0-.76.314,1.071,1.071,0,0,0-.313.76,1.074,1.074,0,0,0,.313.766,1.071,1.071,0,0,0,.745.309h.1Zm25.856-28.269a9.89,9.89,0,0,0-9.882,9.877h19.753a9.808,9.808,0,0,0-2.89-6.979A9.844,9.844,0,0,0-14514.5,42.872Z" transform="translate(14554.002 -33.001)" fill="#707070" opacity="0.1"/></svg>