<svg xmlns="http://www.w3.org/2000/svg" width="117.3" height="130.333" viewBox="0 0 117.3 130.333"><g opacity="0.1"><path d="M105.57,11.848H99.7V5.865A5.865,5.865,0,0,0,93.84,0h0a5.865,5.865,0,0,0-5.865,5.865v5.983H29.325V5.865A5.865,5.865,0,0,0,23.46,0h0a5.865,5.865,0,0,0-5.865,5.865v5.983H11.73A11.824,11.824,0,0,0,0,23.7v94.788a11.824,11.824,0,0,0,11.73,11.849h93.84a11.824,11.824,0,0,0,11.73-11.849V23.7A11.824,11.824,0,0,0,105.57,11.848Zm0,98.816a7.82,7.82,0,0,1-7.82,7.82H19.55a7.82,7.82,0,0,1-7.82-7.82V53.318h93.84Zm0-73.756a4.562,4.562,0,0,1-4.562,4.562H16.292a4.562,4.562,0,0,1-4.562-4.562V28.259A4.562,4.562,0,0,1,16.292,23.7h84.716a4.562,4.562,0,0,1,4.562,4.562Z" transform="translate(0 0)" fill="#707070"/><path d="M15.517,11h19.55a6.536,6.536,0,0,1,6.517,6.517v19.55a6.536,6.536,0,0,1-6.517,6.517H15.517A6.536,6.536,0,0,1,9,37.067V17.517A6.536,6.536,0,0,1,15.517,11Z" transform="translate(49.65 60.683)" fill="#707070"/></g></svg>