<svg xmlns="http://www.w3.org/2000/svg" width="40" height="40" viewBox="0 0 40 40"><g transform="translate(-591 -537)" opacity="0.1"><circle cx="3.5" cy="3.5" r="3.5" transform="translate(591 537)" fill="#fff"/><circle cx="3.5" cy="3.5" r="3.5" transform="translate(602 537)" fill="#fff"/><circle cx="3.5" cy="3.5" r="3.5" transform="translate(613 537)" fill="#fff"/><circle cx="3.5" cy="3.5" r="3.5" transform="translate(624 537)" fill="#fff"/><circle cx="3.5" cy="3.5" r="3.5" transform="translate(591 548)" fill="#fff"/><circle cx="3.5" cy="3.5" r="3.5" transform="translate(602 548)" fill="#fff"/><circle cx="3.5" cy="3.5" r="3.5" transform="translate(613 548)" fill="#fff"/><circle cx="3.5" cy="3.5" r="3.5" transform="translate(624 548)" fill="#fff"/><circle cx="3.5" cy="3.5" r="3.5" transform="translate(591 559)" fill="#fff"/><circle cx="3.5" cy="3.5" r="3.5" transform="translate(602 559)" fill="#fff"/><circle cx="3.5" cy="3.5" r="3.5" transform="translate(613 559)" fill="#fff"/><circle cx="3.5" cy="3.5" r="3.5" transform="translate(624 559)" fill="#fff"/><circle cx="3.5" cy="3.5" r="3.5" transform="translate(591 570)" fill="#fff"/><circle cx="3.5" cy="3.5" r="3.5" transform="translate(602 570)" fill="#fff"/><circle cx="3.5" cy="3.5" r="3.5" transform="translate(613 570)" fill="#fff"/><circle cx="3.5" cy="3.5" r="3.5" transform="translate(624 570)" fill="#fff"/></g></svg>