<svg xmlns="http://www.w3.org/2000/svg" width="102.583" height="91" viewBox="0 0 102.583 91"><path d="M58.388.018A45.537,45.537,0,0,0,11.583,45.509H2.535a2.5,2.5,0,0,0-1.769,4.3l14.1,14.153a2.5,2.5,0,0,0,3.589,0l14.1-14.153a2.527,2.527,0,0,0-1.82-4.3H21.692A35.372,35.372,0,0,1,57.579,10.127C76.382,10.38,92.2,26.2,92.456,45A35.4,35.4,0,0,1,57.074,80.891,34.852,34.852,0,0,1,35.44,73.41a5.056,5.056,0,0,0-6.268,7.936A44.772,44.772,0,0,0,57.074,91a45.537,45.537,0,0,0,45.491-46.805C101.908,20.489,82.094.675,58.388.018ZM55.81,25.291a3.819,3.819,0,0,0-3.791,3.791v18.6A5.114,5.114,0,0,0,54.5,52.029l15.77,9.351a3.8,3.8,0,0,0,3.892-6.52L59.6,46.216V29.031A3.809,3.809,0,0,0,55.81,25.291Z" fill="#707070" opacity="0.1"/></svg>