<svg xmlns="http://www.w3.org/2000/svg" width="144.814" height="130.333" viewBox="0 0 144.814 130.333"><g transform="translate(-2 -3)" opacity="0.1"><path d="M139.574,69.759C139.574,30.008,108.728,3,74.407,3,40.448,3,9.241,29.429,9.241,70.194A14.248,14.248,0,0,0,2,82.648V97.129a14.524,14.524,0,0,0,14.481,14.481,7.262,7.262,0,0,0,7.241-7.241V69.542c0-27.732,21.36-51.988,49.092-52.785a50.737,50.737,0,0,1,52.278,50.685v51.409H74.407a7.241,7.241,0,0,0,0,14.481h50.685a14.524,14.524,0,0,0,14.481-14.481v-8.834a13.387,13.387,0,0,0,7.241-11.875V81.489A13.334,13.334,0,0,0,139.574,69.759Z" transform="translate(0 0)" fill="#707070"/></g></svg>