<svg xmlns="http://www.w3.org/2000/svg" xmlns:xlink="http://www.w3.org/1999/xlink" width="41.626" height="37.464" viewBox="0 0 41.626 37.464"><defs><linearGradient id="a" x1="0.5" x2="0.5" y2="1" gradientUnits="objectBoundingBox"><stop offset="0" stop-color="#7c73e6"/><stop offset="1" stop-color="#b2abff"/></linearGradient></defs><g transform="translate(14181 -2479.854)"><path d="M15.46,22.12A6.66,6.66,0,1,0,8.8,15.46,6.66,6.66,0,0,0,15.46,22.12Z" transform="translate(-14175.647 2485.207)" fill="url(#a)"/><path d="M39.463,6.163h-6.6l-2.581-2.81A4.143,4.143,0,0,0,27.225,2H18.4a4.223,4.223,0,0,0-3.08,1.353l-2.56,2.81h-6.6A4.175,4.175,0,0,0,2,10.325V35.3a4.175,4.175,0,0,0,4.163,4.163h33.3A4.175,4.175,0,0,0,43.626,35.3V10.325A4.175,4.175,0,0,0,39.463,6.163ZM22.813,33.22A10.407,10.407,0,1,1,33.22,22.813,10.41,10.41,0,0,1,22.813,33.22Z" transform="translate(-14183 2477.854)" fill="url(#a)"/></g></svg>