<svg xmlns="http://www.w3.org/2000/svg" width="25.717" height="34.781" viewBox="0 0 25.717 34.781"><path d="M-5883.608,19219.328a12.767,12.767,0,0,1-3.75-9.09c0-2.875,1.45-6.729,4.306-11.467a88.3,88.3,0,0,1,6.91-9.68,2.133,2.133,0,0,1,1.647-.795,2.133,2.133,0,0,1,1.641.795,89.189,89.189,0,0,1,6.91,9.7c2.865,4.721,4.3,8.582,4.3,11.449a12.837,12.837,0,0,1-3.792,9.09,12.776,12.776,0,0,1-9.088,3.75A12.79,12.79,0,0,1-5883.608,19219.328Z" transform="translate(5887.358 -19188.297)" fill="#c33091"/></svg>