<svg xmlns="http://www.w3.org/2000/svg" width="27.335" height="35.145" viewBox="0 0 27.335 35.145"><path d="M6.952,34.24a3.916,3.916,0,0,0,3.9,3.9h15.62a3.916,3.916,0,0,0,3.9-3.9V14.715a3.916,3.916,0,0,0-3.9-3.9H10.857a3.916,3.916,0,0,0-3.9,3.9Zm6.189-15.288a1.944,1.944,0,0,1,2.753,0l2.773,2.773,2.773-2.773A1.947,1.947,0,1,1,24.193,21.7L21.42,24.477l2.773,2.773A1.947,1.947,0,0,1,21.44,30L18.667,27.23,15.895,30a1.947,1.947,0,0,1-2.753-2.753l2.773-2.773L13.142,21.7A1.944,1.944,0,0,1,13.142,18.952Zm12.359-14L24.115,3.566A1.97,1.97,0,0,0,22.748,3H14.587a1.97,1.97,0,0,0-1.367.566L11.834,4.952H6.952a1.952,1.952,0,0,0,0,3.9h23.43a1.952,1.952,0,1,0,0-3.9Z" transform="translate(-5 -3)" fill="#ff6a88"/></svg>