<svg xmlns="http://www.w3.org/2000/svg" width="23.852" height="30.667" viewBox="0 0 23.852 30.667"><path d="M6.7,30.26a3.417,3.417,0,0,0,3.407,3.407h13.63a3.417,3.417,0,0,0,3.407-3.407V13.222a3.417,3.417,0,0,0-3.407-3.407H10.111A3.417,3.417,0,0,0,6.7,13.222Zm5.4-13.34a1.7,1.7,0,0,1,2.4,0l2.419,2.419,2.419-2.419a1.7,1.7,0,0,1,2.4,2.4l-2.419,2.419,2.419,2.419a1.7,1.7,0,0,1-2.4,2.4l-2.419-2.419-2.419,2.419a1.7,1.7,0,0,1-2.4-2.4l2.419-2.419L12.1,19.322A1.7,1.7,0,0,1,12.1,16.919ZM22.889,4.7l-1.21-1.21A1.719,1.719,0,0,0,20.487,3H13.365a1.719,1.719,0,0,0-1.193.494L10.963,4.7H6.7a1.7,1.7,0,0,0,0,3.407H27.148a1.7,1.7,0,0,0,0-3.407Z" transform="translate(-5 -3)" fill="#707070" opacity="0.5"/></svg>