<svg xmlns="http://www.w3.org/2000/svg" xmlns:xlink="http://www.w3.org/1999/xlink" width="46.829" height="37.463" viewBox="0 0 46.829 37.463"><defs><linearGradient id="a" x1="0.5" x2="0.5" y2="1" gradientUnits="objectBoundingBox"><stop offset="0" stop-color="#7c73e6"/><stop offset="1" stop-color="#b2abff"/></linearGradient></defs><path d="M44.146,8.683H25.415l-3.3-3.3A4.7,4.7,0,0,0,18.788,4H6.683a4.677,4.677,0,0,0-4.66,4.683L2,36.78a4.7,4.7,0,0,0,4.683,4.683H44.146a4.7,4.7,0,0,0,4.683-4.683V13.366A4.7,4.7,0,0,0,44.146,8.683ZM30.1,32.1H11.366V27.415H30.1Zm9.366-9.366h-28.1V18.049h28.1Z" transform="translate(-2 -4)" fill="url(#a)"/></svg>