<svg xmlns="http://www.w3.org/2000/svg" xmlns:xlink="http://www.w3.org/1999/xlink" width="92" height="92" viewBox="0 0 92 92"><defs><linearGradient id="a" x1="0.5" x2="0.5" y2="1" gradientUnits="objectBoundingBox"><stop offset="0" stop-color="#7c73e6"/><stop offset="1" stop-color="#b2abff"/></linearGradient></defs><g transform="translate(-314 -364)"><circle cx="46" cy="46" r="46" transform="translate(314 364)" fill="url(#a)"/><path d="M7.7,46.221a5.419,5.419,0,0,0,5.4,5.4H34.715a5.419,5.419,0,0,0,5.4-5.4V19.208a5.419,5.419,0,0,0-5.4-5.4H13.1a5.419,5.419,0,0,0-5.4,5.4ZM16.265,25.07a2.69,2.69,0,0,1,3.809,0l3.836,3.836,3.836-3.836a2.693,2.693,0,1,1,3.809,3.809l-3.836,3.836,3.836,3.836a2.693,2.693,0,1,1-3.809,3.809l-3.836-3.836-3.836,3.836a2.693,2.693,0,1,1-3.809-3.809L20.1,32.715l-3.836-3.836A2.69,2.69,0,0,1,16.265,25.07ZM33.364,5.7,31.446,3.783A2.725,2.725,0,0,0,29.555,3H18.264a2.725,2.725,0,0,0-1.891.783L14.455,5.7H7.7a2.7,2.7,0,0,0,0,5.4H40.117a2.7,2.7,0,1,0,0-5.4Z" transform="translate(336.091 382.688)" fill="#fff"/></g></svg>