<svg xmlns="http://www.w3.org/2000/svg" width="49" height="49" viewBox="0 0 49 49"><path d="M24.5,0A24.5,24.5,0,1,0,49,24.5,24.509,24.509,0,0,0,24.5,0ZM12.422,39.886c1.053-2.205,7.473-4.361,12.078-4.361s11.05,2.156,12.079,4.361a19.417,19.417,0,0,1-24.157,0Zm27.661-3.553c-3.5-4.263-12.005-5.708-15.582-5.708S12.422,32.071,8.918,36.333A19.586,19.586,0,1,1,44.1,24.5a19.477,19.477,0,0,1-4.018,11.833ZM24.5,9.8a8.575,8.575,0,1,0,8.575,8.575A8.553,8.553,0,0,0,24.5,9.8Zm0,12.25a3.675,3.675,0,1,1,3.675-3.675A3.67,3.67,0,0,1,24.5,22.05Z" fill="#7c73e6" opacity="0.3"/></svg>