<svg xmlns="http://www.w3.org/2000/svg" width="52.015" height="52.015" viewBox="0 0 52.015 52.015"><path d="M28.212,8.025a1.073,1.073,0,0,1,1.4,1.4L22.555,26.3a1.073,1.073,0,0,1-1.991-.028l-1.872-4.85-.517-1.34a1.073,1.073,0,0,0-.611-.614l-1.319-.515L11.37,17.059a1.073,1.073,0,0,1-.026-1.991Zm8.395-4.183A2.146,2.146,0,0,0,33.8,1.034L.956,14.773A1.557,1.557,0,0,0,0,16.209H0a1.557,1.557,0,0,0,.995,1.452l13.685,5.3,5.281,13.683a1.556,1.556,0,0,0,1.452,1h0a1.557,1.557,0,0,0,1.436-.955Z" transform="translate(26.617 -0.609) rotate(45)" fill="#c33091"/></svg>