<svg width="20" height="20" viewBox="0 0 20 20" fill="none" xmlns="http://www.w3.org/2000/svg">
<path d="M10 0C4.48 0 0 4.48 0 10C0 15.52 4.48 20 10 20C15.52 20 20 15.52 20 10C20 4.48 15.52 0 10 0ZM13.61 6.34C14.68 6.34 15.54 7.2 15.54 8.27C15.54 9.34 14.68 10.2 13.61 10.2C12.54 10.2 11.68 9.34 11.68 8.27C11.67 7.2 12.54 6.34 13.61 6.34ZM7.61 4.76C8.91 4.76 9.97 5.82 9.97 7.12C9.97 8.42 8.91 9.48 7.61 9.48C6.31 9.48 5.25 8.42 5.25 7.12C5.25 5.81 6.3 4.76 7.61 4.76ZM7.61 13.89V16.9599C7.61 17.2972 7.28246 17.5374 6.97033 17.4095C4.96809 16.589 3.38149 14.9786 2.57768 12.9653C2.50826 12.7914 2.5484 12.5916 2.69136 12.4707C3.85227 11.489 6.23455 10.99 7.61 10.99C7.76932 10.99 7.94128 10.9972 8.12291 11.0111C8.59158 11.047 8.70924 11.6973 8.38553 12.0381C7.73862 12.7192 7.61 13.4258 7.61 13.89ZM10 18C9.88315 18 9.76817 17.9981 9.65425 17.9936C9.40049 17.9834 9.21 17.7683 9.21 17.5144V13.89C9.21 12.47 12.15 11.76 13.61 11.76C14.5756 11.76 16.1765 12.0776 17.1558 12.6982C17.3386 12.814 17.3977 13.047 17.3093 13.2446C16.0598 16.0379 13.2613 18 10 18Z" fill="#323232"/>
</svg>
