<svg xmlns="http://www.w3.org/2000/svg" width="33.103" height="36.781" viewBox="0 0 33.103 36.781"><path d="M29.793,3.344H28.138V1.655A1.655,1.655,0,0,0,26.483,0h0a1.655,1.655,0,0,0-1.655,1.655V3.344H8.276V1.655A1.655,1.655,0,0,0,6.621,0h0A1.655,1.655,0,0,0,4.965,1.655V3.344H3.31A3.337,3.337,0,0,0,0,6.687v26.75a3.337,3.337,0,0,0,3.31,3.344H29.793a3.337,3.337,0,0,0,3.31-3.344V6.687A3.337,3.337,0,0,0,29.793,3.344Zm0,27.887a2.207,2.207,0,0,1-2.207,2.207H5.517A2.207,2.207,0,0,1,3.31,31.231V15.047H29.793Zm0-20.815A1.287,1.287,0,0,1,28.505,11.7H4.6A1.287,1.287,0,0,1,3.31,10.416V7.975A1.287,1.287,0,0,1,4.6,6.687H28.505a1.287,1.287,0,0,1,1.287,1.287Z" transform="translate(0 0)" fill="#c33091"/><path d="M10.839,11h5.517A1.844,1.844,0,0,1,18.2,12.839v5.517A1.844,1.844,0,0,1,16.356,20.2H10.839A1.844,1.844,0,0,1,9,18.356V12.839A1.844,1.844,0,0,1,10.839,11Z" transform="translate(7.552 9.23)" fill="#c33091"/></svg>