<svg xmlns="http://www.w3.org/2000/svg" width="78.25" height="60.27" viewBox="0 0 78.25 60.27">
  <path id="ehsasi_sefid" data-name="ehsasi sefid" d="M22.975,57.194A57.6,57.6,0,0,1,13.983,50.2C10.7,47.117,2.86,39.043.846,30.681A16.8,16.8,0,0,1,0,25.443,17.333,17.333,0,0,1,9.365,10.168,18.552,18.552,0,0,1,18.06,8h.125a18.3,18.3,0,0,1,7.569,1.629c.141.065.277.128.417.2A14.992,14.992,0,0,1,33.236,1.84,15.806,15.806,0,0,1,40.631,0h.106a15.646,15.646,0,0,1,11.03,4.559A16.192,16.192,0,0,1,63,.062h.069a15.625,15.625,0,0,1,7.211,1.773A14.746,14.746,0,0,1,78.25,14.859v.017a14.635,14.635,0,0,1-.779,4.622,25.834,25.834,0,0,1-4.32,8.788,50.42,50.42,0,0,1-6.993,7.762,49.028,49.028,0,0,1-7.532,5.717,23.284,23.284,0,0,1-3.716,1.843l-.79.954a66.208,66.208,0,0,1-5.777,5.967,58.138,58.138,0,0,1-8.961,6.788c-3.261,1.959-5.963,2.953-8.033,2.953C29.13,60.27,26.311,59.235,22.975,57.194Zm.763-1.243h0ZM11.568,14.3A12.673,12.673,0,0,0,4.694,25.446a11.976,11.976,0,0,0,.628,3.828l.006.011.069.133v.112a23.964,23.964,0,0,0,3.227,7.116L9.8,38.4A59.585,59.585,0,0,0,21.472,50.448c4.08,3.167,7.865,5.131,9.878,5.131,1.182,0,3.267-.855,5.727-2.349a54.684,54.684,0,0,0,8.11-6.167c1.189-1.08,2.351-2.226,3.458-3.41a22.335,22.335,0,0,1-4.021-2,48.112,48.112,0,0,1-7.571-5.881c-2.765-2.6-9.365-9.391-11.077-16.47a14.183,14.183,0,0,1-.71-4.456c0-.067,0-.135,0-.2l-.346-.194c-.36-.2-.734-.392-1.107-.559a13.6,13.6,0,0,0-5.636-1.213H18.06A13.908,13.908,0,0,0,11.568,14.3ZM40.631,4.4a11.507,11.507,0,0,0-5.338,1.319,10.4,10.4,0,0,0-5.633,9.128,9.592,9.592,0,0,0,.529,3.167l.01.022.032.131a19.855,19.855,0,0,0,2.695,5.945l.968,1.461a49.892,49.892,0,0,0,9.741,10.046c3.39,2.62,6.505,4.245,8.127,4.245a11.28,11.28,0,0,0,4.6-1.877,45.824,45.824,0,0,0,6.838-5.2c5.378-4.909,9.029-10.167,10.016-14.43l.027-.133.032-.063a10.469,10.469,0,0,0,.585-3.324,10.4,10.4,0,0,0-5.63-9.12,11.292,11.292,0,0,0-5.173-1.265H63a11.5,11.5,0,0,0-8.649,3.78l-.99,1.153A2.068,2.068,0,0,1,50.22,9.4L49.2,8.248A11.247,11.247,0,0,0,40.756,4.4ZM3.246,33.348h0ZM1.46,25.452ZM27.385,18.9ZM26.72,14.871ZM18.079,9.458ZM69.42,3.035h0Zm-5.583-.013h0ZM63.071,3ZM40.737,2.944Zm26.025-.936h0ZM63,1.516ZM40.638,1.457Z" fill="#fff"/>
</svg>
