<svg xmlns="http://www.w3.org/2000/svg" xmlns:xlink="http://www.w3.org/1999/xlink" width="89" height="89" viewBox="0 0 89 89"><defs><linearGradient id="a" x1="0.531" y1="-0.331" x2="0.5" y2="1.241" gradientUnits="objectBoundingBox"><stop offset="0" stop-color="#7c73e6"/><stop offset="1" stop-color="#b2abff"/></linearGradient></defs><g transform="translate(4491 -19345)"><circle cx="44.5" cy="44.5" r="44.5" transform="translate(-4491 19345)" fill="url(#a)"/><path d="M40.144,0H4.46A4.474,4.474,0,0,0,0,4.46V39.22A2.23,2.23,0,0,0,3.807,40.8L7.614,36.99a4.46,4.46,0,0,1,3.154-1.306H40.144a4.474,4.474,0,0,0,4.46-4.46V4.46A4.474,4.474,0,0,0,40.144,0Zm0,26.762a4.46,4.46,0,0,1-4.46,4.46H8.012a2.276,2.276,0,0,0-1.609.667h0a1.138,1.138,0,0,1-1.943-.8V8.921a4.46,4.46,0,0,1,4.46-4.46H35.683a4.46,4.46,0,0,1,4.46,4.46ZM11.151,16.727a1.115,1.115,0,0,1,1.115-1.115H14.5a1.115,1.115,0,0,1,1.115,1.115v2.23A1.115,1.115,0,0,1,14.5,20.072h-2.23a1.115,1.115,0,0,1-1.115-1.115Zm17.842,0a1.115,1.115,0,0,1,1.115-1.115h2.23a1.115,1.115,0,0,1,1.115,1.115v2.23a1.115,1.115,0,0,1-1.115,1.115h-2.23a1.115,1.115,0,0,1-1.115-1.115Zm-8.921,0a1.115,1.115,0,0,1,1.115-1.115h2.23a1.115,1.115,0,0,1,1.115,1.115v2.23a1.115,1.115,0,0,1-1.115,1.115h-2.23a1.115,1.115,0,0,1-1.115-1.115Z" transform="translate(-4468.802 19368.773)" fill="#fff"/></g></svg>