<svg xmlns="http://www.w3.org/2000/svg" xmlns:xlink="http://www.w3.org/1999/xlink" width="45.789" height="37.464" viewBox="0 0 45.789 37.464"><defs><linearGradient id="a" x1="0.5" x2="0.5" y2="1" gradientUnits="objectBoundingBox"><stop offset="0" stop-color="#7c73e6"/><stop offset="1" stop-color="#b2abff"/></linearGradient></defs><path d="M42.626,3H5.163A4.476,4.476,0,0,0,1,7.163V36.3a4.175,4.175,0,0,0,4.163,4.163H42.626A4.476,4.476,0,0,0,46.789,36.3V7.163A4.476,4.476,0,0,0,42.626,3ZM10.636,30.452l5.182-6.66a1.039,1.039,0,0,1,1.623-.021l4.371,5.266,6.452-8.3a1.045,1.045,0,0,1,1.665.021l7.305,9.741a1.04,1.04,0,0,1-.833,1.665H11.448A1.06,1.06,0,0,1,10.636,30.452Z" transform="translate(-1 -3)" fill="url(#a)"/></svg>