<svg xmlns="http://www.w3.org/2000/svg" xmlns:xlink="http://www.w3.org/1999/xlink" width="57.116" height="57" viewBox="0 0 57.116 57"><defs><linearGradient id="a" x1="0.93" y1="0.123" x2="0.31" y2="1" gradientUnits="objectBoundingBox"><stop offset="0" stop-color="#c33091"/><stop offset="1" stop-color="#ffa5fc"/></linearGradient></defs><path d="M17.418,54.77A28.5,28.5,0,0,1,28.535,0h.07a28.382,28.382,0,0,1,20.2,8.448A28.155,28.155,0,0,1,57.116,28.58a28.39,28.39,0,0,1-17.456,26.2,28.9,28.9,0,0,1-22.242-.009ZM3.967,28.376A24.541,24.541,0,0,0,28.394,52.945h.142a24.4,24.4,0,1,0-.095-48.792A24.092,24.092,0,0,0,3.967,28.376ZM21.828,39.007a9.462,9.462,0,0,1-2.774-6.726c0-2.127,1.073-4.978,3.186-8.488a65.561,65.561,0,0,1,5.113-7.161,1.552,1.552,0,0,1,2.432,0A66.087,66.087,0,0,1,34.9,23.809c2.12,3.495,3.185,6.35,3.185,8.473a9.533,9.533,0,0,1-16.255,6.726Z" fill="url(#a)"/></svg>