<svg xmlns="http://www.w3.org/2000/svg" xmlns:xlink="http://www.w3.org/1999/xlink" width="104.34" height="81.913" viewBox="0 0 104.34 81.913"><defs><filter id="a" x="0" y="0" width="104.34" height="81.913" filterUnits="userSpaceOnUse"><feOffset dy="3" input="SourceAlpha"/><feGaussianBlur stdDeviation="4" result="b"/><feFlood flood-color="#fff"/><feComposite operator="in" in2="b"/><feComposite in="SourceGraphic"/></filter></defs><g transform="matrix(1, 0, 0, 1, 0, 0)" filter="url(#a)"><path d="M497.926,157h-9.891a22.354,22.354,0,0,0,4.243-12.918,20.414,20.414,0,0,0-5.191-13.932h0a17.729,17.729,0,0,0-13.186-5.743A16.648,16.648,0,0,0,463.5,128a20.263,20.263,0,0,0-3.091,2.976A20.348,20.348,0,0,0,457.317,128a16.649,16.649,0,0,0-10.4-3.589,17.729,17.729,0,0,0-13.186,5.743,20.4,20.4,0,0,0-5.191,13.932A22.369,22.369,0,0,0,432.782,157h-11.9a1.3,1.3,0,1,0,0,2.6h13.844l.173.213c3.774,4.555,9.133,9.121,15.349,14.418,2.1,1.788,4.475,3.807,6.941,5.97a4.887,4.887,0,0,0,6.436,0c2.445-2.139,4.807-4.153,6.892-5.929l.062-.054c6.205-5.288,11.565-9.855,15.337-14.408l.173-.213h11.836a1.3,1.3,0,0,0,0-2.6Zm-66.8-12.918a17.821,17.821,0,0,1,4.508-12.174A15.163,15.163,0,0,1,446.915,127a14.107,14.107,0,0,1,8.812,3.044,18.391,18.391,0,0,1,3.634,3.79,1.3,1.3,0,0,0,2.1,0,18.473,18.473,0,0,1,3.618-3.79A14.126,14.126,0,0,1,473.9,127a15.162,15.162,0,0,1,11.277,4.906,17.822,17.822,0,0,1,4.5,12.174c0,4.458-1.547,8.6-4.845,12.918H470.986l-3.807-8.671a1.284,1.284,0,0,0-1.2-.775,1.3,1.3,0,0,0-1.187.791l-4.264,10.063-5.917-17.132a1.3,1.3,0,0,0-2.437-.047l-6.124,15.78H435.978c-3.3-4.331-4.851-8.467-4.851-12.925Zm37.764,28.16-.062.052c-2.09,1.782-4.459,3.807-6.922,5.951a2.29,2.29,0,0,1-3.016,0c-2.478-2.167-4.863-4.2-6.977-6-5.441-4.646-10.222-8.716-13.768-12.648h8.794a1.3,1.3,0,0,0,1.211-.829l5.164-13.306,5.863,16.988a1.3,1.3,0,0,0,1.182.874h.045a1.3,1.3,0,0,0,1.2-.791l4.409-10.407,2.942,6.7a1.3,1.3,0,0,0,1.189.775h12.52C479.117,163.527,474.336,167.6,468.893,172.244Z" transform="translate(-407.23 -115.06)" fill="#fff" stroke="#fff" stroke-width="0.7"/></g></svg>