<svg xmlns="http://www.w3.org/2000/svg" width="235" height="232" viewBox="0 0 235 232"><g transform="translate(-1889 452)"><rect width="235" height="232" transform="translate(1889 -452)" fill="#fff" opacity="0"/><g transform="translate(541 416)"><g transform="translate(1143 -1038.082)"><g transform="translate(228 213.082)"><circle cx="94.5" cy="94.5" r="94.5" fill="#fff0e1"/></g></g><g transform="translate(1418.229 -778.68)"><circle cx="39.979" cy="39.979" r="39.979" transform="matrix(0.218, -0.976, 0.976, 0.218, 0, 78.034)" fill="#ff8852"/><circle cx="36.551" cy="36.551" r="36.551" transform="translate(8.695 81.614) rotate(-85.955)" fill="#ffc3ab"/><circle cx="34.158" cy="34.158" r="34.158" transform="matrix(0.226, -0.974, 0.974, 0.226, 6.743, 73.294)" fill="#ff7b35"/><path d="M2983.913,672.325c-1.012-6.026,2.814-10.975,8.707-12.591,8.043-2.205,12.742,3.98,13.754,10.006s-3,12.618-10.175,12.726A12.116,12.116,0,0,1,2983.913,672.325Z" transform="translate(-2956.19 -634.76)" fill="#fa6838"/><path d="M2991.869,669.21a3.9,3.9,0,0,1,3.066-4.432c2.831-.777,4.484,1.4,4.841,3.522a3.752,3.752,0,0,1-3.583,4.479A4.264,4.264,0,0,1,2991.869,669.21Z" transform="translate(-2958.572 -636.338)" fill="#ff9a6d"/><path d="M3005.688,701.364c.212-1.557,1.137-2.534,2.188-2.551,1.435-.024,1.808,1.811,1.6,3.369s-1.269,2.928-2.434,2.488C3006.048,704.3,3005.476,702.921,3005.688,701.364Z" transform="translate(-2962.657 -646.439)" fill="#ff9a6d"/><path d="M3017.193,698.388c-.49-1.977.181-3.6,1.471-4.135,1.762-.726,3.108,1.3,3.6,3.282s-.155,4.144-1.807,4.18C3019.053,701.747,3017.683,700.367,3017.193,698.388Z" transform="translate(-2966.021 -645.047)" fill="#ff9a6d"/><path d="M3028.512,681.789c1.786.982,2.523,2.58,2.036,3.888-.662,1.786-3.067,1.4-4.852.415s-2.937-2.926-1.845-4.163C3024.782,680.875,3026.727,680.806,3028.512,681.789Z" transform="translate(-2967.91 -641.205)" fill="#ff9a6d"/><path d="M3036.658,696.489c1.783.982,2.522,2.579,2.035,3.888-.661,1.786-3.067,1.4-4.852.415s-2.938-2.926-1.844-4.163C3032.927,695.575,3034.871,695.505,3036.658,696.489Z" transform="translate(-2970.316 -645.547)" fill="#ff9a6d"/><path d="M2985.717,639.737a2.594,2.594,0,0,1,2.07-2.9,2.34,2.34,0,0,1,2.9,2.069,2.6,2.6,0,0,1-2.069,2.9A2.457,2.457,0,0,1,2985.717,639.737Z" transform="translate(-2956.76 -628.107)" fill="#ff7b35"/><path d="M2987.315,640.029a1.47,1.47,0,0,1,1.136-1.6,1.316,1.316,0,0,1,1.6,1.136,1.45,1.45,0,0,1-1.137,1.6A1.333,1.333,0,0,1,2987.315,640.029Z" transform="translate(-2957.238 -628.587)" fill="#fa6838"/><path d="M2970.886,651.755a1.667,1.667,0,0,1,1.329-1.866,1.505,1.505,0,0,1,1.868,1.329,1.672,1.672,0,0,1-1.331,1.866A1.58,1.58,0,0,1,2970.886,651.755Z" transform="translate(-2952.383 -631.972)" fill="#ff7b35"/><path d="M2971.914,651.943a.943.943,0,0,1,.73-1.026.847.847,0,0,1,1.026.731.932.932,0,0,1-.73,1.026A.854.854,0,0,1,2971.914,651.943Z" transform="translate(-2952.69 -632.281)" fill="#fa6838"/><path d="M2963.469,660.013a2.238,2.238,0,0,1,1.784-2.506,2.021,2.021,0,0,1,2.507,1.785,2.243,2.243,0,0,1-1.786,2.505A2.119,2.119,0,0,1,2963.469,660.013Z" transform="translate(-2950.19 -634.218)" fill="#ff7b35"/><path d="M2964.847,660.266a1.266,1.266,0,0,1,.98-1.377,1.136,1.136,0,0,1,1.377.98,1.251,1.251,0,0,1-.98,1.377A1.149,1.149,0,0,1,2964.847,660.266Z" transform="translate(-2950.6 -634.632)" fill="#fa6838"/><path d="M3010.791,633.705a2.592,2.592,0,0,1,2.068-2.9,2.341,2.341,0,0,1,2.9,2.069,2.6,2.6,0,0,1-2.07,2.9A2.456,2.456,0,0,1,3010.791,633.705Z" transform="translate(-2964.167 -626.325)" fill="#ff7b35"/><path d="M3012.387,634a1.471,1.471,0,0,1,1.137-1.6,1.316,1.316,0,0,1,1.6,1.137,1.451,1.451,0,0,1-1.136,1.6A1.332,1.332,0,0,1,3012.387,634Z" transform="translate(-2964.644 -626.805)" fill="#fa6838"/><path d="M3001.905,634.73a2.148,2.148,0,0,1,1.712-2.4,1.937,1.937,0,0,1,2.4,1.712,2.151,2.151,0,0,1-1.712,2.4A2.036,2.036,0,0,1,3001.905,634.73Z" transform="translate(-2961.544 -626.78)" fill="#ff7b35"/><path d="M3003.227,634.972a1.216,1.216,0,0,1,.94-1.32,1.091,1.091,0,0,1,1.322.94,1.2,1.2,0,0,1-.941,1.32A1.1,1.1,0,0,1,3003.227,634.972Z" transform="translate(-2961.938 -627.178)" fill="#fa6838"/><path d="M2953.873,688.947a2.148,2.148,0,0,1,1.713-2.4,1.934,1.934,0,0,1,2.4,1.712,2.148,2.148,0,0,1-1.71,2.4A2.034,2.034,0,0,1,2953.873,688.947Z" transform="translate(-2947.355 -642.795)" fill="#ff7b35"/><path d="M2955.194,689.188a1.216,1.216,0,0,1,.94-1.32,1.089,1.089,0,0,1,1.321.94,1.2,1.2,0,0,1-.941,1.321A1.1,1.1,0,0,1,2955.194,689.188Z" transform="translate(-2947.75 -643.193)" fill="#fa6838"/><path d="M3024.335,637.67a2.145,2.145,0,0,1,1.711-2.4,1.938,1.938,0,0,1,2.4,1.711,2.151,2.151,0,0,1-1.713,2.4A2.031,2.031,0,0,1,3024.335,637.67Z" transform="translate(-2968.17 -627.649)" fill="#ff7b35"/><path d="M3025.656,637.911a1.214,1.214,0,0,1,.94-1.32,1.088,1.088,0,0,1,1.321.94,1.2,1.2,0,0,1-.941,1.32A1.1,1.1,0,0,1,3025.656,637.911Z" transform="translate(-2968.565 -628.046)" fill="#fa6838"/><path d="M3041.839,643.979a2.6,2.6,0,0,1,2.071-2.905,2.339,2.339,0,0,1,2.9,2.07,2.6,2.6,0,0,1-2.068,2.9A2.458,2.458,0,0,1,3041.839,643.979Z" transform="translate(-2973.339 -629.36)" fill="#ff7b35"/><path d="M3043.436,644.271a1.472,1.472,0,0,1,1.138-1.6,1.315,1.315,0,0,1,1.594,1.137,1.45,1.45,0,0,1-1.134,1.6A1.333,1.333,0,0,1,3043.436,644.271Z" transform="translate(-2973.815 -629.84)" fill="#fa6838"/><path d="M3046.487,650.3a2.011,2.011,0,0,1,1.6-2.251,1.814,1.814,0,0,1,2.25,1.6,2.015,2.015,0,0,1-1.6,2.251A1.906,1.906,0,0,1,3046.487,650.3Z" transform="translate(-2974.714 -631.426)" fill="#ff7b35"/><path d="M3047.724,650.529a1.141,1.141,0,0,1,.882-1.237,1.019,1.019,0,0,1,1.235.881,1.124,1.124,0,0,1-.879,1.237A1.035,1.035,0,0,1,3047.724,650.529Z" transform="translate(-2975.083 -631.798)" fill="#fa6838"/><path d="M2979.695,642.579a2.616,2.616,0,0,1,2.069-2.9,2.523,2.523,0,0,1,2.906,2.069,2.466,2.466,0,0,1-2.07,2.905A2.707,2.707,0,0,1,2979.695,642.579Z" transform="translate(-2954.989 -628.959)" fill="#fa6838"/><path d="M2981.04,642.829c-.344-.777.424-1.631,1.261-1.772a1.538,1.538,0,0,1,.509,3.033A1.776,1.776,0,0,1,2981.04,642.829Z" transform="translate(-2955.364 -629.371)" fill="#ff7b35"/><path d="M2998.305,637.34a1.8,1.8,0,0,1,1.422-2,1.735,1.735,0,0,1,2,1.423,1.7,1.7,0,0,1-1.424,2A1.859,1.859,0,0,1,2998.305,637.34Z" transform="translate(-2960.487 -627.682)" fill="#fa6838"/><path d="M2999.229,637.511c-.235-.534.291-1.121.868-1.218a1.058,1.058,0,0,1,.351,2.087A1.225,1.225,0,0,1,2999.229,637.511Z" transform="translate(-2960.744 -627.966)" fill="#ff7b35"/><path d="M3029.857,638.388a2.29,2.29,0,0,1,1.813-2.543,2.209,2.209,0,0,1,2.542,1.812,2.159,2.159,0,0,1-1.811,2.543A2.371,2.371,0,0,1,3029.857,638.388Z" transform="translate(-2969.808 -627.829)" fill="#fa6838"/><path d="M3031.035,638.607c-.3-.68.372-1.428,1.1-1.551a1.346,1.346,0,1,1,.447,2.655A1.556,1.556,0,0,1,3031.035,638.607Z" transform="translate(-2970.137 -628.191)" fill="#ff7b35"/><path d="M2956.5,671.715a2.118,2.118,0,0,1,1.676-2.353,2.042,2.042,0,0,1,2.353,1.675,2,2,0,0,1-1.675,2.353A2.193,2.193,0,0,1,2956.5,671.715Z" transform="translate(-2948.138 -637.731)" fill="#fa6838"/><path d="M2957.594,671.917c-.28-.629.343-1.321,1.021-1.435a1.246,1.246,0,0,1,.413,2.457A1.439,1.439,0,0,1,2957.594,671.917Z" transform="translate(-2948.444 -638.065)" fill="#ff7b35"/><path d="M2973.234,647.285c-.552-1.546.7-2.674,2.069-2.905a2.625,2.625,0,0,1,2.9,2.07c.387,1.338-.713,2.537-2.24,2.794C2974.594,649.475,2973.7,648.6,2973.234,647.285Z" transform="translate(-2953.043 -630.349)" fill="#ffc3ab"/><path d="M2975.052,647.573c-.116-.685.4-1.17,1.031-1.45.654-.286,1.287.062,1.45,1.032a1.191,1.191,0,0,1-1.033,1.449A1.257,1.257,0,0,1,2975.052,647.573Z" transform="translate(-2953.616 -630.846)" fill="#ff7b35"/><path d="M2965.166,654.616c-.552-1.545.695-2.674,2.068-2.9a2.624,2.624,0,0,1,2.906,2.068c.387,1.338-.713,2.539-2.24,2.8C2966.526,656.807,2965.635,655.929,2965.166,654.616Z" transform="translate(-2950.66 -632.515)" fill="#ffc3ab"/><path d="M2966.982,654.9c-.114-.685.4-1.17,1.034-1.45s1.285.062,1.448,1.032a1.19,1.19,0,0,1-1.032,1.449A1.26,1.26,0,0,1,2966.982,654.9Z" transform="translate(-2951.231 -633.011)" fill="#ff7b35"/><path d="M3017.54,635.455c-.553-1.545.7-2.674,2.069-2.9a2.624,2.624,0,0,1,2.9,2.068c.387,1.338-.714,2.538-2.241,2.794C3018.9,637.645,3018.008,636.767,3017.54,635.455Z" transform="translate(-2966.132 -626.855)" fill="#ffc3ab"/><path d="M3019.357,635.742c-.115-.685.4-1.17,1.033-1.449.653-.287,1.285.062,1.448,1.032a1.189,1.189,0,0,1-1.032,1.449A1.259,1.259,0,0,1,3019.357,635.742Z" transform="translate(-2966.703 -627.351)" fill="#ff7b35"/><path d="M3006.213,635.909a1.877,1.877,0,0,1,1.723-2.417,2.183,2.183,0,0,1,2.417,1.722c.321,1.113-.595,2.113-1.864,2.326C3007.346,637.732,3006.6,637,3006.213,635.909Z" transform="translate(-2962.793 -627.135)" fill="#ffc3ab"/><path d="M3007.725,636.148c-.095-.57.332-.974.859-1.206.544-.239,1.071.052,1.209.859a.992.992,0,0,1-.86,1.206A1.049,1.049,0,0,1,3007.725,636.148Z" transform="translate(-2963.266 -627.547)" fill="#ff7b35"/><path d="M2991.3,636.334c-.553-1.546.695-2.674,2.069-2.9a2.625,2.625,0,0,1,2.9,2.07c.387,1.337-.712,2.537-2.239,2.793C2992.659,638.524,2991.766,637.646,2991.3,636.334Z" transform="translate(-2958.379 -627.114)" fill="#ffc3ab"/><path d="M2993.115,636.621c-.114-.685.4-1.17,1.033-1.449.653-.287,1.285.061,1.45,1.032a1.19,1.19,0,0,1-1.034,1.448A1.258,1.258,0,0,1,2993.115,636.621Z" transform="translate(-2958.952 -627.611)" fill="#ff7b35"/><path d="M3037.71,741.866a2.594,2.594,0,0,1-2.07,2.9,2.34,2.34,0,0,1-2.9-2.069,2.6,2.6,0,0,1,2.069-2.905A2.459,2.459,0,0,1,3037.71,741.866Z" transform="translate(-2970.651 -658.527)" fill="#ff7b35"/><path d="M3037.066,742.532a1.471,1.471,0,0,1-1.137,1.6,1.317,1.317,0,0,1-1.6-1.137,1.451,1.451,0,0,1,1.138-1.6A1.333,1.333,0,0,1,3037.066,742.532Z" transform="translate(-2971.125 -659.005)" fill="#fa6838"/><path d="M3012.636,747.9a2.593,2.593,0,0,1-2.067,2.905,2.34,2.34,0,0,1-2.906-2.069,2.6,2.6,0,0,1,2.068-2.9A2.457,2.457,0,0,1,3012.636,747.9Z" transform="translate(-2963.243 -660.309)" fill="#ff7b35"/><path d="M3011.992,748.564a1.471,1.471,0,0,1-1.138,1.6,1.315,1.315,0,0,1-1.594-1.137,1.45,1.45,0,0,1,1.137-1.6A1.331,1.331,0,0,1,3011.992,748.564Z" transform="translate(-2963.72 -660.787)" fill="#fa6838"/><path d="M3021.888,747.242a2.148,2.148,0,0,1-1.713,2.4,1.938,1.938,0,0,1-2.4-1.712,2.152,2.152,0,0,1,1.713-2.4A2.034,2.034,0,0,1,3021.888,747.242Z" transform="translate(-2966.231 -660.224)" fill="#ff7b35"/><path d="M3021.355,747.794a1.218,1.218,0,0,1-.941,1.321,1.09,1.09,0,0,1-1.321-.941,1.2,1.2,0,0,1,.939-1.32A1.1,1.1,0,0,1,3021.355,747.794Z" transform="translate(-2966.625 -660.619)" fill="#fa6838"/><path d="M2999.458,744.3a2.147,2.147,0,0,1-1.712,2.4,1.937,1.937,0,0,1-2.4-1.711,2.151,2.151,0,0,1,1.712-2.4A2.033,2.033,0,0,1,2999.458,744.3Z" transform="translate(-2959.605 -659.356)" fill="#ff7b35"/><path d="M2998.925,744.855a1.216,1.216,0,0,1-.94,1.32,1.088,1.088,0,0,1-1.32-.94,1.2,1.2,0,0,1,.94-1.32A1.1,1.1,0,0,1,2998.925,744.855Z" transform="translate(-2960 -659.751)" fill="#fa6838"/><path d="M3043.745,739.063a2.617,2.617,0,0,1-2.069,2.905,2.524,2.524,0,0,1-2.906-2.069,2.467,2.467,0,0,1,2.07-2.905A2.709,2.709,0,0,1,3043.745,739.063Z" transform="translate(-2972.432 -657.714)" fill="#fa6838"/><path d="M3043.187,739.631c.344.776-.424,1.63-1.261,1.771a1.538,1.538,0,0,1-.51-3.033A1.777,1.777,0,0,1,3043.187,739.631Z" transform="translate(-2972.845 -658.119)" fill="#ff7b35"/><path d="M3025.791,744.96a1.8,1.8,0,0,1-1.422,2,1.735,1.735,0,0,1-2-1.423,1.7,1.7,0,0,1,1.423-2A1.86,1.86,0,0,1,3025.791,744.96Z" transform="translate(-2967.591 -659.648)" fill="#fa6838"/><path d="M3025.407,745.351c.235.534-.293,1.121-.868,1.218a1.058,1.058,0,0,1-.351-2.086A1.225,1.225,0,0,1,3025.407,745.351Z" transform="translate(-2967.875 -659.927)" fill="#ff7b35"/><path d="M2993.842,743.516a2.289,2.289,0,0,1-1.811,2.543,2.206,2.206,0,0,1-2.542-1.812,2.156,2.156,0,0,1,1.81-2.543A2.372,2.372,0,0,1,2993.842,743.516Z" transform="translate(-2957.875 -659.106)" fill="#fa6838"/><path d="M2993.355,744.013c.3.68-.37,1.428-1.1,1.551a1.346,1.346,0,1,1-.447-2.655A1.555,1.555,0,0,1,2993.355,744.013Z" transform="translate(-2958.238 -659.46)" fill="#ff7b35"/><path d="M3050.134,734.394c.553,1.546-.7,2.674-2.068,2.9a2.626,2.626,0,0,1-2.9-2.069c-.387-1.338.714-2.538,2.24-2.8C3048.773,732.2,3049.666,733.082,3050.134,734.394Z" transform="translate(-2974.308 -656.36)" fill="#ffc3ab"/><path d="M3049.435,735.087c.115.686-.4,1.169-1.033,1.449-.653.287-1.285-.062-1.449-1.032a1.191,1.191,0,0,1,1.032-1.449A1.259,1.259,0,0,1,3049.435,735.087Z" transform="translate(-2974.853 -656.845)" fill="#ff7b35"/><path d="M3005.828,746.224c.552,1.545-.7,2.674-2.069,2.9a2.625,2.625,0,0,1-2.905-2.069c-.387-1.338.714-2.538,2.24-2.794C3004.468,744.034,3005.361,744.912,3005.828,746.224Z" transform="translate(-2961.219 -659.855)" fill="#ffc3ab"/><path d="M3005.128,746.918c.115.685-.4,1.169-1.031,1.448-.652.287-1.287-.061-1.45-1.031a1.192,1.192,0,0,1,1.032-1.449A1.256,1.256,0,0,1,3005.128,746.918Z" transform="translate(-2961.765 -660.339)" fill="#ff7b35"/><path d="M3017.519,746.116a1.878,1.878,0,0,1-1.722,2.418,2.184,2.184,0,0,1-2.417-1.722c-.324-1.113.592-2.112,1.864-2.326C3016.387,744.294,3017.129,745.024,3017.519,746.116Z" transform="translate(-2964.923 -659.922)" fill="#ffc3ab"/><path d="M3016.937,746.694c.1.57-.331.974-.859,1.206-.544.239-1.069-.052-1.207-.859a.991.991,0,0,1,.86-1.206A1.047,1.047,0,0,1,3016.937,746.694Z" transform="translate(-2965.377 -660.325)" fill="#ff7b35"/><path d="M3032.071,745.345c.551,1.546-.695,2.674-2.069,2.9a2.626,2.626,0,0,1-2.906-2.069c-.387-1.338.714-2.538,2.241-2.794C3030.711,743.155,3031.6,744.033,3032.071,745.345Z" transform="translate(-2968.971 -659.595)" fill="#ffc3ab"/><path d="M3031.37,746.039c.115.685-.4,1.169-1.031,1.449-.653.287-1.287-.061-1.449-1.032a1.19,1.19,0,0,1,1.031-1.449A1.257,1.257,0,0,1,3031.37,746.039Z" transform="translate(-2969.518 -660.079)" fill="#ff7b35"/><path d="M3069.352,687.53a2.6,2.6,0,0,1,1.806,3.074,2.342,2.342,0,0,1-3.074,1.808,2.6,2.6,0,0,1-1.807-3.075A2.458,2.458,0,0,1,3069.352,687.53Z" transform="translate(-2980.554 -643.082)" fill="#ff7b35"/><path d="M3069.539,689.107a1.47,1.47,0,0,1,.993,1.69,1.317,1.317,0,0,1-1.69.993,1.449,1.449,0,0,1-.991-1.69A1.33,1.33,0,0,1,3069.539,689.107Z" transform="translate(-2981.028 -643.558)" fill="#fa6838"/><path d="M3064.622,712.881a2.6,2.6,0,0,1,1.807,3.074,2.34,2.34,0,0,1-3.075,1.807,2.6,2.6,0,0,1-1.807-3.075A2.458,2.458,0,0,1,3064.622,712.881Z" transform="translate(-2979.158 -650.57)" fill="#ff7b35"/><path d="M3064.81,714.456a1.469,1.469,0,0,1,.991,1.69,1.314,1.314,0,0,1-1.688.993,1.452,1.452,0,0,1-.994-1.689A1.334,1.334,0,0,1,3064.81,714.456Z" transform="translate(-2979.63 -651.046)" fill="#fa6838"/><path d="M3067.737,704.443a2.15,2.15,0,0,1,1.5,2.545,1.937,1.937,0,0,1-2.544,1.5,2.152,2.152,0,0,1-1.5-2.544A2.033,2.033,0,0,1,3067.737,704.443Z" transform="translate(-2980.237 -648.082)" fill="#ff7b35"/><path d="M3067.892,705.747a1.218,1.218,0,0,1,.823,1.4,1.09,1.09,0,0,1-1.4.822,1.2,1.2,0,0,1-.821-1.4A1.1,1.1,0,0,1,3067.892,705.747Z" transform="translate(-2980.628 -648.476)" fill="#fa6838"/><path d="M3055.9,723.719a2.144,2.144,0,0,1,1.494,2.543,1.936,1.936,0,0,1-2.543,1.495,2.152,2.152,0,0,1-1.492-2.543A2.031,2.031,0,0,1,3055.9,723.719Z" transform="translate(-2976.74 -653.776)" fill="#ff7b35"/><path d="M3056.054,725.023a1.216,1.216,0,0,1,.822,1.4,1.088,1.088,0,0,1-1.4.821,1.2,1.2,0,0,1-.821-1.4A1.1,1.1,0,0,1,3056.054,725.023Z" transform="translate(-2977.132 -654.17)" fill="#fa6838"/><path d="M3069.211,680.865a2.618,2.618,0,0,1,1.806,3.075,2.52,2.52,0,0,1-3.074,1.806,2.462,2.462,0,0,1-1.807-3.074A2.708,2.708,0,0,1,3069.211,680.865Z" transform="translate(-2980.493 -641.111)" fill="#fa6838"/><path d="M3069.387,682.255c.85,0,1.316,1.053,1.1,1.875a1.538,1.538,0,0,1-2.977-.773A1.775,1.775,0,0,1,3069.387,682.255Z" transform="translate(-2980.919 -641.548)" fill="#ff7b35"/><path d="M3067.165,700.161a1.8,1.8,0,0,1,1.243,2.115,1.736,1.736,0,0,1-2.115,1.243,1.694,1.694,0,0,1-1.243-2.114A1.863,1.863,0,0,1,3067.165,700.161Z" transform="translate(-2980.183 -646.819)" fill="#fa6838"/><path d="M3067.286,701.117c.585,0,.9.724.758,1.29a1.057,1.057,0,1,1-2.046-.532A1.22,1.22,0,0,1,3067.286,701.117Z" transform="translate(-2980.476 -647.12)" fill="#ff7b35"/><path d="M3052.865,728.436a2.291,2.291,0,0,1,1.583,2.692,2.208,2.208,0,0,1-2.691,1.582,2.156,2.156,0,0,1-1.583-2.692A2.37,2.37,0,0,1,3052.865,728.436Z" transform="translate(-2975.784 -655.166)" fill="#fa6838"/><path d="M3053.021,729.652c.743,0,1.151.921.963,1.641a1.346,1.346,0,1,1-2.606-.677A1.557,1.557,0,0,1,3053.021,729.652Z" transform="translate(-2976.155 -655.549)" fill="#ff7b35"/><path d="M3067.6,673.126c1.637.127,2.158,1.727,1.807,3.075a2.625,2.625,0,0,1-3.075,1.807c-1.378-.193-2.025-1.687-1.636-3.186C3065.046,673.474,3066.213,673.017,3067.6,673.126Z" transform="translate(-2980.068 -638.847)" fill="#ffc3ab"/><path d="M3067.749,674.851c.673.175.907.839.9,1.534-.005.713-.582,1.148-1.533.9a1.187,1.187,0,0,1-.9-1.533A1.255,1.255,0,0,1,3067.749,674.851Z" transform="translate(-2980.535 -639.349)" fill="#ff7b35"/><path d="M3060.313,718.4c1.638.127,2.158,1.727,1.808,3.075a2.625,2.625,0,0,1-3.074,1.807c-1.38-.192-2.026-1.688-1.636-3.186C3057.76,718.749,3058.926,718.293,3060.313,718.4Z" transform="translate(-2977.917 -652.221)" fill="#ffc3ab"/><path d="M3060.464,720.127c.673.174.906.838.9,1.533-.006.713-.58,1.149-1.533.9a1.19,1.19,0,0,1-.9-1.534A1.259,1.259,0,0,1,3060.464,720.127Z" transform="translate(-2978.382 -652.723)" fill="#ff7b35"/><path d="M3064.929,707.953a1.877,1.877,0,0,1,1.5,2.559,2.186,2.186,0,0,1-2.56,1.5,1.974,1.974,0,0,1-1.363-2.651A2.04,2.04,0,0,1,3064.929,707.953Z" transform="translate(-2979.427 -649.135)" fill="#ffc3ab"/><path d="M3065.052,709.389c.559.146.754.7.75,1.277s-.485.956-1.277.75a.99.99,0,0,1-.75-1.276A1.049,1.049,0,0,1,3065.052,709.389Z" transform="translate(-2979.816 -649.553)" fill="#ff7b35"/><path d="M3070.223,694.086c1.638.127,2.157,1.727,1.807,3.075a2.625,2.625,0,0,1-3.075,1.807c-1.378-.193-2.025-1.687-1.635-3.185C3067.669,694.434,3068.835,693.978,3070.223,694.086Z" transform="translate(-2980.845 -645.038)" fill="#ffc3ab"/><path d="M3070.374,695.811c.672.175.906.839.9,1.534-.006.713-.582,1.148-1.535.9a1.19,1.19,0,0,1-.9-1.533A1.26,1.26,0,0,1,3070.374,695.811Z" transform="translate(-2981.311 -645.54)" fill="#ff7b35"/><path d="M2975.022,735.487a2.6,2.6,0,0,1-3.492-.72,2.341,2.341,0,0,1,.721-3.493,2.6,2.6,0,0,1,3.493.72A2.459,2.459,0,0,1,2975.022,735.487Z" transform="translate(-2952.429 -655.91)" fill="#ff7b35"/><path d="M2974.9,735.013a1.471,1.471,0,0,1-1.919-.4,1.315,1.315,0,0,1,.4-1.919,1.45,1.45,0,0,1,1.919.4A1.333,1.333,0,0,1,2974.9,735.013Z" transform="translate(-2952.927 -656.385)" fill="#fa6838"/><path d="M2959.383,714.981a2.593,2.593,0,0,1-3.491-.721,2.342,2.342,0,0,1,.72-3.493,2.6,2.6,0,0,1,3.493.721A2.456,2.456,0,0,1,2959.383,714.981Z" transform="translate(-2947.809 -649.853)" fill="#ff7b35"/><path d="M2959.257,714.507a1.469,1.469,0,0,1-1.918-.4,1.316,1.316,0,0,1,.394-1.919,1.451,1.451,0,0,1,1.92.4A1.332,1.332,0,0,1,2959.257,714.507Z" transform="translate(-2948.307 -650.328)" fill="#fa6838"/><path d="M2964,723.119a2.147,2.147,0,0,1-2.89-.6,1.936,1.936,0,0,1,.6-2.89,2.15,2.15,0,0,1,2.89.6A2.032,2.032,0,0,1,2964,723.119Z" transform="translate(-2949.378 -652.492)" fill="#ff7b35"/><path d="M2963.9,722.727a1.216,1.216,0,0,1-1.588-.327,1.089,1.089,0,0,1,.327-1.588,1.2,1.2,0,0,1,1.587.328A1.1,1.1,0,0,1,2963.9,722.727Z" transform="translate(-2949.79 -652.885)" fill="#fa6838"/><path d="M2957.638,701.412a2.145,2.145,0,0,1-2.888-.6,1.937,1.937,0,0,1,.6-2.889,2.15,2.15,0,0,1,2.889.6A2.033,2.033,0,0,1,2957.638,701.412Z" transform="translate(-2947.499 -646.08)" fill="#ff7b35"/><path d="M2957.535,701.02a1.217,1.217,0,0,1-1.588-.327,1.089,1.089,0,0,1,.328-1.588,1.2,1.2,0,0,1,1.588.328A1.1,1.1,0,0,1,2957.535,701.02Z" transform="translate(-2947.91 -646.473)" fill="#fa6838"/><path d="M2980.082,739.856a2.617,2.617,0,0,1-3.494-.721,2.521,2.521,0,0,1,.721-3.492,2.464,2.464,0,0,1,3.492.72A2.707,2.707,0,0,1,2980.082,739.856Z" transform="translate(-2953.951 -657.192)" fill="#fa6838"/><path d="M2979.953,739.452c-.571.629-1.663.271-2.132-.439a1.539,1.539,0,0,1,2.571-1.69A1.781,1.781,0,0,1,2979.953,739.452Z" transform="translate(-2954.364 -657.61)" fill="#ff7b35"/><path d="M2967.936,725.707a1.8,1.8,0,0,1-2.4-.5,1.733,1.733,0,0,1,.5-2.4,1.7,1.7,0,0,1,2.4.5A1.861,1.861,0,0,1,2967.936,725.707Z" transform="translate(-2950.724 -653.44)" fill="#fa6838"/><path d="M2967.849,725.429c-.394.432-1.144.186-1.464-.3a1.056,1.056,0,1,1,1.765-1.162A1.221,1.221,0,0,1,2967.849,725.429Z" transform="translate(-2951.009 -653.728)" fill="#ff7b35"/><path d="M2956.066,695.956a2.289,2.289,0,0,1-3.057-.631,2.2,2.2,0,0,1,.63-3.057,2.158,2.158,0,0,1,3.057.631A2.37,2.37,0,0,1,2956.066,695.956Z" transform="translate(-2947.001 -644.395)" fill="#fa6838"/><path d="M2955.956,695.6c-.5.55-1.456.237-1.866-.385a1.347,1.347,0,0,1,2.25-1.479A1.557,1.557,0,0,1,2955.956,695.6Z" transform="translate(-2947.362 -644.76)" fill="#ff7b35"/><path d="M2986.982,743.813c-1.191,1.129-2.727.442-3.492-.721a2.625,2.625,0,0,1,.719-3.493c1.07-.894,2.612-.371,3.461.922C2988.435,741.684,2987.991,742.854,2986.982,743.813Z" transform="translate(-2955.996 -658.356)" fill="#ffc3ab"/><path d="M2986.754,743.288a1.4,1.4,0,0,1-1.742-.359c-.527-.481-.464-1.2.36-1.742a1.185,1.185,0,0,1,1.739.36A1.256,1.256,0,0,1,2986.754,743.288Z" transform="translate(-2956.463 -658.887)" fill="#ff7b35"/><path d="M2958.276,708.049c-1.19,1.129-2.726.443-3.492-.721a2.624,2.624,0,0,1,.72-3.493c1.068-.894,2.61-.372,3.461.922C2959.731,705.922,2959.287,707.091,2958.276,708.049Z" transform="translate(-2947.516 -647.791)" fill="#ffc3ab"/><path d="M2958.049,707.526a1.4,1.4,0,0,1-1.744-.359c-.525-.482-.463-1.2.359-1.742a1.189,1.189,0,0,1,1.742.359A1.257,1.257,0,0,1,2958.049,707.526Z" transform="translate(-2947.983 -648.323)" fill="#ff7b35"/><path d="M2963.352,718.649a1.877,1.877,0,0,1-2.907-.6,2.184,2.184,0,0,1,.6-2.907,1.973,1.973,0,0,1,2.88.767A2.04,2.04,0,0,1,2963.352,718.649Z" transform="translate(-2949.208 -651.153)" fill="#ffc3ab"/><path d="M2963.161,718.212a1.168,1.168,0,0,1-1.451-.3c-.437-.4-.384-1,.3-1.451a.99.99,0,0,1,1.45.3A1.045,1.045,0,0,1,2963.161,718.212Z" transform="translate(-2949.596 -651.595)" fill="#ff7b35"/><path d="M2969.671,731.706c-1.191,1.129-2.727.442-3.492-.721a2.624,2.624,0,0,1,.72-3.492c1.068-.895,2.61-.372,3.46.922C2971.125,729.576,2970.684,730.747,2969.671,731.706Z" transform="translate(-2950.883 -654.779)" fill="#ffc3ab"/><path d="M2969.443,731.181a1.4,1.4,0,0,1-1.741-.359c-.527-.481-.463-1.2.361-1.742a1.188,1.188,0,0,1,1.741.359A1.256,1.256,0,0,1,2969.443,731.181Z" transform="translate(-2951.349 -655.311)" fill="#ff7b35"/><path d="M3063.22,667.021a2.593,2.593,0,0,1,2.955,1.995,2.339,2.339,0,0,1-1.993,2.956,2.6,2.6,0,0,1-2.957-1.995A2.458,2.458,0,0,1,3063.22,667.021Z" transform="translate(-2979.053 -637.034)" fill="#ff7b35"/><path d="M3063.915,668.613a1.47,1.47,0,0,1,1.624,1.1,1.317,1.317,0,0,1-1.1,1.625,1.449,1.449,0,0,1-1.623-1.1A1.331,1.331,0,0,1,3063.915,668.613Z" transform="translate(-2979.531 -637.511)" fill="#fa6838"/><path d="M3060.265,661.073a2.614,2.614,0,0,1,2.956,1.995,2.52,2.52,0,0,1-1.994,2.957,2.463,2.463,0,0,1-2.955-1.995A2.707,2.707,0,0,1,3060.265,661.073Z" transform="translate(-2978.198 -635.286)" fill="#fa6838"/><path d="M3060.857,662.41c.767-.363,1.643.383,1.8,1.216a1.537,1.537,0,1,1-3.017.587A1.778,1.778,0,0,1,3060.857,662.41Z" transform="translate(-2978.601 -635.658)" fill="#ff7b35"/><path d="M3055.431,654.729c1.531-.591,2.692.627,2.957,1.995a2.626,2.626,0,0,1-2,2.956c-1.327.421-2.554-.649-2.848-2.169C3053.278,656.144,3054.132,655.231,3055.431,654.729Z" transform="translate(-2976.793 -633.371)" fill="#ffc3ab"/><path d="M3056.158,656.545c.683-.132,1.18.366,1.475.995.3.646-.029,1.286-.994,1.475a1.19,1.19,0,0,1-1.475-.995A1.258,1.258,0,0,1,3056.158,656.545Z" transform="translate(-2977.279 -633.947)" fill="#ff7b35"/><path d="M3052.9,649.6a1.714,1.714,0,0,1,2.248,1.515,2,2,0,0,1-1.517,2.247c-1.009.321-1.94-.492-2.167-1.648C3051.263,650.671,3051.914,649.976,3052.9,649.6Z" transform="translate(-2976.182 -631.866)" fill="#ffc3ab"/><path d="M3053.452,650.975c.519-.1.9.278,1.121.756s-.022.979-.756,1.121a.9.9,0,0,1-1.121-.756A.956.956,0,0,1,3053.452,650.975Z" transform="translate(-2976.551 -632.303)" fill="#ff7b35"/><path d="M2959.813,665.364c-.552-1.545.7-2.674,2.07-2.9a2.624,2.624,0,0,1,2.9,2.069c.388,1.338-.713,2.538-2.241,2.794C2961.175,667.553,2960.283,666.676,2959.813,665.364Z" transform="translate(-2949.079 -635.69)" fill="#ffc3ab"/><path d="M2961.632,665.651c-.114-.685.4-1.17,1.032-1.449.653-.287,1.286.061,1.449,1.032a1.189,1.189,0,0,1-1.031,1.45A1.26,1.26,0,0,1,2961.632,665.651Z" transform="translate(-2949.651 -636.186)" fill="#ff7b35"/><path d="M2954.241,685.063a2.118,2.118,0,0,1,.829-2.767,2.042,2.042,0,0,1,2.767.829,2,2,0,0,1-.829,2.767A2.193,2.193,0,0,1,2954.241,685.063Z" transform="translate(-2947.414 -641.488)" fill="#fa6838"/><path d="M2955.233,685.02c-.467-.506-.1-1.362.506-1.688a1.245,1.245,0,1,1,1.181,2.193A1.439,1.439,0,0,1,2955.233,685.02Z" transform="translate(-2947.703 -641.822)" fill="#ff7b35"/><path d="M2954.781,678.721c-1.023-1.285-.2-2.756,1.02-3.417a2.629,2.629,0,0,1,3.419,1.023c.8,1.142.141,2.633-1.223,3.367C2956.773,680.356,2955.645,679.812,2954.781,678.721Z" transform="translate(-2947.496 -639.409)" fill="#ffc3ab"/><path d="M2956.5,678.593a1.4,1.4,0,0,1,.511-1.7c.525-.482,1.237-.356,1.7.51a1.19,1.19,0,0,1-.51,1.7A1.258,1.258,0,0,1,2956.5,678.593Z" transform="translate(-2948.1 -639.88)" fill="#ff7b35"/><path d="M3001.223,733.494s8.314.67,12.086-3.37,10.385-7.5,15.438-7.906,5.61-.405,8.639-2.85a6.076,6.076,0,0,1-2.451,5.463c-2.871,1.906-13.09,8.552-13.09,8.552l-11.145,1.873Z" transform="translate(-2961.351 -652.511)" fill="#ffc3ab"/><path d="M3032.028,729.443c.465.811-.238,2.087-1.571,2.852s-2.789.726-3.254-.085.237-2.088,1.57-2.852S3031.563,728.632,3032.028,729.443Z" transform="translate(-2968.984 -655.3)" fill="#ffc3ab"/><path d="M3024.226,723.033a.568.568,0,1,1,.656.465A.569.569,0,0,1,3024.226,723.033Z" transform="translate(-2968.144 -653.398)" fill="#fa6838"/><path d="M3046,719.374a.568.568,0,1,1,.655.465A.568.568,0,0,1,3046,719.374Z" transform="translate(-2974.575 -652.317)" fill="#fa6838"/><path d="M2987.883,729.14a.568.568,0,1,1,.654.466A.569.569,0,0,1,2987.883,729.14Z" transform="translate(-2957.408 -655.202)" fill="#fa6838"/><path d="M3003.368,735.24a.568.568,0,1,1,.654.466A.567.567,0,0,1,3003.368,735.24Z" transform="translate(-2961.983 -657.004)" fill="#fa6838"/><path d="M3054.539,703.718a.568.568,0,1,1,.655.466A.568.568,0,0,1,3054.539,703.718Z" transform="translate(-2977.099 -647.692)" fill="#fa6838"/><path d="M2975.3,717.033a.567.567,0,1,1,.653.465A.566.566,0,0,1,2975.3,717.033Z" transform="translate(-2953.693 -651.626)" fill="#fa6838"/><path d="M3054.481,686.648a.568.568,0,1,1,.656.466A.566.566,0,0,1,3054.481,686.648Z" transform="translate(-2977.082 -642.65)" fill="#fa6838"/><path d="M2968.334,701.125a.567.567,0,1,1,.654.466A.567.567,0,0,1,2968.334,701.125Z" transform="translate(-2951.634 -646.926)" fill="#fa6838"/><path d="M3048.921,670.107a.568.568,0,1,1,.654.466A.567.567,0,0,1,3048.921,670.107Z" transform="translate(-2975.439 -637.764)" fill="#fa6838"/><path d="M2967.921,683.718a.568.568,0,1,1,.653.466A.57.57,0,0,1,2967.921,683.718Z" transform="translate(-2951.511 -641.785)" fill="#fa6838"/><path d="M3038.367,656.886a.568.568,0,1,1,.655.466A.567.567,0,0,1,3038.367,656.886Z" transform="translate(-2972.32 -633.858)" fill="#fa6838"/><path d="M2973.725,667.748a.568.568,0,1,1,.655.466A.569.569,0,0,1,2973.725,667.748Z" transform="translate(-2953.226 -637.067)" fill="#fa6838"/><path d="M3025.425,649.717a.567.567,0,1,1,.653.466A.568.568,0,0,1,3025.425,649.717Z" transform="translate(-2968.498 -631.74)" fill="#fa6838"/><path d="M2983,656.846a.568.568,0,1,1,.655.465A.568.568,0,0,1,2983,656.846Z" transform="translate(-2955.968 -633.846)" fill="#fa6838"/><path d="M3004.993,647.5a.567.567,0,1,1,.652.466A.566.566,0,0,1,3004.993,647.5Z" transform="translate(-2962.462 -631.087)" fill="#fa6838"/></g><g transform="translate(1520.654 -783.751)"><g transform="translate(8.047)"><path d="M3058.789,603.955a11.828,11.828,0,0,1-3.823,2.8c-.255.134-.5.26-.734.392a23.51,23.51,0,0,0-4.208,3.661l-.261-.247a23.664,23.664,0,0,1,4.353-3.776c.245-.135.489-.263.748-.4a10.6,10.6,0,0,0,4.857-4.332,10.922,10.922,0,0,0,1.2-2.894,10.4,10.4,0,0,1,3.376-5.4h0a9.909,9.909,0,0,0-3.136,5.319,10.9,10.9,0,0,1-1.111,3.128A12.671,12.671,0,0,1,3058.789,603.955Z" transform="translate(-3049.762 -593.766)" fill="#a9c2ff"/></g><g transform="translate(0 15.914)"><path d="M3043.934,624.669c-1.366,1.394-4.319,2.794-5.277,1.78s.442-4.058,1.809-5.452,2.883-1.327,3.84-.314S3045.3,623.275,3043.934,624.669Z" transform="translate(-3038.341 -617.411)" fill="#a9c2ff"/><path d="M3048.616,616.352l.909.795-3.879,3.958-.829-.877Z" transform="translate(-3040.253 -616.352)" fill="#a9c2ff"/><path d="M3043.885,624.483c-.866.885-2.74,1.773-3.347,1.129s.281-2.573,1.147-3.458a1.6,1.6,0,0,1,2.436-.2A1.744,1.744,0,0,1,3043.885,624.483Z" transform="translate(-3038.93 -617.867)" fill="#a9c2ff"/></g></g><g transform="translate(1537.697 -780.029)"><g transform="translate(7.837 0)"><path d="M3083.492,605.753a9.492,9.492,0,0,1-3.562,1.348c-.225.049-.44.095-.654.145a19.032,19.032,0,0,0-4.046,1.929l-.15-.247a19.1,19.1,0,0,1,4.184-1.987c.218-.052.436-.1.664-.147a8.518,8.518,0,0,0,4.7-2.309,8.754,8.754,0,0,0,1.554-1.983,8.341,8.341,0,0,1,3.775-3.453h0a7.976,7.976,0,0,0-3.573,3.443,8.649,8.649,0,0,1-1.533,2.182A9.955,9.955,0,0,1,3083.492,605.753Z" transform="translate(-3075.081 -599.05)" fill="#a9c2ff"/></g><g transform="translate(0 9.262)"><path d="M3068.523,617.646c-1.359.786-3.947,1.234-4.47.243s1.216-3.047,2.573-3.833,2.518-.407,3.041.583A2.21,2.21,0,0,1,3068.523,617.646Z" transform="translate(-3063.958 -612.62)" fill="#a9c2ff"/><path d="M3074.112,612.2l.533.811-3.855,2.231-.452-.858Z" transform="translate(-3065.842 -612.195)" fill="#a9c2ff"/><path d="M3068.717,617.36c-.86.5-2.5.783-2.835.155s.772-1.933,1.632-2.431a1.284,1.284,0,0,1,1.931.37A1.4,1.4,0,0,1,3068.717,617.36Z" transform="translate(-3064.508 -612.969)" fill="#a9c2ff"/></g></g><g transform="translate(1377.064 -806.605)"><g transform="translate(0 0)"><path d="M2901.741,585.273a11.158,11.158,0,0,0,4.18,1.582c.266.056.518.11.767.17a22.238,22.238,0,0,1,4.748,2.263l.175-.29a22.362,22.362,0,0,0-4.91-2.332c-.257-.061-.51-.115-.779-.173a9.993,9.993,0,0,1-5.507-2.709,10.282,10.282,0,0,1-1.824-2.327,9.812,9.812,0,0,0-4.432-4.052h0a9.343,9.343,0,0,1,4.193,4.041,10.235,10.235,0,0,0,1.8,2.561A11.682,11.682,0,0,0,2901.741,585.273Z" transform="translate(-2894.159 -577.405)" fill="#a9c2ff"/></g><g transform="translate(16.32 10.869)"><path d="M2923.7,599.228c1.593.922,4.631,1.449,5.247.285s-1.428-3.576-3.02-4.5-2.957-.478-3.569.685S2922.1,598.306,2923.7,599.228Z" transform="translate(-2918.724 -593.33)" fill="#a9c2ff"/><path d="M2917.946,592.831l-.625.952,4.523,2.618.531-1.006Z" transform="translate(-2917.321 -592.831)" fill="#a9c2ff"/><path d="M2924.54,598.892c1.01.585,2.938.919,3.328.181s-.906-2.268-1.916-2.853a1.505,1.505,0,0,0-2.264.435A1.646,1.646,0,0,0,2924.54,598.892Z" transform="translate(-2919.148 -593.74)" fill="#a9c2ff"/></g></g><g transform="translate(1396.179 -809.456)"><g transform="translate(0)"><path d="M2931.422,583.933a14.947,14.947,0,0,0,5.6,2.138c.357.077.692.15,1.029.231a29.833,29.833,0,0,1,6.356,3.053l.235-.388a29.95,29.95,0,0,0-6.574-3.145c-.342-.083-.682-.156-1.042-.234a13.389,13.389,0,0,1-7.373-3.653,13.765,13.765,0,0,1-2.436-3.126c-1.054-1.71-2.048-3.326-5.924-5.449h0a12.528,12.528,0,0,1,5.606,5.432,13.663,13.663,0,0,0,2.4,3.44A15.652,15.652,0,0,0,2931.422,583.933Z" transform="translate(-2921.29 -573.358)" fill="#a9c2ff"/></g><g transform="translate(21.83 14.636)"><path d="M2960.8,602.729c2.134,1.242,6.2,1.96,7.031.4s-1.9-4.8-4.032-6.041-3.959-.653-4.786.9S2958.664,601.487,2960.8,602.729Z" transform="translate(-2954.15 -594.807)" fill="#a9c2ff"/><path d="M2953.116,594.13l-.843,1.273,6.053,3.527.716-1.347Z" transform="translate(-2952.273 -594.13)" fill="#a9c2ff"/><path d="M2961.928,602.281c1.353.788,3.937,1.244,4.461.257s-1.205-3.044-2.556-3.832-2.513-.414-3.037.573A2.206,2.206,0,0,0,2961.928,602.281Z" transform="translate(-2954.719 -595.356)" fill="#a9c2ff"/></g></g><g transform="translate(1356.462 -801.398)"><g transform="translate(0)"><path d="M2885.724,604a11.514,11.514,0,0,1-3.584-1.43,8.88,8.88,0,0,1-4.2-5.99c-.354-2.127-1.01-5.574-3.021-7.941a11.394,11.394,0,0,0-10-3.776h0c4.636-.4,8.189.813,10.558,3.6a16.4,16.4,0,0,1,3.251,7.982,8.081,8.081,0,0,0,3.83,5.441c3.156,1.953,7.638,2.189,12.624.665,2.986-.912,7.891-1.534,14.29.685a40.83,40.83,0,0,1,6.541,2.853l6.012,3.219-.353.72-5.958-2.627-.483-.019a37.006,37.006,0,0,0-6.468-2.953c-3.415-1.181-8.124-2.342-13.321-.754A18.926,18.926,0,0,1,2885.724,604Z" transform="translate(-2864.92 -584.793)" fill="#a9c2ff"/></g><g transform="translate(49.875 20.668)"><path d="M2950.427,627.851c3.633,1.923,10.454,2.843,11.726.2s-3.484-7.856-7.115-9.778-6.631-.82-7.9,1.826S2946.8,625.929,2950.427,627.851Z" transform="translate(-2938.922 -615.063)" fill="#8eb2f3"/><path d="M2937.02,614.126,2935.7,616.3l10.308,5.458,1.1-2.289Z" transform="translate(-2935.704 -614.126)" fill="#8eb2f3"/><path d="M2952.105,624.99c1.217.644,3.5.952,3.928.065s-1.167-2.631-2.383-3.275a1.776,1.776,0,0,0-2.648.612A1.942,1.942,0,0,0,2952.105,624.99Z" transform="translate(-2940.17 -616.291)" fill="#a8ccff"/></g></g><g transform="translate(1536.089 -761.722)"><g transform="translate(8.069 0)"><path d="M3090.848,634.14a5.542,5.542,0,0,0,1.775-.626,4.464,4.464,0,0,0,2.2-2.878,8.446,8.446,0,0,1,1.676-3.876,5.472,5.472,0,0,1,4.94-1.641h0a5.613,5.613,0,0,0-5.206,1.541,8.35,8.35,0,0,0-1.791,3.892,4.052,4.052,0,0,1-2,2.614c-1.58.9-3.757.907-6.131.032a10.771,10.771,0,0,0-6.936,0,19.659,19.659,0,0,0-3.243,1.263l-3,1.458.151.366,2.955-1.165.234,0a17.911,17.911,0,0,1,3.212-1.315,9.97,9.97,0,0,1,6.469-.059A8.936,8.936,0,0,0,3090.848,634.14Z" transform="translate(-3073.131 -625.032)" fill="#a9c2ff"/></g><g transform="translate(0 9.112)"><path d="M3067.437,644.434c-1.808.87-5.135,1.165-5.68-.18s1.9-3.823,3.708-4.693,3.232-.25,3.776,1.1S3069.248,643.564,3067.437,644.434Z" transform="translate(-3061.678 -638.317)" fill="#87b1ff"/><path d="M3075.233,637.965l.577,1.113-5.136,2.469-.471-1.164Z" transform="translate(-3064.196 -637.965)" fill="#87b1ff"/><path d="M3068.9,643.005c-.606.291-1.721.39-1.9-.061s.637-1.281,1.242-1.572a.846.846,0,0,1,1.266.367A.98.98,0,0,1,3068.9,643.005Z" transform="translate(-3063.243 -638.932)" fill="#a8ccff"/></g></g><g transform="translate(1513.695 -688)"><g transform="translate(0 11.704)"><g transform="translate(8.882 7.868)"><path d="M3095.338,743.638a12.169,12.169,0,0,0-4.161-2.545c-.274-.115-.532-.223-.79-.339a24.308,24.308,0,0,1-4.631-3.39l-.245.276a24.426,24.426,0,0,0,4.792,3.5c.261.118.524.228.8.343a10.9,10.9,0,0,1,5.356,4.022,11.227,11.227,0,0,1,1.484,2.864,10.687,10.687,0,0,0,3.929,5.244h0a10.191,10.191,0,0,1-3.676-5.183,11.145,11.145,0,0,0-1.412-3.111A12.652,12.652,0,0,0,3095.338,743.638Z" transform="translate(-3085.512 -737.364)" fill="#a9c2ff"/></g><path d="M3078.72,728.016c-1.52-1.311-4.671-2.492-5.566-1.37s.8,4.123,2.325,5.435,3.071,1.112,3.966-.01S3080.242,729.327,3078.72,728.016Z" transform="translate(-3072.906 -726.197)" fill="#a9c2ff"/><path d="M3084.3,737.068l.863-.894-4.318-3.724-.775.971Z" transform="translate(-3075.023 -728.044)" fill="#a9c2ff"/><path d="M3078.76,729.308c-.965-.832-2.963-1.581-3.531-.87s.51,2.615,1.476,3.447a1.642,1.642,0,0,0,2.515-.006A1.794,1.794,0,0,0,3078.76,729.308Z" transform="translate(-3073.546 -726.775)" fill="#a9c2ff"/></g><g transform="translate(20.783 15.209)"><g transform="translate(7.387 2.981)"><path d="M3120.514,736.608a8.134,8.134,0,0,0-3.231-.414c-.2,0-.386.009-.572.009a16.282,16.282,0,0,1-3.751-.8l-.074.235a16.293,16.293,0,0,0,3.876.821c.19,0,.379,0,.58-.009a7.285,7.285,0,0,1,4.364.988,7.461,7.461,0,0,1,1.686,1.341,7.147,7.147,0,0,0,3.831,2.122h0a6.81,6.81,0,0,1-3.658-2.154,7.427,7.427,0,0,0-1.71-1.511A8.63,8.63,0,0,0,3120.514,736.608Z" transform="translate(-3112.885 -735.403)" fill="#a9c2ff"/></g><path d="M3106.19,731.37c-1.286-.383-3.53-.242-3.768.686s1.617,2.293,2.9,2.678a1.731,1.731,0,0,0,2.415-1.09A1.891,1.891,0,0,0,3106.19,731.37Z" transform="translate(-3102.402 -731.172)" fill="#a9c2ff"/><path d="M3112.07,735.559l.283-.781-3.649-1.09-.207.8Z" transform="translate(-3104.203 -731.915)" fill="#a9c2ff"/><path d="M3106.53,732.252c-.817-.244-2.239-.154-2.391.435s1.024,1.455,1.842,1.7a1.1,1.1,0,0,0,1.531-.691A1.2,1.2,0,0,0,3106.53,732.252Z" transform="translate(-3102.911 -731.454)" fill="#a9c2ff"/></g><g transform="translate(5.758 0)"><g transform="translate(12.519)"><path d="M3110.969,709.6a13.254,13.254,0,0,0-5.123,1.4c-.294.131-.574.255-.856.373a26.489,26.489,0,0,1-6.144,1.144l.035.4a26.551,26.551,0,0,0,6.347-1.191c.29-.121.571-.246.869-.378a11.873,11.873,0,0,1,7.186-1.246,12.177,12.177,0,0,1,3.378.961c1.648.672,3.206,1.306,7.089.8h0a11.1,11.1,0,0,1-6.852-.951,12.153,12.153,0,0,0-3.52-1.2A13.884,13.884,0,0,0,3110.969,709.6Z" transform="translate(-3098.846 -709.586)" fill="#a9c2ff"/></g><g transform="translate(0 1.015)"><path d="M3086.329,711.056c-2.175.227-5.461,1.844-5.24,3.392s3.871,2.438,6.046,2.211,3.173-1.6,2.951-3.153S3088.5,710.828,3086.329,711.056Z" transform="translate(-3081.078 -711.027)" fill="#a9c2ff"/><path d="M3097.69,714.232l-.064-1.352-6.174.646.191,1.338Z" transform="translate(-3084.143 -711.574)" fill="#a9c2ff"/></g></g></g></g></g></svg>