<svg xmlns="http://www.w3.org/2000/svg" xmlns:xlink="http://www.w3.org/1999/xlink" width="36.003" height="45" viewBox="0 0 36.003 45"><defs><linearGradient id="a" x1="-0.097" y1="0.205" x2="0.611" y2="1.16" gradientUnits="objectBoundingBox"><stop offset="0" stop-color="#c33091"/><stop offset="1" stop-color="#ffa5fc"/></linearGradient></defs><path d="M-14522.5,78h-26.994a4.508,4.508,0,0,1-4.5-4.5V46.5a4.507,4.507,0,0,1,4.5-4.5h4.5a8.95,8.95,0,0,1,2.633-6.366A8.952,8.952,0,0,1-14536,33a8.934,8.934,0,0,1,6.361,2.634,8.947,8.947,0,0,1,2.631,6.366h4.5a4.509,4.509,0,0,1,4.507,4.5V73.5A4.51,4.51,0,0,1-14522.5,78Zm-16.015-23.06a.79.79,0,0,0-.409.115.783.783,0,0,0-.372.667l.013,16.111a.563.563,0,0,0,.365.526l1.984.74a.776.776,0,0,0,.273.049.785.785,0,0,0,.445-.141.777.777,0,0,0,.336-.641V56.542a.561.561,0,0,0-.307-.5l-1.972-1.013A.78.78,0,0,0-14538.52,54.941Zm-9.263-4.558c.786,0,2.107.178,2.131,1.37l.013,17.242a.781.781,0,0,0,.508.732l1.842.685a.762.762,0,0,0,.273.049.791.791,0,0,0,.445-.138.792.792,0,0,0,.336-.643V53.51l-.026-2.3a.5.5,0,0,1,.141-.349.494.494,0,0,1,.35-.146h8.328a7.175,7.175,0,0,1,4.739,2.007,5.869,5.869,0,0,1,1.275,4.68,5.12,5.12,0,0,1-2.344,4.082,6.608,6.608,0,0,1-3,.917.488.488,0,0,0-.458.487v.19a.491.491,0,0,0,.477.49l.221,0a10.231,10.231,0,0,0,6.807-2.634,7.039,7.039,0,0,0,1.318-7.961,7.363,7.363,0,0,0-6.361-3.576l-.172,0c-.433.009-2.118.014-5.01.014-4.332,0-10.18-.011-11.87-.014a.5.5,0,0,0-.347.143.489.489,0,0,0-.143.346.491.491,0,0,0,.143.349.49.49,0,0,0,.34.141h.044ZM-14536,37.5a4.508,4.508,0,0,0-4.5,4.5h9a4.467,4.467,0,0,0-1.318-3.181A4.481,4.481,0,0,0-14536,37.5Z" transform="translate(14554.001 -33.001)" fill="url(#a)"/></svg>