<svg xmlns="http://www.w3.org/2000/svg" width="235" height="232" viewBox="0 0 235 232"><g transform="translate(-2759 452)"><rect width="235" height="232" transform="translate(2759 -452)" fill="#fff" opacity="0"/><g transform="translate(1038 416)"><g transform="translate(1516 -1038.082)"><g transform="translate(228 213.082)"><circle cx="94.5" cy="94.5" r="94.5" fill="#fff0e1"/></g></g><g transform="translate(1626.119 -1050.816)"><g transform="translate(136.881 182.817)"><g transform="translate(75.046 10.57)"><path d="M1782.862,1167.62l5.535,2.646s5.789-5.511,11.011,0c8.678,9.159,7.031,29.339,22.819,53.123s39.366,46.953,24.4,74.631-71.045,22.349-71.045,22.349l14.045-41.826-8.407-59.33Z" transform="translate(-1775.58 -1167.62)" fill="#21221c"/></g><g transform="translate(87.825 12.769)"><path d="M1833.642,1323.652l-.415-.772c.24-.13,24.051-13.194,29.065-33.553,2.337-9.488.261-19.137-6.167-28.677-17.113-25.4-22.291-35.533-29.957-69.4-3.84-16.958-13.173-16.344-13.27-16.337l-.079-.872a9.4,9.4,0,0,1,5.662,1.815c2.745,1.843,6.458,5.974,8.544,15.2,7.635,33.724,12.789,43.817,29.83,69.107,6.571,9.756,8.688,19.642,6.29,29.38C1858.033,1310.276,1833.886,1323.522,1833.642,1323.652Z" transform="translate(-1812.82 -1174.029)" fill="#424538"/></g><path d="M1644.744,1150.029s-4.416-16.293-24.6-12.693c-20.973,3.74-26.244,25.016-31.576,58.64s-33.625,41.006-31.576,65.61,31.779,38.546,74.94,38.546l-1.331-141.885,8.558-6.561Z" transform="translate(-1556.882 -1136.817)" fill="#21221c"/><g transform="translate(21.563 5.302)"><path d="M1624.206,1300.3c-.13-.082-3.184-2.117-4.173-8.294-1.3-8.126,1.486-19.209,8.287-32.939,8.809-17.782,10.466-34.026,12.068-49.739,1.328-13.026,2.584-25.328,8-36.892,6.153-13.139,14.92-17.761,21.189-19.33a26.341,26.341,0,0,1,12.295-.24l-.23.844a25.927,25.927,0,0,0-11.894.254c-6.074,1.527-14.573,6.036-20.568,18.839-5.353,11.43-6.6,23.66-7.92,36.607-1.609,15.788-3.277,32.115-12.154,50.038-8.325,16.807-9.066,26.837-8.225,32.294.9,5.847,3.775,7.8,3.8,7.817Z" transform="translate(-1619.721 -1152.269)" fill="#424538"/></g><g transform="translate(5.442 99.143)"><path d="M1591.541,1488.6s11.952-22.092,16.052-31.577l8.2-12.353-3.826-18.863-13.191-.069s-20.983,32.6-26.038,69.233Z" transform="translate(-1572.74 -1425.74)" fill="#ffb4c8"/></g><g transform="translate(101.602 99.143)"><path d="M1877.941,1489.916s-12.669-23.406-16.77-32.891l-8.2-12.353,3.826-18.863,13.191-.069s20.983,32.6,26.038,69.233Z" transform="translate(-1852.97 -1425.74)" fill="#ffb4c8"/></g><g transform="translate(31.47 86.433)"><path d="M1735.739,1401.41c-11.276-9.433-31.37-12.1-31.37-12.1l-5.216-.614-6.983,1.355-6.983-1.355-5.216.614s-20.095,2.666-31.37,12.1c0,0,11.893,3.318,8.815,31.285,0,0-1.434,13.41,12.508,17.923l4.921,21.937s-25.094,20.839-26.254,50.981a95.459,95.459,0,0,0,87.173.395c-.957-30.355-26.268-51.376-26.268-51.376l4.921-21.937c13.942-4.512,12.508-17.923,12.508-17.923C1723.849,1404.729,1735.739,1401.41,1735.739,1401.41Z" transform="translate(-1648.59 -1388.7)" fill="#c7d7ff"/></g><g transform="translate(63.647 63.689)"><path d="M1762.873,1325.079s-4.142-.158-4.6-.158a39.634,39.634,0,0,1-4.509-2.5,39.634,39.634,0,0,1-4.509,2.5c-.46,0-4.6.158-4.6.158l-1.537,1.723-.755,18.88s.638,23.368,11.4,23.368,11.4-23.368,11.4-23.368l-.755-18.88Z" transform="translate(-1742.36 -1322.42)" fill="#ffb4c8"/></g><g transform="translate(64.034 63.696)"><path d="M1748.455,1325.793c-.343,0-2.2.062-3.792.12l-.81.906-.364,9.063c4,3.38,10.94,6.942,22.284,6.623l-.628-15.682-.81-.906c-1.585-.055-3.449-.12-3.792-.12-.6,0-5.751-3.174-6.036-3.349-.01-.007-.014-.007-.014-.007a.037.037,0,0,1-.014.007C1754.206,1322.619,1749.056,1325.793,1748.455,1325.793Z" transform="translate(-1743.49 -1322.44)" fill="#ff82a4"/></g><g transform="translate(52.803 13.212)"><ellipse cx="22.246" cy="30.756" rx="22.246" ry="30.756" fill="#ffb4c8"/></g><g transform="translate(49.982 10.359)"><path d="M1703.309,1194.894l2.052,6.575s22.806,1.774,37.441-23.313v-5.2s-10.171-5.741-10.991-5.947-11.722,5.9-17.264,2.852c-.57-.312-6.523,8.428-6.726,9.042s-5.281,5.858-5.281,7.91S1703.309,1194.894,1703.309,1194.894Z" transform="translate(-1702.54 -1167.005)" fill="#21221c"/></g><g transform="translate(84.949 42.167)"><path d="M1807.542,1265.349s3.006-8.064,10.662-4.921,3.5,24.858-13.764,17.9Z" transform="translate(-1804.44 -1259.701)" fill="#ffb4c8"/></g><g transform="translate(47.669 42.167)"><path d="M1710.14,1265.349s-3.006-8.064-10.662-4.921-3.5,24.858,13.764,17.9Z" transform="translate(-1695.8 -1259.701)" fill="#ffb4c8"/></g><g transform="translate(52.803 148.351)"><path d="M1710.76,1569.14h44.492l-42.211,10.13Z" transform="translate(-1710.76 -1569.14)" fill="#a1bcff"/></g><g transform="translate(77.887 193.186)"><path d="M1816.5,1699.8l-8.925,2.169s-10.723,10.867-10.926,11.482-12.789,14.217-12.789,14.217l16.478,1.16c8.815-5.947,13.736-19.069,13.736-19.069l6.52-1.067A72.508,72.508,0,0,0,1816.5,1699.8Z" transform="translate(-1783.86 -1699.8)" fill="#a1bcff"/></g><g transform="translate(76.384 157.224)"><path d="M1847.756,1606.151s-.889,13.311-39.572,30.671c0,0-6.836,13.8-14.488,21.186l-12.714.82-1.5-10.253,12.714-17.634-3.281-1.64s-4.646,3.281-8.2.82l6.7-6.973,16.128,2.6c-.237.274,16.166-13.019,24.82-27.095C1837.314,1591.516,1842.187,1595.267,1847.756,1606.151Z" transform="translate(-1779.48 -1594.999)" fill="#ffb4c8"/></g><g transform="translate(35.979 192.414)"><path d="M1672.889,1699.739l-7.141-2.189a74.3,74.3,0,0,0-4.018,8.38l6.513,1.328s8.064,16.54,14.488,21.323l15.232-2.392L1676.444,1705Z" transform="translate(-1661.73 -1697.55)" fill="#a1bcff"/></g><g transform="translate(84.976 208.464)"><g transform="translate(0 0)"><rect width="15.071" height="0.878" transform="matrix(0.615, -0.789, 0.789, 0.615, 0, 11.888)" fill="#ff82a4"/></g></g><g transform="translate(77.573 205.655)"><g transform="translate(0 0)"><rect width="19.796" height="0.875" transform="matrix(0.646, -0.763, 0.763, 0.646, 0, 15.108)" fill="#ff82a4"/></g></g><g transform="translate(76.501 202.869)"><g transform="translate(0 0)"><rect width="16.275" height="0.875" transform="translate(0 12.708) rotate(-51.333)" fill="#ff82a4"/></g></g><g transform="translate(31.466 194.041)"><path d="M1670.023,1737.572c-7.354-15.833-10.665-28.835-10.8-33.344-.038-1.259-.027-1.939-.027-1.939l-.014.683-3.466.3a63.408,63.408,0,0,0-7.134,26.247A94.562,94.562,0,0,0,1670.023,1737.572Z" transform="translate(-1648.58 -1702.29)" fill="#a1bcff"/></g><g transform="translate(5.438 157.033)"><path d="M1572.73,1605.786s.889,13.311,39.572,30.671c0,0,6.836,13.8,14.488,21.186l12.714.82,1.5-10.253-12.714-17.634,3.281-1.64s4.646,3.281,8.2.82l-6.7-6.973-16.128,2.6s-16.8-13.592-24.865-26.989C1584.843,1591.127,1580.073,1594.054,1572.73,1605.786Z" transform="translate(-1572.73 -1594.443)" fill="#ffb4c8"/></g><g transform="translate(55.535 208.475)"><g transform="translate(0 0)"><rect width="0.878" height="15.071" transform="matrix(0.789, -0.614, 0.614, 0.789, 0, 0.54)" fill="#ff82a4"/></g></g><g transform="translate(59.488 205.724)"><g transform="translate(0 0)"><rect width="0.875" height="19.535" transform="matrix(0.774, -0.634, 0.634, 0.774, 0, 0.555)" fill="#ff82a4"/></g></g><g transform="translate(63.151 202.883)"><g transform="translate(0 0)"><rect width="0.875" height="15.871" transform="translate(0 0.548) rotate(-38.793)" fill="#ff82a4"/></g></g><g transform="translate(75.643 50.615)"><path d="M1777.773,1291.917l-.051-.875c1.139-.069,3.078-.477,3.431-1.29.154-.357-.007-.83-.487-1.41a42.451,42.451,0,0,0-3.346-3.37l.587-.652a41.214,41.214,0,0,1,3.435,3.466,2.217,2.217,0,0,1,.614,2.32C1781.276,1291.67,1778.13,1291.9,1777.773,1291.917Z" transform="translate(-1777.32 -1284.32)" fill="#ff82a4"/></g><g transform="translate(93.936 47.029)"><path d="M1831.484,1284.827l-.854-.2c1.558-7.474,3.459-9.842,4.78-10.511a1.742,1.742,0,0,1,1.469-.154l-.347.8a1.014,1.014,0,0,0-.786.161c-.779.432-2.165,1.894-3.5,6.736a13.174,13.174,0,0,1,2.955-2.721l.494.724A10.219,10.219,0,0,0,1831.484,1284.827Z" transform="translate(-1830.63 -1273.87)" fill="#ff82a4"/></g><g transform="translate(49.807 47.036)"><path d="M1707.421,1284.839a10.208,10.208,0,0,0-4.2-5.154l.494-.724a13.176,13.176,0,0,1,2.955,2.721c-1.338-4.845-2.725-6.3-3.5-6.736a1,1,0,0,0-.786-.161l-.347-.8a1.75,1.75,0,0,1,1.469.151c1.318.672,3.219,3.04,4.78,10.511Z" transform="translate(-1702.03 -1273.888)" fill="#ff82a4"/></g><g transform="translate(1.067 0.245)"><path d="M1560.415,1227.428l-.425-.765a52.339,52.339,0,0,0,11.135-9.2,66.761,66.761,0,0,0,16.193-30.156c3.8-15.685,8.829-27.884,14.961-36.26,8.016-10.95,17.875-15.277,29.295-12.865l-.182.858c-11.053-2.337-20.613,1.877-28.406,12.525-6.063,8.284-11.049,20.38-14.817,35.948a67.636,67.636,0,0,1-16.433,30.578A53.005,53.005,0,0,1,1560.415,1227.428Z" transform="translate(-1559.99 -1137.531)" fill="#21221c"/></g><g transform="translate(59.834 46.628)"><path d="M1738.072,1276.488c-2.8,0-6.636-2.951-6.822-3.1l.539-.693c1.328,1.029,5.192,3.538,7.086,2.776a2.052,2.052,0,0,0,1.129-1.808l.868.127a2.885,2.885,0,0,1-1.668,2.495A3.016,3.016,0,0,1,1738.072,1276.488Z" transform="translate(-1731.25 -1272.7)" fill="#424538"/></g><g transform="translate(81.724 46.628)"><path d="M1801.862,1276.488c-2.8,0-6.636-2.951-6.822-3.1l.539-.693c1.328,1.029,5.188,3.538,7.086,2.776a2.052,2.052,0,0,0,1.129-1.808l.868.127a2.875,2.875,0,0,1-1.671,2.495A2.986,2.986,0,0,1,1801.862,1276.488Z" transform="translate(-1795.04 -1272.7)" fill="#424538"/></g><g transform="translate(65.002 60.341)"><g transform="translate(2.629)"><path d="M1753.97,1315.265s6.647-6.084,15.342.346c0,0-1.208,5.631-6.973,5.631C1755.116,1321.243,1753.97,1315.265,1753.97,1315.265Z" transform="translate(-1753.97 -1312.661)" fill="#ff4202"/></g><g transform="translate(0 1.405)"><path d="M1766.007,1319.956c-.1-.052-10.291-5.2-19.257-.01l-.439-.758c9.389-5.435,19.992-.065,20.1-.01Z" transform="translate(-1746.31 -1316.756)" fill="#424538"/></g></g><g transform="translate(83.597 18.795)"><path d="M1800.5,1196.431s2.241,15.294,13.671,18.78l2.735-11.4s-6.005-6.458-6.334-7.381-1.664-3.486-1.87-3.895-3.466-1.112-3.936-.913a24.708,24.708,0,0,0-3.648,4.3C1801.118,1196.225,1800.5,1196.431,1800.5,1196.431Z" transform="translate(-1800.5 -1191.589)" fill="#21221c"/></g></g><g transform="translate(201.111 332.076)"><g transform="translate(3.38 3.949)"><path d="M1767.672,1608.69c0-6.884-5.846-12.85-5.846-12.85s-5.846,5.812-5.846,12.85a5.846,5.846,0,0,0,11.692,0Z" transform="translate(-1755.98 -1595.84)" fill="#ff4202"/></g><g transform="translate(15.076 16.426)"><path d="M1797.911,1640.822c0-4.582-3.891-8.552-3.891-8.552s-3.891,3.87-3.891,8.552a3.891,3.891,0,0,0,7.781,0Z" transform="translate(-1790.13 -1632.27)" fill="#ff4202"/></g><path d="M1751.049,1589.738c0-2.908-2.469-5.428-2.469-5.428s-2.469,2.456-2.469,5.428a2.469,2.469,0,1,0,4.939,0Z" transform="translate(-1746.11 -1584.31)" fill="#ff4202"/></g></g></g></g></svg>