<svg xmlns="http://www.w3.org/2000/svg" width="30.214" height="30.214" viewBox="0 0 30.214 30.214"><path d="M17.138,22.308a1.672,1.672,0,0,1-2.367,0L8.745,16.282a1.672,1.672,0,0,1,0-2.367l6.026-6.026a1.674,1.674,0,1,1,2.367,2.367l-3.156,3.172H28.535a1.679,1.679,0,1,1,0,3.357H13.982l3.156,3.156A1.687,1.687,0,0,1,17.138,22.308ZM3.357,0h23.5a3.356,3.356,0,0,1,3.357,3.357V8.393a1.679,1.679,0,0,1-3.357,0V5.036a1.683,1.683,0,0,0-1.679-1.679H5.036A1.683,1.683,0,0,0,3.357,5.036V25.178a1.683,1.683,0,0,0,1.679,1.679H25.178a1.683,1.683,0,0,0,1.679-1.679V21.821a1.679,1.679,0,0,1,3.357,0v5.036a3.367,3.367,0,0,1-3.357,3.357H3.357A3.367,3.367,0,0,1,0,26.857V3.357A3.367,3.367,0,0,1,3.357,0Z" fill="#707070" opacity="0.7"/></svg>