<svg xmlns="http://www.w3.org/2000/svg" xmlns:xlink="http://www.w3.org/1999/xlink" width="103.369" height="103.658" viewBox="0 0 103.369 103.658"><defs><filter id="a" x="0" y="0" width="103.369" height="103.658" filterUnits="userSpaceOnUse"><feOffset dy="3" input="SourceAlpha"/><feGaussianBlur stdDeviation="4" result="b"/><feFlood flood-color="#fff"/><feComposite operator="in" in2="b"/><feComposite in="SourceGraphic"/></filter></defs><g transform="matrix(1, 0, 0, 1, 0, 0)" filter="url(#a)"><path d="M7.436,78.958A7.444,7.444,0,0,1,6.4,64.143V14.813A7.444,7.444,0,0,1,7.46,0H53.2a7.453,7.453,0,0,1,7.4,6.684,7.253,7.253,0,0,1,.04.76V30.72a12.014,12.014,0,0,1,7.849,19.973l-.028.029a16.3,16.3,0,0,0-4.284,8.555h11.7a2.793,2.793,0,0,1,2.784,2.785v5.714a2.784,2.784,0,0,1-2.608,2.784v5.614a2.793,2.793,0,0,1-2.784,2.784ZM2.189,71.521a5.247,5.247,0,0,0,5.247,5.247l35.574,0v-6.2A2.784,2.784,0,0,1,40.4,67.787V66.274H7.436A5.247,5.247,0,0,0,2.189,71.521ZM45.2,76.768H73.281a.586.586,0,0,0,.586-.586V70.569H45.2ZM42.6,62.077v5.714a.586.586,0,0,0,.586.586h32.7a.586.586,0,0,0,.586-.586l-.006-5.714a.593.593,0,0,0-.586-.586h-32.7A.586.586,0,0,0,42.6,62.077ZM8.608,64.064H40.4v-2a2.793,2.793,0,0,1,2.784-2.784H54.849c-.4-1.988-1.493-5.976-4.177-8.508l-.064-.066a12.014,12.014,0,0,1,7.84-19.983l.007-15.831H8.608ZM51.232,37.437A9.817,9.817,0,0,0,52.213,49.2c3.336,3.171,4.511,8.007,4.876,10.074h4.866a18.48,18.48,0,0,1,4.914-10.066A9.8,9.8,0,0,0,69.36,42.68h0a9.816,9.816,0,0,0-18.123-5.243ZM47.954,7.452A5.247,5.247,0,0,0,53.2,12.7l5.247-.007V7.452a5.247,5.247,0,1,0-10.493,0ZM7.46,12.691H47.925a7.431,7.431,0,0,1,0-10.493H7.46a5.247,5.247,0,0,0,0,10.493ZM14.8,48.672a1.1,1.1,0,0,1,0-2.2H31.348a1.1,1.1,0,1,1,0,2.2Zm0-7.705a1.1,1.1,0,0,1,0-2.2H38a1.1,1.1,0,1,1,0,2.2Zm0-7.708a1.1,1.1,0,0,1,0-2.2H44.929a1.1,1.1,0,1,1,0,2.2Zm0-7.7a1.1,1.1,0,0,1,0-2.2H44.929a1.1,1.1,0,0,1,0,2.2Z" transform="translate(12.35 9.35)" fill="#fff" stroke="#fff" stroke-width="0.7"/></g></svg>