<svg xmlns="http://www.w3.org/2000/svg" width="66" height="65.982" viewBox="0 0 66 65.982">
  <path id="zehni_sefid" data-name="zehni sefid" d="M23.129,65.887a10.823,10.823,0,0,1-8.909-7.46l-.1-.018a10.863,10.863,0,0,1-8.5-13.193A15.211,15.211,0,0,1,.007,32.93a15,15,0,0,1,4.413-10.6A15.2,15.2,0,0,1,6.49,20.6a3.723,3.723,0,0,1-.048-1.053A21.226,21.226,0,0,1,13.79,5.733,22.786,22.786,0,0,1,28.783,0H28.8A6.682,6.682,0,0,1,33,1.511,6.67,6.67,0,0,1,37.193,0h.022A22.808,22.808,0,0,1,52.2,5.722a21.2,21.2,0,0,1,7.35,13.826A3.723,3.723,0,0,1,59.5,20.6a15.229,15.229,0,0,1,2.076,1.741,15.011,15.011,0,0,1,4.416,10.583,15.211,15.211,0,0,1-5.622,12.3A10.865,10.865,0,0,1,51.9,58.4l-.125.022A10.855,10.855,0,0,1,33,61.953a10.843,10.843,0,0,1-9.871,3.933Zm12.333-39V55.136a5.972,5.972,0,1,0,8.866-5.228,2.47,2.47,0,0,1,2.385-4.326,10.9,10.9,0,0,1,5.456,7.659,5.972,5.972,0,0,0-2.307-11.462h-.043a2.465,2.465,0,0,1-.006-4.926h.058a10.941,10.941,0,0,1,8.268,3.817,10.39,10.39,0,0,0,2.973-7.625v-.052A10.218,10.218,0,0,0,50.922,22.8a2.463,2.463,0,0,1-2.458-2.616l0-.025a2.5,2.5,0,0,1,2.477-2.286h.016a15.013,15.013,0,0,1,3.457.412c-1.656-7.6-9.007-13.407-17.2-13.407H37.2a1.753,1.753,0,0,0-1.737,1.753V21.7a2.836,2.836,0,0,0,1.4-2.388,2.483,2.483,0,0,1,2.225-2.486l.075-.006c.067,0,.136,0,.2,0a2.46,2.46,0,0,1,2.422,2.465,7.711,7.711,0,0,1-.484,2.7l1.907,1.905a2.465,2.465,0,0,1-3.485,3.484l-.027-.025-1.525-1.523A7.712,7.712,0,0,1,35.462,26.889ZM22.641,46.559a2.467,2.467,0,0,1-.968,3.349,5.97,5.97,0,1,0,8.863,5.221V6.635A1.754,1.754,0,0,0,28.795,4.88h-.012c-8.2,0-15.545,5.81-17.2,13.405a15,15,0,0,1,3.455-.411h.015a2.5,2.5,0,0,1,2.48,2.294v.015a2.463,2.463,0,0,1-2.458,2.624A10.213,10.213,0,0,0,4.889,32.994v.052a10.4,10.4,0,0,0,2.973,7.625,10.932,10.932,0,0,1,8.267-3.815A1.756,1.756,0,0,0,17.885,35.1a2.46,2.46,0,0,1,2.464-2.464l.149,0a2.487,2.487,0,0,1,2.313,2.524,6.646,6.646,0,0,1-.551,2.583l1.454,1.459a2.465,2.465,0,0,1-3.484,3.481l-.045-.043-1.408-1.41a6.678,6.678,0,0,1-2.646.551,5.971,5.971,0,0,0-2.3,11.468,10.911,10.911,0,0,1,5.452-7.662,2.469,2.469,0,0,1,3.354.966Zm26.174,8.556h0ZM6.733,47.746Zm.553-3.185h0ZM48.857,39.315ZM49.87,20.329s0,0,0,0S49.87,20.329,49.87,20.329ZM7.832,19.9Zm32.221-1.383h0Zm-.028-.027h0Zm0,0Zm-.013-.012h0Z" fill="#fff"/>
</svg>
