<svg width="23" height="27" viewBox="0 0 23 27" fill="none" xmlns="http://www.w3.org/2000/svg">
<g filter="url(#filter0_d_13808_15388)">
<mask id="mask0_13808_15388" style="mask-type:alpha" maskUnits="userSpaceOnUse" x="1" y="0" width="21" height="21">
<rect x="1" width="21" height="21" fill="#D9D9D9"/>
</mask>
<g mask="url(#mask0_13808_15388)">
<path d="M11.5 18.8125C9.56042 18.8125 7.90885 18.1417 6.54531 16.8C5.18177 15.4583 4.5 13.825 4.5 11.9C4.5 10.9812 4.67865 10.1026 5.03594 9.26406C5.39323 8.42552 5.9 7.68542 6.55625 7.04375L11.5 2.1875L16.4438 7.04375C17.1 7.68542 17.6068 8.42552 17.9641 9.26406C18.3214 10.1026 18.5 10.9812 18.5 11.9C18.5 13.825 17.8182 15.4583 16.4547 16.8C15.0911 18.1417 13.4396 18.8125 11.5 18.8125ZM11.5 17.0625C12.9583 17.0625 14.1979 16.563 15.2188 15.5641C16.2396 14.5651 16.75 13.3438 16.75 11.9C16.75 11.2146 16.6188 10.562 16.3562 9.94219C16.0938 9.3224 15.7146 8.77917 15.2188 8.3125L11.5 4.6375L7.78125 8.3125C7.28542 8.77917 6.90625 9.3224 6.64375 9.94219C6.38125 10.562 6.25 11.2146 6.25 11.9C6.25 13.3438 6.76042 14.5651 7.78125 15.5641C8.80208 16.563 10.0417 17.0625 11.5 17.0625Z" fill="#D4D4D4"/>
</g>
</g>
<defs>
<filter id="filter0_d_13808_15388" x="0.5" y="2.1875" width="22" height="24.625" filterUnits="userSpaceOnUse" color-interpolation-filters="sRGB">
<feFlood flood-opacity="0" result="BackgroundImageFix"/>
<feColorMatrix in="SourceAlpha" type="matrix" values="0 0 0 0 0 0 0 0 0 0 0 0 0 0 0 0 0 0 127 0" result="hardAlpha"/>
<feOffset dy="4"/>
<feGaussianBlur stdDeviation="2"/>
<feComposite in2="hardAlpha" operator="out"/>
<feColorMatrix type="matrix" values="0 0 0 0 0 0 0 0 0 0 0 0 0 0 0 0 0 0 0.25 0"/>
<feBlend mode="normal" in2="BackgroundImageFix" result="effect1_dropShadow_13808_15388"/>
<feBlend mode="normal" in="SourceGraphic" in2="effect1_dropShadow_13808_15388" result="shape"/>
</filter>
</defs>
</svg>
