<svg xmlns="http://www.w3.org/2000/svg" width="34.74" height="34.74" viewBox="0 0 34.74 34.74"><path d="M17.37,0A17.37,17.37,0,1,0,34.74,17.37,17.376,17.376,0,0,0,17.37,0ZM8.807,28.279c.747-1.563,5.3-3.092,8.563-3.092s7.834,1.529,8.563,3.092a13.766,13.766,0,0,1-17.127,0ZM28.418,25.76c-2.484-3.022-8.511-4.047-11.047-4.047S8.807,22.737,6.323,25.76a13.886,13.886,0,1,1,24.943-8.39,13.809,13.809,0,0,1-2.849,8.39ZM17.37,6.948a6.08,6.08,0,1,0,6.08,6.08A6.064,6.064,0,0,0,17.37,6.948Zm0,8.685a2.606,2.606,0,1,1,2.606-2.606A2.6,2.6,0,0,1,17.37,15.633Z" fill="#707070" opacity="0.3"/></svg>