<svg xmlns="http://www.w3.org/2000/svg" width="27.353" height="34.5" viewBox="0 0 27.353 34.5"><path d="M24.774,0H9.092A3.146,3.146,0,0,0,5.956,3.136V6.273a1.568,1.568,0,0,0,3.136,0V4.7H24.774V29.8H9.092V28.227a1.568,1.568,0,1,0-3.136,0v3.136A3.146,3.146,0,0,0,9.092,34.5H24.774a3.146,3.146,0,0,0,3.136-3.136V3.136A3.146,3.146,0,0,0,24.774,0ZM5.972,19.555,2.961,16.544A1.408,1.408,0,1,0,.969,18.536l3.873,3.873a1.562,1.562,0,0,0,2.211,0l9.174-9.174a1.408,1.408,0,0,0-1.992-1.992Z" transform="translate(-0.557)" fill="#707070"/></svg>