<svg xmlns="http://www.w3.org/2000/svg" width="34.74" height="43.599" viewBox="0 0 34.74 43.599"><path d="M19872.342-11216.4a4.346,4.346,0,0,1-4.34-4.345v-19.714a4.346,4.346,0,0,1,4.34-4.34h2.174v-4.341a10.868,10.868,0,0,1,10.854-10.859,10.873,10.873,0,0,1,10.859,10.859v4.341h2.172a4.348,4.348,0,0,1,4.342,4.34v19.714a4.348,4.348,0,0,1-4.342,4.345Zm-.658-21.971v15.463a3.012,3.012,0,0,0,2.932,3.082h21.508a3.017,3.017,0,0,0,2.938-3.082v-15.463a3.016,3.016,0,0,0-2.937-3.081h-21.508A3.011,3.011,0,0,0,19871.684-11238.373Zm7.172-10.769v4.341h13.027v-4.341a6.521,6.521,0,0,0-6.514-6.514A6.521,6.521,0,0,0,19878.855-11249.142Zm2.174,18.535a4.346,4.346,0,0,1,4.34-4.341,4.351,4.351,0,0,1,4.346,4.341,4.348,4.348,0,0,1-4.346,4.341A4.343,4.343,0,0,1,19881.029-11230.606Z" transform="translate(-19868.002 11260.001)" fill="#707070" opacity="0.3"/></svg>