<svg xmlns="http://www.w3.org/2000/svg" width="34.74" height="38.6" viewBox="0 0 34.74 38.6"><g opacity="0.3"><path d="M31.266,3.509H29.529V1.737A1.737,1.737,0,0,0,27.792,0h0a1.737,1.737,0,0,0-1.737,1.737V3.509H8.685V1.737A1.737,1.737,0,0,0,6.948,0h0A1.737,1.737,0,0,0,5.211,1.737V3.509H3.474A3.5,3.5,0,0,0,0,7.018V35.091A3.5,3.5,0,0,0,3.474,38.6H31.266a3.5,3.5,0,0,0,3.474-3.509V7.018A3.5,3.5,0,0,0,31.266,3.509Zm0,29.265a2.316,2.316,0,0,1-2.316,2.316H5.79a2.316,2.316,0,0,1-2.316-2.316V15.791H31.266Zm0-21.844a1.351,1.351,0,0,1-1.351,1.351H4.825a1.351,1.351,0,0,1-1.351-1.351V8.369A1.351,1.351,0,0,1,4.825,7.018h25.09a1.351,1.351,0,0,1,1.351,1.351Z" transform="translate(0 0)" fill="#707070"/><path d="M10.93,11h5.79a1.936,1.936,0,0,1,1.93,1.93v5.79a1.936,1.936,0,0,1-1.93,1.93H10.93A1.936,1.936,0,0,1,9,18.72V12.93A1.936,1.936,0,0,1,10.93,11Z" transform="translate(8.37 10.23)" fill="#707070"/></g></svg>