<svg xmlns="http://www.w3.org/2000/svg" width="134.217" height="120" viewBox="0 0 134.217 120"><path d="M120.8,0H13.412A13.405,13.405,0,0,0,.056,13.423L0,109.907a10.067,10.067,0,0,0,17.186,7.124l6.7-6.7A10.067,10.067,0,0,1,31,107.384H120.8a13.463,13.463,0,0,0,13.423-13.423V13.423A13.463,13.463,0,0,0,120.8,0ZM33.546,46.981h67.115a6.712,6.712,0,1,1,0,13.423H33.546a6.712,6.712,0,1,1,0-13.423ZM73.815,80.538H33.546a6.712,6.712,0,0,1,0-13.423H73.815a6.712,6.712,0,1,1,0,13.423Zm26.846-40.269H33.546a6.712,6.712,0,1,1,0-13.423h67.115a6.712,6.712,0,1,1,0,13.423Z" transform="translate(-0.002)" fill="#707070" opacity="0.1"/></svg>