<svg width="21" height="20" viewBox="0 0 21 20" fill="none" xmlns="http://www.w3.org/2000/svg">
<g clip-path="url(#clip0_13720_18741)">
<path d="M19.809 6.69377L13.8942 6.18071L11.5842 0.74244C11.4902 0.52215 11.3335 0.334348 11.1336 0.202356C10.9337 0.070365 10.6994 0 10.4599 0C10.2203 0 9.98609 0.070365 9.7862 0.202356C9.58631 0.334348 9.42959 0.52215 9.33552 0.74244L7.0256 6.19306L1.12311 6.69433C0.883529 6.71416 0.65515 6.80433 0.466655 6.95353C0.278159 7.10273 0.137952 7.3043 0.0636436 7.53292C-0.0106652 7.76155 -0.0157624 8.00703 0.0489924 8.23854C0.113747 8.47005 0.245466 8.67727 0.427606 8.83416L4.91272 12.7203L3.56718 18.4892C3.51235 18.7231 3.52786 18.9681 3.61176 19.1932C3.69566 19.4184 3.84422 19.6137 4.03877 19.7547C4.23332 19.8957 4.4652 19.9761 4.70528 19.9857C4.94535 19.9954 5.18293 19.9339 5.38817 19.8089L10.4599 16.7491L15.5316 19.8162C15.7368 19.9412 15.9744 20.0027 16.2145 19.993C16.4546 19.9834 16.6864 19.903 16.881 19.762C17.0755 19.621 17.2241 19.4257 17.308 19.2005C17.3919 18.9754 17.4074 18.7304 17.3526 18.4965L16.0082 12.7147L20.4933 8.82855C20.6759 8.67289 20.8085 8.46669 20.8743 8.2359C20.9401 8.0051 20.9362 7.76001 20.863 7.53143C20.7899 7.30286 20.6508 7.101 20.4633 6.95126C20.2757 6.80152 20.0481 6.71056 19.809 6.68984V6.69377ZM10.4599 14.4661L5.86475 17.2402L7.08679 12.0097L3.02942 8.49006L8.38236 8.02583L10.4593 3.10063L12.5492 8.04043L17.9021 8.50466L13.8436 12.022L15.0674 17.2543L10.4599 14.4661Z" fill="#D4D4D4"/>
</g>
<defs>
<clipPath id="clip0_13720_18741">
<rect width="20.9178" height="20" fill="white"/>
</clipPath>
</defs>
</svg>
