<svg xmlns="http://www.w3.org/2000/svg" xmlns:xlink="http://www.w3.org/1999/xlink" width="85.266" height="119.39" viewBox="0 0 85.266 119.39"><defs><filter id="a" x="0" y="0" width="85.266" height="119.39" filterUnits="userSpaceOnUse"><feOffset dy="3" input="SourceAlpha"/><feGaussianBlur stdDeviation="4" result="b"/><feFlood flood-color="#fff"/><feComposite operator="in" in2="b"/><feComposite in="SourceGraphic"/></filter><filter id="c" x="20.606" y="59.305" width="45.246" height="43.411" filterUnits="userSpaceOnUse"><feOffset dy="3" input="SourceAlpha"/><feGaussianBlur stdDeviation="4" result="d"/><feFlood flood-color="#fff"/><feComposite operator="in" in2="d"/><feComposite in="SourceGraphic"/></filter></defs><g transform="translate(-6262.581 -559.627)"><g transform="matrix(1, 0, 0, 1, 6262.58, 559.63)" filter="url(#a)"><path d="M60.566,61.818a34.455,34.455,0,0,0-7.469-21.6A30.134,30.134,0,0,0,38.39,30.162a16.069,16.069,0,0,0,6.823-12.2,1.222,1.222,0,0,0,.013-.147.2.2,0,0,0,0-.034c.021-.335.034-.671.034-1.011,0-8.734-6.6-15.84-14.717-15.84A13.767,13.767,0,0,0,24.6,2.285a7.057,7.057,0,0,0-1.964-1.5A7.76,7.76,0,0,0,12.32,4.461a7.759,7.759,0,0,0,2.993,10.534,4.958,4.958,0,0,0,.584.265c-.042.478-.066.962-.068,1.452h0v.059a16.169,16.169,0,0,0,6.713,13.284C9.452,33.8,0,46.781,0,61.818,0,79.929,13.585,94.666,30.284,94.666a27.979,27.979,0,0,0,8.849-1.431h.019a1.438,1.438,0,0,0,.24-.083C51.65,88.947,60.566,76.491,60.566,61.818ZM42.417,16.2c-5.516-.945-9.209-5.747-9.246-5.8a1.42,1.42,0,0,0-2.253-.023c-3.157,4.036-9.366,4.815-12.18,4.955.658-6.5,5.7-11.564,11.806-11.564,6.375,0,11.591,5.524,11.869,12.428ZM14.842,5.76A4.929,4.929,0,0,1,21.334,3.3a4.3,4.3,0,0,1,.766.507,15.912,15.912,0,0,0-5.69,8.556A4.961,4.961,0,0,1,14.842,5.76Zm3.891,12.415c2.9-.121,9.2-.858,13.275-4.792a18.393,18.393,0,0,0,10.231,5.66c-.985,6.091-5.861,10.732-11.7,10.732C24.425,29.775,19.374,24.687,18.733,18.175ZM38.394,90.5a4.121,4.121,0,0,1-3.507-.756,3.965,3.965,0,0,1-.7-3.885c.435-1.361,1.437-1.841,3.66-2.8a24.789,24.789,0,0,0,6.382-3.671,20.508,20.508,0,0,0,7.322-11.5,19.064,19.064,0,0,0-1.563-11.891l-.023-.043a5.233,5.233,0,0,0,.6-3.448,6.656,6.656,0,0,0-2.2-3.4,10.618,10.618,0,0,1-2.647-3.677,10.231,10.231,0,0,1-.726-3.076,1.422,1.422,0,0,0-2.836.216,13.065,13.065,0,0,0,.934,3.944,13.211,13.211,0,0,0,3.261,4.609c.828.83,1.3,1.323,1.422,1.94.257,1.323-1.159,3.3-3.985,5.581a1.418,1.418,0,1,0,1.771,2.2A24.574,24.574,0,0,0,48,58.616a15.711,15.711,0,0,1,.756,8.7,17.7,17.7,0,0,1-6.341,9.88,21.974,21.974,0,0,1-5.707,3.261c-2.259.97-4.392,1.89-5.24,4.537a6.815,6.815,0,0,0,1.346,6.7,25.194,25.194,0,0,1-2.545.13C17.107,91.823,6.082,81.64,3.424,68.1A8.11,8.11,0,0,0,7.2,69.14h.17a8.089,8.089,0,0,0,6.331-3.8c4.957-8.144,9.865-10.647,12.349-11.415a3.811,3.811,0,0,0,2.422-2.518,5.482,5.482,0,0,0-.739-4.855,5.946,5.946,0,0,0-3.029-2.125c-5.237-1.611-11.7,4.475-13.555,6.38a1.418,1.418,0,0,0,2.03,1.977c2.49-2.554,7.543-6.617,10.7-5.656A3.179,3.179,0,0,1,25.44,48.2a2.647,2.647,0,0,1,.363,2.3,1.072,1.072,0,0,1-.567.716c-2.87.885-8.494,3.707-13.937,12.651A5.251,5.251,0,0,1,7.307,66.31,5.206,5.206,0,0,1,2.894,63.7c-.034-.622-.055-1.248-.055-1.879C2.84,46.781,13.094,34,26.7,32.058a13.723,13.723,0,0,0,7.52.053C47.64,34.217,57.73,46.963,57.73,61.818c0,13.464-8.152,24.886-19.344,28.677Z" transform="translate(12.35 9.37)" fill="#fff" stroke="#fff" stroke-width="0.7"/></g><g transform="matrix(1, 0, 0, 1, 6262.58, 559.63)" filter="url(#c)"><path d="M127.767,315.578a6.169,6.169,0,0,0-4.592-2,5.842,5.842,0,0,0-3.651,1.257c-.087.066-.174.138-.259.21-.083-.072-.17-.144-.257-.21a5.846,5.846,0,0,0-3.651-1.257,6.165,6.165,0,0,0-4.586,2A6.946,6.946,0,0,0,109,320.321a8.044,8.044,0,0,0,2.08,5.222,38.231,38.231,0,0,0,4.571,4.3c.6.516,1.291,1.1,2,1.722a2.458,2.458,0,0,0,3.237,0c.705-.614,1.386-1.2,1.989-1.7l.015-.015a38.227,38.227,0,0,0,4.571-4.3,8.042,8.042,0,0,0,2.08-5.222,6.955,6.955,0,0,0-1.781-4.743Zm-2.486,8.154a36.668,36.668,0,0,1-4.225,3.955l-.019.015c-.537.457-1.134.968-1.766,1.512-.635-.552-1.24-1.068-1.785-1.531a36.478,36.478,0,0,1-4.223-3.953,5.191,5.191,0,0,1-1.431-3.4,4.12,4.12,0,0,1,1.03-2.821,3.361,3.361,0,0,1,2.5-1.085,3.024,3.024,0,0,1,1.915.664,4.348,4.348,0,0,1,.845.885,1.416,1.416,0,0,0,2.3,0,4.387,4.387,0,0,1,.843-.885,3.038,3.038,0,0,1,1.911-.669,3.363,3.363,0,0,1,2.5,1.085,4.129,4.129,0,0,1,1.03,2.821A5.151,5.151,0,0,1,125.281,323.731Z" transform="translate(-76.04 -244.92)" fill="#fff" stroke="#fff" stroke-width="0.7"/></g></g></svg>