<svg width="21" height="21" viewBox="0 0 21 21" fill="none" xmlns="http://www.w3.org/2000/svg">
<mask id="mask0_13808_15397" style="mask-type:alpha" maskUnits="userSpaceOnUse" x="0" y="0" width="21" height="21">
<rect width="21" height="21" fill="#D9D9D9"/>
</mask>
<g mask="url(#mask0_13808_15397)">
<path d="M4.06512 9.77188C4.06512 11.0115 4.37138 12.1635 4.98388 13.2281C5.59637 14.2927 6.43492 15.1458 7.4995 15.7875C7.70367 15.9187 7.84585 16.0974 7.92606 16.3234C8.00627 16.5495 7.98804 16.7646 7.87138 16.9688C7.75471 17.1875 7.57606 17.3297 7.33544 17.3953C7.09481 17.4609 6.86513 17.4354 6.64638 17.3188C5.29012 16.5312 4.22554 15.4667 3.45263 14.125C2.67971 12.7833 2.29325 11.3323 2.29325 9.77188C2.29325 9.39271 2.31512 9.02448 2.35888 8.66719C2.40262 8.3099 2.46825 7.94896 2.55575 7.58437L2.29325 7.7375C2.08908 7.85417 1.87033 7.88333 1.637 7.825C1.40367 7.76667 1.22867 7.63542 1.112 7.43125C0.995333 7.22708 0.969813 7.00469 1.03544 6.76406C1.10106 6.52344 1.23596 6.34479 1.44013 6.22813L4.087 4.69687C4.29117 4.58021 4.51356 4.55469 4.75419 4.62031C4.99481 4.68594 5.17346 4.82083 5.29012 5.025L6.82137 7.65C6.93804 7.85417 6.96356 8.07656 6.89794 8.31719C6.83231 8.55781 6.69742 8.73646 6.49325 8.85313C6.28908 8.96979 6.06669 8.99531 5.82606 8.92969C5.58544 8.86406 5.40679 8.72917 5.29012 8.525L4.54638 7.23438C4.38596 7.64271 4.26565 8.05833 4.18544 8.48125C4.10523 8.90417 4.06512 9.33438 4.06512 9.77188ZM11.0651 2.75C10.4526 2.75 9.85471 2.82656 9.27137 2.97969C8.68804 3.13281 8.13387 3.35521 7.60887 3.64688C7.39012 3.76354 7.16044 3.80365 6.91981 3.76719C6.67919 3.73073 6.50054 3.61042 6.38387 3.40625C6.25262 3.17292 6.22346 2.93594 6.29637 2.69531C6.36929 2.45469 6.52242 2.26875 6.75575 2.1375C7.412 1.75833 8.10106 1.47396 8.82294 1.28438C9.54481 1.09479 10.2849 1 11.0433 1C12.1953 1 13.3 1.2151 14.3573 1.64531C15.4146 2.07552 16.3589 2.69896 17.1901 3.51562V3.1875C17.1901 2.93958 17.274 2.73177 17.4417 2.56406C17.6094 2.39635 17.8172 2.3125 18.0651 2.3125C18.313 2.3125 18.5209 2.39635 18.6886 2.56406C18.8563 2.73177 18.9401 2.93958 18.9401 3.1875V6.25C18.9401 6.49792 18.8563 6.70573 18.6886 6.87344C18.5209 7.04115 18.313 7.125 18.0651 7.125H15.0026C14.7547 7.125 14.5469 7.04115 14.3792 6.87344C14.2115 6.70573 14.1276 6.49792 14.1276 6.25C14.1276 6.00208 14.2115 5.79427 14.3792 5.62656C14.5469 5.45885 14.7547 5.375 15.0026 5.375H16.512C15.8412 4.54375 15.0318 3.89844 14.0839 3.43906C13.136 2.97969 12.1297 2.75 11.0651 2.75ZM16.337 14.3656C16.8912 13.724 17.3177 13.0167 17.6167 12.2438C17.9156 11.4708 18.0651 10.6615 18.0651 9.81563C18.0651 9.56771 18.1417 9.34896 18.2948 9.15938C18.4479 8.96979 18.6485 8.875 18.8964 8.875C19.1443 8.875 19.3557 8.96979 19.5308 9.15938C19.7057 9.34896 19.7933 9.56771 19.7933 9.81563C19.7787 10.7635 19.6255 11.6786 19.3339 12.5609C19.0422 13.4432 18.612 14.2635 18.0433 15.0219C17.4745 15.7802 16.8 16.4292 16.0198 16.9688C15.2396 17.5083 14.3901 17.9094 13.4714 18.1719L13.6901 18.3031C13.8943 18.4198 14.0255 18.5984 14.0839 18.8391C14.1422 19.0797 14.113 19.3021 13.9964 19.5063C13.8797 19.7104 13.7047 19.8417 13.4714 19.9C13.238 19.9583 13.0193 19.9292 12.8151 19.8125L10.1464 18.2812C9.94221 18.1646 9.80731 17.9859 9.74169 17.7453C9.67606 17.5047 9.70158 17.2823 9.81825 17.0781L11.3495 14.4313C11.4662 14.2271 11.6412 14.0958 11.8745 14.0375C12.1078 13.9792 12.3266 14.0083 12.5308 14.125C12.7349 14.2417 12.8698 14.4203 12.9354 14.6609C13.0011 14.9016 12.9755 15.124 12.8589 15.3281L12.0495 16.7063C12.8808 16.5896 13.6646 16.3307 14.4011 15.9297C15.1375 15.5286 15.7828 15.0073 16.337 14.3656Z" fill="#D4D4D4"/>
</g>
</svg>
