<svg xmlns="http://www.w3.org/2000/svg" xmlns:xlink="http://www.w3.org/1999/xlink" width="100.135" height="100.268" viewBox="0 0 100.135 100.268"><defs><filter id="a" x="0" y="0" width="100.135" height="100.268" filterUnits="userSpaceOnUse"><feOffset dy="3" input="SourceAlpha"/><feGaussianBlur stdDeviation="4" result="b"/><feFlood flood-color="#fff"/><feComposite operator="in" in2="b"/><feComposite in="SourceGraphic"/></filter></defs><g transform="matrix(1, 0, 0, 1, 0, 0)" filter="url(#a)"><path d="M59.535,75.568a10.787,10.787,0,0,1-2.873-.519,9.132,9.132,0,0,0-2.458-.471,10.174,10.174,0,0,0-2.518.45,7.524,7.524,0,0,1-4.55.22l-.075-.028H10.787A10.8,10.8,0,0,1,0,64.432V17.809A10.8,10.8,0,0,1,10.787,7.021h4.351A5.921,5.921,0,0,1,20.23,4.114h2.935a6.8,6.8,0,0,1,12.492,0H38.6a5.921,5.921,0,0,1,5.093,2.91h4.348A10.8,10.8,0,0,1,58.825,17.812V28.983a8.068,8.068,0,0,1,3.963.5l.628.251.1.668a11.15,11.15,0,0,1-.912,6.444,5.137,5.137,0,0,1,3.208.846A21.128,21.128,0,0,1,61.082,75.32a4.707,4.707,0,0,1-1.508.248Zm-2.24-2.793a5.357,5.357,0,0,0,3.023.314v0a18.777,18.777,0,0,0,4.2-33.439c-1.323-.869-2.833-.4-5.187.445a15.428,15.428,0,0,1-5.124,1.178,15.309,15.309,0,0,1-5.119-1.183c-2.344-.846-3.852-1.319-5.168-.455a18.778,18.778,0,0,0,4.005,33.395,5.685,5.685,0,0,0,3.166-.279,12.185,12.185,0,0,1,3.116-.527A11.411,11.411,0,0,1,57.295,72.775ZM2.353,17.809V64.432a8.446,8.446,0,0,0,8.435,8.435H42.422a21.162,21.162,0,0,1-5.789-5.827H13.5a5.924,5.924,0,0,1-5.918-5.918V23.6A5.924,5.924,0,0,1,13.5,17.682h.813v-7.65a5.681,5.681,0,0,1,.038-.657H10.787A8.446,8.446,0,0,0,2.353,17.809ZM9.935,23.6V61.121A3.568,3.568,0,0,0,13.5,64.686H35.278a21.107,21.107,0,0,1,7.355-27.017,5.2,5.2,0,0,1,1.026-.524,8.354,8.354,0,0,1-.861-1.784,8.684,8.684,0,0,1,.1-5.716l.259-.706.748-.063a12.892,12.892,0,0,1,4.991.552V23.6a3.568,3.568,0,0,0-3.565-3.565H13.5A3.568,3.568,0,0,0,9.935,23.6Zm34.951,7.586a6.072,6.072,0,0,0,1.538,5.7,17.592,17.592,0,0,1,3.463.987,13.293,13.293,0,0,0,4.322,1.045,6.131,6.131,0,0,0,.656-.036,10.868,10.868,0,0,0-5.021-6.5,10.106,10.106,0,0,0-4.774-1.2Zm10.255,2.9a14.878,14.878,0,0,1,2.01,4.255c.463-.143.922-.314,1.379-.471l.785-.276A8.048,8.048,0,0,0,60.394,36a8.6,8.6,0,0,0,.872-4.55l-.006-.014a5.331,5.331,0,0,0-6.119,2.653ZM44.514,10.032v7.65h.813A5.924,5.924,0,0,1,51.245,23.6v6.872a11.856,11.856,0,0,1,2.313,1.751A7.813,7.813,0,0,1,56.473,29.7V17.809a8.444,8.444,0,0,0-8.435-8.435H44.477A6.086,6.086,0,0,1,44.514,10.032Zm-27.841,0v7.65H42.161v-7.65A3.568,3.568,0,0,0,38.6,6.468H20.23A3.568,3.568,0,0,0,16.674,10.032Zm9.2-5.918h7.076a4.436,4.436,0,0,0-7.076,0ZM13.919,44.878a1.177,1.177,0,0,1,0-2.353h9.571a1.177,1.177,0,1,1,0,2.353ZM13.912,38.2a1.177,1.177,0,1,1,0-2.353H30.451a1.177,1.177,0,0,1,0,2.353Zm0-6.682a1.177,1.177,0,1,1,0-2.353H37.746a1.177,1.177,0,1,1,0,2.353Zm7.939-16.985a1.177,1.177,0,1,1,0-2.353h15.12a1.177,1.177,0,0,1,0,2.353Z" transform="translate(12.35 9.35)" fill="#fff" stroke="#fff" stroke-width="0.7"/></g></svg>