<svg xmlns="http://www.w3.org/2000/svg" xmlns:xlink="http://www.w3.org/1999/xlink" width="110.956" height="91.902" viewBox="0 0 110.956 91.902"><defs><linearGradient id="a" x1="-0.231" y1="-0.605" x2="1" y2="0.638" gradientUnits="objectBoundingBox"><stop offset="0" stop-color="#9bf8fb"/><stop offset="1" stop-color="#afb3fc"/></linearGradient></defs><g transform="translate(-117.346 -688.004)"><path d="M20694.846-10319.369a7.11,7.11,0,0,1-4.8-1.849l-.363-.326-.205-.187c-18.646-16.937-30.957-28.124-30.455-41.989a19.542,19.542,0,0,1,8.387-15.393,20,20,0,0,1,11.326-3.55,21.54,21.54,0,0,1,16.15,7.5,21.177,21.177,0,0,1,4.023-3.628,50.523,50.523,0,0,0,4,5.935,13.727,13.727,0,0,0-3.025,2.909c-.832,1.091-2.58,2.927-5,2.927-2.4,0-4.143-1.816-4.975-2.9a14.3,14.3,0,0,0-11.168-5.565,12.277,12.277,0,0,0-12.553,12.554c0,10.388,11.27,20.595,28.332,36.048l.363.365.355-.362c12.039-10.9,21.545-19.512,25.8-27.242,1.82,1.678,3.744,3.435,5.408,4.942-5.1,8.282-14.461,16.777-26.32,27.534l-.047.039-.4.354A7.111,7.111,0,0,1,20694.846-10319.369Z" transform="translate(-20541.66 11099.275)" fill="url(#a)"/><path d="M63.355,3.553C53.886-2.9,42.194.11,35.881,7.5,29.569.11,17.876-2.939,8.408,3.553A19.625,19.625,0,0,0,.015,18.94c-.5,13.916,11.836,25.071,30.666,42.18l.359.323a7.159,7.159,0,0,0,9.648-.036l.395-.359C59.912,43.975,72.214,32.821,71.747,18.9A19.613,19.613,0,0,0,63.355,3.553ZM36.24,55.776l-.359.359-.359-.359C18.45,40.317,7.188,30.095,7.188,19.729A12.258,12.258,0,0,1,19.741,7.176a14.342,14.342,0,0,1,11.171,5.561,6.522,6.522,0,0,0,4.975,2.9h0a6.555,6.555,0,0,0,5-2.929A14.282,14.282,0,0,1,52.021,7.176,12.258,12.258,0,0,1,64.574,19.729C64.574,30.095,53.312,40.317,36.24,55.776Z" transform="translate(156.542 688.004)" fill="url(#a)"/></g></svg>