<svg xmlns="http://www.w3.org/2000/svg" xmlns:xlink="http://www.w3.org/1999/xlink" width="373.99" height="373.476" viewBox="0 0 373.99 373.476"><defs><clipPath id="a"><path d="M242.53,272.278l-11.448,2.02-5.348-31.26-1.169-6.869c-.654-1.137-1.366-2.363-2.1-3.614a119.592,119.592,0,0,0-7.425-11.677c-.556-.7-1.006-1.267-1.316-1.635l-.54-.679-.335,2.543a95.155,95.155,0,0,0,1.12,31.563l1.709,8.365s-13.361,6.255-22.977,7.359c-21.955,2.551-34.3-3.835-34.3-3.835a52.8,52.8,0,0,1,1.1-12.143c5.887-28.4-9.223-63.78-6.353-68.252,2.134-3.32,24.138-5.184,24.138-5.184s16.427-.474,22.437,1.635l.736.466c7.989,2.772,14.334,5.724,17.785,8.25A30.01,30.01,0,0,1,221.515,194a182.346,182.346,0,0,1,17.057,34.866c.621,1.693,1.088,3.066,1.316,3.835C240.935,236.431,242.53,272.278,242.53,272.278Z" transform="translate(-152.782 -178.934)" fill="#fff" stroke="#263238" stroke-linecap="round" stroke-linejoin="round" stroke-width="0.5"/></clipPath><linearGradient id="b" x1="0.5" x2="0.5" y2="1" gradientUnits="objectBoundingBox"><stop offset="0" stop-color="#c33091"/><stop offset="1" stop-color="#ffa5fc"/></linearGradient></defs><g transform="translate(-194.409 -531.084)"><path d="M263.679,30a85.009,85.009,0,0,0-53.091,18.351c-15.095,11.674-25.145,26.543-31.062,37.356-5.917-10.813-15.967-25.681-31.062-37.355A85.008,85.008,0,0,0,95.373,30C41,30,0,74.473,0,133.448c0,63.714,51.153,107.306,128.592,173.3.5.426.66.5,1.428,1.15.11-.037,55.269-51.966,55.269-51.892.037.037,47.562,48.626,47.558,48.709,76.071-64.833,126.206-108.188,126.206-171.265C359.053,74.473,318.05,30,263.679,30Z" transform="translate(209.347 501.084)" fill="#ecf4ff"/><path d="M407.286,167.115c-4.369-2.349-6.353-.4-7.939-2.349s4.369-7.14-7.539-12.3c0,0-.787-11.11-17.064-11.509s-11.908,11.11-16.265,13.881-5.555-1.585-9.923,1.174-2.349,8.338-5.954,9.125-8.338-3.523-12.695-.787-4.369,5.155-6.353,5.155-5.954-1.585-8.338,0-5.155,3.523-5.155,3.523H410.468S411.655,169.5,407.286,167.115Z" transform="translate(129.6 396.829)" fill="#fff"/><path d="M194.136,229.735c-4.369-2.349-6.353-.4-7.939-2.349s4.369-7.14-7.539-12.3c0,0-.787-11.11-17.064-11.509s-11.908,11.11-16.265,13.881-5.555-1.585-9.923,1.174-2.349,8.338-5.954,9.125-8.338-3.523-12.695-.787-4.369,5.155-6.353,5.155-5.954-1.585-8.338,0-5.155,3.523-5.155,3.523h100.4S198.5,232.119,194.136,229.735Z" transform="translate(97.499 337.033)" fill="#fff"/><path d="M143.453,204.261c-2.548-1.386-3.7-.223-4.615-1.386s2.537-4.146-4.392-7.152c0,0-.458-6.459-9.923-6.682s-6.917,6.459-9.454,8.068-3.23-.916-5.766.693-1.386,4.85-3.523,5.308-4.85-2.079-7.387-.458-2.537,2.995-3.688,2.995-3.523-.916-4.85,0-2.995,2.079-2.995,2.079h58.378S145.989,205.611,143.453,204.261Z" transform="translate(192.473 383.651)" fill="#fff"/><ellipse cx="105.106" cy="10.569" rx="105.106" ry="10.569" transform="translate(283.768 879.644)" fill="#f0f6fb"/><path d="M58.6,51.364C36.8,32.783,17.079,15.978,0,0H219.08c-16.46,15.4-35.366,31.556-56.225,49.331C162.864,49.249,115.335.659,115.3.622c0-.073-55.154,51.856-55.269,51.893C59.267,51.86,59.1,51.791,58.6,51.364Z" transform="translate(279.334 756.465)" fill="#dce6f3"/><g transform="translate(251.366 757.014)"><path d="M.3,21.006l131.78,134.3" transform="translate(142.935 -21.006)" fill="none" stroke="#545454" stroke-linecap="round" stroke-width="1"/><path d="M0,155.3l143.2-134.3" transform="translate(0 -21.006)" fill="none" stroke="#545454" stroke-linecap="round" stroke-width="1"/><line x2="13.467" transform="translate(130.969 56.824)" fill="none" stroke="#707070" stroke-linecap="round" stroke-linejoin="round" stroke-width="1"/><line x2="8.046" transform="translate(111.493 56.824)" fill="none" stroke="#707070" stroke-linecap="round" stroke-linejoin="round" stroke-width="1"/><line x2="23.549" transform="translate(168.762 67.618)" fill="none" stroke="#707070" stroke-linecap="round" stroke-linejoin="round" stroke-width="1"/><line x2="4.702" transform="translate(146.018 67.618)" fill="none" stroke="#707070" stroke-linecap="round" stroke-linejoin="round" stroke-width="1"/><line x2="7.081" transform="translate(129.179 67.618)" fill="none" stroke="#707070" stroke-linecap="round" stroke-linejoin="round" stroke-width="1"/><line x2="12.952" transform="translate(144.628 47.2)" fill="none" stroke="#707070" stroke-linecap="round" stroke-linejoin="round" stroke-width="1"/><line x2="3.835" transform="translate(132.23 47.2)" fill="none" stroke="#707070" stroke-linecap="round" stroke-linejoin="round" stroke-width="1"/><line x2="7.081" transform="translate(137.972 81.657)" fill="none" stroke="#707070" stroke-linecap="round" stroke-linejoin="round" stroke-width="1"/><line x2="31.677" transform="translate(81.921 81.657)" fill="none" stroke="#707070" stroke-linecap="round" stroke-linejoin="round" stroke-width="1"/><line x2="7.089" transform="translate(180.561 101.184)" fill="none" stroke="#707070" stroke-linecap="round" stroke-linejoin="round" stroke-width="1"/><line x2="5.912" transform="translate(161.484 101.184)" fill="none" stroke="#707070" stroke-linecap="round" stroke-linejoin="round" stroke-width="1"/><line x2="22.642" transform="translate(126.282 101.184)" fill="none" stroke="#707070" stroke-linecap="round" stroke-linejoin="round" stroke-width="1"/></g><g transform="translate(474.028 648.128)" opacity="0.45"><rect width="4.028" height="91.924" transform="translate(15.317 103.552) rotate(180)" fill="#263238"/><path d="M360.73,183.177H366.8l-1.7-5.987h-2.677Z" transform="translate(-350.565 -171.543)" fill="#263238"/><path d="M360.75,171.6a3.055,3.055,0,1,0,3.055-3.055A3.055,3.055,0,0,0,360.75,171.6Z" transform="translate(-350.572 -168.54)" fill="#263238"/><rect width="6.77" height="0.907" transform="translate(16.614 11.628) rotate(180)" fill="#263238"/><path d="M348.7,195.98h4.6v2.383h-4.6Z" transform="translate(-346.388 -178.065)" fill="#263238"/><path d="M345.16,200.818a1.188,1.188,0,0,1,1.195-1.188h6.653a1.188,1.188,0,0,1,.189,2.363l-3.6-.313-3.493.307a1.2,1.2,0,0,1-.947-1.169Z" transform="translate(-345.16 -179.332)" fill="#263238"/><path d="M352,202.77v.333h3.408a.937.937,0,0,0,.189,0Z" transform="translate(-347.534 -180.422)" fill="#fff" stroke="#263238" stroke-linecap="round" stroke-linejoin="round" stroke-width="1"/><path d="M346.61,203.063a1.607,1.607,0,0,0,.248,0h3.264v-.333Z" transform="translate(-345.664 -180.408)" fill="#fff" stroke="#263238" stroke-linecap="round" stroke-linejoin="round" stroke-width="1"/><path d="M348.52,213.58v1.156l1.221.653a1.957,1.957,0,0,0,.594.209,2.09,2.09,0,0,0,.921,0,1.958,1.958,0,0,0,.535-.2l1.214-.653v-1.156Z" transform="translate(-346.327 -184.175)" fill="#263238"/><path d="M348.25,212.59v.653h4.9v-.653h-4.9Z" transform="translate(-346.233 -183.831)" fill="#263238"/><path d="M351.32,219.04l.444.77.451-.77Z" transform="translate(-347.3 -186.07)" fill="#263238"/><rect width="0.921" height="0.614" transform="translate(4.009 32.017)" fill="#263238"/><path d="M351.3,216.663v.255h.921v-.268a2.089,2.089,0,0,1-.921.013Z" transform="translate(-347.292 -185.24)" fill="#263238"/><rect width="1.417" height="0.339" transform="translate(3.76 32.631)" fill="#263238"/><rect width="1.417" height="0.339" transform="translate(3.76 31.677)" fill="#263238"/><path d="M350.581,193.5l-.9-.411.9-.62V190.95H352.1v1.515l.9.62-.9.411v.738h-1.521Z" transform="translate(-346.73 -176.319)" fill="#263238"/><path d="M346.17,203.28c.372,0,1.959,3.917,2.135,5.667a2.893,2.893,0,0,0,.078.411h3.134a2.221,2.221,0,0,0,.072-.411c.17-1.724,1.769-5.667,2.141-5.667h-.183a.935.935,0,0,1-.189,0h-6.646a1.6,1.6,0,0,1-.248,0Z" transform="translate(-345.51 -180.599)" fill="#fff" stroke="#263238" stroke-linecap="round" stroke-linejoin="round" stroke-width="1"/><line y2="6.078" transform="translate(4.438 22.668)" fill="none" stroke="#263238" stroke-linecap="round" stroke-linejoin="round" stroke-width="1"/><path d="M354.984,205.33a.907.907,0,0,0-1.371-.5,1.13,1.13,0,0,0-.17,1.547,1.508,1.508,0,0,0,1.567.464,1.391,1.391,0,0,0,.574-.359,2.442,2.442,0,0,0,.712-1.743v-14.1a12.725,12.725,0,0,0-.483-3.545,6.527,6.527,0,0,0-.731-1.763,5.086,5.086,0,0,0-2.827-2.272,3.225,3.225,0,0,0-3.362.966,3.016,3.016,0,0,0-.457,2.709,2.8,2.8,0,0,0,1.462,1.75,2.024,2.024,0,0,0,2.187-.34,1.6,1.6,0,0,0,.144-2.122,1.306,1.306,0,0,0-2.024.085" transform="translate(-346.248 -173.535)" fill="none" stroke="#263238" stroke-miterlimit="10" stroke-width="1"/><rect width="1.717" height="1.482" transform="translate(11.145 27.029) rotate(180)" fill="#263238"/><rect width="1.717" height="1.482" transform="translate(11.145 16.603) rotate(180)" fill="#263238"/><rect width="11.504" height="8.67" transform="translate(7.56 99.667)" fill="#5c5c5c" stroke="#263238" stroke-linecap="round" stroke-linejoin="round" stroke-width="1"/><path d="M368.25,319.173H356.74l3.166-3.813h5.177Z" transform="translate(-349.179 -219.505)" fill="#5c5c5c" stroke="#263238" stroke-linecap="round" stroke-linejoin="round" stroke-width="1"/></g><g transform="translate(298.479 632.593)"><g transform="translate(-31.725 -34.819)" opacity="0.38"><path d="M0,0H6.874V139.32H6.7L-.006,133Z" transform="translate(6.406 19.842)" fill="#263238"/><path d="M371.091,187.406H360.73l2.9-10.216h4.568Z" transform="translate(-355.895 -167.553)" fill="#263238"/><path d="M371.178,173.754a5.214,5.214,0,1,1-5.214-5.214A5.214,5.214,0,0,1,371.178,173.754Z" transform="translate(-356.003 -168.54)" fill="#263238"/><rect width="11.553" height="1.549" transform="translate(4.19 18.293)" fill="#263238"/><path d="M356.554,195.98H348.7v4.066h7.854Z" transform="translate(-327.955 -165.409)" fill="#263238"/><path d="M360.6,201.658a2.028,2.028,0,0,0-2.039-2.028H347.212a2.028,2.028,0,0,0-.323,4.033l6.139-.535,5.96.524a2.039,2.039,0,0,0,1.615-1.994Z" transform="translate(-328.06 -164.993)" fill="#263238"/><path d="M358.139,202.77v.568h-5.816a1.594,1.594,0,0,1-.323,0Z" transform="translate(-333.216 -164.635)" fill="#fff" stroke="#263238" stroke-linecap="round" stroke-linejoin="round" stroke-width="1"/><path d="M352.6,203.3a2.738,2.738,0,0,1-.423,0h-5.57v-.568Z" transform="translate(-321.676 -164.639)" fill="#fff" stroke="#263238" stroke-linecap="round" stroke-linejoin="round" stroke-width="1"/><path d="M356.174,213.58v1.972l-2.083,1.114a3.342,3.342,0,0,1-1.014.357,3.566,3.566,0,0,1-1.571,0,3.343,3.343,0,0,1-.914-.334l-2.072-1.114V213.6Z" transform="translate(-327.374 -163.401)" fill="#263238"/><path d="M356.617,212.59V213.7H348.25V212.59h8.367Z" transform="translate(-327.516 -163.514)" fill="#263238"/><path d="M352.846,219.04l-.758,1.315-.769-1.315Z" transform="translate(-327.166 -162.779)" fill="#263238"/><rect width="1.571" height="1.047" transform="translate(24.131 54.635)" fill="#263238"/><path d="M352.871,216.672v.434H351.3v-.457a3.565,3.565,0,0,0,1.571.022Z" transform="translate(-327.167 -163.051)" fill="#263238"/><rect width="2.418" height="0.579" transform="translate(23.708 55.682)" fill="#263238"/><rect width="2.418" height="0.579" transform="translate(23.708 54.056)" fill="#263238"/><path d="M353.813,195.295l1.537-.7-1.537-1.058V190.95h-2.6v2.585l-1.537,1.058,1.537.7v1.259h2.6Z" transform="translate(-327.843 -165.983)" fill="#263238"/><path d="M359.071,203.28c-.635,0-3.342,6.685-3.643,9.67a4.932,4.932,0,0,1-.134.7h-5.348a3.788,3.788,0,0,1-.123-.7c-.29-2.941-3.019-9.67-3.654-9.67h.312a1.593,1.593,0,0,0,.323,0h11.341a2.727,2.727,0,0,0,.423,0Z" transform="translate(-327.653 -164.577)" fill="#fff" stroke="#263238" stroke-linecap="round" stroke-linejoin="round" stroke-width="1"/><line y2="10.372" transform="translate(24.968 38.681)" fill="none" stroke="#263238" stroke-linecap="round" stroke-linejoin="round" stroke-width="1"/><path d="M350.535,221.154a1.549,1.549,0,0,1,2.34-.847,1.927,1.927,0,0,1,.29,2.64,2.574,2.574,0,0,1-2.674.791,2.373,2.373,0,0,1-.98-.613,4.167,4.167,0,0,1-1.214-2.975V196.1a21.714,21.714,0,0,1,.824-6.049,11.139,11.139,0,0,1,1.248-3.008,8.678,8.678,0,0,1,4.824-3.877,5.5,5.5,0,0,1,5.738,1.649,5.147,5.147,0,0,1,.78,4.623,4.779,4.779,0,0,1-2.5,2.986,3.454,3.454,0,0,1-3.732-.579,2.73,2.73,0,0,1-.245-3.621,2.228,2.228,0,0,1,3.454.145" transform="translate(-332.899 -166.898)" fill="none" stroke="#263238" stroke-miterlimit="10" stroke-width="1"/><rect width="2.93" height="2.529" transform="translate(13.525 43.594)" fill="#263238"/><rect width="2.93" height="2.529" transform="translate(13.525 25.802)" fill="#263238"/></g><path d="M178.006,251.538a3.622,3.622,0,0,1-.556,3.156s6.337,6.762-.671,5.6a13.476,13.476,0,0,1-3.353-1.2,3.123,3.123,0,0,1-.94-.6,2.674,2.674,0,0,1-.589-1.93,6.476,6.476,0,0,1,1.439-3.639,6.01,6.01,0,0,1,.646-3.042c1.128-1.758,2.8-2.191,3.05-2.9.965-2.813,2.159-1.635,2.11.09a5.291,5.291,0,0,1-1.079,2.747,1.357,1.357,0,0,0-.286.818v.041a2.87,2.87,0,0,0,.229.859Z" transform="translate(-142.479 -147.87)" fill="#fff" stroke="#263238" stroke-linecap="round" stroke-linejoin="round" stroke-width="0.5"/><path d="M182.731,257.881a20.343,20.343,0,0,0-.646,2.281c-.1.818-2.29,1.823-2.453,1.055-.294-1.259-1.742-1.087-1.742-2.02a14.3,14.3,0,0,0,.671-3.271,3.622,3.622,0,0,0,.556-3.156,2.87,2.87,0,0,1-.229-.891l.409-.049c.482.5,1.325.139,2.02.2a2.43,2.43,0,0,1,1.848,2.51A13.42,13.42,0,0,1,182.731,257.881Z" transform="translate(-143.572 -149.061)" fill="#fff" stroke="#263238" stroke-linecap="round" stroke-linejoin="round" stroke-width="0.5"/><path d="M177.44,257.827a5.723,5.723,0,0,0,1.57-2.257" transform="translate(-143.49 -149.743)" fill="#fff" stroke="#263238" stroke-linecap="round" stroke-linejoin="round" stroke-width="0.5"/><path d="M179.39,252.466c.164-.646,1.693-.425,2.183-.45" transform="translate(-143.847 -149.092)" fill="#fff" stroke="#263238" stroke-linecap="round" stroke-linejoin="round" stroke-width="0.5"/><path d="M180,254.85a14.171,14.171,0,0,1,2.126.27" transform="translate(-143.959 -149.612)" fill="#fff" stroke="#263238" stroke-linecap="round" stroke-linejoin="round" stroke-width="0.5"/><path d="M178.87,257.3a11.907,11.907,0,0,1,2.608.335" transform="translate(-143.752 -150.059)" fill="#fff" stroke="#263238" stroke-linecap="round" stroke-linejoin="round" stroke-width="0.5"/><path d="M178.59,259.59a10.929,10.929,0,0,1,2.306.343" transform="translate(-143.7 -150.476)" fill="#fff" stroke="#263238" stroke-linecap="round" stroke-linejoin="round" stroke-width="0.5"/><path d="M249.026,311.269s-1.447-.278-1.5-1.292.507-1.954,2.371-3.132l1.84-1.807.433-2.167-.989-2.952s.711,4.211-.916,4.612c-.818.2-1.316-.556-1.586-2.985s-.679-6.746,1.145-10.908,7.686-1.5,7.686-1.5l2.232,4.71a14.874,14.874,0,0,1,.679,11.022h0l-.474.474-2.764,4.35-4.481,1.881s-1.922-.425-.36-1.783a8.947,8.947,0,0,1,2.559-1.7Z" transform="translate(-156.268 -155.711)" fill="#ffeedb" stroke="#3a3c57" stroke-linecap="round" stroke-linejoin="round" stroke-width="0.5"/><path d="M255.254,312.361a5.871,5.871,0,0,0-2.151,1.357,4.293,4.293,0,0,0-1.186,1.693s-2.142,1.21-2.559.123c0,0-.229-1.464,1.791-2.649l2.012-1.194.1.662Z" transform="translate(-156.602 -159.975)" fill="#ffeedb" stroke="#3a3c57" stroke-linecap="round" stroke-linejoin="round" stroke-width="0.5"/><path d="M255.329,308.13c0,.458-.229,1.684-.867,2.028a1.137,1.137,0,0,0-.433,1.006" transform="translate(-157.454 -159.326)" fill="none" stroke="#3a3c57" stroke-linecap="round" stroke-linejoin="round" stroke-width="0.5"/><path d="M256.83,301c.564,4.751,1.938,4.522,1.938,4.522a5.953,5.953,0,0,1-3.271,2.813c-2.273.752-1.276,2.052-1.276,2.052l4.088.082,3.271-3.271" transform="translate(-157.449 -158.026)" fill="none" stroke="#3a3c57" stroke-linecap="round" stroke-linejoin="round" stroke-width="0.5"/><path d="M256.39,309.856a2.6,2.6,0,0,1,2,0" transform="translate(-157.886 -159.604)" fill="none" stroke="#3a3c57" stroke-linecap="round" stroke-linejoin="round" stroke-width="0.5"/><path d="M186.67,169.25l4.71-11.9-1.586-10.475,1.594-11.448,9.812-3.745,8.087-.065,2.878,2.453.818,3.475s2.568,9.166,1.635,10.7-1.635,2.985-1.635,2.985,1.946,4.514,2.02,6.321c.09,2.159-2.453.155-3.271,2.608s-1.5,8.177-4.514,7.964-4.628-.392-5.348,2.191-2.559,9.649-2.559,9.649Z" transform="translate(-145.175 -127.146)" fill="#fff" stroke="#3a3c57" stroke-linecap="round" stroke-linejoin="round" stroke-width="0.5"/><path d="M216.094,154.826c-.124.858-.644,1.5-1.129,1.434s-.836-.836-.723-1.705.644-1.5,1.129-1.434S216.23,153.956,216.094,154.826Z" transform="translate(-150.46 -131.499)" fill="#3a3c57"/><path d="M212.41,150.766s2.061-2.919,4.71-.613" transform="translate(-149.866 -130.363)" fill="none" stroke="#3a3c57" stroke-linecap="round" stroke-linejoin="round" stroke-width="0.5"/><path d="M212.886,166.579a4.3,4.3,0,0,1-3.426-2.379" transform="translate(-149.33 -133.085)" fill="none" stroke="#3a3c57" stroke-linecap="round" stroke-linejoin="round" stroke-width="0.7"/><path d="M209.281,175.483s-4.857-.924-6.542-3.083l2.044,5.389S205.234,174.174,209.281,175.483Z" transform="translate(-148.104 -134.58)" fill="#263238" stroke="#263238" stroke-linecap="round" stroke-linejoin="round" stroke-width="0.5"/><path d="M182.76,178.238s3.606-.123,9.33.123a127.351,127.351,0,0,1,13.083,1.48s-1.48-4.734-5.6-5.1-13.68-.368-13.68-.368Z" transform="translate(-144.462 -134.939)" fill="#fff" stroke="#263238" stroke-linecap="round" stroke-linejoin="round" stroke-width="0.5"/><path d="M157.025,212.715s-.474,3.639-5.519,14.964l16.018,11.047.057.1c1.488,2.412.965,9.428-4.7,7.858-6.607-1.84-24.179-6.362-26.011-9.534-2.846-4.906,1.1-7.359,6.828-29.707,1.635-6.46.556-4.726,2.379-14.154a15.609,15.609,0,0,1,4.007-7.907C153.713,191.562,157.025,212.715,157.025,212.715Z" transform="translate(-135.922 -136.947)" fill="#fff" stroke="#707070" stroke-width="0.5"/><path d="M157.025,212.715s-.474,3.639-5.519,14.964l16.018,11.047.057.1c1.488,2.412.965,9.428-4.7,7.858-6.607-1.84-24.179-6.362-26.011-9.534-2.846-4.906,1.1-7.359,6.828-29.707,1.635-6.46.556-4.726,2.379-14.154a15.609,15.609,0,0,1,4.007-7.907C153.713,191.562,157.025,212.715,157.025,212.715Z" transform="translate(-135.92 -136.947)" fill="#565aa7" stroke="#3a3c57" stroke-linecap="round" stroke-linejoin="round" stroke-width="0.5"/><path d="M156.57,238.22s2.633,8.929-.09,15.16l4.35,1.341a70.5,70.5,0,0,0,.392-13.606Z" transform="translate(-139.668 -146.58)" fill="#565aa7"/><path d="M156.57,238.22s2.633,8.929-.09,15.16l4.35,1.341a70.5,70.5,0,0,0,.392-13.606Z" transform="translate(-139.668 -146.58)" fill="#565aa7" opacity="0.6"/><path d="M157.025,212.715s-.474,3.639-5.519,14.964l16.018,11.047.057.1c1.488,2.412.965,9.428-4.7,7.858-6.607-1.84-24.179-6.362-26.011-9.534-2.846-4.906,1.1-7.359,6.828-29.707,1.635-6.46.556-4.726,2.379-14.154a15.609,15.609,0,0,1,4.007-7.907C153.713,191.562,157.025,212.715,157.025,212.715Z" transform="translate(-135.922 -136.947)" fill="none" stroke="#3a3c57" stroke-linecap="round" stroke-linejoin="round" stroke-width="0.5"/><path d="M156.48,200.47l1.325,23.966a54.973,54.973,0,0,0,2.968-8.995C161.427,211.926,156.48,200.47,156.48,200.47Z" transform="translate(-139.67 -139.698)" fill="#3a3c57" stroke="#3a3c57" stroke-linecap="round" stroke-linejoin="round" stroke-width="0.5"/><path d="M215.49,294.752h0s-3.271,41.538-3.516,47.467,1.194,16.231-.818,27.147c-.621,3.353-1.742,9.109-2.649,13.754-.957,4.906-2.29,9.313-2.715,14.277a7.564,7.564,0,0,1,1.57,6.337l-.319.679a9.036,9.036,0,0,1-7.662,5.192h-.09c-3.148.164-5.863-1.635-6.28-2.453s-1.038-9.485-1.038-11.587,1.251-7.523,1.455-11.758.409-5.65.654-12.56c.213-5.887-.18-13.353-.818-28.178,0-.654-3.271-39.11-3.361-39.772l-1.308.818L182.2,349.636a46.758,46.758,0,0,1,3.9,19.412c0,6.1,4.162,18.545,4.366,20.23s.63,3.582.63,3.582-4.17-.474-6.255,1.815-4.358,7.686-4.358,7.686-6.01-16.6-8.079-21.26-8.643-22.756-8.864-29.012-2.052-40.026-2.052-44.6V297.066l.049.09v-.09a92.4,92.4,0,0,1,2.355-19.78l49.936-1.047C217.215,284.629,215.49,294.752,215.49,294.752Z" transform="translate(-140.583 -153.512)" fill="#4b4d68" stroke="#3a3c57" stroke-linecap="round" stroke-linejoin="round" stroke-width="0.5"/><path d="M218.848,301.22a20.957,20.957,0,0,1-23.108,2.061h0l.417,4.2s3.328,39.118,3.361,39.78c.662,14.825,1.055,22.29.818,28.177-.245,6.909-.442,8.332-.646,12.56s-1.464,9.657-1.464,11.758.621,10.777,1.038,11.587,3.132,2.576,6.28,2.453h.09a9.035,9.035,0,0,0,7.662-5.192l.319-.679a7.564,7.564,0,0,0-1.57-6.337c.425-4.963,1.758-9.387,2.715-14.277.908-4.644,2.028-10.4,2.649-13.754,2.02-10.916.605-21.26.818-27.155s3.516-47.426,3.516-47.426Z" transform="translate(-146.827 -157.658)" fill="#4b4d68" stroke="#3a3c57" stroke-linecap="round" stroke-linejoin="round" stroke-width="0.5"/><path d="M199.52,434.12l.409,8a11.447,11.447,0,0,0,3.631,2.012,10.12,10.12,0,0,0,6.909-1.267c1.186-.949,1.832-7.784,1.832-7.784C207.82,436.769,199.52,434.12,199.52,434.12Z" transform="translate(-147.517 -182.295)" fill="#3b3b43" stroke="#263238" stroke-linecap="round" stroke-linejoin="round" stroke-width="0.5"/><path d="M184.715,428.3s14.489,2.829,10.63-9.5C195.337,418.8,184.126,415.184,184.715,428.3Z" transform="translate(-144.813 -179.419)" fill="#263238" stroke="#263238" stroke-linecap="round" stroke-linejoin="round" stroke-width="0.5"/><path d="M186,424.472a30.941,30.941,0,0,1,.613,5.274c0,2.306,0,10.483,1.047,13.9a21.141,21.141,0,0,0,1.635,3.581,4.767,4.767,0,0,0,5.413,2.33,1.374,1.374,0,0,0,.859-.507c.425-.818,3.14-10.254,2.306-13.631a51.858,51.858,0,0,0-1.464-5.07l1.635-.818a13.647,13.647,0,0,0,1.047-5.045c0-2.731-3.557-5.724-3.557-5.724C190.162,415.56,186,424.472,186,424.472Z" transform="translate(-145.053 -179.369)" fill="#545454" stroke="#263238" stroke-linecap="round" stroke-linejoin="round" stroke-width="0.5"/><path d="M189.651,434.293a32.086,32.086,0,0,0-.531,12.331c.229.466.482.932.752,1.382a4.743,4.743,0,0,0,5.372,2.249,1.432,1.432,0,0,0,.859-.507c.417-.818,3.14-10.254,2.3-13.631s-1.455-5.07-1.455-5.07l1.635-.818a13.81,13.81,0,0,0,1.047-5.045,3.957,3.957,0,0,0-.221-1.227L199,423.7s-2.322-2.968-5.25-.7S190.844,429.5,189.651,434.293Z" transform="translate(-145.554 -180.113)" fill="#3b3b43" stroke="#263238" stroke-linecap="round" stroke-linejoin="round" stroke-width="0.5"/><path d="M191.973,304.286l.275,4.165-1.229.606-.229,1.756-1.489,8.212h0a17.989,17.989,0,0,0-7.457-8.864L175,306.031c9.322,4.415,13.22,1.354,16.941-1.745Z" transform="translate(-143.046 -158.609)" fill="#263238" stroke="#3a3c57" stroke-linecap="round" stroke-linejoin="round" stroke-width="0.5"/><path d="M242.53,272.278l-11.448,2.02-5.348-31.26-1.169-6.869c-.654-1.137-1.366-2.363-2.1-3.614a119.592,119.592,0,0,0-7.425-11.677c-.556-.7-1.006-1.267-1.316-1.635l-.54-.679-.335,2.543a95.155,95.155,0,0,0,1.12,31.563l1.709,8.365s-13.361,6.255-22.977,7.359c-21.955,2.551-34.3-3.835-34.3-3.835a52.8,52.8,0,0,1,1.1-12.143c5.887-28.4-9.223-63.78-6.353-68.252,2.134-3.32,24.138-5.184,24.138-5.184s16.427-.474,22.437,1.635l.736.466c7.989,2.772,14.334,5.724,17.785,8.25A30.01,30.01,0,0,1,221.515,194a182.346,182.346,0,0,1,17.057,34.866c.621,1.693,1.088,3.066,1.316,3.835C240.935,236.431,242.53,272.278,242.53,272.278Z" transform="translate(-138.996 -135.772)" fill="#565aa7" stroke="#3a3c57" stroke-width="0.5"/><g transform="translate(13.785 43.163)" clip-path="url(#a)"><path d="M156.57,238.22s2.633,8.929-.09,15.16l4.35,1.341a70.5,70.5,0,0,0,.392-13.606Z" transform="translate(-153.456 -189.743)" fill="#92e3a9"/><path d="M156.57,238.22s2.633,8.929-.09,15.16l4.35,1.341a70.5,70.5,0,0,0,.392-13.606Z" transform="translate(-153.456 -189.743)" fill="#fff" opacity="0.6"/></g><path d="M242.53,272.278l-11.448,2.02-5.348-31.26-1.169-6.869c-.654-1.137-1.366-2.363-2.1-3.614a119.592,119.592,0,0,0-7.425-11.677c-.556-.7-1.006-1.267-1.316-1.635l-.54-.679-.335,2.543a95.155,95.155,0,0,0,1.12,31.563l1.709,8.365s-13.361,6.255-22.977,7.359c-21.955,2.551-34.3-3.835-34.3-3.835a52.8,52.8,0,0,1,1.1-12.143c5.887-28.4-9.223-63.78-6.353-68.252,2.134-3.32,24.138-5.184,24.138-5.184s16.427-.474,22.437,1.635l.736.466c7.989,2.772,14.334,5.724,17.785,8.25A30.01,30.01,0,0,1,221.515,194a182.346,182.346,0,0,1,17.057,34.866c.621,1.693,1.088,3.066,1.316,3.835C240.935,236.431,242.53,272.278,242.53,272.278Z" transform="translate(-138.996 -135.772)" fill="none" stroke="#3a3c57" stroke-linecap="round" stroke-linejoin="round" stroke-width="0.5"/><path d="M233.49,192.27a72.136,72.136,0,0,1,8.529,19.052" transform="translate(-153.711 -138.203)" fill="none" stroke="#3a3c57" stroke-linecap="round" stroke-linejoin="round" stroke-width="0.5"/><path d="M239.87,236.76a53.836,53.836,0,0,1,.818,11.08" transform="translate(-154.874 -146.314)" fill="#fff" stroke="#263238" stroke-linecap="round" stroke-linejoin="round" stroke-width="0.5"/><path d="M231.031,195.58l-.981,8.177" transform="translate(-153.084 -138.806)" fill="none" stroke="#263238" stroke-linecap="round" stroke-linejoin="round" stroke-width="0.5"/><path d="M258.818,247.26a15.847,15.847,0,0,1-.818,7.008" transform="translate(-158.178 -148.228)" fill="none" stroke="#263238" stroke-linecap="round" stroke-linejoin="round" stroke-width="0.5"/><path d="M168.92,215.12a76.241,76.241,0,0,0,28.619,32.806" transform="translate(-141.939 -142.369)" fill="none" stroke="#7276cb" stroke-linecap="round" stroke-linejoin="round" stroke-width="0.5"/><path d="M167.5,211.86c.229.564.237.564.482,1.128" transform="translate(-141.68 -141.774)" fill="none" stroke="#7276cb" stroke-linecap="round" stroke-linejoin="round" stroke-width="0.5"/><path d="M165.41,206.21c.3.908.621,1.807.965,2.707" transform="translate(-141.299 -140.744)" fill="none" stroke="#7276cb" stroke-linecap="round" stroke-linejoin="round" stroke-width="0.5"/><path d="M194.11,242a16.011,16.011,0,0,0,7.5,4.579c4.187,1.047,9.191-.507,11.2-4.326" transform="translate(-146.531 -147.269)" fill="none" stroke="#7276cb" stroke-linecap="round" stroke-linejoin="round" stroke-width="0.5"/><path d="M191,238.14c.417.6.859,1.177,1.325,1.733" transform="translate(-145.963 -146.566)" fill="none" stroke="#7276cb" stroke-linecap="round" stroke-linejoin="round" stroke-width="0.5"/><path d="M175,264.392a46.772,46.772,0,0,1,32.495-.515" transform="translate(-143.046 -150.773)" fill="none" stroke="#7276cb" stroke-linecap="round" stroke-linejoin="round" stroke-width="0.5"/><path d="M187,257.08a19.625,19.625,0,0,1,11.448,0" transform="translate(-145.234 -149.863)" fill="none" stroke="#7276cb" stroke-linecap="round" stroke-linejoin="round" stroke-width="0.5"/><path d="M182.063,367.249h-.286c-2.453,2.862-7.654,3-10.687.777l6.313-1.366" transform="translate(-142.334 -169.996)" fill="none" stroke="#3a3c57" stroke-linecap="round" stroke-linejoin="round" stroke-width="0.5"/><path d="M172.65,353.38A23.819,23.819,0,0,0,181.7,362.6" transform="translate(-142.619 -167.575)" fill="none" stroke="#3a3c57" stroke-linecap="round" stroke-linejoin="round" stroke-width="0.5"/><path d="M170,346.76a23.711,23.711,0,0,0,.867,2.674" transform="translate(-142.136 -166.368)" fill="none" stroke="#3a3c57" stroke-linecap="round" stroke-linejoin="round" stroke-width="0.5"/><path d="M175.3,393.73a29.845,29.845,0,0,0,13.451,13.549" transform="translate(-143.102 -174.932)" fill="none" stroke="#3a3c57" stroke-linecap="round" stroke-linejoin="round" stroke-width="0.5"/><path d="M191.148,392.68c-.09,1.75-.188,3.5-.278,5.25" transform="translate(-145.94 -174.74)" fill="none" stroke="#3a3c57" stroke-linecap="round" stroke-linejoin="round" stroke-width="0.5"/><path d="M207.68,186.08a56.829,56.829,0,0,1,17.736,2.936" transform="translate(-149.005 -137.074)" fill="none" stroke="#3a3c57" stroke-linecap="round" stroke-linejoin="round" stroke-width="0.5"/><path d="M226.69,223.849l.924,1.177c.319.417.818,1,1.325,1.693l-.164-18.529Z" transform="translate(-152.47 -141.105)" fill="#3a3c57" stroke="#3a3c57" stroke-linecap="round" stroke-linejoin="round" stroke-width="0.5"/><path d="M218.965,134.166c-.826,1.794-2.645,3.936-7.633,4.844-3.877.706-9.6.116-11.01,1.395-2.953,2.674-2.069,6.746-2.268,8.51-.049.973-.1,1.889-.221,2.772-.45-2.085-1.014-6.37-5.16-4.375-1.063.515-.818,2.159-.45,3.271s1.6,2.337,1.272,3.474c-.557,1.367-3.45,3.376-3.45,3.376s-5.863-6.622-7.193-13.212a14.916,14.916,0,0,1,3.523-12.7c4.236-4.44,10.936-4.477,10.936-4.477h8c4.679,0,8.092-1.431,10.716,0S220.013,131.89,218.965,134.166Z" transform="translate(-144.041 -126.41)" fill="#2c303d"/><path d="M194.74,155.37a9.673,9.673,0,0,0,1.186,2.993,2.7,2.7,0,0,0,3.034,1.292" transform="translate(-146.646 -131.476)" fill="none" stroke="#3a3c57" stroke-linecap="round" stroke-linejoin="round" stroke-width="0.5"/><path d="M153.092,245.063a6.8,6.8,0,0,1-4.612,3.974c.981-.18,2.8-5.168,3.205-6.1.581-1.316,1.055-4.138,2.666-4.407A13.28,13.28,0,0,1,153.092,245.063Z" transform="translate(-138.211 -146.637)" fill="#fff" stroke="#707070" stroke-width="0.5"/><path d="M157.686,240.912l-5.969-3.8s.605,2.576-8.995,7.752l-5.642,1.717h0a76,76,0,0,0,14.072,5.977l6.141,1.93S158.83,250.921,157.686,240.912Z" transform="translate(-136.132 -146.378)" fill="#565aa7" stroke="#3a3c57" stroke-linecap="round" stroke-linejoin="round" stroke-width="0.5"/><path d="M300.418,159.252c4.906,3.32,9.992,15.405,9.264,20.05s-5.928,5.339-5.928,5.339-3.205,6.542,3.541,15.749c3.05,4.178-10.409,11.055-14.972,9.248s-3.271-7.531-2.494-10.188c2.126-7.245-1.145-11.766-1.145-11.766a16.183,16.183,0,0,1-5.446-.891c-2.085-.581-1.635-2.036-2-4.326-.327-2.1-.818-6-.818-6-.818-1.1-2.666-2.453-1.979-3.933.63-1.366,2.723-1.635,3.72-2.592,1.635-1.635,1.823-5.053,3.532-8.128s5.838-4.088,5.838-4.088S295.536,155.932,300.418,159.252Z" transform="translate(-161.878 -131.816)" fill="#fff" stroke="#3a3c57" stroke-linecap="round" stroke-linejoin="round" stroke-width="0.5"/><path d="M284.37,192.768a9.489,9.489,0,0,0,5.582.606c.68-.141,1.7-1.385,2.6-1.98,6.174-4.088-2.739,2.265-2.739,2.265A21.259,21.259,0,0,1,284.37,192.768Z" transform="translate(-162.985 -137.793)" fill="none" stroke="#3a3c57" stroke-linecap="round" stroke-linejoin="round" stroke-width="0.5"/><path d="M283.74,182.925a4.489,4.489,0,0,0,4.317-.335" transform="translate(-162.87 -136.438)" fill="none" stroke="#3a3c57" stroke-linecap="round" stroke-linejoin="round" stroke-width="0.7"/><path d="M288.387,170.648c.477.109.661.837.477,1.631s-.686,1.347-1.163,1.23-.678-.837-.485-1.631S287.91,170.547,288.387,170.648Z" transform="translate(-163.511 -134.291)" fill="#3a3c57"/><path d="M287.9,166.98c3.459-.613,3.459,2.159,3.459,2.159" transform="translate(-163.628 -133.576)" fill="none" stroke="#3a3c57" stroke-linecap="round" stroke-linejoin="round" stroke-width="0.5"/><path d="M318.331,209.15s11.946,0,9.3,37.7c0,0,.384,13.181-5.209,13.181-3.958,0-32.151-3.851-32.151-3.851s-3.271-6.664,2.044-7.9c6.182-1.431,22.568.7,22.568.7S306.1,215.618,318.331,209.15Z" transform="translate(-163.88 -141.28)" fill="#c33091" stroke="#3a3c57" stroke-linecap="round" stroke-linejoin="round" stroke-width="0.5"/><path d="M240.353,254.993c-.139.294-.278.589-.425.883-.466.949-1.071,2-2.11,2.183a2.453,2.453,0,0,1-1.488-.286,6.46,6.46,0,0,1-3.353-5.217c-.18-1.913,1.684-7.269,4.088-8.046.736,1.251,1.447,2.453,2.1,3.614Z" transform="translate(-153.612 -147.727)" fill="#ffeedb" stroke="#3a3c57" stroke-linecap="round" stroke-linejoin="round" stroke-width="0.5"/><g transform="translate(81.844 59.877)"><path d="M291.426,440.284s-.752,1.922.384,2.453c.613.278,1.366-.074,2.273-.45a6.745,6.745,0,0,0,2.9-2.281,33.486,33.486,0,0,1-3.622-.613C292.668,439.213,291.712,438.739,291.426,440.284Z" transform="translate(-246.071 -243.095)" fill="#263238" stroke="#263238" stroke-linecap="round" stroke-linejoin="round" stroke-width="0.5"/><path d="M289.237,427.932s-2.568-4.718-4.644-3.827c-1.693.736-1.938,5.667-.123,8.038,1.717,2.24,1.815,1.635,4.309,4.326,3,3.271,6.656,2,7.212-.433a8.815,8.815,0,0,0-.736-5.16Z" transform="translate(-244.618 -240.326)" fill="#545454" stroke="#263238" stroke-linecap="round" stroke-linejoin="round" stroke-width="0.5"/><path d="M275.992,355.441c0,1.137.172,10.941,10.025,15.111S283.719,343.822,281,343,275.607,341.091,275.992,355.441Z" transform="translate(-243.295 -225.483)" fill="#263238" stroke="#263238" stroke-linecap="round" stroke-linejoin="round" stroke-width="0.5"/><path d="M286.991,427.079a2.813,2.813,0,0,0-.589,1.464,4.742,4.742,0,0,0-.18,2c.082.409.507,1.693,2.641,3.271a9.24,9.24,0,0,0,4.007,1.635c.2,0-1.071-1.128-.981-1.308a3.573,3.573,0,0,0,.245-1.946,5.152,5.152,0,0,0-1.635-3.647c-.286-.221-.613-.4-.9-.621C288.749,427.275,287.563,426.547,286.991,427.079Z" transform="translate(-245.161 -240.855)" fill="#545454" stroke="#545454" stroke-linecap="round" stroke-linejoin="round" stroke-width="0.5"/><path d="M294.873,418.421c.319,1.194-.139,6.95-6.255,2.29a2.289,2.289,0,0,1-.948-2.15c.082-.728.581-1.521.728-2.559-.777-4.906-2.118-14.056-6.255-31.7-1.791-7.645-.687-28.619-.687-28.619l12.265,7.972s1.971,15.683,1.971,21.448a192.431,192.431,0,0,1-1.088,20.622,73.762,73.762,0,0,0-.36,9.714A9.484,9.484,0,0,0,294.873,418.421Z" transform="translate(-244.237 -227.872)" fill="#ffeedb" stroke="#3a3c57" stroke-linecap="round" stroke-linejoin="round" stroke-width="0.5"/><path d="M306.338,367.167c-.818,5.078,0,11.317-.155,16.452,0,6.484,2.764,17.523,2.8,19.526.531,7.915-1.21,22.789-1.21,23.5s-2.151,4.088-1.439,6,2.126,3.1,3.173,4.751c.818,1.259,2.641,2.15,4.555,2.911s5.274,1.227,6.476.507.957-2.4,0-3.606a15.406,15.406,0,0,1-1.913-2.388,53.383,53.383,0,0,1-2.4-9.125c-.474-2.388,1.2-13.189,2.151-19.665s2.535-16.354,2.993-25.446c0-7.506,0-9.526-.458-13.811C320.909,366.774,310.663,363.544,306.338,367.167Z" transform="translate(-248.767 -229.653)" fill="#ffeedb" stroke="#3a3c57" stroke-linecap="round" stroke-linejoin="round" stroke-width="0.5"/><path d="M287.15,206.158s12.216-9.322,18.807-6.108,7.637,7.359,7.637,7.359S292.751,210.23,287.15,206.158Z" transform="translate(-245.336 -199.376)" fill="#c33091" stroke="#3a3c57" stroke-linecap="round" stroke-linejoin="round" stroke-width="0.5"/><path d="M322.346,283.8c-11.341,3.451-31.792,6.885-50.37.384.074-6.035,1.832-20.916,2.061-23.983,2.715-13.9-3.843-37.982-2.216-44.973a23.245,23.245,0,0,1,2.273-2.453l3.851-1.979h0c.957-.5,1.938-.989,2.886-1.488a42.152,42.152,0,0,1,20.442-4.792c2.707.065,11.112,1.987,13.982,4.146s5.724,12.756,4.358,18.423-6.738,26.534-6.738,26.534,6.165,15.822,8.079,23.239a66.623,66.623,0,0,1,1.39,6.942Z" transform="translate(-242.494 -200.311)" fill="#c33091"/><path d="M322.346,283.8c-11.341,3.451-31.792,6.885-50.37.384.074-6.035,1.832-20.916,2.061-23.983,2.715-13.9-3.843-37.982-2.216-44.973a23.245,23.245,0,0,1,2.273-2.453l3.851-1.979h0c.957-.5,1.938-.989,2.886-1.488a42.152,42.152,0,0,1,20.442-4.792c2.707.065,11.112,1.987,13.982,4.146s5.724,12.756,4.358,18.423-6.738,26.534-6.738,26.534,6.165,15.822,8.079,23.239a66.623,66.623,0,0,1,1.39,6.942Z" transform="translate(-242.494 -200.311)" fill="none" stroke="#3a3c57" stroke-linecap="round" stroke-linejoin="round" stroke-width="0.5"/><path d="M275.587,226.559c-.425,1.635-6.124,30.974-8.03,35.046,0,0-1.684,6.811-7.49,6.811-5.111,0-17.785-9.412-23.2-15.847,0,0-1.5-.818-.531-3.271,1.169-2.96,2.453-2.592,2.6-3.05,15.757,5.413,17.27,7.187,17.343,7.621.229-1.186,2.036-10.565,2.8-16.117.818-5.936,2.527-14.988,4.326-18.316a19.621,19.621,0,0,1,1.93-2.8,23.248,23.248,0,0,1,2.273-2.453,9.6,9.6,0,0,1,1.905-1.439,4.261,4.261,0,0,1,1.946-.54h0C275.979,212.216,276.723,222.249,275.587,226.559Z" transform="translate(-236.014 -201.714)" fill="#c33091" stroke="#3a3c57" stroke-linecap="round" stroke-linejoin="round" stroke-width="0.5"/><path d="M316.716,441.908c-8.177-12.715-11.946,1.635-11.292,3.156.818,2.183,2.707,2.543,3.271,4.694s3.214,3.639,5.053,4.285c2.216.777,6.157.433,7.531-.384s1.03-1.954-.057-3.328C316.716,444.671,317.329,442.9,316.716,441.908Z" transform="translate(-248.655 -242.642)" fill="#545454" stroke="#263238" stroke-linecap="round" stroke-linejoin="round" stroke-width="0.5"/></g><path d="M302.849,176.437a3.344,3.344,0,0,1,3.271-1.979c.777,0,1.554,1.1,1.5,2.355-.065,1.594-.7,3.835-2.453,4.694-.818.417-2,1.635-3,1" transform="translate(-166.23 -134.954)" fill="none" stroke="#3a3c57" stroke-linecap="round" stroke-linejoin="round" stroke-width="0.5"/><path d="M313.789,179.152a31.121,31.121,0,0,0,5.479-5.724,20.385,20.385,0,0,0,3.017-16.787,12,12,0,0,0-3.107-3.688c-2.232-1.235-4.865-2.5-7.22-1.521a27.475,27.475,0,0,1-2.715,1.4,6.1,6.1,0,0,1-2.551,0c-3.4-.507-6.852-1.366-10.221-.711s-6.672,3.41-6.542,6.836a10.475,10.475,0,0,0,1.2,3.81c1.218,2.641,4.587,5.25,5.806,7.882a20.122,20.122,0,0,1,1.578,4.088s1.521-2.093,2.4-3.181c1.357-1.635,3.6-2.036,4.039-.7a5.326,5.326,0,0,1-1.621,6,10.746,10.746,0,0,1-2.5,1.523c-1.635.7-1.215,3.374-.323,4.944a9.758,9.758,0,0,0,4.088,3.344C304.7,186.682,311.353,181.2,313.789,179.152Z" transform="translate(-163.998 -130.694)" fill="#2c303d"/><path d="M324.417,322.679c-1.7,10.295-4.833,44.036-3.909,54.429a3.981,3.981,0,0,1-.18,2.151,3.712,3.712,0,0,1-1.693,1.423,58.636,58.636,0,0,1-19.535,6.288c-4.906.662-13.206-1.7-16.869-5.053s-4.3-14.6-4.792-19.4a27.949,27.949,0,0,0,.818,16.092c-2.952-6.411-3.565-12.8-3.941-19.845-.654-12.265-2.551-48.018-1.962-60.283.474-9.976,41.064-16.288,49.1-5C325.014,298.533,325.7,314.887,324.417,322.679Z" transform="translate(-160.773 -155.559)" fill="#4b4d68" stroke="#3a3c57" stroke-linecap="round" stroke-linejoin="round" stroke-width="0.5"/><path d="M306.542,337.53c-1.554,8.177-5.323,15.912-6.542,24.163" transform="translate(-165.835 -147.07)" fill="none" stroke="#3a3c57" stroke-linecap="round" stroke-linejoin="round" stroke-width="0.5"/><path d="M308.706,331a20.652,20.652,0,0,1-.2,2.453" transform="translate(-167.386 -145.88)" fill="none" stroke="#3a3c57" stroke-linecap="round" stroke-linejoin="round" stroke-width="0.5"/><path d="M306.981,360.769q-1.325-5.887-2.1-11.889" transform="translate(-166.725 -149.139)" fill="none" stroke="#3a3c57" stroke-linecap="round" stroke-linejoin="round" stroke-width="0.5"/><path d="M320.869,454.584a2.529,2.529,0,0,0,.442-.393c-5.135,1.635-7.187-6.541-10.924-9.183-2.617-1.382-4.031-.229-4.906.818.908,1.709,5.3,8.177,7.359,8.995S319.569,455.352,320.869,454.584Z" transform="translate(-166.834 -184.165)" fill="#3b3b43" stroke="#263238" stroke-linecap="round" stroke-linejoin="round" stroke-width="0.5"/><path d="M310.853,446.109c.384.458-1.423,4.865-1.856,7.555-.376,2.347-3.058,1.488-3.124.736-.409-4.538-.433-8.667-.433-8.667a3.5,3.5,0,0,1,5.413.376Z" transform="translate(-166.827 -184.211)" fill="#545454" stroke="#263238" stroke-linecap="round" stroke-linejoin="round" stroke-width="0.5"/><path d="M267.591,225.87a44.9,44.9,0,0,0,.254,11.66" transform="translate(-159.878 -144.329)" fill="none" stroke="#3a3c57" stroke-linecap="round" stroke-linejoin="round" stroke-width="0.5"/><path d="M260.79,261.87v4.088" transform="translate(-158.685 -150.892)" fill="none" stroke="#263238" stroke-linecap="round" stroke-linejoin="round" stroke-width="0.5"/><path d="M314.659,244.58a33.076,33.076,0,0,1-6.91,8.79c-4.489,3.843-11.153,5.724-16.419,3.083" transform="translate(-164.255 -147.74)" fill="none" stroke="#e869ca" stroke-linecap="round" stroke-linejoin="round" stroke-width="0.5"/><path d="M323.158,237.58c-.605,1.194-1.218,2.4-1.848,3.581" transform="translate(-169.721 -146.463)" fill="none" stroke="#e869ca" stroke-linecap="round" stroke-linejoin="round" stroke-width="0.5"/><path d="M284.32,268.969a44.76,44.76,0,0,1,22.691-5.315,4.538,4.538,0,0,1,1.93.368,1.635,1.635,0,0,1,.989,1.578l-10.172.883" transform="translate(-162.975 -151.213)" fill="none" stroke="#e869ca" stroke-linecap="round" stroke-linejoin="round" stroke-width="0.5"/><path d="M323.9,256.88a5.086,5.086,0,0,0,1.4,3.835" transform="translate(-170.189 -149.982)" fill="none" stroke="#2c303d" stroke-linecap="round" stroke-linejoin="round" stroke-width="0.5"/><path d="M334.529,223.37a53.4,53.4,0,0,1-.319,13.7" transform="translate(-172.072 -143.873)" fill="none" stroke="#3a3c57" stroke-linecap="round" stroke-linejoin="round" stroke-width="0.5"/><path d="M323.818,259.22s1.635,8.316,6.141,9.526h-6.4l-1.5-5.135Z" transform="translate(-169.856 -150.409)" fill="#c33091" stroke="#3a3c57" stroke-linecap="round" stroke-linejoin="round" stroke-width="0.5"/></g><path d="M199.633,111.193c-1.7-1.292-3.81-2.24-4.8-4.129a4.62,4.62,0,1,1,8.717-2.1c1.513-1.4,3.369-2.895,5.38-2.453,2.167.45,3.271,3.107,2.756,5.25s-2.29,3.778-4.154,4.972c-1.513.973-3.614,2.576-5.339,2.739A6.656,6.656,0,0,0,199.633,111.193Z" transform="translate(157.824 498.934)" opacity="0.5" fill="url(#b)"/><path d="M172.094,162.349a4.849,4.849,0,0,0-2.993-6.64c-2.715-.662-6.345,1.161-6.337,3.949A4.4,4.4,0,0,0,158,157.737c-2.191.278-3.271,3.107-2.756,5.258s2.29,3.77,4.154,4.963c1.513.981,5.339,2.739,5.339,2.739C165.029,169.005,171.1,164.238,172.094,162.349Z" transform="translate(157.923 480.953)" opacity="0.5" fill="url(#b)"/><path d="M174.647,127.255a2.453,2.453,0,0,0-1.5-3.271c-1.357-.335-3.164.572-3.164,1.971a2.216,2.216,0,0,0-2.379-.965c-1.1.147-1.635,1.562-1.382,2.633a4.481,4.481,0,0,0,2.077,2.453c.76.482,2.674,1.366,2.674,1.366C171.114,130.526,174.148,128.171,174.647,127.255Z" transform="translate(155.59 485.314)" opacity="0.5" fill="url(#b)"/><path d="M303.71,141.035a2.453,2.453,0,0,0-1.5-3.32c-1.357-.327-3.164.581-3.164,1.979a2.191,2.191,0,0,0-2.371-.94c-1.1.139-1.635,1.554-1.382,2.633a4.44,4.44,0,0,0,2.077,2.453c.76.491,2.666,1.374,2.666,1.374C300.178,144.363,303.219,142.024,303.71,141.035Z" transform="translate(124.31 484.874)" opacity="0.5" fill="url(#b)"/><path d="M330.967,194.744a2.453,2.453,0,0,0-1.5-3.32c-1.357-.335-3.173.581-3.173,1.971a2.2,2.2,0,0,0-2.379-.957c-1.1.139-1.635,1.554-1.382,2.625a4.457,4.457,0,0,0,2.077,2.453c.76.482,2.674,1.366,2.674,1.366C327.434,198.072,330.468,195.685,330.967,194.744Z" transform="translate(132.262 452.769)" opacity="0.5" fill="url(#b)"/><path d="M350.642,141.887a4.195,4.195,0,0,0-2.6-5.724c-2.355-.581-5.5,1.006-5.495,3.426a3.746,3.746,0,0,0-4.138-1.635c-1.905.237-2.862,2.7-2.4,4.555a7.808,7.808,0,0,0,3.606,4.317c1.316.818,4.636,2.379,4.636,2.379C344.51,147.668,349.784,143.522,350.642,141.887Z" transform="translate(111.284 473.186)" opacity="0.5" fill="url(#b)"/><g transform="translate(241.654 778.19)"><path d="M134.112,369.151H164.7c-.587-3.737-3-3.082-3.312-8.88-.162-2.92,2.554-6.53,2.307-10.369-.2-3.159-3.312-6.4-3.55-10.012-.221-3.261,2.443-6.879,2.179-10.4-.238-3.329-3.405-6.513-3.678-9.969s2.333-7.024,2.026-10.429-3.525-6.538-3.865-9.9,2.171-7.168,1.788-10.472c-.409-3.508-3.72-6.538-4.172-9.765-.5-3.6,1.847-7.441,1.294-10.548-.673-3.806-4.214-6.564-4.955-9.365-1.388-5.236-1.217-10.276-2.861-10.608s-2.145,4.6-3.474,10.123c-.664,2.775-4.129,5.585-4.7,9.365-.46,3.09,1.992,6.811,1.584,10.421-.358,3.21-3.584,6.292-3.9,9.782-.289,3.278,2.324,6.9,2.069,10.327s-3.405,6.513-3.593,9.9,2.477,6.939,2.3,10.276-3.269,6.666-3.405,9.961c-.17,3.491,2.554,7.007,2.452,10.216-.145,3.584-3.184,6.87-3.295,10-.128,3.806,2.665,7.322,2.554,10.216-.187,6.283-3.073,4.98-3.176,10.046Z" transform="translate(-112.675 -248.421)" fill="#d0fbe8"/><line y2="109.246" transform="translate(34.565 10.07)" fill="none" stroke="#3bb780" stroke-miterlimit="10" stroke-width="0.5" opacity="0.39"/><path d="M153.7,273.5l-4.98,4.308-4.078-5.432" transform="translate(-114.357 -251.983)" fill="none" stroke="#3bb780" stroke-miterlimit="10" stroke-width="0.5" opacity="0.39"/><path d="M153.7,295.842l-4.98,4.3-4.078-5.432" transform="translate(-114.357 -255.302)" fill="none" stroke="#3bb780" stroke-miterlimit="10" stroke-width="0.5" opacity="0.39"/><path d="M153.7,316.852l-4.98,4.3-4.078-5.432" transform="translate(-114.357 -258.425)" fill="none" stroke="#3bb780" stroke-miterlimit="10" stroke-width="0.5" opacity="0.39"/><path d="M153.7,341.842l-4.98,4.3-4.078-5.432" transform="translate(-114.357 -262.14)" fill="none" stroke="#3bb780" stroke-miterlimit="10" stroke-width="0.5" opacity="0.39"/><path d="M153.7,367.1l-4.98,4.3-4.078-5.432" transform="translate(-114.357 -265.894)" fill="none" stroke="#3bb780" stroke-miterlimit="10" stroke-width="0.5" opacity="0.39"/><path d="M109.666,373.959h23.617c-.46-2.886-2.316-2.375-2.554-6.853-.128-2.256,1.958-5.04,1.779-8-.153-2.443-2.554-4.938-2.741-7.73-.17-2.554,1.882-5.312,1.7-8.028-.187-2.554-2.631-5.023-2.844-7.662s1.8-5.423,1.566-8.054-2.724-5.049-2.988-7.662,1.7-5.534,1.379-8.088c-.315-2.707-2.869-5.049-3.218-7.543-.383-2.775,1.43-5.738,1-8.139-.519-2.937-3.252-5.066-3.831-7.228-1.073-4.044-.937-7.935-2.205-8.19s-1.7,3.55-2.682,7.815c-.511,2.137-3.184,4.308-3.627,7.254-.358,2.375,1.532,5.27,1.226,8.037-.281,2.477-2.767,4.861-3.014,7.551-.221,2.554,1.8,5.321,1.6,7.969s-2.614,5.031-2.784,7.662,1.924,5.355,1.779,7.935-2.554,5.108-2.639,7.662c-.128,2.69,1.992,5.406,1.89,7.909-.111,2.767-2.452,5.3-2.554,7.722-.1,2.937,2.052,5.645,1.984,7.884-.145,4.853-2.367,3.848-2.443,7.747Z" transform="translate(-109.07 -253.229)" fill="#d0fbe8"/><line y2="84.327" transform="translate(10.736 35.313)" fill="none" stroke="#3bb780" stroke-miterlimit="10" stroke-width="0.5" opacity="0.39"/><path d="M124.79,300.128l-3.848,3.32L117.8,299.26" transform="translate(-110.368 -255.978)" fill="none" stroke="#3bb780" stroke-miterlimit="10" stroke-width="0.5" opacity="0.39"/><path d="M124.79,317.368l-3.848,3.32L117.8,316.5" transform="translate(-110.368 -258.541)" fill="none" stroke="#3bb780" stroke-miterlimit="10" stroke-width="0.5" opacity="0.39"/><path d="M124.79,333.587l-3.848,3.32-3.141-4.2" transform="translate(-110.368 -260.951)" fill="none" stroke="#3bb780" stroke-miterlimit="10" stroke-width="0.5" opacity="0.39"/><path d="M124.79,352.878l-3.848,3.32L117.8,352.01" transform="translate(-110.368 -263.819)" fill="none" stroke="#3bb780" stroke-miterlimit="10" stroke-width="0.5" opacity="0.39"/><path d="M124.79,372.377l-3.848,3.32-3.141-4.2" transform="translate(-110.368 -266.716)" fill="none" stroke="#3bb780" stroke-miterlimit="10" stroke-width="0.5" opacity="0.39"/></g><g transform="translate(480.016 737.634)"><path d="M343.889,414.177h40.868c-.787-5-3.993-4.122-4.427-11.861-.211-3.9,3.406-8.737,3.089-13.858-.258-4.216-4.416-8.549-4.7-13.376-.294-4.357,3.265-9.2,2.912-13.893-.317-4.439-4.545-8.7-4.909-13.317s3.112-9.395,2.7-13.94-4.7-8.737-5.155-13.223,2.889-9.571,2.349-13.987c-.54-4.7-4.968-8.737-5.566-13.047-.669-4.815,2.466-9.947,1.738-14.092-.9-5.085-5.637-8.761-6.623-12.507-1.855-6.988-1.632-13.728-3.817-14.163s-2.877,6.13-4.7,13.517c-.893,3.7-5.52,7.457-6.283,12.554-.611,4.11,2.666,9.125,2.126,13.916-.482,4.286-4.791,8.408-5.214,13.071-.388,4.38,3.112,9.207,2.76,13.8s-4.51,8.7-4.8,13.223,3.323,9.266,3.077,13.74-4.357,8.9-4.568,13.306c-.223,4.7,3.453,9.395,3.276,13.681-.2,4.791-4.251,9.184-4.4,13.364-.176,5.085,3.523,9.782,3.441,13.646-.247,8.4-4.1,6.659-4.239,13.423Z" transform="translate(-315.164 -252.893)" fill="#d0fbe8"/><line y2="145.95" transform="translate(46.27 13.443)" fill="none" stroke="#3bb780" stroke-miterlimit="10" stroke-width="0.5" opacity="0.39"/><path d="M365.9,277.595l-6.647,5.743L353.8,276.08" transform="translate(-313.249 -248.85)" fill="none" stroke="#3bb780" stroke-miterlimit="10" stroke-width="0.5" opacity="0.39"/><path d="M365.9,299.225l-6.647,5.743L353.8,297.71" transform="translate(-313.249 -245.078)" fill="none" stroke="#3bb780" stroke-miterlimit="10" stroke-width="0.5" opacity="0.39"/><path d="M365.9,319.563l-6.647,5.754L353.8,318.06" transform="translate(-313.249 -241.53)" fill="none" stroke="#3bb780" stroke-miterlimit="10" stroke-width="0.5" opacity="0.39"/><path d="M365.9,343.773l-6.647,5.754L353.8,342.27" transform="translate(-313.249 -237.308)" fill="none" stroke="#3bb780" stroke-miterlimit="10" stroke-width="0.5" opacity="0.39"/><path d="M365.9,368.245l-6.647,5.743L353.8,366.73" transform="translate(-313.249 -233.043)" fill="none" stroke="#3bb780" stroke-miterlimit="10" stroke-width="0.5" opacity="0.39"/><path d="M320.127,408.717h31.555c-.611-3.864-3.089-3.183-3.417-9.16-.164-3.006,2.619-6.741,2.349-10.687-.2-3.265-3.417-6.6-3.664-10.334-.223-3.359,2.513-7.046,2.255-10.722-.258-3.429-3.523-6.717-3.8-10.276s2.407-7.246,2.09-10.757-3.629-6.741-3.981-10.205,2.231-7.4,1.832-10.8c-.411-3.617-3.828-6.741-4.286-10.076-.517-3.711,1.891-7.669,1.327-10.875-.693-3.934-4.345-6.764-5.108-9.665-1.433-5.39-1.257-10.569-2.948-10.933s-2.22,4.7-3.582,10.44c-.693,2.854-4.263,5.754-4.85,9.688-.481,3.183,2.055,7.046,1.632,10.745-.364,3.3-3.7,6.482-4.016,10.088-.305,3.382,2.349,7.046,2.126,10.651s-3.523,6.717-3.711,10.205,2.56,7.152,2.349,10.569-3.359,6.87-3.523,10.276c-.176,3.594,2.666,7.222,2.525,10.569-.153,3.7-3.276,7.046-3.394,10.323-.141,3.922,2.748,7.539,2.654,10.569-.188,6.494-3.159,5.144-3.265,10.37Z" transform="translate(-319.27 -247.433)" fill="#d0fbe8"/><line y2="112.669" transform="translate(14.421 47.159)" fill="none" stroke="#3bb780" stroke-miterlimit="10" stroke-width="0.5" opacity="0.39"/><path d="M337.136,303.284l-5.144,4.427-4.193-5.6" transform="translate(-317.783 -244.311)" fill="none" stroke="#3bb780" stroke-miterlimit="10" stroke-width="0.5" opacity="0.39"/><path d="M337.136,319.984l-5.144,4.427-4.193-5.6" transform="translate(-317.783 -241.399)" fill="none" stroke="#3bb780" stroke-miterlimit="10" stroke-width="0.5" opacity="0.39"/><path d="M337.136,335.683l-5.144,4.439-4.193-5.6" transform="translate(-317.783 -238.659)" fill="none" stroke="#3bb780" stroke-miterlimit="10" stroke-width="0.5" opacity="0.39"/><path d="M337.136,354.373l-5.144,4.439-4.193-5.6" transform="translate(-317.783 -235.401)" fill="none" stroke="#3bb780" stroke-miterlimit="10" stroke-width="0.5" opacity="0.39"/><path d="M337.136,373.264l-5.144,4.427-4.193-5.6" transform="translate(-317.783 -232.108)" fill="none" stroke="#3bb780" stroke-miterlimit="10" stroke-width="0.5" opacity="0.39"/></g></g></svg>