<svg xmlns="http://www.w3.org/2000/svg" width="74.334" height="62.899" viewBox="0 0 74.334 62.899"><path d="M66.7,29.076a5.073,5.073,0,1,0,6.421-7.856A55.693,55.693,0,0,0,28.108,9.526l9.29,9.29A45.466,45.466,0,0,1,66.7,29.076ZM58.561,35.64a33.3,33.3,0,0,0-9.039-4.663L60.1,41.558A4.9,4.9,0,0,0,58.561,35.64ZM44.787,50.921a15.355,15.355,0,0,0-14.025,0,3.6,3.6,0,0,0-.825,5.7L35.21,61.9a3.572,3.572,0,0,0,5.058,0l5.273-5.273A3.533,3.533,0,0,0,44.787,50.921Zm20.554,5.99L9.527,1.1A3.576,3.576,0,0,0,4.469,6.154l8.394,8.43A54.023,54.023,0,0,0,2.5,21.22a5.092,5.092,0,0,0-.359,7.533,4.972,4.972,0,0,0,6.708.359A45.5,45.5,0,0,1,20.5,22.188l8,8A34.547,34.547,0,0,0,17.06,35.6a5,5,0,0,0-.466,7.569l.036.036a5.062,5.062,0,0,0,6.564.466,25.594,25.594,0,0,1,14.24-4.627L60.283,61.9a3.572,3.572,0,0,0,5.058,0A3.486,3.486,0,0,0,65.341,56.911Z" transform="translate(-0.644 -0.048)" fill="#707070" opacity="0.1"/></svg>