<svg xmlns="http://www.w3.org/2000/svg" xmlns:xlink="http://www.w3.org/1999/xlink" width="57" height="57" viewBox="0 0 57 57">
  <defs>
    <linearGradient id="linear-gradient" x1="-0.231" y1="-0.605" x2="1" y2="0.638" gradientUnits="objectBoundingBox">
      <stop offset="0" stop-color="#7c73e6"/>
      <stop offset="1" stop-color="#b2abff"/>
    </linearGradient>
  </defs>
  <g id="Group_27907" data-name="Group 27907" transform="translate(-5622 -3536)">
    <rect id="Rectangle_2023" data-name="Rectangle 2023" width="57" height="57" transform="translate(5622 3536)" fill="none" opacity="0"/>
    <g id="Group_27902" data-name="Group 27902" transform="translate(5050 2646)">
      <rect id="Rectangle_1190" data-name="Rectangle 1190" width="7.735" height="18.899" transform="translate(577.07 913.345)" fill="url(#linear-gradient)"/>
      <ellipse id="Ellipse_478" data-name="Ellipse 478" cx="3.867" cy="3.867" rx="3.867" ry="3.867" transform="translate(577 904)" fill="url(#linear-gradient)"/>
      <path id="Path_39108" data-name="Path 39108" d="M452.711,96.407A9.282,9.282,0,0,0,445.2,93q-3.683,0-7.365,3.507h0A10.045,10.045,0,0,0,430.365,93a9.169,9.169,0,0,0-6.864,2.943,9.943,9.943,0,0,0-2.831,7.154v15.38h5.7V107.688h0a5.166,5.166,0,0,1-1.209-2.6,7.869,7.869,0,0,0,1.4.343,6.974,6.974,0,0,0,1.01.074,6.38,6.38,0,0,0,4.593-1.943,2.786,2.786,0,0,0,2.114.082,2.637,2.637,0,0,0,1-.715,5.189,5.189,0,0,1-1.1,4.771h0v10.777h7.149v-15.47A3.905,3.905,0,0,1,445.24,99.1h0a3.905,3.905,0,0,1,3.905,3.905v15.47h5.8V104.148Q454.941,99.062,452.711,96.407Zm-19.086,5.568a1.168,1.168,0,0,1-.88-.122,1.458,1.458,0,0,0-1.711.305,4.646,4.646,0,0,1-4.15,1.505,6.271,6.271,0,0,1-1.7-.494.137.137,0,0,0-.02-.016,4.806,4.806,0,0,1-1.629-1.191c-.1-.114-.191-.246-.149-.332.078-.158.515.045,1.284.009a3.008,3.008,0,0,0,1.421-.452,1.206,1.206,0,0,0,.1-.088l.038-.038c.052-.066.107-.131.163-.194a3.728,3.728,0,0,1,.356-.367l.025-.023c.111-.1.228-.2.348-.293.088-.069.167-.127.231-.172l-.005.007a5.155,5.155,0,0,1,2.684-.907c.083-.005.166-.009.25-.009h0c.08,0,.16,0,.239.008a5.174,5.174,0,0,1,3.822,1.952,1.613,1.613,0,0,1-.718.913Z" transform="translate(168.664 813.727)" fill="url(#linear-gradient)"/>
    </g>
  </g>
</svg>
