<svg xmlns="http://www.w3.org/2000/svg" xmlns:xlink="http://www.w3.org/1999/xlink" width="57" height="57" viewBox="0 0 57 57">
  <defs>
    <linearGradient id="linear-gradient" x1="-0.231" y1="-0.605" x2="1" y2="0.638" gradientUnits="objectBoundingBox">
      <stop offset="0" stop-color="#7c73e6"/>
      <stop offset="1" stop-color="#b2abff"/>
    </linearGradient>
  </defs>
  <g id="Group_27903" data-name="Group 27903" transform="translate(-5622 -3127)">
    <rect id="Rectangle_2019" data-name="Rectangle 2019" width="57" height="57" transform="translate(5622 3127)" fill="none" opacity="0"/>
    <path id="Vector-2" d="M17.3,0A17.3,17.3,0,1,0,34.6,17.3,17.306,17.306,0,0,0,17.3,0ZM8.771,28.164c.744-1.557,5.276-3.079,8.529-3.079s7.8,1.522,8.529,3.079a13.711,13.711,0,0,1-17.058,0ZM28.3,25.656c-2.474-3.01-8.477-4.031-11-4.031s-8.529,1.021-11,4.031A13.83,13.83,0,1,1,31.14,17.3,13.753,13.753,0,0,1,28.3,25.656ZM17.3,6.92a6.055,6.055,0,1,0,6.055,6.055A6.039,6.039,0,0,0,17.3,6.92Zm0,8.65a2.595,2.595,0,1,1,2.595-2.595A2.591,2.591,0,0,1,17.3,15.57Z" transform="translate(5633 3138)" fill="url(#linear-gradient)"/>
  </g>
</svg>
