<svg xmlns="http://www.w3.org/2000/svg" width="30.98" height="29.88" viewBox="0 0 30.98 29.88"><g transform="translate(-7447 -15653)"><path d="M14.309,29.818l-2.5-.929a.708.708,0,0,1-.461-.663L11.334,7.953a.983.983,0,0,1,1.432-.874L15.25,8.354a.708.708,0,0,1,.385.629V28.9a.983.983,0,0,1-1.326.922ZM6.317,26.437,4,25.575a.983.983,0,0,1-.64-.92L3.343,2.96C3.315,1.432,1.58,1.229.622,1.236A.616.616,0,1,1,.617,0C4,.01,20.174.037,21.857,0A9.318,9.318,0,0,1,30.078,4.5c1.959,3.5.415,8.175-1.659,10.019a12.81,12.81,0,0,1-8.843,3.31.616.616,0,0,1-.6-.616v-.24a.616.616,0,0,1,.577-.615c1.631-.1,6.189-.875,6.722-6.288.808-8.339-7.567-8.414-7.567-8.414H8.229a.616.616,0,0,0-.616.623l.031,2.892V25.516a.983.983,0,0,1-1.326.922Z" transform="translate(7447 15653)" fill="#fff"/></g></svg>