<svg xmlns="http://www.w3.org/2000/svg" width="40.821" height="68.311" viewBox="0 0 40.821 68.311">
  <path id="jesmi_sefid" data-name="jesmi sefid" d="M7.627,69.311A7.635,7.635,0,0,1,0,61.687V13.955A7.633,7.633,0,0,1,7.624,6.338h2V4.5A3.5,3.5,0,0,1,13.12,1H27.7a3.506,3.506,0,0,1,3.5,3.481V6.329h2a7.645,7.645,0,0,1,7.628,7.625V61.686a7.647,7.647,0,0,1-7.627,7.625ZM4.867,13.955V61.683a2.768,2.768,0,0,0,2.761,2.758H33.193a2.766,2.766,0,0,0,2.76-2.76V13.954a2.767,2.767,0,0,0-2.761-2.76H7.627A2.767,2.767,0,0,0,4.867,13.955Zm9.624-7.627H26.33v1H14.491ZM13.757,54.56a3.615,3.615,0,0,1-1.841-4.154l2.118-7.944h-.266a3.616,3.616,0,0,1-2.815-5.922L22.615,22.38a3.6,3.6,0,0,1,2.791-1.321,3.619,3.619,0,0,1,3.5,4.554l-2.119,7.945h.268a3.647,3.647,0,0,1,2.892,1.411l0,.005a3.613,3.613,0,0,1-.081,4.505L18.206,53.641c-.537.654-2.627,1.006-3.766,1.006A1.8,1.8,0,0,1,13.757,54.56Z" transform="translate(0 -1)" fill="#fff"/>
</svg>
