<svg xmlns="http://www.w3.org/2000/svg" xmlns:xlink="http://www.w3.org/1999/xlink" width="88.277" height="98.033" viewBox="0 0 88.277 98.033"><defs><filter id="a" x="0" y="0" width="88.277" height="98.033" filterUnits="userSpaceOnUse"><feOffset dy="3" input="SourceAlpha"/><feGaussianBlur stdDeviation="4" result="b"/><feFlood flood-color="#fff"/><feComposite operator="in" in2="b"/><feComposite in="SourceGraphic"/></filter></defs><g transform="matrix(1, 0, 0, 1, 0, 0)" filter="url(#a)"><path d="M54.554,7.763A31.183,31.183,0,0,0,34.228,0a30.606,30.606,0,0,0-22.4,9.911c-4.356,4.94-6.193,10.906-5.18,16.8L7.4,31.042c-.046,2.043-1.8,4.453-3.5,6.78C1.972,40.466-.019,43.193-.01,45.936c.016,3.618,3.227,3.771,5.146,3.866,1.974.1,2.307.264,2.363.751l1.071,9.2c.289,2.477,3.068,4.068,7.26,4.151h.3c2.4.043,3.842.07,4.583.753.776.714,1.184,2.441,1.408,5.959A2.63,2.63,0,0,0,25.1,73.333H51.419a2.862,2.862,0,0,0,2.919-2.764c.327-16.7,3.46-23.022,5.976-28.111,1.745-3.525,3.253-6.57,3.253-11.905V26.54C63.566,19.555,60.366,12.886,54.554,7.763Zm-9.7,20.655a1.118,1.118,0,0,0-1.534,0l-6.6,6.351V18.9h0a1.036,1.036,0,0,0-.518-.97,1.125,1.125,0,0,0-1.134,0,1.036,1.036,0,0,0-.518.97v9.147l-3.039-2.922a1.1,1.1,0,0,0-1.768.338,1.017,1.017,0,0,0,.233,1.139L34.551,31V41.476l-3.039-2.922a1.1,1.1,0,0,0-.764-.3,1.085,1.085,0,0,0-1,.642,1.013,1.013,0,0,0,.235,1.138l4.57,4.395v5.892c-6.377-.536-12.839-5.791-12.839-16.634A26.2,26.2,0,0,1,34.428,11.233l.437-.249a9.015,9.015,0,0,1,.784-.456,8.649,8.649,0,0,1,.763.443l.444.278A26.211,26.211,0,0,1,49.577,33.7c0,10.844-6.462,16.1-12.841,16.634V37.713l8.134-7.827a1.009,1.009,0,0,0-.007-1.47Zm16.534,2.146c0,4.864-1.343,7.575-3.039,11.008-2.6,5.266-5.852,11.819-6.187,28.963a.741.741,0,0,1-.748.718H36.728V65.526l9.151-8.8a1.016,1.016,0,0,0,0-1.477,1.116,1.116,0,0,0-1.535,0l-7.617,7.326V52.414a15.2,15.2,0,0,0,10.035-4.732c3.256-3.416,4.976-8.257,4.976-14a28.054,28.054,0,0,0-3.772-14.044A29.007,29.007,0,0,0,38.009,9.473c-.159-.1-.3-.185-.434-.266a3.648,3.648,0,0,0-1.933-.786,3.713,3.713,0,0,0-1.958.8l-.411.259a29,29,0,0,0-9.954,10.166,28.055,28.055,0,0,0-3.774,14.044c0,5.74,1.721,10.576,4.976,14A15.2,15.2,0,0,0,34.555,52.42v10.2l-7.543-7.259a1.117,1.117,0,0,0-1.507.026,1.015,1.015,0,0,0-.027,1.45l9.077,8.734v5.678H25.1c-.669,0-.771,0-.819-.756-.272-4.26-.815-6.18-2.074-7.339-1.354-1.246-3.22-1.28-6.043-1.332H15.88c-2.435-.049-4.971-.778-5.146-2.3L9.657,50.321c-.279-2.4-2.765-2.523-4.411-2.6-2.422-.124-3.085-.356-3.085-1.794-.009-2.079,1.781-4.534,3.512-6.908,1.913-2.626,3.892-5.341,3.892-8.059a.978.978,0,0,0-.016-.171l-.763-4.421c-.909-5.273.754-10.639,4.7-15.1A28.341,28.341,0,0,1,34.228,2.087C48.7,2.087,61.4,13.514,61.4,26.54Z" transform="translate(12.36 9.35)" fill="#fff" stroke="#fff" stroke-width="0.7"/></g></svg>