<svg width="46" height="46" viewBox="0 0 46 46" fill="none" xmlns="http://www.w3.org/2000/svg">
<mask id="mask0_15473_3272" style="mask-type:alpha" maskUnits="userSpaceOnUse" x="0" y="0" width="46" height="46">
<rect width="46" height="46" fill="#D9D9D9"/>
</mask>
<g mask="url(#mask0_15473_3272)">
<path d="M13.4169 38.3336V17.2023C13.4169 16.1482 13.8003 15.2537 14.5669 14.519C15.3336 13.7843 16.244 13.4169 17.2982 13.4169H38.3336C39.3877 13.4169 40.2902 13.7923 41.0409 14.543C41.7916 15.2937 42.1669 16.1961 42.1669 17.2502V32.5836L32.5836 42.1669H17.2502C16.1961 42.1669 15.2937 41.7916 14.543 41.0409C13.7923 40.2902 13.4169 39.3877 13.4169 38.3336ZM3.8815 11.9794C3.68983 10.9253 3.89747 9.9749 4.50442 9.12838C5.11136 8.28185 5.94192 7.76275 6.99608 7.57108L27.7919 3.8815C28.8461 3.68983 29.7964 3.89747 30.643 4.50442C31.4895 5.11136 32.0086 5.94192 32.2002 6.99608L32.6794 9.58358H28.7502L28.4148 7.66692L7.66692 11.3565L9.58358 22.1857V35.5544C9.07247 35.2669 8.63324 34.8836 8.26588 34.4044C7.89851 33.9253 7.66692 33.3822 7.57108 32.7752L3.8815 11.9794ZM17.2502 17.2502V38.3336H30.6669V32.5836C30.6669 32.0405 30.8506 31.5853 31.218 31.218C31.5853 30.8506 32.0405 30.6669 32.5836 30.6669H38.3336V17.2502H17.2502Z" fill="#C33091"/>
</g>
</svg>
