<svg xmlns="http://www.w3.org/2000/svg" width="29.881" height="37.501" viewBox="0 0 29.881 37.501"><path d="M19871.734-11222.5a3.738,3.738,0,0,1-3.73-3.736v-16.958a3.736,3.736,0,0,1,3.73-3.732h1.871v-3.733a9.349,9.349,0,0,1,9.336-9.341,9.355,9.355,0,0,1,9.344,9.341v3.733h1.867a3.738,3.738,0,0,1,3.732,3.732v16.958a3.739,3.739,0,0,1-3.732,3.736Zm-.562-18.9v13.3a2.589,2.589,0,0,0,2.521,2.65h18.5a2.592,2.592,0,0,0,2.523-2.65v-13.3a2.591,2.591,0,0,0-2.523-2.649h-18.5A2.588,2.588,0,0,0,19871.172-11241.4Zm6.168-9.263v3.733h11.205v-3.733a5.609,5.609,0,0,0-5.6-5.6A5.609,5.609,0,0,0,19877.34-11250.661Zm1.871,15.943a3.737,3.737,0,0,1,3.73-3.735,3.743,3.743,0,0,1,3.738,3.735,3.739,3.739,0,0,1-3.738,3.732A3.734,3.734,0,0,1,19879.211-11234.718Z" transform="translate(-19868.004 11260.002)" fill="#707070"/></svg>