<svg xmlns="http://www.w3.org/2000/svg" xmlns:xlink="http://www.w3.org/1999/xlink" width="57" height="57" viewBox="0 0 57 57">
  <defs>
    <linearGradient id="linear-gradient" x1="0.5" x2="0.5" y2="1" gradientUnits="objectBoundingBox">
      <stop offset="0" stop-color="#7c73e6"/>
      <stop offset="1" stop-color="#b2abff"/>
    </linearGradient>
  </defs>
  <g id="Group_27905" data-name="Group 27905" transform="translate(-5622 -3332)">
    <rect id="Rectangle_2021" data-name="Rectangle 2021" width="57" height="57" transform="translate(5622 3332)" fill="none" opacity="0"/>
    <path id="Group_11_" data-name="Group (11)" d="M44.563,4.029a4.041,4.041,0,0,1-4.029,4.029,3.424,3.424,0,0,1-1.027-.141l-7.172,7.152a3.559,3.559,0,0,1,.141,1.048,4.029,4.029,0,0,1-8.058,0,3.559,3.559,0,0,1,.141-1.048L19.421,9.932a3.962,3.962,0,0,1-2.1,0L9.917,17.361a3.424,3.424,0,0,1,.141,1.027,4.029,4.029,0,1,1-4.029-4.029,3.424,3.424,0,0,1,1.027.141l7.428-7.408a3.559,3.559,0,0,1-.141-1.048,4.029,4.029,0,1,1,8.058,0,3.559,3.559,0,0,1-.141,1.048L27.4,12.229a3.962,3.962,0,0,1,2.1,0l7.152-7.172A3.424,3.424,0,0,1,36.5,4.029a4.029,4.029,0,0,1,8.058,0Zm0,0a4.041,4.041,0,0,1-4.029,4.029,3.424,3.424,0,0,1-1.027-.141l-7.172,7.152a3.559,3.559,0,0,1,.141,1.048,4.029,4.029,0,0,1-8.058,0,3.559,3.559,0,0,1,.141-1.048L19.421,9.932a3.962,3.962,0,0,1-2.1,0L9.917,17.361a3.424,3.424,0,0,1,.141,1.027,4.029,4.029,0,1,1-4.029-4.029,3.424,3.424,0,0,1,1.027.141l7.428-7.408a3.559,3.559,0,0,1-.141-1.048,4.029,4.029,0,1,1,8.058,0,3.559,3.559,0,0,1-.141,1.048L27.4,12.229a3.962,3.962,0,0,1,2.1,0l7.152-7.172A3.424,3.424,0,0,1,36.5,4.029a4.029,4.029,0,0,1,8.058,0Z" transform="translate(5627 3349)" fill="url(#linear-gradient)"/>
  </g>
</svg>
