<svg xmlns="http://www.w3.org/2000/svg" xmlns:xlink="http://www.w3.org/1999/xlink" width="57" height="57" viewBox="0 0 57 57">
  <defs>
    <linearGradient id="linear-gradient" x1="0.5" x2="0.5" y2="1" gradientUnits="objectBoundingBox">
      <stop offset="0" stop-color="#7c73e6"/>
      <stop offset="1" stop-color="#b2abff"/>
    </linearGradient>
  </defs>
  <g id="Group_27906" data-name="Group 27906" transform="translate(-5622 -3431)">
    <rect id="Rectangle_2022" data-name="Rectangle 2022" width="57" height="57" transform="translate(5622 3431)" fill="none" opacity="0"/>
    <g id="Group_27901" data-name="Group 27901" transform="translate(5052.604 2643.702)">
      <path id="Path_39106" data-name="Path 39106" d="M20674.219-10355.789a3.011,3.011,0,0,1-2.035-.784l-.156-.139-.09-.08c-7.916-7.19-13.145-11.94-12.93-17.828a8.305,8.305,0,0,1,3.561-6.533,8.487,8.487,0,0,1,4.813-1.508,9.133,9.133,0,0,1,6.855,3.184,8.9,8.9,0,0,1,1.711-1.542,20.82,20.82,0,0,0,1.7,2.521,5.658,5.658,0,0,0-1.287,1.234,2.835,2.835,0,0,1-2.125,1.242,2.828,2.828,0,0,1-2.113-1.232,6.066,6.066,0,0,0-4.74-2.362,5.211,5.211,0,0,0-5.328,5.331c0,4.408,4.783,8.743,12.027,15.3l.154.156.15-.153c5.111-4.63,9.148-8.286,10.955-11.568.771.714,1.588,1.458,2.3,2.1-2.166,3.517-6.139,7.121-11.174,11.688l-.021.021-.17.148A3.012,3.012,0,0,1,20674.219-10355.789Z" transform="translate(-20083.605 11189.558)" fill="url(#linear-gradient)"/>
      <path id="Vector-4" d="M26.9,1.509A8.825,8.825,0,0,0,15.234,3.184,8.808,8.808,0,0,0,3.57,1.509,8.333,8.333,0,0,0,.006,8.042C-.207,13.95,5.032,18.686,13.026,25.95l.152.137a3.039,3.039,0,0,0,4.1-.015l.168-.152c7.995-7.249,13.218-11.985,13.02-17.893A8.327,8.327,0,0,0,26.9,1.509ZM15.387,23.681l-.152.152-.152-.152c-7.249-6.563-12.03-10.9-12.03-15.3a5.2,5.2,0,0,1,5.33-5.33,6.089,6.089,0,0,1,4.743,2.361,2.769,2.769,0,0,0,2.112,1.233h0A2.783,2.783,0,0,0,17.36,5.4a6.064,6.064,0,0,1,4.727-2.35,5.2,5.2,0,0,1,5.33,5.33C27.417,12.778,22.635,17.118,15.387,23.681Z" transform="translate(590.728 798.298)" fill="url(#linear-gradient)"/>
    </g>
  </g>
</svg>
