<svg xmlns="http://www.w3.org/2000/svg" width="37.629" height="36.782" viewBox="0 0 37.629 36.782"><path d="M28.128,15.061,17.479,25.71a1.874,1.874,0,0,1-2.653,0L9.5,20.385a1.876,1.876,0,0,1,2.653-2.653l3.989,3.989,9.313-9.313a1.883,1.883,0,0,1,2.672,2.653ZM3.763,18.391A14.951,14.951,0,0,1,8.692,7.328l2.879,2.879a.941.941,0,0,0,1.6-.677V1.458a.932.932,0,0,0-.941-.941H4.158a.931.931,0,0,0-.659,1.6l2.521,2.54A18.772,18.772,0,0,0,14.6,36.735a1.892,1.892,0,1,0,.847-3.688A15.051,15.051,0,0,1,3.763,18.391Zm33.866,0A18.843,18.843,0,0,0,23.029.047,1.907,1.907,0,0,0,20.7,1.89a1.907,1.907,0,0,0,1.486,1.844,14.979,14.979,0,0,1,6.754,25.72l-2.879-2.879a.941.941,0,0,0-1.6.677v8.071a.932.932,0,0,0,.941.941h8.071a.931.931,0,0,0,.659-1.6l-2.521-2.54A18.689,18.689,0,0,0,37.629,18.391Z" fill="#707070"/></svg>