<svg xmlns="http://www.w3.org/2000/svg" width="35.464" height="36.781" viewBox="0 0 35.464 36.781"><path d="M24.928,24.23l-6.266-3.719V12.089a1.333,1.333,0,0,0-1.339-1.339h-.112a1.333,1.333,0,0,0-1.339,1.339v8.776a1.841,1.841,0,0,0,.911,1.6l6.787,4.072a1.338,1.338,0,1,0,1.357-2.306ZM34.8,5.19,29.074.43a1.862,1.862,0,0,0-2.38,2.863L32.4,8.054A1.868,1.868,0,0,0,34.8,5.19ZM3.043,8.054l5.708-4.76A1.845,1.845,0,0,0,8.993.672,1.838,1.838,0,0,0,6.39.43L.663,5.19A1.859,1.859,0,0,0,.44,7.812,1.838,1.838,0,0,0,3.043,8.054ZM17.732,3.312A16.735,16.735,0,1,0,34.466,20.047,16.736,16.736,0,0,0,17.732,3.312Zm0,29.75A13.016,13.016,0,1,1,30.748,20.047,13.03,13.03,0,0,1,17.732,33.063Z" fill="#707070"/></svg>