<svg xmlns="http://www.w3.org/2000/svg" width="107.551" height="107.556" viewBox="0 0 107.551 107.556">
  <path id="ic_send_message" d="M82.5,21.81a3.138,3.138,0,0,1,4.1,4.107L65.957,75.239a3.138,3.138,0,0,1-5.822-.082L54.661,60.974l-1.51-3.918a3.138,3.138,0,0,0-1.787-1.794l-3.857-1.505L33.248,48.228a3.138,3.138,0,0,1-.075-5.821ZM107.045,9.58a6.276,6.276,0,0,0-8.21-8.214L2.8,41.542a4.553,4.553,0,0,0-2.8,4.2H0a4.554,4.554,0,0,0,2.908,4.246l40.017,15.5L58.369,105.5a4.551,4.551,0,0,0,4.246,2.913h0a4.552,4.552,0,0,0,4.2-2.793Z" transform="translate(0 -0.861)" fill="#707070" opacity="0.1"/>
</svg>
