<svg xmlns="http://www.w3.org/2000/svg" width="43.174" height="35.761" viewBox="0 0 43.174 35.761"><g transform="translate(-243.125 -297.016)"><path d="M20672.947-10358.033a2.773,2.773,0,0,1-1.867-.719l-.141-.127-.08-.074c-7.256-6.59-12.047-10.943-11.852-16.338a7.6,7.6,0,0,1,3.264-5.989,7.777,7.777,0,0,1,4.406-1.382,8.38,8.38,0,0,1,6.285,2.918,8.255,8.255,0,0,1,1.566-1.412,19.311,19.311,0,0,0,1.559,2.311,5.28,5.28,0,0,0-1.178,1.131,2.6,2.6,0,0,1-1.947,1.139,2.586,2.586,0,0,1-1.934-1.129,5.563,5.563,0,0,0-4.348-2.166,4.778,4.778,0,0,0-4.885,4.885c0,4.041,4.387,8.014,11.023,14.026l.143.142.137-.141c4.686-4.241,8.387-7.592,10.041-10.6.709.652,1.457,1.336,2.1,1.924-1.982,3.222-5.627,6.527-10.242,10.713l-.018.016-.152.137A2.77,2.77,0,0,1,20672.947-10358.033Z" transform="translate(-20415.877 10690.81)" fill="#fff"/><path d="M24.652,1.383a8.088,8.088,0,0,0-10.69,1.535A8.073,8.073,0,0,0,3.271,1.383,7.636,7.636,0,0,0,.006,7.37c-.2,5.415,4.605,9.755,11.932,16.412l.14.126a2.785,2.785,0,0,0,3.754-.014l.154-.14c7.327-6.643,12.114-10.984,11.932-16.4A7.632,7.632,0,0,0,24.652,1.383ZM14.1,21.7l-.14.14-.14-.14C7.179,15.688,2.8,11.71,2.8,7.677A4.77,4.77,0,0,1,7.682,2.792a5.581,5.581,0,0,1,4.347,2.164,2.538,2.538,0,0,0,1.936,1.13h0a2.551,2.551,0,0,0,1.945-1.14,5.557,5.557,0,0,1,4.333-2.154,4.77,4.77,0,0,1,4.885,4.885C25.127,11.71,20.744,15.688,14.1,21.7Z" transform="translate(258.376 297.016)" fill="#fff"/></g></svg>