<svg width="400" height="328" viewBox="0 0 400 328" fill="none" xmlns="http://www.w3.org/2000/svg">
<g filter="url(#filter0_d_2248_20005)">
<path d="M391.85 204.151C390.08 206.341 387.79 206.971 384.99 206.961C261.61 206.921 138.237 206.921 14.87 206.961C12.07 206.961 9.77 206.351 8 204.151V200.401C9.75 198.401 11.92 197.841 14.57 197.841C138.143 197.888 261.713 197.888 385.28 197.841C387.93 197.841 390.1 198.421 391.85 200.401V204.151Z" fill="white"/>
<path d="M8 152.421C9.75 150.421 11.93 149.851 14.57 149.861C52.41 149.921 90.2467 149.921 128.08 149.861C129.084 149.828 130.088 149.891 131.08 150.051C132.029 150.208 132.891 150.695 133.513 151.428C134.136 152.16 134.479 153.09 134.48 154.051C134.588 154.994 134.373 155.946 133.87 156.751C133.367 157.556 132.605 158.166 131.71 158.481C130.277 158.936 128.766 159.093 127.27 158.941C89.9367 158.941 52.6033 158.941 15.27 158.941C12.39 158.941 9.86 158.581 8.03 156.131L8 152.421Z" fill="white"/>
<path d="M391.85 156.171C390.08 158.381 387.79 158.991 384.99 158.981C347.397 158.921 309.807 158.901 272.22 158.921C270.87 158.967 269.52 158.802 268.22 158.431C267.31 158.153 266.529 157.558 266.018 156.756C265.507 155.953 265.298 154.994 265.43 154.051C265.432 153.09 265.774 152.16 266.397 151.428C267.019 150.695 267.882 150.208 268.83 150.051C269.822 149.891 270.827 149.828 271.83 149.861C309.67 149.861 347.507 149.861 385.34 149.861C388 149.861 390.16 150.461 391.91 152.421L391.85 156.171Z" fill="white"/>
<path d="M203.45 180.481C169.13 180.661 143.54 154.791 144.52 124.061C144.86 113.571 148.73 103.861 152.52 94.2411C164.3 64.4011 179.52 36.2411 195.38 8.44111C197.92 3.99111 201.86 3.82111 204.29 8.14111C221.55 38.7411 238.37 69.5411 250.49 102.661C255.97 117.661 257.65 132.551 250.66 147.361C240.63 168.641 223.48 179.431 203.45 180.481ZM200 18.8511C190.53 33.3711 166.79 81.3211 160.17 99.2311C157.17 107.401 153.75 115.551 153.49 124.391C152.74 149.391 172.86 170.491 198.43 171.391C231.57 172.571 252.87 140.041 244.51 113.641C239.395 98.0326 233.176 82.8075 225.9 68.0811C218 51.5011 209.36 35.2511 200 18.8511Z" fill="white"/>
<path d="M343.87 234.781C346.249 234.731 348.614 235.16 350.825 236.043C353.035 236.925 355.045 238.242 356.736 239.917C358.428 241.591 359.765 243.588 360.669 245.79C361.573 247.991 362.026 250.352 362 252.731C361.982 257.462 360.11 261.997 356.786 265.362C353.461 268.728 348.95 270.655 344.22 270.731C339.415 270.721 334.808 268.817 331.397 265.433C327.987 262.048 326.047 257.456 326 252.651C326.034 247.922 327.928 243.397 331.272 240.053C334.616 236.709 339.141 234.815 343.87 234.781ZM343.87 243.781C342.687 243.793 341.518 244.038 340.43 244.502C339.342 244.965 338.356 245.639 337.529 246.484C336.701 247.329 336.048 248.329 335.608 249.427C335.167 250.525 334.947 251.698 334.96 252.881C335.055 255.209 336.03 257.414 337.687 259.051C339.345 260.688 341.561 261.635 343.89 261.701C346.277 261.701 348.566 260.753 350.254 259.065C351.942 257.377 352.89 255.088 352.89 252.701C352.909 251.52 352.69 250.347 352.244 249.253C351.799 248.158 351.137 247.165 350.298 246.333C349.46 245.501 348.461 244.847 347.364 244.41C346.266 243.973 345.091 243.763 343.91 243.791L343.87 243.781Z" fill="white"/>
<path d="M104.41 280.421C106.789 280.455 109.136 280.965 111.315 281.918C113.494 282.872 115.46 284.252 117.099 285.976C118.737 287.7 120.015 289.734 120.857 291.959C121.698 294.184 122.087 296.554 122 298.931C121.918 301.295 121.37 303.619 120.389 305.771C119.408 307.924 118.013 309.862 116.283 311.474C114.553 313.087 112.522 314.344 110.307 315.172C108.091 316 105.734 316.384 103.37 316.301C101.006 316.218 98.6821 315.671 96.5299 314.69C94.3777 313.709 92.4398 312.313 90.8269 310.584C89.2139 308.854 87.9575 306.823 87.1294 304.607C86.3012 302.392 85.9175 300.035 86.0003 297.671C86.1621 292.945 88.1906 288.476 91.6413 285.242C95.0921 282.009 99.6837 280.275 104.41 280.421ZM95.0003 298.221C94.9512 300.608 95.8524 302.917 97.5055 304.639C99.1586 306.362 101.428 307.357 103.815 307.406C106.202 307.455 108.511 306.554 110.233 304.901C111.956 303.248 112.951 300.978 113 298.591C113.025 297.409 112.816 296.234 112.386 295.133C111.956 294.032 111.314 293.026 110.495 292.173C109.677 291.32 108.698 290.637 107.615 290.162C106.533 289.687 105.367 289.43 104.185 289.406C103.003 289.382 101.828 289.591 100.727 290.02C99.6258 290.45 98.62 291.093 97.7671 291.911C96.9142 292.73 96.2309 293.708 95.7562 294.791C95.2814 295.874 95.0246 297.039 95.0003 298.221Z" fill="white"/>
<path d="M200.14 280.411C202.514 280.422 204.862 280.907 207.046 281.836C209.23 282.765 211.207 284.12 212.862 285.822C214.516 287.524 215.815 289.539 216.682 291.748C217.549 293.958 217.966 296.318 217.91 298.691C217.859 301.055 217.343 303.385 216.391 305.55C215.439 307.714 214.07 309.67 212.363 311.305C210.655 312.94 208.642 314.223 206.438 315.08C204.235 315.937 201.884 316.352 199.52 316.301C197.157 316.25 194.826 315.734 192.662 314.782C190.498 313.83 188.542 312.461 186.907 310.753C185.272 309.046 183.989 307.033 183.131 304.829C182.274 302.626 181.859 300.275 181.91 297.911C181.957 295.565 182.466 293.251 183.408 291.101C184.349 288.951 185.706 287.008 187.399 285.383C189.092 283.758 191.088 282.482 193.275 281.629C195.461 280.776 197.794 280.362 200.14 280.411ZM190.94 298.321C190.929 299.503 191.151 300.676 191.593 301.772C192.035 302.868 192.689 303.866 193.516 304.71C194.344 305.554 195.33 306.226 196.418 306.689C197.505 307.151 198.674 307.395 199.855 307.406C201.037 307.417 202.21 307.196 203.306 306.754C204.402 306.312 205.401 305.658 206.244 304.83C207.088 304.002 207.76 303.016 208.223 301.929C208.685 300.841 208.929 299.673 208.94 298.491C208.963 296.104 208.036 293.806 206.365 292.102C204.693 290.398 202.412 289.429 200.025 289.406C197.639 289.384 195.34 290.31 193.637 291.982C191.933 293.654 190.963 295.934 190.94 298.321Z" fill="white"/>
<path d="M296.11 280.411C298.484 280.424 300.833 280.91 303.018 281.84C305.203 282.771 307.181 284.128 308.835 285.832C310.489 287.536 311.788 289.552 312.654 291.764C313.52 293.975 313.937 296.337 313.88 298.711C313.826 301.075 313.308 303.405 312.354 305.569C311.401 307.732 310.03 309.687 308.321 311.32C306.612 312.954 304.598 314.235 302.394 315.091C300.189 315.946 297.838 316.359 295.475 316.306C293.111 316.253 290.781 315.735 288.617 314.781C286.454 313.827 284.499 312.457 282.865 310.748C281.231 309.039 279.95 307.024 279.095 304.82C278.239 302.616 277.826 300.265 277.88 297.901C277.928 295.556 278.437 293.242 279.38 291.094C280.322 288.945 281.678 287.004 283.371 285.379C285.064 283.755 287.06 282.481 289.246 281.628C291.432 280.776 293.764 280.362 296.11 280.411ZM286.91 298.491C286.928 300.288 287.485 302.039 288.507 303.517C289.53 304.995 290.971 306.133 292.646 306.785C294.321 307.437 296.153 307.572 297.906 307.173C299.658 306.774 301.251 305.86 302.479 304.548C303.708 303.236 304.515 301.586 304.797 299.811C305.08 298.036 304.824 296.217 304.063 294.589C303.303 292.96 302.072 291.597 300.53 290.674C298.987 289.751 297.204 289.311 295.41 289.411C293.084 289.505 290.889 290.51 289.299 292.209C287.708 293.908 286.85 296.165 286.91 298.491Z" fill="white"/>
<path d="M56.0703 234.781C58.4424 234.793 60.7886 235.275 62.9732 236.199C65.1578 237.123 67.1374 238.472 68.7974 240.166C70.4575 241.861 71.765 243.867 72.6443 246.071C73.5237 248.274 73.9573 250.629 73.9203 253.001C73.875 255.365 73.3645 257.697 72.4181 259.863C71.4717 262.03 70.1078 263.989 68.4043 265.628C66.7008 267.267 64.6911 268.555 62.4899 269.418C60.2887 270.281 57.9391 270.701 55.5753 270.656C53.2115 270.611 50.8798 270.1 48.7133 269.154C46.5467 268.207 44.5878 266.844 42.9484 265.14C41.309 263.437 40.0212 261.427 39.1584 259.226C38.2957 257.024 37.875 254.675 37.9203 252.311C37.9567 249.967 38.4556 247.653 39.3882 245.502C40.3209 243.352 41.669 241.406 43.3553 239.777C45.0415 238.149 47.0327 236.869 49.2147 236.012C51.3966 235.154 53.7264 234.736 56.0703 234.781ZM46.9603 252.781C47.1356 255.045 48.1605 257.16 49.8293 258.7C51.4981 260.24 53.6875 261.093 55.9585 261.086C58.2295 261.08 60.4141 260.215 62.0743 258.666C63.7345 257.116 64.7476 254.996 64.9103 252.731C64.9103 250.344 63.9621 248.055 62.2743 246.367C60.5864 244.679 58.2972 243.731 55.9103 243.731C54.7211 243.714 53.5409 243.939 52.441 244.391C51.3411 244.844 50.3445 245.515 49.5116 246.364C48.6786 247.213 48.0265 248.222 47.5949 249.33C47.1632 250.438 46.9609 251.622 47.0003 252.811L46.9603 252.781Z" fill="white"/>
<path d="M265.93 252.631C265.959 256.189 264.934 259.676 262.982 262.652C261.031 265.627 258.241 267.958 254.966 269.348C251.691 270.739 248.077 271.128 244.581 270.466C241.085 269.803 237.863 268.12 235.323 265.628C232.784 263.135 231.04 259.946 230.312 256.463C229.583 252.98 229.904 249.36 231.233 246.059C232.561 242.758 234.839 239.925 237.777 237.917C240.715 235.91 244.182 234.819 247.74 234.781C250.114 234.729 252.475 235.153 254.683 236.027C256.891 236.901 258.902 238.209 260.597 239.872C262.292 241.536 263.638 243.521 264.553 245.713C265.469 247.904 265.937 250.256 265.93 252.631ZM248.11 243.791C246.926 243.763 245.748 243.971 244.644 244.403C243.541 244.835 242.535 245.482 241.684 246.307C240.834 247.131 240.156 248.117 239.69 249.206C239.224 250.295 238.979 251.466 238.97 252.651C239.1 254.921 240.085 257.057 241.725 258.631C243.366 260.205 245.542 261.099 247.815 261.135C250.088 261.17 252.29 260.344 253.98 258.822C255.669 257.3 256.719 255.196 256.92 252.931C256.963 251.747 256.767 250.566 256.344 249.46C255.92 248.353 255.278 247.343 254.456 246.49C253.634 245.637 252.648 244.958 251.558 244.495C250.467 244.031 249.295 243.792 248.11 243.791Z" fill="white"/>
<path d="M151.77 234.781C154.145 234.743 156.504 235.178 158.709 236.062C160.914 236.946 162.921 238.26 164.611 239.929C166.302 241.598 167.644 243.587 168.557 245.78C169.47 247.973 169.937 250.326 169.93 252.701C169.93 255.065 169.464 257.406 168.56 259.589C167.655 261.773 166.329 263.758 164.658 265.429C162.986 267.101 161.002 268.426 158.818 269.331C156.634 270.236 154.294 270.701 151.93 270.701C149.566 270.701 147.225 270.236 145.041 269.331C142.858 268.426 140.873 267.101 139.202 265.429C137.53 263.758 136.205 261.773 135.3 259.589C134.395 257.406 133.93 255.065 133.93 252.701C133.923 250.353 134.38 248.026 135.273 245.854C136.166 243.682 137.479 241.708 139.135 240.043C140.792 238.379 142.761 237.058 144.929 236.155C147.097 235.252 149.421 234.785 151.77 234.781ZM160.92 252.841C160.926 251.659 160.7 250.488 160.254 249.393C159.808 248.299 159.15 247.303 158.319 246.463C157.488 245.622 156.5 244.954 155.41 244.495C154.321 244.037 153.152 243.798 151.97 243.791C150.788 243.785 149.616 244.011 148.522 244.457C147.427 244.903 146.432 245.561 145.591 246.392C144.751 247.223 144.082 248.211 143.624 249.301C143.166 250.39 142.926 251.559 142.92 252.741C142.906 255.128 143.842 257.423 145.52 259.12C147.199 260.817 149.483 261.778 151.87 261.791C154.257 261.804 156.551 260.869 158.248 259.19C159.946 257.512 160.906 255.228 160.92 252.841Z" fill="white"/>
<path d="M234 122.001C232.83 135.621 227 146.421 216.22 154.531C212.83 157.081 210.12 157.131 208.33 154.811C206.54 152.491 207.33 149.921 210.71 147.391C219.38 140.891 224.19 132.281 224.93 121.441C224.965 120.571 225.045 119.703 225.17 118.841C225.61 116.281 227.11 114.841 229.76 114.911C232.41 114.981 233.76 116.641 233.99 119.231C234 120.211 234 121.221 234 122.001Z" fill="white"/>
</g>
<defs>
<filter id="filter0_d_2248_20005" x="0" y="0" width="399.91" height="327.312" filterUnits="userSpaceOnUse" color-interpolation-filters="sRGB">
<feFlood flood-opacity="0" result="BackgroundImageFix"/>
<feColorMatrix in="SourceAlpha" type="matrix" values="0 0 0 0 0 0 0 0 0 0 0 0 0 0 0 0 0 0 127 0" result="hardAlpha"/>
<feOffset dy="3"/>
<feGaussianBlur stdDeviation="4"/>
<feComposite in2="hardAlpha" operator="out"/>
<feColorMatrix type="matrix" values="0 0 0 0 1 0 0 0 0 1 0 0 0 0 1 0 0 0 1 0"/>
<feBlend mode="normal" in2="BackgroundImageFix" result="effect1_dropShadow_2248_20005"/>
<feBlend mode="normal" in="SourceGraphic" in2="effect1_dropShadow_2248_20005" result="shape"/>
</filter>
</defs>
</svg>
