<svg xmlns="http://www.w3.org/2000/svg" width="33.072" height="34" viewBox="0 0 33.072 34"><path d="M29.171,18.666A13.248,13.248,0,0,0,29.29,17a13.248,13.248,0,0,0-.119-1.666l3.587-2.8a.858.858,0,0,0,.2-1.088l-3.4-5.882a.849.849,0,0,0-.748-.425.794.794,0,0,0-.289.051l-4.233,1.7a12.42,12.42,0,0,0-2.873-1.666l-.646-4.5A.829.829,0,0,0,19.94,0h-6.8a.829.829,0,0,0-.833.714l-.646,4.5A13.061,13.061,0,0,0,8.788,6.885l-4.233-1.7a.963.963,0,0,0-.306-.051.842.842,0,0,0-.731.425l-3.4,5.882a.838.838,0,0,0,.2,1.088l3.587,2.8A13.482,13.482,0,0,0,3.79,17a13.482,13.482,0,0,0,.119,1.666L.322,21.471a.858.858,0,0,0-.2,1.088l3.4,5.882a.849.849,0,0,0,.748.425.794.794,0,0,0,.289-.051l4.233-1.7a12.42,12.42,0,0,0,2.873,1.666l.646,4.5A.829.829,0,0,0,13.14,34h6.8a.829.829,0,0,0,.833-.714l.646-4.5a13.061,13.061,0,0,0,2.873-1.666l4.233,1.7a.963.963,0,0,0,.306.051.842.842,0,0,0,.731-.425l3.4-5.882a.858.858,0,0,0-.2-1.088ZM25.8,15.759A9.083,9.083,0,0,1,25.89,17c0,.357-.034.731-.085,1.241l-.179,1.445a.85.85,0,0,0,.318.772l1.136.894,1.251.973a.85.85,0,0,1,.214,1.1l-.45.778a.85.85,0,0,1-1.052.363l-1.475-.592-1.321-.534a.85.85,0,0,0-.831.11l-1.146.866a9.956,9.956,0,0,1-2.125,1.241L18.8,26.2a.85.85,0,0,0-.522.668l-.2,1.436-.232,1.57A.85.85,0,0,1,17,30.6h-.908a.85.85,0,0,1-.842-.732l-.22-1.563-.2-1.436A.85.85,0,0,0,14.3,26.2l-1.349-.547a9.646,9.646,0,0,1-2.091-1.207L9.7,23.553a.85.85,0,0,0-.838-.114l-1.35.548-1.475.592a.85.85,0,0,1-1.053-.363l-.45-.778a.85.85,0,0,1,.214-1.1L6,21.369l1.136-.894a.85.85,0,0,0,.318-.772l-.179-1.445C7.224,17.731,7.19,17.34,7.19,17s.034-.731.085-1.241l.179-1.445a.85.85,0,0,0-.318-.773L6,12.648l-1.251-.973a.85.85,0,0,1-.214-1.1l.45-.778a.85.85,0,0,1,1.053-.363l1.475.592,1.321.534a.85.85,0,0,0,.831-.11l1.146-.866a9.956,9.956,0,0,1,2.125-1.241L14.284,7.8a.85.85,0,0,0,.522-.668l.2-1.436.233-1.57a.85.85,0,0,1,.841-.725h.891a.85.85,0,0,1,.842.732l.22,1.563.2,1.436a.85.85,0,0,0,.522.668l1.348.547A9.646,9.646,0,0,1,22.2,9.554l1.161.893a.85.85,0,0,0,.838.114l1.35-.548,1.475-.592a.85.85,0,0,1,1.052.363l.454.784a.85.85,0,0,1-.207,1.091l-1.245.989-1.136.893a.85.85,0,0,0-.318.773ZM16.54,10.2a6.8,6.8,0,1,0,6.8,6.8A6.8,6.8,0,0,0,16.54,10.2Zm0,10.2a3.4,3.4,0,1,1,3.4-3.4A3.41,3.41,0,0,1,16.54,20.4Z" fill="#fff" opacity="0.4"/></svg>