<svg xmlns="http://www.w3.org/2000/svg" xmlns:xlink="http://www.w3.org/1999/xlink" width="100.867" height="107.325" viewBox="0 0 100.867 107.325"><defs><filter id="a" x="0" y="0" width="100.867" height="107.325" filterUnits="userSpaceOnUse"><feOffset dy="3" input="SourceAlpha"/><feGaussianBlur stdDeviation="4" result="b"/><feFlood flood-color="#fff"/><feComposite operator="in" in2="b"/><feComposite in="SourceGraphic"/></filter></defs><g transform="matrix(1, 0, 0, 1, 0, 0)" filter="url(#a)"><path d="M18880.121,11698.625a19.147,19.147,0,0,1-19.123-19.116v-44.394a19.147,19.147,0,0,1,19.123-19.116h37.932a19.139,19.139,0,0,1,19.113,19.116v44.394a19.139,19.139,0,0,1-19.113,19.116Zm-16.557-63.51v44.394a16.572,16.572,0,0,0,16.557,16.549h37.932a16.566,16.566,0,0,0,16.549-16.549v-44.394a16.572,16.572,0,0,0-16.549-16.55h-37.932A16.576,16.576,0,0,0,18863.564,11635.115Zm21.42,49.435v-5.937h-5.939v-2.566h5.939v-6.79a19.647,19.647,0,0,1,27.207-26.492l10.336-10.121-8.262-.008v-2.567l12.682.02,0,12.682h-2.566v-8.357l-10.385,10.17a36.208,36.208,0,0,1-26.455,24.679v6.791h5.938v2.566h-5.937v5.932Zm11.559-41.283a15.03,15.03,0,0,1,0,21.984,12.492,12.492,0,1,0,0-21.984Zm-18.469,1.6a12.475,12.475,0,0,0,14.121,20.386,15.022,15.022,0,0,1,0-21.984,12.493,12.493,0,0,0-14.121,1.6Zm11.91,9.4a5.758,5.758,0,1,0,4.383-9.49A12.476,12.476,0,0,0,18889.984,11654.264Z" transform="translate(-18848.65 -11606.65)" fill="#fff" stroke="#fff" stroke-width="0.7"/></g></svg>