<svg xmlns="http://www.w3.org/2000/svg" xmlns:xlink="http://www.w3.org/1999/xlink" width="96.904" height="59.51" viewBox="0 0 96.904 59.51"><defs><linearGradient id="a" x1="0.293" y1="0.475" x2="0.756" y2="0.917" gradientUnits="objectBoundingBox"><stop offset="0" stop-color="#fff"/><stop offset="1" stop-color="#fff" stop-opacity="0"/></linearGradient></defs><g transform="translate(0 -31.49)"><path d="M88.4,31.553A42.015,42.015,0,0,1,91,45.5,45.5,45.5,0,1,1,2.177,31.553C2.4,32,87.8,31.4,88.4,31.553Z" opacity="0.1" fill="url(#a)"/><path d="M37.844,14.491c-.043-.291.156,42.309,0,42.135A28.521,28.521,0,0,1,29,58,29.008,29.008,0,0,1,3.885,14.491C4.2,14.8,37.6,14.6,37.844,14.491Z" transform="translate(59 17)" opacity="0.1" fill="url(#a)"/></g></svg>