<svg xmlns="http://www.w3.org/2000/svg" xmlns:xlink="http://www.w3.org/1999/xlink" width="105.184" height="64.366" viewBox="0 0 105.184 64.366"><defs><linearGradient id="a" x1="0.707" y1="0.475" x2="0.244" y2="0.917" gradientUnits="objectBoundingBox"><stop offset="0" stop-color="#fff"/><stop offset="1" stop-color="#fff" stop-opacity="0"/></linearGradient></defs><g transform="translate(-80.816 -413.634)"><path d="M86.931,26.637A44.978,44.978,0,0,1,91,45.5a45.5,45.5,0,0,1-91,0A53.714,53.714,0,0,1,4,26.637C3.743,26.965,87,26.6,86.931,26.637Z" transform="translate(95 387)" opacity="0.1" fill="url(#a)"/><path d="M50.8,9.877A28.707,28.707,0,0,1,58,29,29,29,0,0,1,11.89,52.417c-.29-.017.4-42.14,0-42.54C11.4,9.477,50.8,10,50.8,9.877Z" transform="translate(69 404)" opacity="0.1" fill="url(#a)"/></g></svg>