<svg xmlns="http://www.w3.org/2000/svg" xmlns:xlink="http://www.w3.org/1999/xlink" width="67.985" height="47.275" viewBox="0 0 67.985 47.275"><defs><linearGradient id="a" x1="0.508" y1="0.99" x2="0.484" y2="0.007" gradientUnits="objectBoundingBox"><stop offset="0" stop-color="#5be7a9"/><stop offset="1" stop-color="#94fbcd"/></linearGradient></defs><g transform="translate(8.935 6.327) rotate(-31)"><path d="M2.074,20.722l12.2-5.421a3.465,3.465,0,0,1,2.824,0l12.2,5.421a3.5,3.5,0,0,1,2.074,3.19V32.1c0,9.675-6.694,18.722-15.689,20.918C6.694,50.827,0,41.78,0,32.1V23.912A3.5,3.5,0,0,1,2.074,20.722Zm19.409,9.211a1.743,1.743,0,1,0-2.873-1.975L9.023,41.9A1.743,1.743,0,0,0,11.9,43.878Zm-9.281.756A3.486,3.486,0,1,1,8.716,27.2,3.486,3.486,0,0,1,12.2,30.689Zm8.716,15.689a3.486,3.486,0,1,0-3.486-3.486A3.486,3.486,0,0,0,20.918,46.377Z" transform="translate(-7.923 8.42) rotate(-25)" fill-rule="evenodd" fill="url(#a)"/><circle cx="2.743" cy="2.743" r="2.743" transform="translate(10.463 17.217) rotate(-25)" fill="#fff"/><circle cx="2.743" cy="2.743" r="2.743" transform="translate(-19.695 15.43) rotate(-25)" fill="#fff"/><path d="M25.4,6.157c-.055,2.991-2.113,9.021-9.907,9.216-9.742.244-11.495,8.086-12.215,10.444" transform="matrix(0.695, 0.719, -0.719, 0.695, 0.446, -3.864)" fill="none" stroke="#5be7a9" stroke-linecap="round" stroke-width="2"/></g></svg>