<svg xmlns="http://www.w3.org/2000/svg" width="31.891" height="31.87" viewBox="0 0 31.891 31.87"><path d="M16.352,3.106a12.424,12.424,0,0,1,1.786,24.721,12.317,12.317,0,0,1-7.112-1.087,3.048,3.048,0,0,0-1.335-.3,3.268,3.268,0,0,0-.87.124L5.234,27.625a.791.791,0,0,1-.978-.978l1.087-3.711a2.9,2.9,0,0,0-.217-2.1A12.417,12.417,0,0,1,16.352,3.106Zm0-3.106A15.534,15.534,0,0,0,.824,15.528,15.692,15.692,0,0,0,2.33,22.19l-2.267,7.7A1.552,1.552,0,0,0,2,31.8l7.7-2.267a15.421,15.421,0,0,0,8.665,1.382A15.523,15.523,0,0,0,16.352,0Z" transform="translate(0)" fill="#c33091"/><path d="M15.87,11H6.553a1.553,1.553,0,1,0,0,3.106H15.87a1.553,1.553,0,0,0,0-3.106Z" transform="translate(2.764 6.081)" fill="#c33091"/><path d="M22.081,8H6.553a1.553,1.553,0,0,0,0,3.106H22.081a1.553,1.553,0,0,0,0-3.106Z" transform="translate(2.764 4.423)" fill="#c33091"/></svg>