<svg xmlns="http://www.w3.org/2000/svg" xmlns:xlink="http://www.w3.org/1999/xlink" width="73" height="45.368" viewBox="0 0 73 45.368"><defs><linearGradient id="a" x1="0.5" x2="0.5" y2="1" gradientUnits="objectBoundingBox"><stop offset="0" stop-color="#fff"/><stop offset="1" stop-color="#ffa5fc" stop-opacity="0"/></linearGradient><filter id="b" x="0" y="0" width="73" height="45.368" filterUnits="userSpaceOnUse"><feOffset dy="3" input="SourceAlpha"/><feGaussianBlur stdDeviation="5" result="c"/><feFlood flood-color="#b5837a" flood-opacity="0.549"/><feComposite operator="in" in2="c"/><feComposite in="SourceGraphic"/></filter></defs><g transform="matrix(1, 0, 0, 1, 0, 0)" filter="url(#b)"><path d="M59.5,174.469l-.025-.154a4.576,4.576,0,0,0-1.8-2.943,7,7,0,0,0-2.058-1,17.764,17.764,0,0,0-3.944-.671l-4.606-.121c-.437.016-.874.027-1.311.051-1.575.091-3.152.178-4.727.288-1.065.078-2.131.2-3.2.307-.652.066-1.3.14-1.953.211l-.146.011a1.834,1.834,0,0,1-.211.051q-1.808.233-3.616.458c-1.735.215-3.472.43-5.208.634-.591.067-1.184.1-1.776.154l-.218.012-1.161.1a11.651,11.651,0,0,1-3.019-.107,4.692,4.692,0,0,1-1.675-.574l-.229-.128a1.409,1.409,0,0,1-.938-1.268v-.511a1.644,1.644,0,0,1,.213-.877c.025-.05.048-.1.071-.151l.218-.355c0-.073.011-.146.018-.218a.043.043,0,0,1-.011-.053l-.144-.165-.071-.016-.153.085-.021-.039.178-.107c-.2-.131-.376-.018-.533.08a1.868,1.868,0,0,0-.911,1.648,3.637,3.637,0,0,0,1.092,2.728.591.591,0,0,0,.437.417.082.082,0,0,0,.05.034.533.533,0,0,0,.387.339.075.075,0,0,0,.048.028h0a2.213,2.213,0,0,0,.257.243,7.1,7.1,0,0,0,3.658,1.186,30.168,30.168,0,0,0,3.822-.08c1.051-.078,2.1-.192,3.152-.3.249-.025.5-.083.742-.126l.218-.018h0l1.1-.135h0l.137-.011.447-.066.281-.023.3-.037.288-.034.295-.041.291-.03.295-.041.355-.041.295-.034.289-.037.295-.036.289-.034.3-.039.288-.03.369-.044.288-.037.3-.036a.273.273,0,0,0-.121-.066.273.273,0,0,1,.121.066l.289-.028.3-.039.433-.048.3-.028.437-.053.291-.025.44-.048h0l.446-.041.281-.028.3-.025.433-.041.3-.03.433-.03.517-.046.213-.016.81-.055.584-.046.511-.027.8-.041.737-.032.8-.025c.107.009.215.027.323.027.748,0,1.5-.016,2.243,0s1.5.043,2.248.069c.446.016.888.039,1.337.06h.131a2.22,2.22,0,0,0,.314.083,12.854,12.854,0,0,1,3.035.662,1.216,1.216,0,0,0,.243.032l.178.071.329.163.408.192.311.25c.2.162.233.263.082.463a1.6,1.6,0,0,1-.469.448,3.552,3.552,0,0,1-.87.355,9.411,9.411,0,0,1-2.864.2c-1.517-.1-3.031-.22-4.548-.321-1.383-.091-2.768-.158-4.152-.252-1.8-.121-3.6-.178-5.4-.135a17.072,17.072,0,0,0-3.649.451,5.627,5.627,0,0,0-1.6.613,1.6,1.6,0,0,0-.469,2.346,5.172,5.172,0,0,0,.694.787,1.89,1.89,0,0,0,1.135.613q1.121.144,2.248.224a16.7,16.7,0,0,1,3.218.451,7.077,7.077,0,0,1,2.859,1.4.871.871,0,0,1,.391.916l.282.245c.128.114.19.2.192.257.424.021.6-.178.543-.582a.6.6,0,0,0-.025-.108,2.825,2.825,0,0,0-.614-1.227,8.249,8.249,0,0,0-5.828-3.093l-.154-.023-2.589-.295h0c-.046-.1.016-.133.091-.154.233-.067.463-.142.7-.194a20.226,20.226,0,0,1,4.228-.371c.144,0,.289-.016.433-.025h0l.43.009h.446l1.243.064h.14q1,.08,2,.156c.448.032.9.051,1.344.089q1.614.131,3.228.27c.726.059,1.454.092,2.177.178a22.885,22.885,0,0,0,3.674.112,10.082,10.082,0,0,0,1.293-.2c.066-.012.121-.087.178-.133h0c.1.046.178.05.22-.073h.178l.178-.067a3.052,3.052,0,0,0,.327-.154,1.79,1.79,0,0,0,.968-1.625Zm-16.895-2.486h0c.027-.012.051-.03.078-.044-.027.011-.051.028-.078.041Zm-.978-.318-.062-.027ZM31.135,173.15h0l-.355.069h0l.355-.069,1.8-.208Zm8.556-.746a.96.96,0,0,0-.025-.139c.009.053.018.1.025.139h0Zm7.746-.71H47.5a.976.976,0,0,1,.009-.16.954.954,0,0,1-.009.16Zm7.3,4.072H54.67a1.868,1.868,0,0,1-.408.08,1.868,1.868,0,0,0,.408-.08Zm1.827-.373a.266.266,0,0,1,.261-.178.266.266,0,0,0-.261.178l-1.525.245Zm-1.762.243.011.123h0ZM35.67,177.122a.89.89,0,0,0-.075.067.89.89,0,0,1,.075-.067,1.9,1.9,0,0,1,.888-.293l1.083-.19h0l-1.083.19a1.9,1.9,0,0,0-.891.293Z" transform="translate(-1.54 -155.32)" opacity="0.44" fill="url(#a)"/></g></svg>