<svg xmlns="http://www.w3.org/2000/svg" xmlns:xlink="http://www.w3.org/1999/xlink" width="66.444" height="23.747" viewBox="0 0 66.444 23.747"><defs><linearGradient id="a" x1="0.5" x2="0.5" y2="1" gradientUnits="objectBoundingBox"><stop offset="0" stop-color="#c33091"/><stop offset="1" stop-color="#ffa5fc"/></linearGradient></defs><path d="M82.928,178.369l-.038-.239a7.071,7.071,0,0,0-2.782-4.547,10.811,10.811,0,0,0-3.18-1.542A27.451,27.451,0,0,0,70.833,171l-7.118-.187c-.675.025-1.35.041-2.025.08-2.434.14-4.871.274-7.3.445-1.646.121-3.293.31-4.939.475-1.007.1-2.014.217-3.018.327l-.225.016a2.829,2.829,0,0,1-.327.08q-2.793.359-5.587.708c-2.681.332-5.364.664-8.048.98-.914.1-1.83.159-2.744.239l-.338.019-1.795.151a18,18,0,0,1-4.665-.165,7.249,7.249,0,0,1-2.588-.886l-.354-.2a2.177,2.177,0,0,1-1.449-1.959v-.79a2.541,2.541,0,0,1,.329-1.356c.038-.077.074-.156.11-.233l.338-.549c0-.113.016-.225.027-.338a.066.066,0,0,1-.016-.082l-.222-.255-.11-.025-.236.132-.033-.06.274-.165c-.31-.2-.582-.027-.823.123a2.887,2.887,0,0,0-1.408,2.546,5.62,5.62,0,0,0,1.688,4.215.914.914,0,0,0,.675.645.126.126,0,0,0,.077.052.823.823,0,0,0,.6.524.115.115,0,0,0,.074.044h0a3.419,3.419,0,0,0,.4.376,10.976,10.976,0,0,0,5.653,1.833,46.615,46.615,0,0,0,5.905-.123c1.624-.121,3.246-.3,4.871-.458.384-.038.766-.129,1.147-.195l.338-.027h0l1.707-.209h0l.211-.016.691-.1.434-.036.461-.058.445-.052.455-.063.45-.047.456-.063.549-.063.455-.052.447-.058.455-.055.447-.052.458-.06.445-.047.571-.069.445-.058.458-.055a.422.422,0,0,0-.187-.1.422.422,0,0,1,.187.1l.447-.044.458-.06.67-.074.458-.044.675-.082.45-.038.681-.074h0l.689-.063.434-.044.469-.038.67-.063.461-.047.67-.047.8-.071.329-.025,1.251-.085.9-.071.79-.041,1.232-.063,1.139-.049,1.238-.038c.165.014.332.041.5.041,1.155,0,2.31-.025,3.466,0s2.316.066,3.474.107c.689.025,1.372.06,2.066.093h.2a3.429,3.429,0,0,0,.486.129,19.861,19.861,0,0,1,4.689,1.024,1.879,1.879,0,0,0,.376.049l.274.11.508.252.631.3.48.387c.3.25.359.406.126.716a2.469,2.469,0,0,1-.724.691,5.489,5.489,0,0,1-1.345.549,14.543,14.543,0,0,1-4.426.3c-2.343-.148-4.684-.34-7.027-.5-2.138-.14-4.278-.244-6.415-.39-2.777-.187-5.557-.274-8.342-.209a26.381,26.381,0,0,0-5.639.7,8.7,8.7,0,0,0-2.47.947,2.468,2.468,0,0,0-.724,3.625,7.993,7.993,0,0,0,1.073,1.216,2.92,2.92,0,0,0,1.753.947q1.731.222,3.474.346a25.808,25.808,0,0,1,4.972.7,10.936,10.936,0,0,1,4.418,2.157,1.345,1.345,0,0,1,.6,1.416l.436.379c.2.176.294.307.3.4.656.033.933-.274.84-.9a.921.921,0,0,0-.038-.167,4.366,4.366,0,0,0-.949-1.9,12.747,12.747,0,0,0-9.006-4.78l-.239-.036-4-.456h0c-.071-.148.025-.206.14-.239.359-.1.716-.22,1.081-.3a31.251,31.251,0,0,1,6.533-.573c.222,0,.447-.025.67-.038h0l.664.014h.689l1.921.1h.217q1.545.123,3.084.241c.691.049,1.386.08,2.077.137q2.494.2,4.989.417c1.122.091,2.247.143,3.364.274a35.362,35.362,0,0,0,5.677.173,15.584,15.584,0,0,0,2-.316c.1-.019.187-.134.274-.206h0c.148.071.274.077.34-.113h.274l.274-.1a4.717,4.717,0,0,0,.5-.239,2.766,2.766,0,0,0,1.5-2.511Zm-26.106-3.842h0c.041-.019.08-.047.121-.069-.041.016-.08.044-.121.063Zm-1.512-.491-.1-.041Zm-16.217,2.294h0l-.549.107h0l.549-.107,2.774-.321Zm13.22-1.152a1.483,1.483,0,0,0-.038-.214c.014.082.027.148.038.214h0Zm11.969-1.1h.1a1.507,1.507,0,0,1,.014-.247,1.474,1.474,0,0,1-.014.247Zm11.275,6.292h-.1a2.884,2.884,0,0,1-.631.123,2.884,2.884,0,0,0,.631-.123Zm2.824-.576a.412.412,0,0,1,.4-.274.412.412,0,0,0-.4.274l-2.357.379Zm-2.722.376.016.189h0Zm-29.558,2.3a1.375,1.375,0,0,0-.115.1,1.375,1.375,0,0,1,.115-.1,2.928,2.928,0,0,1,1.372-.453l1.674-.294h0l-1.674.294a2.932,2.932,0,0,0-1.377.453Z" transform="translate(-16.537 -167.315)" fill="url(#a)"/></svg>