<svg xmlns="http://www.w3.org/2000/svg" width="29.773" height="29.771" viewBox="0 0 29.773 29.771"><path d="M20817.313-11187.3c-2.328,0-3.344-.032-4.086-.057h-.035c-.463-.016-.9-.03-1.477-.03a11.172,11.172,0,0,1-3.719-.713,8.254,8.254,0,0,1-2.891-1.877,8.269,8.269,0,0,1-1.875-2.888,11.2,11.2,0,0,1-.715-3.723c-.09-1.458-.09-1.929-.09-5.6s0-4.137.09-5.6a11.155,11.155,0,0,1,.715-3.72,8.257,8.257,0,0,1,1.875-2.89,8.252,8.252,0,0,1,2.891-1.875,11.163,11.163,0,0,1,3.719-.715c1.445-.089,1.918-.089,5.6-.089s4.154,0,5.6.089a11.2,11.2,0,0,1,3.723.715,8.362,8.362,0,0,1,2.887,1.875,8.236,8.236,0,0,1,1.877,2.89,11.175,11.175,0,0,1,.713,3.72c.09,1.461.09,1.932.09,5.6,0,2.282-.035,3.322-.059,4.082l0,.08c-.014.474-.027.883-.027,1.435a11.216,11.216,0,0,1-.713,3.723,8.2,8.2,0,0,1-1.877,2.888,8.353,8.353,0,0,1-2.887,1.877,11.214,11.214,0,0,1-3.723.713C20821.467-11187.3,20820.992-11187.3,20817.313-11187.3Zm0-26.793a43.4,43.4,0,0,0-5.449.148,8.495,8.495,0,0,0-2.783.537,4.931,4.931,0,0,0-1.861,1.2,4.968,4.968,0,0,0-1.2,1.846,8.634,8.634,0,0,0-.535,2.785v10.926a8.45,8.45,0,0,0,.535,2.77,4.886,4.886,0,0,0,1.2,1.86,5.091,5.091,0,0,0,1.861,1.222,8.932,8.932,0,0,0,2.783.521h5.436c2.27,0,3.287-.029,4.029-.052l.213,0h.029c.393-.01.73-.018,1.176-.018a8.555,8.555,0,0,0,2.785-.537,4.882,4.882,0,0,0,1.859-1.207,5.09,5.09,0,0,0,1.223-1.859,8.917,8.917,0,0,0,.518-2.77h.092c0-.472.008-.828.018-1.242v-.029l.006-.178v-.035c.023-.8.051-1.8.051-3.979,0-2.148-.027-3.133-.051-3.923v-.046l0-.17c-.012-.458-.02-.821-.02-1.324a8.612,8.612,0,0,0-.609-2.842,4.938,4.938,0,0,0-1.207-1.863,4.942,4.942,0,0,0-1.848-1.2,8.654,8.654,0,0,0-2.8-.537Zm0,19.352a7.492,7.492,0,0,1-1.451-.144,7.393,7.393,0,0,1-3.811-2.037,7.428,7.428,0,0,1-2.039-3.812,7.425,7.425,0,0,1,.426-4.3,7.412,7.412,0,0,1,2.738-3.34,7.424,7.424,0,0,1,4.137-1.256,7.432,7.432,0,0,1,2.85.566,7.389,7.389,0,0,1,2.414,1.613,7.406,7.406,0,0,1,2.18,5.264,7.425,7.425,0,0,1-1.256,4.137,7.427,7.427,0,0,1-3.336,2.741A7.448,7.448,0,0,1,20817.313-11194.744Zm0-11.908a4.475,4.475,0,0,0-.875.086,4.443,4.443,0,0,0-2.287,1.221,4.427,4.427,0,0,0-1.221,2.287,4.421,4.421,0,0,0,.254,2.58,4.425,4.425,0,0,0,1.645,2,4.444,4.444,0,0,0,2.48.754,4.481,4.481,0,0,0,3.156-1.309,4.486,4.486,0,0,0,1.313-3.158,4.454,4.454,0,0,0-.754-2.479,4.449,4.449,0,0,0-2.008-1.646A4.389,4.389,0,0,0,20817.316-11206.652Zm7.441-1.489a1.567,1.567,0,0,1-.293-.028,1.486,1.486,0,0,1-.762-.408,1.5,1.5,0,0,1-.408-.762,1.513,1.513,0,0,1,.084-.859,1.537,1.537,0,0,1,.549-.67,1.494,1.494,0,0,1,.828-.25,1.493,1.493,0,0,1,1.053.436,1.5,1.5,0,0,1,.436,1.053,1.493,1.493,0,0,1-.252.827,1.449,1.449,0,0,1-.666.548A1.448,1.448,0,0,1,20824.758-11208.142Z" transform="translate(-20802.426 11217.073)" fill="#707070" opacity="0.5"/></svg>