<svg width="25" height="24" viewBox="0 0 25 24" fill="none" xmlns="http://www.w3.org/2000/svg">
<path fill-rule="evenodd" clip-rule="evenodd" d="M13.2394 21H16.5371C18.4491 21 20.1157 19.7508 20.5794 17.9701L22.2682 11.4851C22.597 10.2228 21.6025 9 20.2471 9H15.1029L16.4642 6.75968C17.4769 5.09303 16.2246 3 14.2148 3H13.0195L8.99013 9.76943C8.90019 9.92052 8.85288 10.0915 8.85288 10.2656V18.4648C8.85288 18.7992 9.02695 19.1114 9.31674 19.2969L10.9282 20.3282C11.6126 20.7662 12.4168 21 13.2394 21ZM4.16536 9H5.20703C6.35762 9 7.29036 9.89543 7.29036 11V18C7.29036 19.1046 6.35762 20 5.20703 20H4.16536C3.01477 20 2.08203 19.1046 2.08203 18V11C2.08203 9.89543 3.01477 9 4.16536 9Z" fill="#C43092"/>
</svg>
