<svg xmlns="http://www.w3.org/2000/svg" width="34.601" height="34.6" viewBox="0 0 34.601 34.6"><path d="M-5898,19197.3a17.3,17.3,0,0,1,17.3-17.3,17.3,17.3,0,0,1,17.3,17.3,17.3,17.3,0,0,1-17.3,17.3A17.305,17.305,0,0,1-5898,19197.3Zm3.848,0a13.47,13.47,0,0,0,13.453,13.457,13.471,13.471,0,0,0,13.458-13.457,13.473,13.473,0,0,0-13.458-13.459A13.472,13.472,0,0,0-5894.154,19197.3Zm8.738,7.063a6.612,6.612,0,0,1-1.942-4.707c0-1.488.751-3.484,2.229-5.939a46.019,46.019,0,0,1,3.578-5.012,1.1,1.1,0,0,1,.854-.412,1.1,1.1,0,0,1,.85.412,46.253,46.253,0,0,1,3.578,5.021c1.483,2.445,2.229,4.445,2.229,5.93a6.649,6.649,0,0,1-1.964,4.707,6.616,6.616,0,0,1-4.706,1.941A6.624,6.624,0,0,1-5885.417,19204.367Z" transform="translate(5898.002 -19180.006)" fill="#707070" opacity="0.55"/></svg>