<svg xmlns="http://www.w3.org/2000/svg" xmlns:xlink="http://www.w3.org/1999/xlink" width="130.189" height="146.179" viewBox="0 0 130.189 146.179"><defs><filter id="a" x="0" y="0" width="130.189" height="146.179" filterUnits="userSpaceOnUse"><feOffset dy="3" input="SourceAlpha"/><feGaussianBlur stdDeviation="4" result="b"/><feFlood flood-color="#fff"/><feComposite operator="in" in2="b"/><feComposite in="SourceGraphic"/></filter></defs><g transform="matrix(1, 0, 0, 1, 0, 0)" filter="url(#a)"><path d="M89.41,12.721A51.1,51.1,0,0,0,56.1,0C42.291,0,28.224,6.224,19.39,16.242c-7.138,8.1-10.15,17.873-8.49,27.529l1.226,7.1c-.076,3.348-2.95,7.3-5.734,11.111-3.154,4.333-6.417,8.8-6.4,13.3.026,5.93,5.288,6.18,8.433,6.336,3.235.16,3.78.433,3.872,1.232L14.05,97.927c.474,4.059,5.027,6.666,11.9,6.8h.486c3.927.071,6.3.114,7.51,1.234,1.271,1.17,1.94,4,2.307,9.766.19,2.965,1.835,4.449,4.895,4.449H84.271a4.69,4.69,0,0,0,4.783-4.529c.536-27.367,5.67-37.728,9.794-46.068,2.86-5.777,5.331-10.767,5.331-19.511V43.493C104.179,32.047,98.934,21.118,89.41,12.721ZM73.522,46.57a1.832,1.832,0,0,0-2.514,0L60.192,56.979v-26h0a1.7,1.7,0,0,0-.85-1.589,1.844,1.844,0,0,0-1.858,0,1.7,1.7,0,0,0-.85,1.589V45.97l-4.98-4.789a1.809,1.809,0,0,0-2.9.554,1.667,1.667,0,0,0,.382,1.866l7.489,7.2V67.971l-4.98-4.789a1.8,1.8,0,0,0-1.252-.5,1.779,1.779,0,0,0-1.646,1.052,1.661,1.661,0,0,0,.385,1.865l7.489,7.2v9.656c-10.451-.878-21.041-9.49-21.041-27.26A42.935,42.935,0,0,1,56.427,18.409L57.143,18a14.774,14.774,0,0,1,1.285-.748,14.173,14.173,0,0,1,1.25.725l.728.456A42.955,42.955,0,0,1,81.253,55.223c0,17.77-10.591,26.384-21.044,27.26V61.8l13.33-12.826a1.654,1.654,0,0,0-.012-2.408Zm27.1,3.517c0,7.971-2.2,12.413-4.98,18.04-4.269,8.63-9.59,19.369-10.14,47.464a1.214,1.214,0,0,1-1.226,1.177H60.2v-9.382l15-14.423a1.665,1.665,0,0,0,0-2.42,1.83,1.83,0,0,0-2.516,0L60.2,102.545V85.9a24.913,24.913,0,0,0,16.446-7.754C81.978,72.544,84.8,64.612,84.8,55.2a45.976,45.976,0,0,0-6.182-23.016A47.537,47.537,0,0,0,62.3,15.524c-.261-.157-.5-.3-.711-.436A5.979,5.979,0,0,0,58.416,13.8c-1.077,0-1.883.495-3.208,1.314l-.673.424A47.525,47.525,0,0,0,38.221,32.2a45.976,45.976,0,0,0-6.185,23.016c0,9.407,2.82,17.333,8.155,22.938a24.913,24.913,0,0,0,16.443,7.754v16.721l-12.362-11.9a1.83,1.83,0,0,0-2.47.042,1.664,1.664,0,0,0-.044,2.376l14.876,14.313v9.3H41.148c-1.1,0-1.264,0-1.342-1.238-.446-6.981-1.335-10.128-3.4-12.028-2.22-2.041-5.276-2.1-9.9-2.183H26.03c-3.991-.08-8.146-1.275-8.433-3.763L15.833,82.467c-.458-3.934-4.532-4.135-7.228-4.267-3.97-.2-5.056-.584-5.056-2.94C3.535,71.853,6.468,67.83,9.3,63.939c3.135-4.3,6.379-8.753,6.379-13.207a1.6,1.6,0,0,0-.026-.28l-1.25-7.245c-1.489-8.641,1.235-17.435,7.7-24.751,8.177-9.273,21.2-15.034,34-15.034,23.714,0,44.523,18.726,44.523,40.072Z" transform="translate(13.01 10)" fill="#707070" stroke="#707070" stroke-width="2" opacity="0.1"/></g></svg>