<svg xmlns="http://www.w3.org/2000/svg" xmlns:xlink="http://www.w3.org/1999/xlink" width="36.273" height="57" viewBox="0 0 36.273 57"><defs><linearGradient id="a" x1="0.5" x2="0.5" y2="1" gradientUnits="objectBoundingBox"><stop offset="0" stop-color="#7c73e6"/><stop offset="1" stop-color="#b2abff"/></linearGradient></defs><path d="M36.091,1H10.182A5.2,5.2,0,0,0,5,6.182V52.818A5.2,5.2,0,0,0,10.182,58H36.091a5.2,5.2,0,0,0,5.182-5.182V6.182A5.2,5.2,0,0,0,36.091,1ZM33.5,50.636H12.773a2.6,2.6,0,0,1-2.591-2.591V10.955a2.6,2.6,0,0,1,2.591-2.591H33.5a2.6,2.6,0,0,1,2.591,2.591V48.045A2.6,2.6,0,0,1,33.5,50.636Z" transform="translate(-5 -1)" fill="url(#a)"/><path d="M26.136,6H10.591a2.591,2.591,0,0,0,0,5.182H26.136a2.591,2.591,0,0,0,0-5.182Z" transform="translate(-0.227 34.955)" fill="url(#a)"/></svg>