<svg xmlns="http://www.w3.org/2000/svg" xmlns:xlink="http://www.w3.org/1999/xlink" width="104.141" height="148.169" viewBox="0 0 104.141 148.169"><defs><filter id="a" x="0" y="0" width="104.141" height="148.169" filterUnits="userSpaceOnUse"><feOffset dy="3" input="SourceAlpha"/><feGaussianBlur stdDeviation="4" result="b"/><feFlood flood-color="#fff"/><feComposite operator="in" in2="b"/><feComposite in="SourceGraphic"/></filter><filter id="c" x="26.585" y="76.516" width="52.508" height="50.162" filterUnits="userSpaceOnUse"><feOffset dy="3" input="SourceAlpha"/><feGaussianBlur stdDeviation="4" result="d"/><feFlood flood-color="#fff"/><feComposite operator="in" in2="d"/><feComposite in="SourceGraphic"/></filter></defs><g transform="translate(-6261.931 -558.968)" opacity="0.1"><g transform="matrix(1, 0, 0, 1, 6261.93, 558.97)" filter="url(#a)"><path d="M78.141,79.757A44.453,44.453,0,0,0,68.5,51.883,38.878,38.878,0,0,0,49.53,38.915a20.732,20.732,0,0,0,8.8-15.739,1.575,1.575,0,0,0,.017-.19.263.263,0,0,0,0-.044c.027-.432.044-.866.044-1.3C58.394,10.368,49.877,1.2,39.406,1.2a17.761,17.761,0,0,0-7.671,1.749A9.105,9.105,0,0,0,29.2,1.009C24.471-1.43,18.5.7,15.9,5.756s-.873,11.154,3.861,13.591a6.4,6.4,0,0,0,.754.341c-.054.617-.085,1.241-.088,1.873h0v.076a20.86,20.86,0,0,0,8.661,17.139C12.2,43.608,0,60.357,0,79.757c0,23.366,17.527,42.379,39.072,42.379a36.1,36.1,0,0,0,11.417-1.846h.024a1.856,1.856,0,0,0,.31-.107C66.638,114.758,78.141,98.687,78.141,79.757ZM54.726,20.895c-7.117-1.22-11.881-7.415-11.93-7.481a1.832,1.832,0,0,0-2.907-.029c-4.073,5.207-12.083,6.212-15.715,6.393.849-8.381,7.354-14.92,15.232-14.92,8.225,0,14.954,7.127,15.313,16.034ZM19.149,7.431C20.83,4.17,24.588,2.748,27.525,4.26a5.549,5.549,0,0,1,.988.654,20.53,20.53,0,0,0-7.342,11.039C18.432,14.348,17.517,10.6,19.149,7.431Zm5.02,16.017c3.742-.156,11.864-1.107,17.127-6.183,2.22,2.332,6.883,6.378,13.2,7.3-1.271,7.859-7.561,13.847-15.091,13.847C31.513,38.415,25,31.851,24.169,23.449Zm25.366,93.307c-.576.115-3.022.5-4.524-.976a5.116,5.116,0,0,1-.9-5.012c.561-1.756,1.854-2.376,4.722-3.607a31.983,31.983,0,0,0,8.234-4.737,26.459,26.459,0,0,0,9.447-14.839A24.6,24.6,0,0,0,64.5,72.242l-.029-.056a6.751,6.751,0,0,0,.768-4.449,8.587,8.587,0,0,0-2.837-4.39A13.7,13.7,0,0,1,58.987,58.6a13.2,13.2,0,0,1-.937-3.968,1.835,1.835,0,0,0-3.659.278A16.856,16.856,0,0,0,55.6,60,17.045,17.045,0,0,0,59.8,65.947c1.068,1.071,1.681,1.707,1.834,2.5.332,1.707-1.5,4.261-5.142,7.2a1.829,1.829,0,1,0,2.285,2.844,31.705,31.705,0,0,0,3.146-2.868,20.27,20.27,0,0,1,.976,11.22,22.83,22.83,0,0,1-8.181,12.747A28.351,28.351,0,0,1,47.36,103.8c-2.915,1.251-5.666,2.439-6.761,5.854-.832,2.607-.607,6.268,1.737,8.647a32.5,32.5,0,0,1-3.283.168c-16.981,0-31.206-13.137-34.635-30.6A10.464,10.464,0,0,0,9.3,89.2h.22c5.146-.154,7.876-4.422,8.168-4.9,6.4-10.508,12.727-13.737,15.932-14.727a4.917,4.917,0,0,0,3.124-3.249,7.073,7.073,0,0,0-.954-6.264,7.671,7.671,0,0,0-3.907-2.742c-6.756-2.078-15.1,5.773-17.488,8.232A1.829,1.829,0,0,0,17.01,68.1c3.212-3.3,9.732-8.537,13.8-7.3a4.1,4.1,0,0,1,2.012,1.383,3.415,3.415,0,0,1,.468,2.971,1.383,1.383,0,0,1-.732.924C28.857,67.223,21.6,70.864,14.578,82.4a6.775,6.775,0,0,1-5.151,3.149c-1.963.061-4.846-1.4-5.693-3.373-.044-.8-.071-1.61-.071-2.424,0-19.4,13.23-35.889,30.786-38.393a17.7,17.7,0,0,0,9.7.068c17.313,2.717,30.33,19.161,30.33,38.328,0,17.371-10.517,32.108-24.957,37Z" transform="translate(13 10.03)" fill="#707070" stroke="#707070" stroke-width="2"/></g><g transform="matrix(1, 0, 0, 1, 6261.93, 558.97)" filter="url(#c)"><path d="M133.214,316.158a7.958,7.958,0,0,0-5.924-2.578,7.537,7.537,0,0,0-4.71,1.622c-.112.085-.224.178-.334.271-.107-.093-.22-.185-.332-.271a7.542,7.542,0,0,0-4.71-1.622,7.954,7.954,0,0,0-5.917,2.578,8.961,8.961,0,0,0-2.29,6.12,10.378,10.378,0,0,0,2.683,6.737,49.326,49.326,0,0,0,5.9,5.551c.781.666,1.666,1.42,2.583,2.222a3.171,3.171,0,0,0,4.176,0c.91-.793,1.788-1.544,2.566-2.2l.02-.02a49.324,49.324,0,0,0,5.9-5.549,10.375,10.375,0,0,0,2.683-6.737,8.974,8.974,0,0,0-2.3-6.12Zm-3.207,10.52a47.31,47.31,0,0,1-5.451,5.1l-.024.019c-.693.59-1.463,1.249-2.278,1.951-.82-.712-1.6-1.378-2.3-1.976a47.062,47.062,0,0,1-5.449-5.1,6.7,6.7,0,0,1-1.846-4.39,5.315,5.315,0,0,1,1.329-3.639,4.337,4.337,0,0,1,3.227-1.4,3.9,3.9,0,0,1,2.471.856,5.61,5.61,0,0,1,1.09,1.142,1.827,1.827,0,0,0,2.963,0,5.66,5.66,0,0,1,1.088-1.142,3.919,3.919,0,0,1,2.466-.863,4.339,4.339,0,0,1,3.227,1.4,5.327,5.327,0,0,1,1.329,3.639A6.645,6.645,0,0,1,130.007,326.677Z" transform="translate(-69.41 -227.06)" fill="#707070" stroke="#707070" stroke-width="2"/></g></g></svg>