<svg xmlns="http://www.w3.org/2000/svg" xmlns:xlink="http://www.w3.org/1999/xlink" width="31.643" height="35.098" viewBox="0 0 31.643 35.098"><defs><linearGradient id="a" x1="0.5" x2="0.5" y2="1" gradientUnits="objectBoundingBox"><stop offset="0" stop-color="#c33091"/><stop offset="1" stop-color="#ffa5fc"/></linearGradient></defs><path d="M-18985.639,19176.1a3.386,3.386,0,0,1-3.363-3.393v-25.164a3.385,3.385,0,0,1,3.363-3.4h1.311v-1.338a1.809,1.809,0,0,1,1.809-1.8,1.805,1.805,0,0,1,1.8,1.8v1.338h15.068v-1.338a1.809,1.809,0,0,1,1.809-1.8,1.805,1.805,0,0,1,1.8,1.8v1.338h1.311a3.385,3.385,0,0,1,3.363,3.4v25.164a3.386,3.386,0,0,1-3.363,3.393Zm.25-5.471a1.835,1.835,0,0,0,1.83,1.828h20.756a1.829,1.829,0,0,0,1.828-1.828v-14.973h-24.414Zm0-21.879v2.3a.961.961,0,0,0,.963.957h22.49a.959.959,0,0,0,.961-.957v-2.3a.959.959,0,0,0-.961-.957h-22.49A.961.961,0,0,0-18985.389,19148.75Zm13.938,20.43a1.977,1.977,0,0,1-1.977-1.979v-5.187a1.981,1.981,0,0,1,1.977-1.982h5.193a1.986,1.986,0,0,1,1.979,1.982v5.188a1.981,1.981,0,0,1-1.979,1.979Z" transform="translate(18989.002 -19141.002)" fill="url(#a)"/></svg>