<svg xmlns="http://www.w3.org/2000/svg" xmlns:xlink="http://www.w3.org/1999/xlink" width="33.36" height="34.6" viewBox="0 0 33.36 34.6"><defs><linearGradient id="a" x1="0.5" x2="0.5" y2="1" gradientUnits="objectBoundingBox"><stop offset="0" stop-color="#7c73e6"/><stop offset="1" stop-color="#b2abff"/></linearGradient></defs><path d="M23.449,22.793l-5.894-3.5V11.372A1.254,1.254,0,0,0,16.3,10.112h-.1a1.254,1.254,0,0,0-1.259,1.259v8.256a1.732,1.732,0,0,0,.857,1.5l6.384,3.831a1.258,1.258,0,1,0,1.277-2.169ZM32.737,4.882,27.35.4A1.751,1.751,0,0,0,25.111,3.1l5.37,4.478a1.757,1.757,0,0,0,2.256-2.694ZM2.862,7.576,8.232,3.1A1.735,1.735,0,0,0,8.459.632,1.729,1.729,0,0,0,6.011.4L.623,4.882a1.749,1.749,0,0,0-.21,2.466A1.729,1.729,0,0,0,2.862,7.576ZM16.68,3.116A15.742,15.742,0,1,0,32.422,18.858,15.743,15.743,0,0,0,16.68,3.116Zm0,27.986A12.244,12.244,0,1,1,28.924,18.858,12.257,12.257,0,0,1,16.68,31.1Z" fill="url(#a)"/></svg>