<svg width="360" height="59" viewBox="0 0 360 59" fill="none" xmlns="http://www.w3.org/2000/svg">
<circle cx="179.471" cy="32.283" r="26.717" fill="#FFE3F6"/>
<path d="M165.766 34C165.919 34.2982 166.002 34.58 166.017 34.8455L166.022 34.9218C166.022 35.1582 165.975 35.3818 165.881 35.5927C165.786 35.8036 165.639 35.9982 165.439 36.1764C165.239 36.3545 165.002 36.5036 164.73 36.6236C164.457 36.7473 164.153 36.8418 163.819 36.9073C163.484 36.9764 163.131 37.0109 162.761 37.0109H161.206C160.631 37.0109 160.115 36.8855 159.657 36.6345C159.199 36.3836 158.824 36.0364 158.533 35.5927C158.337 35.28 158.197 34.9327 158.113 34.5509C158.048 34.2564 158.015 33.9473 158.015 33.6236C158.015 33.5291 158.022 33.3509 158.037 33.0891C158.051 32.8236 158.126 32.4527 158.261 31.9764C158.399 31.5 158.591 31.0073 158.839 30.4982L159.755 30.9455C159.348 31.8036 159.117 32.58 159.062 33.2745C159.055 33.3909 159.051 33.5036 159.051 33.6127C159.051 34.1655 159.173 34.64 159.417 35.0364C159.602 35.3382 159.85 35.5691 160.159 35.7291C160.471 35.8891 160.821 35.9691 161.206 35.9691H162.761C162.964 35.9691 163.164 35.9527 163.361 35.92C163.557 35.8909 163.741 35.8491 163.911 35.7945C164.082 35.74 164.237 35.6745 164.375 35.5982C164.513 35.5255 164.628 35.4436 164.719 35.3527C164.813 35.2618 164.879 35.1636 164.915 35.0582C164.937 35.0036 164.948 34.9491 164.948 34.8945C164.948 34.8436 164.939 34.7927 164.921 34.7418C164.877 34.6 164.775 34.48 164.615 34.3818C164.455 34.2873 164.262 34.2109 164.037 34.1527C163.811 34.0982 163.568 34.0582 163.306 34.0327C163.044 34.0109 162.791 34 162.548 34L162.586 32.9691H167.288V34H165.766ZM168.338 29.56C168.345 29.5818 168.359 29.64 168.381 29.7345C168.403 29.8291 168.427 29.9473 168.452 30.0891C168.481 30.2273 168.512 30.3818 168.545 30.5527C168.578 30.72 168.607 30.8909 168.632 31.0655C168.658 31.2364 168.679 31.4018 168.698 31.5618C168.716 31.7218 168.725 31.8618 168.725 31.9818C168.725 32.3309 168.667 32.6327 168.55 32.8873C168.438 33.1382 168.289 33.3473 168.103 33.5145C167.921 33.6782 167.716 33.8 167.487 33.88C167.258 33.96 167.027 34 166.794 34H165.403V32.9691H166.794C166.849 32.9691 166.925 32.9618 167.023 32.9473C167.125 32.9291 167.225 32.8873 167.323 32.8218C167.425 32.7564 167.512 32.6582 167.585 32.5273C167.661 32.3964 167.699 32.2145 167.699 31.9818C167.699 31.9018 167.692 31.8018 167.678 31.6818C167.667 31.5582 167.65 31.4273 167.629 31.2891C167.61 31.1473 167.589 31.0036 167.563 30.8582C167.538 30.7091 167.512 30.5691 167.487 30.4382C167.461 30.3073 167.438 30.1909 167.416 30.0891C167.394 29.9873 167.376 29.9109 167.361 29.86L168.338 29.56ZM166.538 27.3073L167.465 26.3691L168.414 27.3182L167.476 28.2564L166.538 27.3073ZM170.047 35.98C170.596 35.98 171.058 35.9382 171.433 35.8545C171.807 35.7709 172.104 35.6418 172.322 35.4673C172.511 35.3145 172.649 35.12 172.736 34.8836C172.827 34.6473 172.873 34.3527 172.873 34H171.869C171.615 34 171.356 33.9618 171.095 33.8855C170.833 33.8091 170.595 33.6836 170.38 33.5091C170.169 33.3345 169.996 33.1073 169.862 32.8273C169.727 32.5436 169.66 32.1982 169.66 31.7909C169.66 31.5509 169.68 31.3345 169.72 31.1418C169.764 30.9455 169.816 30.7709 169.878 30.6182C169.944 30.4655 170.015 30.3327 170.091 30.22C170.167 30.1073 170.242 30.0109 170.315 29.9309C170.515 29.7309 170.744 29.5764 171.002 29.4673C171.26 29.3582 171.536 29.3036 171.831 29.3036C172.089 29.3036 172.331 29.3436 172.556 29.4236C172.782 29.5036 172.984 29.6236 173.162 29.7836C173.653 30.2418 173.898 30.96 173.898 31.9382V32.9691H174.716V34H173.898C173.898 34.5164 173.822 34.96 173.669 35.3309C173.52 35.7055 173.287 36.0182 172.971 36.2691C172.651 36.52 172.253 36.7055 171.776 36.8255C171.304 36.9491 170.727 37.0109 170.047 37.0109V35.98ZM171.776 30.3345C171.416 30.3345 171.136 30.4618 170.936 30.7164C170.736 30.9709 170.636 31.3291 170.636 31.7909C170.636 32.26 170.778 32.5855 171.062 32.7673C171.131 32.8109 171.202 32.8473 171.275 32.8764C171.347 32.9018 171.418 32.9218 171.487 32.9364C171.556 32.9473 171.618 32.9564 171.673 32.9636C171.731 32.9673 171.778 32.9691 171.815 32.9691H172.818V31.9382C172.818 31.6727 172.798 31.4491 172.758 31.2673C172.718 31.0818 172.667 30.9291 172.605 30.8091C172.544 30.6891 172.473 30.5982 172.393 30.5364C172.316 30.4709 172.24 30.4236 172.164 30.3945C172.087 30.3655 172.015 30.3491 171.945 30.3455C171.876 30.3382 171.82 30.3345 171.776 30.3345ZM179.974 32.9691V34H179.019C178.688 34 178.395 33.9527 178.141 33.8582C177.89 33.7636 177.688 33.6218 177.535 33.4327C177.157 33.8109 176.597 34 175.855 34H174.001V32.9691H175.855C176.117 32.9691 176.325 32.9436 176.477 32.8927C176.63 32.8382 176.745 32.7727 176.821 32.6964C176.901 32.6164 176.952 32.5291 176.974 32.4345C176.999 32.3364 177.012 32.2436 177.012 32.1564V30.3127H178.037V32.1182C178.037 32.2527 178.057 32.3673 178.097 32.4618C178.141 32.5564 178.194 32.6364 178.255 32.7018C178.317 32.7636 178.386 32.8127 178.463 32.8491C178.543 32.8855 178.619 32.9127 178.692 32.9309C178.765 32.9491 178.83 32.96 178.888 32.9636C178.946 32.9673 178.99 32.9691 179.019 32.9691H179.974ZM178.206 28.9818L177.345 28.1091L178.195 27.2255L179.079 28.1091L178.206 28.9818ZM176.117 28.9709L175.255 28.0982L176.106 27.2145L176.99 28.0982L176.117 28.9709ZM185.212 32.9691V34H184.258C183.927 34 183.634 33.9527 183.38 33.8582C183.129 33.7636 182.927 33.6218 182.774 33.4327C182.396 33.8109 181.836 34 181.094 34H179.24V32.9691H181.094C181.356 32.9691 181.563 32.9436 181.716 32.8927C181.869 32.8382 181.983 32.7727 182.06 32.6964C182.14 32.6164 182.191 32.5291 182.212 32.4345C182.238 32.3364 182.251 32.2436 182.251 32.1564V30.3127H183.276V32.1182C183.276 32.2527 183.296 32.3673 183.336 32.4618C183.38 32.5564 183.432 32.6364 183.494 32.7018C183.556 32.7636 183.625 32.8127 183.702 32.8491C183.782 32.8855 183.858 32.9127 183.931 32.9309C184.003 32.9491 184.069 32.96 184.127 32.9636C184.185 32.9673 184.229 32.9691 184.258 32.9691H185.212ZM183.707 36.1109L182.823 36.9945L181.972 36.1109L182.834 35.2382L183.707 36.1109ZM181.618 36.1218L180.734 37.0055L179.883 36.1218L180.745 35.2491L181.618 36.1218ZM188.449 33.2309C188.475 33.2309 188.509 33.2291 188.553 33.2255C188.6 33.2218 188.649 33.2073 188.7 33.1818C188.755 33.1564 188.808 33.1182 188.858 33.0673C188.913 33.0127 188.96 32.9382 189 32.8436C189.044 32.7455 189.078 32.6218 189.104 32.4727C189.133 32.32 189.148 32.1345 189.148 31.9164C189.148 31.8764 189.144 31.8127 189.137 31.7255C189.129 31.6382 189.113 31.5418 189.088 31.4364C189.062 31.3273 189.024 31.2164 188.973 31.1036C188.926 30.9909 188.86 30.8873 188.777 30.7927C188.693 30.6982 188.591 30.6218 188.471 30.5636C188.351 30.5018 188.206 30.4709 188.035 30.4709C187.875 30.4709 187.738 30.5 187.626 30.5582C187.517 30.6127 187.424 30.6891 187.348 30.7873C187.271 30.8855 187.208 31.0018 187.157 31.1364C187.106 31.2673 187.058 31.4109 187.015 31.5673C186.971 31.72 186.928 31.8818 186.884 32.0527C186.84 32.22 186.789 32.3873 186.731 32.5545C186.92 32.6491 187.095 32.7382 187.255 32.8218C187.415 32.9055 187.564 32.9782 187.702 33.04C187.84 33.0982 187.969 33.1455 188.089 33.1818C188.213 33.2145 188.333 33.2309 188.449 33.2309ZM188.035 29.4455C188.391 29.4455 188.7 29.5145 188.962 29.6527C189.228 29.7873 189.448 29.9691 189.622 30.1982C189.797 30.4273 189.926 30.6909 190.009 30.9891C190.097 31.2873 190.14 31.5964 190.14 31.9164C190.14 32.2691 190.109 32.5727 190.048 32.8273C189.989 33.0818 189.911 33.2964 189.813 33.4709C189.715 33.6418 189.604 33.78 189.48 33.8855C189.36 33.9909 189.237 34.0709 189.109 34.1255C188.986 34.18 188.866 34.2164 188.749 34.2345C188.633 34.2527 188.533 34.2618 188.449 34.2618C188.271 34.2618 188.1 34.2436 187.937 34.2073C187.773 34.1709 187.606 34.1182 187.435 34.0491C187.264 33.9836 187.084 33.9018 186.895 33.8036C186.709 33.7055 186.504 33.5945 186.278 33.4709C185.98 33.8236 185.597 34 185.128 34H184.5V32.9691H185.128C185.266 32.9691 185.378 32.9182 185.466 32.8164C185.557 32.7145 185.635 32.5818 185.7 32.4182C185.766 32.2545 185.826 32.0673 185.88 31.8564C185.935 31.6455 185.997 31.4291 186.066 31.2073C186.138 30.9855 186.224 30.7691 186.322 30.5582C186.42 30.3473 186.544 30.16 186.693 29.9964C186.846 29.8327 187.029 29.7 187.244 29.5982C187.462 29.4964 187.726 29.4455 188.035 29.4455ZM197.168 34C196.786 33.9964 196.47 33.9709 196.219 33.9236C195.971 33.8727 195.76 33.8018 195.586 33.7109C195.415 33.6164 195.277 33.5 195.171 33.3618C195.07 33.22 194.99 33.0564 194.931 32.8709C194.873 32.6818 194.835 32.4709 194.817 32.2382C194.799 32.0055 194.79 31.7473 194.79 31.4636V26.2164H195.82V31.4636C195.82 31.78 195.83 32.0364 195.848 32.2327C195.87 32.4291 195.922 32.5818 196.006 32.6909C196.093 32.7964 196.222 32.8691 196.393 32.9091C196.568 32.9455 196.826 32.9655 197.168 32.9691V34ZM200.264 29.56C200.271 29.5818 200.286 29.64 200.307 29.7345C200.329 29.8291 200.353 29.9473 200.378 30.0891C200.407 30.2273 200.438 30.3818 200.471 30.5527C200.504 30.72 200.533 30.8909 200.558 31.0655C200.584 31.2364 200.606 31.4018 200.624 31.5618C200.642 31.7218 200.651 31.8618 200.651 31.9818C200.651 32.3309 200.593 32.6327 200.476 32.8873C200.364 33.1382 200.215 33.3473 200.029 33.5145C199.847 33.6782 199.642 33.8 199.413 33.88C199.184 33.96 198.953 34 198.72 34H196.462V32.9691H198.72C198.775 32.9691 198.851 32.9618 198.949 32.9473C199.051 32.9291 199.151 32.8873 199.249 32.8218C199.351 32.7564 199.438 32.6582 199.511 32.5273C199.587 32.3964 199.626 32.2145 199.626 31.9818C199.626 31.9018 199.618 31.8018 199.604 31.6818C199.593 31.5582 199.576 31.4273 199.555 31.2891C199.536 31.1473 199.515 31.0036 199.489 30.8582C199.464 30.7091 199.438 30.5691 199.413 30.4382C199.387 30.3073 199.364 30.1909 199.342 30.0891C199.32 29.9873 199.302 29.9109 199.287 29.86L200.264 29.56ZM200.722 36.0782L199.838 36.9618L198.987 36.0782L199.849 35.2055L200.722 36.0782ZM198.633 36.0891L197.749 36.9727L196.898 36.0891L197.76 35.2164L198.633 36.0891Z" fill="#0C0C0D"/>
<path fill-rule="evenodd" clip-rule="evenodd" d="M148.87 31.7128C148.87 14.8131 162.57 1.11321 179.47 1.11321C196.37 1.11321 210.07 14.8131 210.07 31.7128H211.183C211.183 31.7126 211.183 31.7124 211.183 31.7121H358.959C359.267 31.7121 359.516 31.4629 359.516 31.1555C359.516 30.8481 359.267 30.5989 358.959 30.5989H211.164C210.577 13.6003 196.612 0 179.47 0C162.328 0 148.363 13.6003 147.776 30.5989H0V31.7121H147.757C147.757 31.7124 147.757 31.7126 147.757 31.7128H148.87Z" fill="#E4E4E4"/>
</svg>
