<svg xmlns="http://www.w3.org/2000/svg" xmlns:xlink="http://www.w3.org/1999/xlink" width="28.114" height="63.5" viewBox="0 0 28.114 63.5"><defs><linearGradient id="a" x1="0.5" x2="0.5" y2="1" gradientUnits="objectBoundingBox"><stop offset="0" stop-color="#ff895d"/><stop offset="1" stop-color="#ffbaa1"/></linearGradient></defs><path d="M2.811,36.75A71.568,71.568,0,0,0,0,17.286C0,10.51,6.3,5,14.057,5s14.057,5.51,14.057,12.286A71.568,71.568,0,0,0,25.3,36.75a71.567,71.567,0,0,0,2.811,19.464c0,6.776-6.3,12.286-14.057,12.286S0,62.989,0,56.214A71.567,71.567,0,0,0,2.811,36.75ZM17.493,26.676c0-2.329-1.107-4.217-3.436-4.217s-3.436,1.888-3.436,4.217v22.96c0,2.329,1.107,4.217,3.436,4.217s3.436-1.888,3.436-4.217Z" transform="translate(0 -5)" fill-rule="evenodd" fill="url(#a)"/></svg>