<svg width="33" height="33" viewBox="0 0 33 33" fill="none" xmlns="http://www.w3.org/2000/svg">
<rect x="0.771973" y="0.408203" width="32" height="32" rx="8" fill="#FFE4E6"/>
<path d="M22.7954 8.41016C24.9004 8.41016 26.6069 10.218 26.6069 12.4479C26.6069 16.4857 22.1024 20.1564 19.6769 21.0102C17.2514 20.1564 12.7468 16.4857 12.7468 12.4479C12.7468 10.218 14.4534 8.41016 16.5584 8.41016C17.8474 8.41016 18.9873 9.08814 19.6769 10.1258C20.0283 9.59551 20.4953 9.16269 21.0381 8.86404C21.5809 8.56539 22.1837 8.4097 22.7954 8.41016Z" fill="#FDA4AF"/>
<path fill-rule="evenodd" clip-rule="evenodd" d="M18.0651 12.877C17.3042 12.8764 16.5555 13.0649 15.8826 13.4249C15.5084 13.6251 15.1641 13.875 14.8577 14.1665C14.0195 13.3693 12.8938 12.877 11.6517 12.877C9.02575 12.877 6.93714 15.0634 6.93714 17.7101C6.93714 20.0257 8.2537 22.1415 9.78666 23.7365C11.3251 25.3371 13.2103 26.549 14.6006 27.025C14.7676 27.0821 14.9489 27.0821 15.1158 27.025C16.5062 26.549 18.3914 25.3371 19.9298 23.7365C21.4627 22.1415 22.7793 20.0257 22.7793 17.7101C22.7793 15.0636 20.6907 12.8773 18.0651 12.877ZM16.6331 14.8276C17.0765 14.5903 17.5673 14.4674 18.0642 14.4678C19.7671 14.4678 21.1885 15.8969 21.1885 17.7101C21.1885 19.4323 20.1892 21.1708 18.7828 22.6341C17.4869 23.9824 15.9543 24.9823 14.8582 25.4237C13.7621 24.9823 12.2295 23.9824 10.9336 22.6341C9.52723 21.1708 8.52795 19.4323 8.52795 17.7101C8.52795 15.8969 9.94873 14.4678 11.6517 14.4678C12.6971 14.4678 13.6307 15.0014 14.2015 15.8368C14.2809 15.953 14.4636 16.0441 14.6163 16.1037C14.7724 16.1647 14.945 16.1646 15.101 16.1034C15.2536 16.0436 15.4363 15.9523 15.5155 15.836C15.8057 15.4101 16.1896 15.0648 16.6331 14.8276Z" fill="#FFE4E6"/>
<path d="M18.0642 14.4678C17.5673 14.4674 17.0765 14.5903 16.6331 14.8276C16.1896 15.0648 15.8057 15.4101 15.5155 15.836C15.4363 15.9523 15.2536 16.0436 15.101 16.1034C14.945 16.1646 14.7724 16.1647 14.6163 16.1037C14.4636 16.0441 14.2809 15.953 14.2015 15.8368C13.6307 15.0014 12.6971 14.4678 11.6517 14.4678C9.94873 14.4678 8.52795 15.8969 8.52795 17.7101C8.52795 19.4323 9.52723 21.1708 10.9336 22.6341C12.2295 23.9824 13.7621 24.9823 14.8582 25.4237C15.9543 24.9823 17.4869 23.9824 18.7828 22.6341C20.1892 21.1708 21.1885 19.4323 21.1885 17.7101C21.1885 15.8969 19.7671 14.4678 18.0642 14.4678Z" fill="#F43F5E"/>
</svg>
