<svg xmlns="http://www.w3.org/2000/svg" width="39.228" height="34.6" viewBox="0 0 39.228 34.6"><path d="M34.633,1.942A11.362,11.362,0,0,0,19.615,4.1,11.341,11.341,0,0,0,4.6,1.942,10.728,10.728,0,0,0,.008,10.354c-.274,7.607,6.47,13.705,16.764,23.057l.2.176a3.913,3.913,0,0,0,5.274-.02l.216-.2c10.293-9.333,17.018-15.43,16.764-23.038A10.722,10.722,0,0,0,34.633,1.942ZM19.811,30.49l-.2.2-.2-.2c-9.333-8.45-15.489-14.038-15.489-19.7a6.7,6.7,0,0,1,6.862-6.862A7.84,7.84,0,0,1,16.9,6.963a3.565,3.565,0,0,0,2.72,1.587h0a3.583,3.583,0,0,0,2.733-1.6,7.808,7.808,0,0,1,6.087-3.026A6.7,6.7,0,0,1,35.3,10.785C35.3,16.451,29.143,22.039,19.811,30.49Z" fill="#707070" opacity="0.55"/></svg>