<svg xmlns="http://www.w3.org/2000/svg" xmlns:xlink="http://www.w3.org/1999/xlink" width="40.25" height="40.356" viewBox="0 0 40.25 40.356">
  <defs>
    <linearGradient id="linear-gradient" x1="0.109" y1="0.906" x2="0.5" gradientUnits="objectBoundingBox">
      <stop offset="0" stop-color="#7c73e6"/>
      <stop offset="1" stop-color="#b2abff"/>
    </linearGradient>
    <linearGradient id="linear-gradient-2" x1="0.553" y1="0.923" xlink:href="#linear-gradient"/>
  </defs>
  <g id="parvane" transform="translate(-558.313 -528.829)">
    <path id="Path_40214" data-name="Path 40214" d="M24.044,1.667A4.7,4.7,0,0,0,22.86.955C21.6.628,20.3.376,19.018.151A15.11,15.11,0,0,0,17.052,0,8.3,8.3,0,0,0,15.98.054c-.4.038-.8.107-1.2.139-1.452.123-2.931.129-4.362.386a15.916,15.916,0,0,0-7.293,2.91C.4,5.67-.765,8.242.526,11.94a6.43,6.43,0,0,0,1.661,2.4,6.912,6.912,0,0,0,6.8,1.758,9.364,9.364,0,0,0,6.007-4.962,30.345,30.345,0,0,1,6.221-8.182,4.5,4.5,0,0,1,2.8-1.072Z" transform="translate(586.564 539.78) rotate(132)" fill="url(#linear-gradient)"/>
    <path id="Path_40215" data-name="Path 40215" d="M18.062,21.171a7.524,7.524,0,0,0-.638-.536,11.135,11.135,0,0,1-3.494-4.319c-1.072-2.309-1.961-4.721-2.883-7.105C10.308,7.3,9.692,5.336,8.9,3.45A5.593,5.593,0,0,0,6.284.316,2.8,2.8,0,0,0,3.117.723,8.992,8.992,0,0,0,.266,5.545a9.979,9.979,0,0,0,1.147,7.534A21.7,21.7,0,0,0,6.938,18.85a15.47,15.47,0,0,0,5.128,2.417,13.873,13.873,0,0,0,5.128.289,1.907,1.907,0,0,0,.536-.171,2.968,2.968,0,0,0,.332-.214Z" transform="translate(598.563 555.763) rotate(132)" fill="url(#linear-gradient-2)"/>
  </g>
</svg>
