<svg width="71" height="83" viewBox="0 0 71 83" fill="none" xmlns="http://www.w3.org/2000/svg">
<path d="M60.7996 31.9178C62.4322 17.5552 52.1124 4.58859 37.7498 2.95603C23.3872 1.32347 10.4206 11.6432 8.78804 26.0058C7.15548 40.3684 17.4752 53.335 31.8378 54.9676C46.2004 56.6002 59.1671 46.2804 60.7996 31.9178Z" fill="#D1DDE8" fill-opacity="0.2"/>
<path d="M55.7152 76.3771L16.3021 69.6522C15.8061 69.5676 15.3601 69.2992 15.0529 68.9006C14.7458 68.502 14.6 68.0023 14.6446 67.5011L19.6467 11.3044C19.6914 10.8031 19.9231 10.3371 20.2958 9.99896C20.6686 9.66085 21.155 9.4755 21.6582 9.47981L61.6393 9.82187C61.9158 9.82423 62.1888 9.88382 62.441 9.99688C62.6933 10.1099 62.9194 10.274 63.1052 10.4788C63.2909 10.6835 63.4322 10.9245 63.5202 11.1866C63.6082 11.4487 63.641 11.7261 63.6165 12.0015L58.0462 74.581C58.0217 74.8563 57.9405 75.1237 57.8075 75.3661C57.6746 75.6085 57.493 75.8207 57.274 75.9895C57.055 76.1582 56.8034 76.2797 56.5352 76.3465C56.2669 76.4132 55.9877 76.4236 55.7152 76.3771Z" fill="#D1B4FF"/>
<path d="M55.5235 74.3843L16.8125 67.7794L21.5693 14.3381L60.8383 14.674L55.5235 74.3843Z" fill="#E7EDF4"/>
<path style="mix-blend-mode:multiply" d="M55.5235 74.3843L16.8125 67.7794L21.5693 14.3381L60.8383 14.674L55.5235 74.3843Z" fill="url(#paint0_linear_9124_37647)"/>
<path d="M60.8381 14.6741L21.5691 14.3381C21.5691 14.3381 16.3599 58.3323 13.0273 61.1521L52.2482 69.7139L60.8381 14.6741Z" fill="white"/>
<path d="M13.0246 61.1521C13.0246 61.1521 8.71507 59.0685 9.09835 53.153L44.0843 61.3668C44.0843 61.3668 51.3177 75.6586 52.8084 66.1071L52.2455 69.7138L13.0246 61.1521Z" fill="#E7EDF4"/>
<path d="M34.7461 13.2705C35.2792 13.1606 35.6222 12.6393 35.5123 12.1063C35.4023 11.5732 34.8811 11.2302 34.348 11.3401C33.815 11.4501 33.4719 11.9713 33.5819 12.5044C33.6918 13.0375 34.2131 13.3805 34.7461 13.2705Z" fill="#8925D1"/>
<path d="M48.822 13.2462C49.3531 13.1272 49.6873 12.6003 49.5684 12.0692C49.4495 11.538 48.9225 11.2039 48.3914 11.3228C47.8603 11.4417 47.5261 11.9686 47.645 12.4998C47.7639 13.0309 48.2909 13.3651 48.822 13.2462Z" fill="#8925D1"/>
<path d="M34.546 12.3054L34.2342 15.8078C34.2225 15.9401 34.2384 16.0734 34.281 16.1992C34.3236 16.325 34.3919 16.4405 34.4817 16.5385C34.5714 16.6364 34.6806 16.7145 34.8022 16.7679C34.9238 16.8213 35.0552 16.8488 35.1881 16.8485L39.8667 16.8409L39.8808 16.675C39.902 16.4257 40.0155 16.1933 40.1992 16.0233C40.3828 15.8534 40.6233 15.7582 40.8735 15.7564L41.3203 15.7531C41.4595 15.7521 41.5973 15.7801 41.7251 15.8352C41.8529 15.8903 41.9678 15.9714 42.0626 16.0733C42.1573 16.1752 42.2299 16.2957 42.2756 16.4271C42.3213 16.5586 42.3392 16.6981 42.3281 16.8368L47.332 16.8286C47.5706 16.8282 47.8005 16.7386 47.9764 16.5774C48.1523 16.4162 48.2615 16.195 48.2827 15.9573L48.6096 12.2845" stroke="#8925D1" stroke-linejoin="round"/>
<path d="M26.7891 23.1371L51.6628 23.7929" stroke="#E7EDF4" stroke-width="3" stroke-miterlimit="10" stroke-linecap="round"/>
<path d="M26.457 26.8704L51.3308 27.5261" stroke="#E7EDF4" stroke-width="3" stroke-miterlimit="10" stroke-linecap="round"/>
<path d="M25.8438 30.5786L50.7175 31.2344" stroke="#E7EDF4" stroke-width="3" stroke-miterlimit="10" stroke-linecap="round"/>
<path d="M25.2266 34.2869L50.1003 34.9427" stroke="#E7EDF4" stroke-width="3" stroke-miterlimit="10" stroke-linecap="round"/>
<path d="M24.6133 37.9952L49.487 38.651" stroke="#E7EDF4" stroke-width="3" stroke-miterlimit="10" stroke-linecap="round"/>
<path d="M36.6499 47.295C36.5809 48.0693 36.284 48.8058 35.7965 49.4113C35.309 50.0168 34.6529 50.4641 33.9112 50.6968C33.1695 50.9294 32.3755 50.9369 31.6295 50.7182C30.8835 50.4996 30.2192 50.0646 29.7204 49.4684C29.2216 48.8721 28.9109 48.1414 28.8274 47.3685C28.7439 46.5957 28.8915 45.8154 29.2515 45.1265C29.6115 44.4375 30.1677 43.8708 30.8498 43.4979C31.5319 43.125 32.3092 42.9628 33.0835 43.0317C34.1218 43.1241 35.0808 43.6252 35.7496 44.4248C36.4185 45.2243 36.7423 46.2567 36.6499 47.295Z" fill="#E7EDF4"/>
<path d="M25.4699 49.4166C24.9242 48.7421 24.5239 47.962 24.2943 47.1252C24.0648 46.2885 24.0109 45.4133 24.1361 44.5548C24.1992 44.1396 24.3661 43.6631 24.77 43.5481C25.3653 43.3786 25.7934 44.1052 25.9845 44.6938C26.2312 45.4538 26.478 46.2137 26.7247 46.9737C26.7551 47.1227 26.8364 47.2564 26.9546 47.352C27.5573 47.7278 27.8403 46.0002 28.5022 46.2577C28.8636 46.3983 28.7507 46.9556 28.9653 47.2786C29.2065 47.6415 29.7674 47.5794 30.1487 47.3687C30.5301 47.1581 30.8747 46.8365 31.3081 46.7919C31.7252 46.7489 32.1353 46.9768 32.5522 46.9317C33.2771 46.8534 33.8448 45.9813 34.5467 46.1787" stroke="#D1DDE8" stroke-miterlimit="10" stroke-linecap="round"/>
<path d="M32.4475 70.7922L26.343 68.4436C26.0792 68.3421 25.798 68.2936 25.5155 68.3007C25.2329 68.3079 24.9546 68.3707 24.6963 68.4854C24.438 68.6002 24.2048 68.7647 24.0101 68.9696C23.8154 69.1745 23.663 69.4157 23.5615 69.6795C23.46 69.9432 23.4115 70.2244 23.4187 70.507C23.4258 70.7895 23.4886 71.0679 23.6034 71.3262C23.7181 71.5845 23.8827 71.8176 24.0875 72.0123C24.2924 72.207 24.5336 72.3595 24.7974 72.461L30.9019 74.8095C31.4346 75.0145 32.0269 74.9994 32.5486 74.7677C33.0702 74.5359 33.4784 74.1064 33.6834 73.5736C33.7849 73.3099 33.8334 73.0287 33.8262 72.7461C33.819 72.4636 33.7562 72.1852 33.6415 71.9269C33.5267 71.6687 33.3622 71.4355 33.1573 71.2408C32.9525 71.0461 32.7113 70.8936 32.4475 70.7922Z" fill="white"/>
<path d="M32.4494 70.7921L29.3972 69.6178L27.8516 73.6352L30.9038 74.8095C31.4365 75.0144 32.0289 74.9994 32.5505 74.7676C33.0721 74.5358 33.4803 74.1063 33.6853 73.5736C33.8902 73.0408 33.8752 72.4485 33.6434 71.9269C33.4116 71.4053 32.9821 70.9971 32.4494 70.7921Z" fill="#8925D1"/>
<path style="mix-blend-mode:multiply" d="M32.3913 73.6099L24.4995 70.5737C24.105 70.4224 23.764 70.1578 23.5196 69.8131C23.3568 70.3345 23.3985 70.8982 23.6362 71.3899C23.8738 71.8817 24.2897 72.2646 24.7994 72.4609L30.9038 74.8095C31.4136 75.0054 31.9789 75 32.4849 74.7943C32.9908 74.5887 33.3996 74.1982 33.6282 73.7022C33.2159 73.7941 32.7855 73.762 32.3913 73.6099Z" fill="url(#paint1_linear_9124_37647)"/>
<path d="M41.5638 63.2676L35.2698 65.047C34.7206 65.2023 34.2555 65.5694 33.9769 66.0676C33.6983 66.5658 33.629 67.1543 33.7843 67.7036C33.9396 68.2529 34.3067 68.7179 34.8049 68.9965C35.3032 69.2751 35.8916 69.3444 36.4409 69.1891L42.7348 67.4097C43.2841 67.2544 43.7492 66.8872 44.0278 66.389C44.3064 65.8908 44.3757 65.3024 44.2204 64.7531L44.2203 64.7531C44.1435 64.4811 44.0138 64.2269 43.8386 64.0051C43.6635 63.7833 43.4464 63.5981 43.1997 63.4601C42.953 63.3222 42.6816 63.2342 42.4009 63.2012C42.1202 63.1681 41.8358 63.1907 41.5638 63.2676Z" fill="white"/>
<path d="M41.565 63.2676L38.418 64.1573L39.589 68.2994L42.736 67.4097C43.008 67.3328 43.2622 67.2031 43.484 67.0279C43.7058 66.8528 43.891 66.6357 44.029 66.389C44.1669 66.1424 44.2549 65.8709 44.2879 65.5902C44.321 65.3095 44.2984 65.0251 44.2215 64.7531C44.1446 64.4811 44.0149 64.227 43.8398 64.0051C43.6647 63.7833 43.4476 63.5981 43.2009 63.4601C42.9542 63.3222 42.6828 63.2342 42.4021 63.2012C42.1214 63.1681 41.837 63.1907 41.565 63.2676Z" fill="#8925D1"/>
<path style="mix-blend-mode:multiply" d="M43.209 65.558L35.0722 67.8584C34.6658 67.9738 34.2343 67.9663 33.832 67.837C34.0142 68.3519 34.3855 68.7781 34.8705 69.0293C35.3555 69.2804 35.9179 69.3376 36.4436 69.1892L42.7375 67.4098C43.263 67.261 43.7122 66.9178 43.9939 66.4499C44.2756 65.982 44.3688 65.4244 44.2544 64.8904C43.9795 65.2112 43.6157 65.4434 43.209 65.558Z" fill="url(#paint2_linear_9124_37647)"/>
<path d="M9.09604 14.4527H6.92787V12.2845H4.51193V14.4527H2.34375V16.8687H4.51193V19.0368H6.92787V16.8687H9.09604V14.4527Z" fill="#D1B4FF"/>
<path d="M15.2521 23.1629H13.7801V21.6909H12.1399V23.1629H10.668V24.8031H12.1399V26.275H13.7801V24.8031H15.2521V23.1629Z" fill="#8925D1"/>
<path d="M7 71.5213C6.99999 71.9168 6.88269 72.3035 6.66292 72.6324C6.44316 72.9613 6.1308 73.2176 5.76535 73.369C5.3999 73.5204 4.99776 73.56 4.6098 73.4828C4.22184 73.4056 3.86548 73.2151 3.58578 72.9354C3.30607 72.6557 3.1156 72.2994 3.03843 71.9114C2.96126 71.5235 3.00087 71.1213 3.15224 70.7559C3.30362 70.3904 3.55996 70.0781 3.88886 69.8583C4.21776 69.6385 4.60444 69.5212 5 69.5212C5.26264 69.5212 5.52272 69.573 5.76537 69.6735C6.00802 69.774 6.2285 69.9213 6.41422 70.107C6.59994 70.2928 6.74725 70.5132 6.84776 70.7559C6.94827 70.9986 7 71.2586 7 71.5213Z" fill="#D1B4FF"/>
<path d="M3 68.5212C3 68.719 2.94135 68.9124 2.83147 69.0768C2.72158 69.2413 2.5654 69.3694 2.38268 69.4451C2.19995 69.5208 1.99888 69.5406 1.8049 69.502C1.61092 69.4634 1.43274 69.3682 1.29289 69.2283C1.15304 69.0885 1.0578 68.9103 1.01921 68.7163C0.980629 68.5223 1.00044 68.3213 1.07612 68.1386C1.15181 67.9558 1.27998 67.7997 1.44443 67.6898C1.60888 67.5799 1.80221 67.5212 1.99999 67.5212C2.13131 67.5212 2.26136 67.5471 2.38269 67.5974C2.50401 67.6476 2.61425 67.7213 2.70711 67.8141C2.79997 67.907 2.87363 68.0172 2.92389 68.1386C2.97414 68.2599 3 68.3899 3 68.5212Z" fill="#D1B4FF"/>
<path opacity="0.7" d="M35.5 82.5212C55.1061 82.5212 71 81.8497 71 81.0212C71 80.1928 55.1061 79.5212 35.5 79.5212C15.8939 79.5212 0 80.1928 0 81.0212C0 81.8497 15.8939 82.5212 35.5 82.5212Z" fill="#E7EDF4"/>
<defs>
<linearGradient id="paint0_linear_9124_37647" x1="52.1608" y1="43.9932" x2="-19.5191" y2="37.6103" gradientUnits="userSpaceOnUse">
<stop offset="0.00195" stop-color="white" stop-opacity="0"/>
<stop offset="1" stop-color="#235196"/>
</linearGradient>
<linearGradient id="paint1_linear_9124_37647" x1="27.382" y1="65.6795" x2="29.6448" y2="78.533" gradientUnits="userSpaceOnUse">
<stop offset="0.00195" stop-color="white" stop-opacity="0"/>
<stop offset="1" stop-color="#235196"/>
</linearGradient>
<linearGradient id="paint2_linear_9124_37647" x1="34.4401" y1="62.2122" x2="43.9572" y2="71.1437" gradientUnits="userSpaceOnUse">
<stop offset="0.00195" stop-color="white" stop-opacity="0"/>
<stop offset="1" stop-color="#235196"/>
</linearGradient>
</defs>
</svg>
