<svg width="360" height="51" viewBox="0 0 360 51" fill="none" xmlns="http://www.w3.org/2000/svg">
<path d="M361.349 0.864182C362.351 1.27818 362.504 2.63292 361.61 3.24812C340.27 17.9385 313.106 29.8596 282.106 38.1257C250.106 46.6586 214.889 51.0649 179.215 50.9993C143.54 50.9336 108.379 46.3978 76.4869 37.7474C45.598 29.3691 18.5889 17.3515 -2.56355 2.58705C-3.45607 1.96407 -3.29551 0.606323 -2.28738 0.195984C-1.84627 0.016449 -1.34579 0.0753784 -0.957943 0.351791C20.0486 15.3224 47.1221 27.4894 78.1845 35.9147C109.554 44.4233 144.138 48.8847 179.227 48.9493C214.317 49.0139 248.956 44.6798 280.432 36.2869C311.603 27.9752 338.831 15.9064 360.026 1.01141C360.413 0.739212 360.911 0.683533 361.349 0.864182Z" fill="#EC407A"/>
</svg>
