<svg width="360" height="250" viewBox="0 0 360 250" fill="none" xmlns="http://www.w3.org/2000/svg">
<path d="M411 125C411 141.415 405.025 157.67 393.416 172.835C381.807 188.001 364.792 201.781 343.342 213.388C321.891 224.996 296.426 234.203 268.4 240.485C240.374 246.767 210.335 250 180 250C149.665 250 119.626 246.767 91.6001 240.485C63.5739 234.203 38.1087 224.996 16.6583 213.388C-4.79201 201.781 -21.8073 188.001 -33.4162 172.835C-45.025 157.67 -51 141.415 -51 125H-47.2042C-47.2042 141.145 -41.3274 157.133 -29.9093 172.049C-18.4912 186.966 -1.75547 200.519 19.3424 211.936C40.4402 223.353 65.487 232.409 93.0527 238.587C120.618 244.766 150.163 247.946 180 247.946C209.837 247.946 239.382 244.766 266.947 238.587C294.513 232.409 319.56 223.353 340.658 211.936C361.755 200.519 378.491 186.966 389.909 172.049C401.327 157.133 407.204 141.145 407.204 125H411Z" fill="#EFEFEF"/>
<path d="M260.185 240.702C260.624 241.335 260.274 242.211 259.518 242.361C213.361 251.518 162.991 252.471 115.741 245.066C69.0197 237.744 27.79 222.633 -2.10206 201.908C-2.99514 201.289 -2.83563 199.935 -1.83007 199.523C-1.39068 199.343 -0.892422 199.399 -0.504826 199.674C29.0024 220.559 70.1116 235.781 116.795 243.097C163.57 250.427 213.452 249.431 259.091 240.261C259.511 240.176 259.941 240.349 260.185 240.702Z" fill="#EC407A"/>
</svg>
