<svg width="360" height="250" viewBox="0 0 360 250" fill="none" xmlns="http://www.w3.org/2000/svg">
<path d="M411 125C411 141.415 405.025 157.67 393.416 172.835C381.807 188.001 364.792 201.781 343.342 213.388C321.891 224.996 296.426 234.203 268.4 240.485C240.374 246.767 210.335 250 180 250C149.665 250 119.626 246.767 91.6001 240.485C63.5739 234.203 38.1087 224.996 16.6583 213.388C-4.79201 201.781 -21.8073 188.001 -33.4162 172.835C-45.025 157.67 -51 141.415 -51 125H-47.2042C-47.2042 141.145 -41.3274 157.133 -29.9093 172.049C-18.4912 186.966 -1.75547 200.519 19.3424 211.936C40.4402 223.353 65.487 232.409 93.0527 238.587C120.618 244.766 150.163 247.946 180 247.946C209.837 247.946 239.382 244.766 266.947 238.587C294.513 232.409 319.56 223.353 340.658 211.936C361.755 200.519 378.491 186.966 389.909 172.049C401.327 157.133 407.204 141.145 407.204 125H411Z" fill="#EFEFEF"/>
<path d="M312.028 225.66C312.758 226.217 312.599 227.357 311.739 227.68C263.063 245.967 203.228 253.442 144.61 248.524C86.3079 243.633 33.718 226.861 -2.42361 201.685C-3.31628 201.063 -3.1519 199.709 -2.14457 199.298C-1.704 199.119 -1.20539 199.176 -0.817627 199.452C34.7656 224.757 87.0948 241.625 145.19 246.499C203.378 251.38 262.784 243.847 310.897 225.496C311.278 225.351 311.704 225.413 312.028 225.66Z" fill="#EC407A"/>
</svg>
