<svg width="360" height="250" viewBox="0 0 360 250" fill="none" xmlns="http://www.w3.org/2000/svg">
<path d="M411 125C411 141.415 405.025 157.67 393.416 172.835C381.807 188.001 364.792 201.781 343.342 213.388C321.891 224.996 296.426 234.203 268.4 240.485C240.374 246.767 210.335 250 180 250C149.665 250 119.626 246.767 91.6001 240.485C63.5739 234.203 38.1087 224.996 16.6583 213.388C-4.79201 201.781 -21.8073 188.001 -33.4162 172.835C-45.025 157.67 -51 141.415 -51 125H-47.2042C-47.2042 141.145 -41.3274 157.133 -29.9093 172.049C-18.4912 186.966 -1.75547 200.519 19.3424 211.936C40.4402 223.353 65.487 232.409 93.0527 238.587C120.618 244.766 150.163 247.946 180 247.946C209.837 247.946 239.382 244.766 266.947 238.587C294.513 232.409 319.56 223.353 340.658 211.936C361.755 200.519 378.491 186.966 389.909 172.049C401.327 157.133 407.204 141.145 407.204 125H411Z" fill="#EFEFEF"/>
<path d="M156.792 248.472C156.697 248.979 156.24 249.337 155.724 249.308C124.346 247.514 93.9759 242.259 66.4895 233.868C39.7171 225.694 16.2387 214.714 -2.57895 201.576C-3.47145 200.953 -3.31008 199.596 -2.30187 199.186C-1.86069 199.006 -1.35992 199.065 -0.972069 199.342C17.7651 212.698 41.3556 223.84 68.3511 232.082C95.3035 240.311 125.075 245.472 155.837 247.253C156.458 247.289 156.907 247.861 156.792 248.472Z" fill="#EC407A"/>
</svg>
