<svg width="360" height="250" viewBox="0 0 360 250" fill="none" xmlns="http://www.w3.org/2000/svg">
<path d="M411 125C411 141.415 405.025 157.67 393.416 172.835C381.807 188.001 364.792 201.781 343.342 213.388C321.891 224.996 296.426 234.203 268.4 240.485C240.374 246.767 210.335 250 180 250C149.665 250 119.626 246.767 91.6001 240.485C63.5739 234.203 38.1087 224.996 16.6583 213.388C-4.79201 201.781 -21.8073 188.001 -33.4162 172.835C-45.025 157.67 -51 141.415 -51 125H-47.2042C-47.2042 141.145 -41.3274 157.133 -29.9093 172.049C-18.4912 186.966 -1.75547 200.519 19.3424 211.936C40.4402 223.353 65.487 232.409 93.0527 238.587C120.618 244.766 150.163 247.946 180 247.946C209.837 247.946 239.382 244.766 266.947 238.587C294.513 232.409 319.56 223.353 340.658 211.936C361.755 200.519 378.491 186.966 389.909 172.049C401.327 157.133 407.204 141.145 407.204 125H411Z" fill="#EFEFEF"/>
<path d="M180 248.975C180 249.541 179.541 250 178.975 249.999C143.657 249.914 108.841 245.448 77.2047 236.941C46.264 228.622 19.1793 216.656 -2.06733 201.932C-2.96046 201.313 -2.80428 199.957 -1.7989 199.545C-1.35963 199.365 -0.860592 199.422 -0.473011 199.696C20.6286 214.625 47.7776 226.739 78.8905 235.105C110.003 243.471 144.242 247.864 178.975 247.949C179.541 247.95 180 248.409 180 248.975Z" fill="#EC407A"/>
</svg>
