<svg width="360" height="250" viewBox="0 0 360 250" fill="none" xmlns="http://www.w3.org/2000/svg">
<path d="M411 125C411 141.415 405.025 157.67 393.416 172.835C381.807 188.001 364.792 201.781 343.342 213.388C321.891 224.996 296.426 234.203 268.4 240.485C240.374 246.767 210.335 250 180 250C149.665 250 119.626 246.767 91.6001 240.485C63.5739 234.203 38.1087 224.996 16.6583 213.388C-4.79201 201.781 -21.8073 188.001 -33.4162 172.835C-45.025 157.67 -51 141.415 -51 125H-47.2042C-47.2042 141.145 -41.3274 157.133 -29.9093 172.049C-18.4912 186.966 -1.75547 200.519 19.3424 211.936C40.4402 223.353 65.487 232.409 93.0527 238.587C120.618 244.766 150.163 247.946 180 247.946C209.837 247.946 239.382 244.766 266.947 238.587C294.513 232.409 319.56 223.353 340.658 211.936C361.755 200.519 378.491 186.966 389.909 172.049C401.327 157.133 407.204 141.145 407.204 125H411Z" fill="#EFEFEF"/>
<path d="M208.401 247.855C208.543 248.473 208.099 249.072 207.466 249.113C167.35 251.713 126.668 248.574 89.4841 240.004C52.9624 231.587 21.0833 218.223 -3.09656 201.214C-3.98839 200.586 -3.82209 199.228 -2.81102 198.819C-2.3679 198.64 -1.86618 198.701 -1.47805 198.98C22.4669 216.179 54.3445 229.677 90.9685 238.118C127.639 246.569 167.768 249.651 207.327 247.058C207.832 247.024 208.287 247.362 208.401 247.855Z" fill="#EC407A"/>
</svg>
