<svg width="360" height="250" viewBox="0 0 360 250" fill="none" xmlns="http://www.w3.org/2000/svg">
<path d="M411 125C411 141.415 405.025 157.67 393.416 172.835C381.807 188.001 364.792 201.781 343.342 213.388C321.891 224.996 296.426 234.203 268.4 240.485C240.374 246.767 210.335 250 180 250C149.665 250 119.626 246.767 91.6001 240.485C63.5739 234.203 38.1087 224.996 16.6583 213.388C-4.79201 201.781 -21.8073 188.001 -33.4162 172.835C-45.025 157.67 -51 141.415 -51 125H-47.2042C-47.2042 141.145 -41.3274 157.133 -29.9093 172.049C-18.4912 186.966 -1.75547 200.519 19.3424 211.936C40.4402 223.353 65.487 232.409 93.0527 238.587C120.618 244.766 150.163 247.946 180 247.946C209.837 247.946 239.382 244.766 266.947 238.587C294.513 232.409 319.56 223.353 340.658 211.936C361.755 200.519 378.491 186.966 389.909 172.049C401.327 157.133 407.204 141.145 407.204 125H411Z" fill="#EFEFEF"/>
<path d="M360.71 200.313C361.71 200.73 361.856 202.082 360.962 202.692C339.639 217.235 312.587 229.032 281.763 237.217C249.943 245.667 214.955 250.04 179.51 250C144.064 249.959 109.112 245.505 77.3575 236.982C46.6021 228.728 19.6462 216.871 -1.56146 202.281C-2.45517 201.667 -2.30338 200.312 -1.3008 199.898C-0.863377 199.717 -0.365772 199.773 0.0215378 200.045C21.0889 214.839 48.1115 226.845 79.0408 235.146C110.274 243.529 144.654 247.91 179.518 247.95C214.382 247.99 248.795 243.688 280.094 235.377C311.09 227.146 338.208 215.202 359.392 200.455C359.779 200.185 360.275 200.132 360.71 200.313Z" fill="#EC407A"/>
</svg>
