<svg width="360" height="250" viewBox="0 0 360 250" fill="none" xmlns="http://www.w3.org/2000/svg">
<path d="M411 125C411 141.415 405.025 157.67 393.416 172.835C381.807 188.001 364.792 201.781 343.342 213.388C321.891 224.996 296.426 234.203 268.4 240.485C240.374 246.767 210.335 250 180 250C149.665 250 119.626 246.767 91.6001 240.485C63.5739 234.203 38.1087 224.996 16.6583 213.388C-4.79201 201.781 -21.8073 188.001 -33.4162 172.835C-45.025 157.67 -51 141.415 -51 125H-47.2042C-47.2042 141.145 -41.3274 157.133 -29.9093 172.049C-18.4912 186.966 -1.75547 200.519 19.3424 211.936C40.4402 223.353 65.487 232.409 93.0527 238.587C120.618 244.766 150.163 247.946 180 247.946C209.837 247.946 239.382 244.766 266.947 238.587C294.513 232.409 319.56 223.353 340.658 211.936C361.755 200.519 378.491 186.966 389.909 172.049C401.327 157.133 407.204 141.145 407.204 125H411Z" fill="#EFEFEF"/>
<path d="M240.046 244.307C240.368 244.947 239.97 245.715 239.261 245.817C195.106 252.159 148.455 251.275 105.21 243.267C62.5563 235.369 25.1291 220.894 -2.48289 201.643C-3.37551 201.021 -3.21343 199.665 -2.20576 199.254V199.254C-1.76495 199.075 -1.26537 199.133 -0.877572 199.409C26.4091 218.832 63.7635 233.426 106.437 241.328C149.189 249.244 195.327 250.082 238.954 243.739C239.403 243.674 239.842 243.903 240.046 244.307V244.307Z" fill="#EC407A"/>
</svg>
