<svg width="360" height="250" viewBox="0 0 360 250" fill="none" xmlns="http://www.w3.org/2000/svg">
<path d="M411 125C411 141.415 405.025 157.67 393.416 172.835C381.807 188.001 364.792 201.781 343.342 213.388C321.891 224.996 296.426 234.203 268.4 240.485C240.374 246.767 210.335 250 180 250C149.665 250 119.626 246.767 91.6001 240.485C63.5739 234.203 38.1087 224.996 16.6583 213.388C-4.79201 201.781 -21.8073 188.001 -33.4162 172.835C-45.025 157.67 -51 141.415 -51 125H-47.2042C-47.2042 141.145 -41.3274 157.133 -29.9093 172.049C-18.4912 186.966 -1.75547 200.519 19.3424 211.936C40.4402 223.353 65.487 232.409 93.0527 238.587C120.618 244.766 150.163 247.946 180 247.946C209.837 247.946 239.382 244.766 266.947 238.587C294.513 232.409 319.56 223.353 340.658 211.936C361.755 200.519 378.491 186.966 389.909 172.049C401.327 157.133 407.204 141.145 407.204 125H411Z" fill="#EFEFEF"/>
<path d="M314.997 224.495C315.743 225.046 315.598 226.2 314.733 226.536C266.324 245.346 206.318 253.314 147.26 248.738C88.4958 244.185 35.2704 227.57 -1.4231 202.377C-2.31694 201.763 -2.16116 200.412 -1.15937 199.998C-0.722481 199.817 -0.226749 199.871 0.16048 200.142C36.2911 225.463 89.2492 242.173 147.797 246.709C206.432 251.252 266.016 243.224 313.861 224.347C314.24 224.197 314.668 224.253 314.997 224.495Z" fill="#EC407A"/>
</svg>
