<svg width="360" height="250" viewBox="0 0 360 250" fill="none" xmlns="http://www.w3.org/2000/svg">
<path d="M411 125C411 141.415 405.025 157.67 393.416 172.835C381.807 188.001 364.792 201.781 343.342 213.388C321.891 224.996 296.426 234.203 268.4 240.485C240.374 246.767 210.335 250 180 250C149.665 250 119.626 246.767 91.6001 240.485C63.5739 234.203 38.1087 224.996 16.6583 213.388C-4.79201 201.781 -21.8073 188.001 -33.4162 172.835C-45.025 157.67 -51 141.415 -51 125H-47.2042C-47.2042 141.145 -41.3274 157.133 -29.9093 172.049C-18.4912 186.966 -1.75547 200.519 19.3424 211.936C40.4402 223.353 65.487 232.409 93.0527 238.587C120.618 244.766 150.163 247.946 180 247.946C209.837 247.946 239.382 244.766 266.947 238.587C294.513 232.409 319.56 223.353 340.658 211.936C361.755 200.519 378.491 186.966 389.909 172.049C401.327 157.133 407.204 141.145 407.204 125H411Z" fill="#EFEFEF"/>
<path d="M225.468 246.251C225.706 246.886 225.282 247.575 224.608 247.647C182.428 252.139 138.759 250.174 98.5164 241.965C58.8959 233.883 24.1634 220.068 -1.90739 202.043C-2.8007 201.425 -2.64423 200.071 -1.63974 199.658C-1.20106 199.478 -0.70298 199.534 -0.315487 199.807C25.4774 218.012 60.1729 231.952 99.8527 240.047C139.596 248.154 182.737 250.07 224.381 245.582C224.854 245.531 225.301 245.806 225.468 246.251Z" fill="#EC407A"/>
</svg>
