<svg width="374" height="520" viewBox="0 0 374 520" fill="none" xmlns="http://www.w3.org/2000/svg">
<rect x="311.523" y="107.855" width="60.9524" height="60.9524" rx="30.4762" transform="rotate(-90 311.523 107.855)" fill="#FFE9F4"/>
<mask id="mask0_6839_14336" style="mask-type:alpha" maskUnits="userSpaceOnUse" x="311" y="46" width="62" height="62">
<rect x="311.523" y="107.855" width="60.9524" height="60.9524" rx="30.4762" transform="rotate(-90 311.523 107.855)" fill="#FFE9F4"/>
</mask>
<g mask="url(#mask0_6839_14336)">
<rect x="311.523" y="107.855" width="60.9524" height="60.9524" rx="30.4762" transform="rotate(-90 311.523 107.855)" fill="#EFEFEF"/>
</g>
<rect x="230.523" y="107.855" width="60.9524" height="60.9524" rx="30.4762" transform="rotate(-90 230.523 107.855)" fill="#E1FFFD"/>
<mask id="mask1_6839_14336" style="mask-type:alpha" maskUnits="userSpaceOnUse" x="230" y="46" width="62" height="62">
<rect x="230.523" y="107.855" width="60.9524" height="60.9524" rx="30.4762" transform="rotate(-90 230.523 107.855)" fill="#FFE9F4"/>
</mask>
<g mask="url(#mask1_6839_14336)">
<rect x="230.523" y="107.855" width="60.9524" height="60.9524" rx="30.4762" transform="rotate(-90 230.523 107.855)" fill="#EFEFEF"/>
</g>
<rect x="144.523" y="107.855" width="60.9524" height="60.9524" rx="30.4762" transform="rotate(-90 144.523 107.855)" fill="#E1FFFD"/>
<mask id="mask2_6839_14336" style="mask-type:alpha" maskUnits="userSpaceOnUse" x="144" y="46" width="62" height="62">
<rect x="144.523" y="107.855" width="60.9524" height="60.9524" rx="30.4762" transform="rotate(-90 144.523 107.855)" fill="#FFE9F4"/>
</mask>
<g mask="url(#mask2_6839_14336)">
<rect x="144.523" y="107.855" width="60.9524" height="60.9524" rx="30.4762" transform="rotate(-90 144.523 107.855)" fill="#EFEFEF"/>
</g>
<rect x="59.5234" y="107.855" width="60.9524" height="60.9524" rx="30.4762" transform="rotate(-90 59.5234 107.855)" fill="#EFEFEF"/>
<mask id="mask3_6839_14336" style="mask-type:alpha" maskUnits="userSpaceOnUse" x="59" y="46" width="62" height="62">
<rect x="59.5234" y="107.855" width="60.9524" height="60.9524" rx="30.4762" transform="rotate(-90 59.5234 107.855)" fill="#FFE9F4"/>
</mask>
<g mask="url(#mask3_6839_14336)">
<rect x="59.5234" y="107.855" width="60.9524" height="60.9524" rx="30.4762" transform="rotate(-90 59.5234 107.855)" fill="#EFEFEF"/>
</g>
<rect x="-20.4766" y="107.855" width="60.9524" height="60.9524" rx="30.4762" transform="rotate(-90 -20.4766 107.855)" fill="#FFE9F4"/>
<mask id="mask4_6839_14336" style="mask-type:alpha" maskUnits="userSpaceOnUse" x="-21" y="46" width="62" height="62">
<rect x="-20.4766" y="107.855" width="60.9524" height="60.9524" rx="30.4762" transform="rotate(-90 -20.4766 107.855)" fill="#FFE9F4"/>
</mask>
<g mask="url(#mask4_6839_14336)">
<rect x="-20.4766" y="107.855" width="60.9524" height="60.9524" rx="30.4762" transform="rotate(-90 -20.4766 107.855)" fill="#EFEFEF"/>
</g>
<rect x="222" width="152" height="16" rx="4" fill="#EFEFEF"/>
<line x1="23.8145" y1="197.5" x2="365.814" y2="197.5" stroke="#EFEFEF"/>
<rect x="324.586" y="212.789" width="32" height="32" rx="8" fill="#FFE4E6"/>
<path d="M346.609 220.791C348.714 220.791 350.421 222.599 350.421 224.829C350.421 228.867 345.916 232.537 343.491 233.391C341.065 232.537 336.561 228.867 336.561 224.829C336.561 222.599 338.267 220.791 340.372 220.791C341.661 220.791 342.801 221.469 343.491 222.507C343.842 221.976 344.309 221.544 344.852 221.245C345.395 220.946 345.998 220.791 346.609 220.791Z" fill="#FDA4AF"/>
<path fill-rule="evenodd" clip-rule="evenodd" d="M341.879 225.258C341.118 225.257 340.369 225.446 339.696 225.806C339.322 226.006 338.978 226.256 338.671 226.547C337.833 225.75 336.707 225.258 335.465 225.258C332.839 225.258 330.751 227.444 330.751 230.091C330.751 232.407 332.067 234.522 333.6 236.117C335.139 237.718 337.024 238.93 338.414 239.406C338.581 239.463 338.762 239.463 338.929 239.406C340.32 238.93 342.205 237.718 343.743 236.117C345.276 234.522 346.593 232.407 346.593 230.091C346.593 227.444 344.504 225.258 341.879 225.258ZM340.447 227.208C340.89 226.971 341.381 226.848 341.878 226.849C343.581 226.849 345.002 228.278 345.002 230.091C345.002 231.813 344.003 233.552 342.596 235.015C341.3 236.363 339.768 237.363 338.672 237.805C337.576 237.363 336.043 236.363 334.747 235.015C333.341 233.552 332.341 231.813 332.341 230.091C332.341 228.278 333.762 226.849 335.465 226.849C336.511 226.849 337.444 227.382 338.015 228.218C338.094 228.334 338.277 228.425 338.43 228.485C338.586 228.546 338.758 228.545 338.914 228.484C339.067 228.425 339.25 228.333 339.329 228.217C339.619 227.791 340.003 227.446 340.447 227.208Z" fill="#FFE4E6"/>
<path d="M341.878 226.849C341.381 226.848 340.89 226.971 340.447 227.208C340.003 227.446 339.619 227.791 339.329 228.217C339.25 228.333 339.067 228.425 338.914 228.484C338.758 228.545 338.586 228.546 338.43 228.485C338.277 228.425 338.094 228.334 338.015 228.218C337.444 227.382 336.511 226.849 335.465 226.849C333.762 226.849 332.341 228.278 332.341 230.091C332.341 231.813 333.341 233.552 334.747 235.015C336.043 236.363 337.576 237.363 338.672 237.805C339.768 237.363 341.3 236.363 342.596 235.015C344.003 233.552 345.002 231.813 345.002 230.091C345.002 228.278 343.581 226.849 341.878 226.849Z" fill="#F43F5E"/>
<line x1="23.8145" y1="280.5" x2="309.814" y2="280.5" stroke="#EFEFEF"/>
<rect x="32" y="213.381" width="277" height="14" rx="4" fill="#EFEFEF"/>
<rect x="242" y="171" width="115" height="16" rx="4" fill="#EFEFEF"/>
<rect x="32" y="233.381" width="277" height="14" rx="4" fill="#EFEFEF"/>
<rect x="32" y="293.381" width="277" height="14" rx="4" fill="#EFEFEF"/>
<rect x="130" y="253.381" width="179" height="14" rx="4" fill="#EFEFEF"/>
<rect x="235" y="365" width="123" height="16" rx="4" fill="#EFEFEF"/>
<line x1="23.8145" y1="389.686" x2="365.814" y2="389.686" stroke="#EFEFEF"/>
<rect x="35" y="454.186" width="323" height="48" rx="8" fill="#EFEFEF"/>
<rect x="35" y="402.186" width="323" height="48" rx="8" fill="#EFEFEF"/>
</svg>
