<svg width="384" height="312" viewBox="0 0 384 312" fill="none" xmlns="http://www.w3.org/2000/svg">
<g clip-path="url(#clip0_2248_19990)">
<path d="M383.85 199.15C382.08 201.34 379.79 201.97 376.99 201.96C253.61 201.92 130.237 201.92 6.87 201.96C4.07 201.96 1.77 201.35 0 199.15V195.4C1.75 193.4 3.92 192.84 6.57 192.84C130.143 192.887 253.713 192.887 377.28 192.84C379.93 192.84 382.1 193.42 383.85 195.4V199.15Z" fill="#707070" fill-opacity="0.1"/>
<path d="M0 147.42C1.75 145.42 3.93 144.85 6.57 144.86C44.41 144.92 82.2467 144.92 120.08 144.86C121.084 144.827 122.088 144.89 123.08 145.05C124.029 145.207 124.891 145.694 125.513 146.427C126.136 147.159 126.479 148.089 126.48 149.05C126.588 149.993 126.373 150.945 125.87 151.75C125.367 152.555 124.605 153.165 123.71 153.48C122.277 153.935 120.766 154.092 119.27 153.94C81.9367 153.94 44.6033 153.94 7.27 153.94C4.39 153.94 1.86 153.58 0.03 151.13L0 147.42Z" fill="#707070" fill-opacity="0.1"/>
<path d="M383.85 151.17C382.08 153.38 379.79 153.99 376.99 153.98C339.397 153.92 301.807 153.9 264.22 153.92C262.87 153.966 261.52 153.801 260.22 153.43C259.31 153.152 258.529 152.557 258.018 151.755C257.507 150.952 257.298 149.993 257.43 149.05C257.432 148.089 257.774 147.159 258.397 146.427C259.019 145.694 259.882 145.207 260.83 145.05C261.822 144.89 262.827 144.827 263.83 144.86C301.67 144.86 339.507 144.86 377.34 144.86C380 144.86 382.16 145.46 383.91 147.42L383.85 151.17Z" fill="#707070" fill-opacity="0.1"/>
<path d="M195.45 175.48C161.13 175.66 135.54 149.79 136.52 119.06C136.86 108.57 140.73 98.8601 144.52 89.2401C156.3 59.4001 171.52 31.2401 187.38 3.44013C189.92 -1.00987 193.86 -1.17987 196.29 3.14013C213.55 33.7401 230.37 64.5401 242.49 97.6601C247.97 112.66 249.65 127.55 242.66 142.36C232.63 163.64 215.48 174.43 195.45 175.48ZM192 13.8501C182.53 28.3701 158.79 76.3201 152.17 94.2301C149.17 102.4 145.75 110.55 145.49 119.39C144.74 144.39 164.86 165.49 190.43 166.39C223.57 167.57 244.87 135.04 236.51 108.64C231.395 93.0316 225.176 77.8066 217.9 63.0801C210 46.5001 201.36 30.2501 192 13.8501Z" fill="#707070" fill-opacity="0.1"/>
<path d="M335.87 229.78C338.249 229.731 340.614 230.159 342.825 231.042C345.035 231.924 347.045 233.241 348.736 234.916C350.428 236.59 351.765 238.587 352.669 240.789C353.573 242.99 354.026 245.351 354 247.73C353.982 252.461 352.11 256.996 348.786 260.361C345.461 263.727 340.95 265.654 336.22 265.73C331.415 265.72 326.808 263.816 323.397 260.432C319.987 257.047 318.047 252.455 318 247.65C318.034 242.921 319.928 238.396 323.272 235.052C326.616 231.708 331.141 229.814 335.87 229.78V229.78ZM335.87 238.78C334.687 238.792 333.518 239.037 332.43 239.501C331.342 239.964 330.356 240.638 329.529 241.483C328.701 242.328 328.048 243.328 327.608 244.426C327.167 245.524 326.947 246.698 326.96 247.88C327.055 250.208 328.03 252.413 329.687 254.05C331.345 255.687 333.561 256.634 335.89 256.7C338.277 256.7 340.566 255.752 342.254 254.064C343.942 252.376 344.89 250.087 344.89 247.7C344.909 246.519 344.69 245.346 344.244 244.252C343.799 243.157 343.137 242.164 342.298 241.332C341.46 240.5 340.461 239.846 339.364 239.409C338.266 238.972 337.091 238.762 335.91 238.79L335.87 238.78Z" fill="#707070" fill-opacity="0.1"/>
<path d="M96.4103 275.42C98.7886 275.454 101.136 275.964 103.315 276.917C105.494 277.871 107.46 279.251 109.099 280.975C110.737 282.699 112.015 284.733 112.857 286.958C113.698 289.183 114.087 291.553 114 293.93C113.918 296.294 113.37 298.618 112.389 300.77C111.408 302.923 110.013 304.861 108.283 306.473C106.553 308.086 104.522 309.343 102.307 310.171C100.091 310.999 97.7341 311.383 95.3703 311.3C93.0065 311.217 90.6821 310.67 88.5299 309.689C86.3777 308.708 84.4398 307.313 82.8269 305.583C81.2139 303.853 79.9575 301.822 79.1294 299.606C78.3012 297.391 77.9175 295.034 78.0003 292.67C78.1621 287.944 80.1906 283.475 83.6413 280.241C87.0921 277.008 91.6837 275.274 96.4103 275.42V275.42ZM87.0003 293.22C86.9512 295.607 87.8524 297.916 89.5055 299.638C91.1586 301.361 93.4283 302.356 95.8153 302.405C98.2022 302.454 100.511 301.553 102.233 299.9C103.956 298.247 104.951 295.977 105 293.59C105.025 292.408 104.816 291.233 104.386 290.132C103.956 289.031 103.314 288.025 102.495 287.172C101.677 286.319 100.698 285.636 99.6153 285.161C98.5327 284.686 97.3672 284.429 96.1853 284.405C95.0034 284.381 93.8283 284.59 92.727 285.019C91.6258 285.449 90.62 286.092 89.7671 286.91C88.9142 287.729 88.2309 288.707 87.7562 289.79C87.2814 290.873 87.0246 292.038 87.0003 293.22V293.22Z" fill="#707070" fill-opacity="0.1"/>
<path d="M192.14 275.41C194.514 275.421 196.862 275.906 199.046 276.835C201.23 277.764 203.207 279.119 204.862 280.821C206.516 282.523 207.815 284.538 208.682 286.747C209.549 288.957 209.966 291.317 209.91 293.69C209.859 296.054 209.343 298.385 208.391 300.549C207.439 302.713 206.07 304.669 204.363 306.304C202.655 307.939 200.642 309.222 198.438 310.079C196.235 310.936 193.884 311.351 191.52 311.3C189.157 311.249 186.826 310.733 184.662 309.781C182.498 308.829 180.542 307.46 178.907 305.752C177.272 304.045 175.989 302.032 175.131 299.828C174.274 297.625 173.859 295.274 173.91 292.91C173.957 290.564 174.466 288.25 175.408 286.1C176.349 283.95 177.706 282.007 179.399 280.382C181.092 278.757 183.088 277.481 185.275 276.628C187.461 275.775 189.794 275.361 192.14 275.41ZM182.94 293.32C182.929 294.502 183.151 295.675 183.593 296.771C184.035 297.867 184.689 298.865 185.516 299.709C186.344 300.553 187.33 301.225 188.418 301.688C189.505 302.15 190.674 302.394 191.855 302.405C193.037 302.416 194.21 302.195 195.306 301.753C196.402 301.311 197.401 300.657 198.244 299.829C199.088 299.001 199.76 298.015 200.223 296.928C200.685 295.84 200.929 294.672 200.94 293.49C200.963 291.103 200.036 288.805 198.365 287.101C196.693 285.398 194.412 284.428 192.025 284.405C189.639 284.383 187.34 285.309 185.637 286.981C183.933 288.653 182.963 290.933 182.94 293.32Z" fill="#707070" fill-opacity="0.1"/>
<path d="M288.11 275.41C290.484 275.423 292.833 275.909 295.018 276.839C297.203 277.77 299.181 279.127 300.835 280.831C302.489 282.535 303.788 284.551 304.654 286.763C305.52 288.974 305.937 291.336 305.88 293.71C305.826 296.074 305.308 298.404 304.354 300.568C303.401 302.731 302.03 304.686 300.321 306.319C298.612 307.953 296.598 309.235 294.394 310.09C292.189 310.945 289.838 311.358 287.475 311.305C285.111 311.252 282.781 310.734 280.617 309.78C278.454 308.826 276.499 307.456 274.865 305.747C273.231 304.038 271.95 302.023 271.095 299.819C270.239 297.615 269.826 295.264 269.88 292.9C269.928 290.555 270.437 288.242 271.38 286.093C272.322 283.944 273.678 282.003 275.371 280.378C277.064 278.754 279.06 277.48 281.246 276.627C283.432 275.775 285.764 275.361 288.11 275.41ZM278.91 293.49C278.928 295.287 279.485 297.038 280.507 298.516C281.53 299.994 282.971 301.132 284.646 301.784C286.321 302.436 288.153 302.571 289.906 302.172C291.658 301.773 293.251 300.859 294.479 299.547C295.708 298.235 296.515 296.585 296.797 294.81C297.08 293.035 296.824 291.216 296.063 289.588C295.303 287.959 294.072 286.596 292.53 285.673C290.987 284.75 289.204 284.31 287.41 284.41C285.084 284.504 282.889 285.509 281.299 287.208C279.708 288.907 278.85 291.164 278.91 293.49Z" fill="#707070" fill-opacity="0.1"/>
<path d="M48.0703 229.78C50.4424 229.792 52.7886 230.274 54.9732 231.198C57.1578 232.122 59.1374 233.471 60.7974 235.165C62.4575 236.86 63.765 238.867 64.6443 241.07C65.5237 243.273 65.9573 245.628 65.9203 248C65.875 250.364 65.3645 252.696 64.4181 254.862C63.4717 257.029 62.1078 258.988 60.4043 260.627C58.7008 262.266 56.6911 263.554 54.4899 264.417C52.2887 265.28 49.9391 265.7 47.5753 265.655C45.2115 265.61 42.8798 265.099 40.7133 264.153C38.5467 263.207 36.5878 261.843 34.9484 260.139C33.309 258.436 32.0212 256.426 31.1584 254.225C30.2957 252.024 29.875 249.674 29.9203 247.31C29.9567 244.966 30.4556 242.652 31.3882 240.501C32.3209 238.351 33.669 236.405 35.3553 234.776C37.0415 233.148 39.0327 231.868 41.2147 231.011C43.3966 230.153 45.7264 229.735 48.0703 229.78V229.78ZM38.9603 247.78C39.1356 250.044 40.1605 252.159 41.8293 253.699C43.4981 255.239 45.6875 256.092 47.9585 256.085C50.2295 256.079 52.4141 255.214 54.0743 253.665C55.7345 252.115 56.7476 249.995 56.9103 247.73C56.9103 245.343 55.9621 243.054 54.2743 241.366C52.5864 239.678 50.2972 238.73 47.9103 238.73C46.7211 238.713 45.5409 238.938 44.441 239.39C43.3411 239.843 42.3445 240.514 41.5116 241.363C40.6786 242.212 40.0265 243.221 39.5949 244.329C39.1632 245.437 38.9609 246.621 39.0003 247.81L38.9603 247.78Z" fill="#707070" fill-opacity="0.1"/>
<path d="M257.93 247.63C257.959 251.188 256.934 254.675 254.982 257.651C253.031 260.626 250.241 262.957 246.966 264.347C243.691 265.738 240.077 266.127 236.581 265.465C233.085 264.802 229.863 263.119 227.323 260.627C224.784 258.134 223.04 254.945 222.312 251.462C221.583 247.979 221.904 244.359 223.233 241.058C224.561 237.757 226.839 234.924 229.777 232.916C232.715 230.909 236.182 229.818 239.74 229.78C242.114 229.728 244.475 230.152 246.683 231.026C248.891 231.9 250.902 233.208 252.597 234.871C254.292 236.535 255.638 238.52 256.553 240.712C257.469 242.903 257.937 245.255 257.93 247.63ZM240.11 238.79C238.926 238.762 237.748 238.97 236.644 239.402C235.541 239.834 234.535 240.481 233.684 241.306C232.834 242.13 232.156 243.116 231.69 244.205C231.224 245.294 230.979 246.465 230.97 247.65C231.1 249.92 232.085 252.056 233.725 253.63C235.366 255.204 237.542 256.098 239.815 256.134C242.088 256.169 244.29 255.343 245.98 253.821C247.669 252.299 248.719 250.195 248.92 247.93C248.963 246.746 248.767 245.566 248.344 244.459C247.92 243.352 247.278 242.342 246.456 241.489C245.634 240.636 244.648 239.957 243.558 239.494C242.467 239.03 241.295 238.791 240.11 238.79Z" fill="#707070" fill-opacity="0.1"/>
<path d="M143.77 229.78C146.145 229.742 148.504 230.177 150.709 231.061C152.914 231.945 154.921 233.26 156.611 234.928C158.302 236.597 159.644 238.586 160.557 240.779C161.47 242.972 161.937 245.325 161.93 247.7C161.93 250.064 161.464 252.405 160.56 254.588C159.655 256.772 158.329 258.757 156.658 260.428C154.986 262.1 153.002 263.425 150.818 264.33C148.634 265.235 146.294 265.7 143.93 265.7C141.566 265.7 139.225 265.235 137.041 264.33C134.858 263.425 132.873 262.1 131.202 260.428C129.53 258.757 128.205 256.772 127.3 254.588C126.395 252.405 125.93 250.064 125.93 247.7C125.923 245.352 126.38 243.025 127.273 240.853C128.166 238.681 129.479 236.707 131.135 235.042C132.792 233.378 134.761 232.057 136.929 231.154C139.097 230.251 141.421 229.784 143.77 229.78ZM152.92 247.84C152.926 246.658 152.7 245.487 152.254 244.392C151.808 243.298 151.15 242.302 150.319 241.462C149.488 240.621 148.5 239.953 147.41 239.494C146.321 239.036 145.152 238.797 143.97 238.79C142.788 238.784 141.616 239.01 140.522 239.456C139.427 239.902 138.432 240.56 137.591 241.391C136.751 242.222 136.082 243.21 135.624 244.3C135.166 245.389 134.926 246.558 134.92 247.74C134.906 250.127 135.842 252.422 137.52 254.119C139.199 255.816 141.483 256.777 143.87 256.79C146.257 256.803 148.551 255.868 150.248 254.19C151.946 252.511 152.906 250.227 152.92 247.84V247.84Z" fill="#707070" fill-opacity="0.1"/>
<path d="M226 117C224.83 130.62 219 141.42 208.22 149.53C204.83 152.08 202.12 152.13 200.33 149.81C198.54 147.49 199.33 144.92 202.71 142.39C211.38 135.89 216.19 127.28 216.93 116.44C216.965 115.57 217.045 114.702 217.17 113.84C217.61 111.28 219.11 109.84 221.76 109.91C224.41 109.98 225.76 111.64 225.99 114.23C226 115.21 226 116.22 226 117Z" fill="#707070" fill-opacity="0.1"/>
</g>
<defs>
<clipPath id="clip0_2248_19990">
<rect width="383.85" height="311.31" fill="white"/>
</clipPath>
</defs>
</svg>
