<svg xmlns="http://www.w3.org/2000/svg" xmlns:xlink="http://www.w3.org/1999/xlink" width="44" height="44" viewBox="0 0 44 44"><defs><linearGradient id="a" x1="0.5" x2="0.5" y2="1" gradientUnits="objectBoundingBox"><stop offset="0" stop-color="#9bf8fb"/><stop offset="1" stop-color="#afb3fc"/></linearGradient></defs><path d="M3.982,4.28a21.875,21.875,0,0,0,0,25.168A13.236,13.236,0,0,0,13.2,16.864,13.236,13.236,0,0,0,3.982,4.28Z" transform="translate(0 5.136)" fill="url(#a)"/><path d="M23.218,4.28a13.2,13.2,0,0,0,0,25.168,21.875,21.875,0,0,0,0-25.168Z" transform="translate(16.8 5.136)" fill="url(#a)"/><path d="M22.548,22A17.6,17.6,0,0,1,33.086,5.874a21.931,21.931,0,0,0-29.876,0A17.6,17.6,0,0,1,13.748,22,17.6,17.6,0,0,1,3.21,38.126a21.931,21.931,0,0,0,29.876,0A17.6,17.6,0,0,1,22.548,22Z" transform="translate(3.852 0)" fill="url(#a)"/></svg>