<svg xmlns="http://www.w3.org/2000/svg" xmlns:xlink="http://www.w3.org/1999/xlink" width="46.665" height="35.323" viewBox="0 0 46.665 35.323"><defs><linearGradient id="a" x1="0.5" x2="0.5" y2="1" gradientUnits="objectBoundingBox"><stop offset="0" stop-color="#5be7a9"/><stop offset="1" stop-color="#94fbcd"/></linearGradient></defs><g transform="translate(-605.184 -545.677)"><path d="M35.015,0C30.877,0,26.42.849,23.343,3.183,20.266.849,15.81,0,11.672,0A22.96,22.96,0,0,0,2.589,1.676,4.324,4.324,0,0,0,0,5.6V29.54a4.234,4.234,0,0,0,5.263,4.117,26.209,26.209,0,0,1,6.409-.764,22.44,22.44,0,0,1,9.677,1.952,4.361,4.361,0,0,0,3.968,0,22.134,22.134,0,0,1,9.677-1.952,26.209,26.209,0,0,1,6.409.764,4.214,4.214,0,0,0,5.263-4.117V5.6a4.324,4.324,0,0,0-2.589-3.926A22.787,22.787,0,0,0,35.015,0Zm7.427,27.014a2.143,2.143,0,0,1-2.547,2.08,26.756,26.756,0,0,0-4.881-.424,25.561,25.561,0,0,0-11.672,3.183V7.427A25.561,25.561,0,0,1,35.015,4.244a26.922,26.922,0,0,1,5.73.594,2.153,2.153,0,0,1,1.7,2.08Z" transform="translate(605.184 545.677)" fill="url(#a)"/><path d="M13.819,8.754a1.589,1.589,0,0,1-.488-3.1A28.23,28.23,0,0,1,24.705,4.7a1.591,1.591,0,1,1-.361,3.162,25.084,25.084,0,0,0-10.038.828A4.411,4.411,0,0,1,13.819,8.754Z" transform="translate(618.911 550.738)" fill="url(#a)"/><path d="M13.819,11.414a1.589,1.589,0,0,1-.488-3.1,28.2,28.2,0,0,1,11.375-.955,1.591,1.591,0,1,1-.361,3.162,25.084,25.084,0,0,0-10.038.828A2.057,2.057,0,0,1,13.819,11.414Z" transform="translate(618.911 553.723)" fill="url(#a)"/><path d="M13.819,14.074a1.589,1.589,0,0,1-.488-3.1,28.2,28.2,0,0,1,11.375-.955,1.591,1.591,0,1,1-.361,3.162,25.084,25.084,0,0,0-10.038.828A2.057,2.057,0,0,1,13.819,14.074Z" transform="translate(618.911 556.708)" fill="url(#a)"/></g></svg>