<svg xmlns="http://www.w3.org/2000/svg" width="33.494" height="29.771" viewBox="0 0 33.494 29.771"><path d="M20819.723-11176.3a3.125,3.125,0,0,1-1.887-.634l-6.137-4.626-4.115,4.421-.232.191a1.535,1.535,0,0,1-.309.168l-.023.011-.006,0-.012.006a.5.5,0,0,1-.057.025,1.6,1.6,0,0,1-.461.078.038.038,0,0,0-.014,0l0,0h-.008a1.618,1.618,0,0,1-.307-.031l-.012-.006h-.02a1.546,1.546,0,0,1-.473-.2c-.029-.02-.066-.041-.107-.072a1.428,1.428,0,0,1-.32-.321.218.218,0,0,0-.021-.021.084.084,0,0,1-.014-.02l-.008-.008a1.487,1.487,0,0,1-.18-.371l-3.076-9.9-5.516-1.869a3.1,3.1,0,0,1-1.488-1.07,2.963,2.963,0,0,1-.6-1.7,2.965,2.965,0,0,1,.5-1.735,3.082,3.082,0,0,1,1.424-1.146l27.281-10.723a3.179,3.179,0,0,1,1.164-.219,3.2,3.2,0,0,1,.488.037,3.126,3.126,0,0,1,1.514.664,3.02,3.02,0,0,1,.943,1.315,2.951,2.951,0,0,1,.113,1.6l-4.969,23.729a3.045,3.045,0,0,1-1.088,1.738A3.205,3.205,0,0,1,20819.723-11176.3Zm-8.209-8.753a1.558,1.558,0,0,1,.936.311l7.254,5.466,5.063-23.767-27.369,10.659,5.666,2.018,15.477-7.843a1.606,1.606,0,0,1,.707-.166,1.545,1.545,0,0,1,.344.037,1.525,1.525,0,0,1,.883.568,1.442,1.442,0,0,1,.289.988,1.468,1.468,0,0,1-.441.936l-10.781,10.493-.469,2.2,1.318-1.416a1.541,1.541,0,0,1,1-.482Q20811.443-11185.053,20811.514-11185.053Zm-.342-6.08-6.191,3.135,1.2,3.842.473-2.227a1.443,1.443,0,0,1,.414-.75Z" transform="translate(-20794.318 11206.07)" fill="#707070" opacity="0.5"/></svg>