<svg width="11" height="11" viewBox="0 0 11 11" fill="none" xmlns="http://www.w3.org/2000/svg">
<path d="M10.421 5.88965C10.7523 5.51226 10.7523 4.94774 10.421 4.57035L10.0638 4.1633C9.88261 3.95691 9.79431 3.6851 9.81958 3.41165L9.86934 2.87297C9.9155 2.37339 9.58433 1.91694 9.09509 1.80581L8.56374 1.68512C8.29638 1.62439 8.06569 1.45655 7.92561 1.22087L7.64817 0.75407C7.39173 0.322597 6.85517 0.148072 6.39397 0.346119L5.89457 0.560566C5.64265 0.668746 5.35735 0.668746 5.10543 0.560566L4.60603 0.346119C4.14483 0.148072 3.60827 0.322597 3.35183 0.75407L3.07519 1.21953C2.93464 1.456 2.7029 1.62413 2.43449 1.68435L1.90769 1.80255C1.41718 1.91261 1.08462 2.36971 1.13087 2.87029L1.18052 3.4077C1.20573 3.68054 1.11788 3.95177 0.937506 4.15802L0.576764 4.5705C0.246643 4.94798 0.247145 5.51158 0.577937 5.88847L0.936334 6.29681C1.11743 6.50313 1.20573 6.77484 1.18054 7.04821L1.13042 7.59223C1.08439 8.09173 1.41554 8.54803 1.9047 8.65914L2.43626 8.77989C2.70362 8.84061 2.93431 9.00845 3.07439 9.24413L3.3507 9.70904C3.60763 10.1413 4.14561 10.3156 4.60719 10.116L5.1045 9.901C5.35695 9.79185 5.6432 9.79149 5.89592 9.90001L6.39397 10.1139C6.85518 10.3119 7.39173 10.1374 7.64817 9.70593L7.92561 9.23913C8.06569 9.00345 8.29638 8.83561 8.56374 8.77489L9.09509 8.65419C9.58433 8.54306 9.9155 8.08661 9.86934 7.58703L9.81958 7.04835C9.79431 6.7749 9.88261 6.50309 10.0638 6.2967L10.421 5.88965ZM5.20711 7.02289C4.81658 7.41342 4.18342 7.41342 3.79289 7.02289L2.85284 6.08284C2.65797 5.88797 2.65797 5.57203 2.85284 5.37716C3.04744 5.18256 3.36286 5.18225 3.55784 5.37648L3.8525 5.67C4.21031 6.02642 4.78913 6.02587 5.14625 5.66875L7.44 3.375C7.63586 3.17914 7.95358 3.1797 8.14875 3.37625C8.34294 3.57182 8.34238 3.88762 8.1475 4.0825L5.20711 7.02289Z" fill="#1AB03B"/>
</svg>
