<svg xmlns="http://www.w3.org/2000/svg" width="35.727" height="29.771" viewBox="0 0 35.727 29.771"><path d="M20808.828-11176.881h-.238a21.292,21.292,0,0,1-11.379-3.276,1.6,1.6,0,0,1-.66-.83,1.568,1.568,0,0,1,.012-1.052,1.6,1.6,0,0,1,.678-.813,1.659,1.659,0,0,1,.854-.234,1.663,1.663,0,0,1,.2.012,12.482,12.482,0,0,0,1.463.087,12.273,12.273,0,0,0,4.365-.8,8.312,8.312,0,0,1-3.834-4.648,1.584,1.584,0,0,1-.07-.622,1.555,1.555,0,0,1,.178-.6,8.191,8.191,0,0,1-2.547-5.269,5.176,5.176,0,0,1-.043-.7,1.632,1.632,0,0,1,.215-.809,1.671,1.671,0,0,1,.59-.6l0,0a8.26,8.26,0,0,1-.729-3.839,8.282,8.282,0,0,1,1.121-3.746,1.679,1.679,0,0,1,.537-.553,1.633,1.633,0,0,1,.738-.24c.051,0,.094-.006.133-.006a1.677,1.677,0,0,1,.637.128,1.66,1.66,0,0,1,.623.457,17.971,17.971,0,0,0,11.061,6.241,8.2,8.2,0,0,1,2.578-5.707,8.523,8.523,0,0,1,5.9-2.345h.041a8.47,8.47,0,0,1,5.439,1.976,12.375,12.375,0,0,0,3.039-1.262,1.677,1.677,0,0,1,.814-.227h.018a1.612,1.612,0,0,1,.8.211,1.6,1.6,0,0,1,.6.582,1.566,1.566,0,0,1,.219.8,8.922,8.922,0,0,1-.555,3.584,9.115,9.115,0,0,1-1.93,3.1v.318a19.966,19.966,0,0,1-.867,5.8,20.077,20.077,0,0,1-2.855,6.021,20.484,20.484,0,0,1-4.68,4.8,20.816,20.816,0,0,1-5.893,3.031A21.117,21.117,0,0,1,20808.828-11176.881Zm-7.23-16.476a5.14,5.14,0,0,0,1.5,1.79,5.279,5.279,0,0,0,2.156.953,1.649,1.649,0,0,1,.918.525,1.587,1.587,0,0,1,.391.969,1.583,1.583,0,0,1-.309,1,1.634,1.634,0,0,1-.873.6c-.225.064-.467.12-.721.168a5.214,5.214,0,0,0,3.594,1.484,1.647,1.647,0,0,1,.93.308,1.586,1.586,0,0,1,.582.778,1.565,1.565,0,0,1,.018.96,1.632,1.632,0,0,1-.551.8,15.481,15.481,0,0,1-4.779,2.487,18.247,18.247,0,0,0,4.141.479c.146,0,.258,0,.363,0a17.7,17.7,0,0,0,10.424-3.413,17.048,17.048,0,0,0,6.334-9.2,16.854,16.854,0,0,0,.738-4.9v-.062c0-.232,0-.473-.016-.714a1.55,1.55,0,0,1,.383-1.115,10.733,10.733,0,0,0,1.664-2.424,15.643,15.643,0,0,1-1.969.513,1.661,1.661,0,0,1-.312.029,1.6,1.6,0,0,1-.5-.078,1.652,1.652,0,0,1-.687-.427,5.162,5.162,0,0,0-1.727-1.2,5.2,5.2,0,0,0-2.053-.421h-.025a5.339,5.339,0,0,0-3.7,1.5,5.056,5.056,0,0,0-1.533,3.628,4.773,4.773,0,0,0,.141,1.158,1.588,1.588,0,0,1,0,.729,1.537,1.537,0,0,1-.334.651,1.65,1.65,0,0,1-.6.437,1.71,1.71,0,0,1-.664.135h-.064a21.385,21.385,0,0,1-13.328-5.533c-.008.1-.008.2-.008.314a5,5,0,0,0,.605,2.411,5.15,5.15,0,0,0,1.7,1.842,1.584,1.584,0,0,1,.637.795,1.565,1.565,0,0,1,.014,1.013,1.639,1.639,0,0,1-.611.808,1.7,1.7,0,0,1-.953.3h-.031A8.276,8.276,0,0,1,20801.6-11193.356Z" transform="translate(-20796.465 11206.651)" fill="#707070" opacity="0.5"/></svg>