<svg xmlns="http://www.w3.org/2000/svg" width="26.248" height="25.249" viewBox="0 0 26.248 25.249"><path d="M3.919,3.764a1.452,1.452,0,0,0,0,2.056l5.337,5.337-.423.437H4.458A1.463,1.463,0,0,0,3,13.053v5.833a1.463,1.463,0,0,0,1.458,1.458H8.833l4.8,4.8a1.463,1.463,0,0,0,2.494-1.035V18.025l6.1,6.1a9.955,9.955,0,0,1-2.333,1.327,1.459,1.459,0,0,0,1.181,2.669,13.147,13.147,0,0,0,3.237-1.91l1.954,1.954A1.454,1.454,0,1,0,28.315,26.1L5.989,3.764A1.47,1.47,0,0,0,3.919,3.764ZM26.332,15.969a10.171,10.171,0,0,1-.6,3.412l2.231,2.231A13.1,13.1,0,0,0,20.82,3.72a1.324,1.324,0,0,0-1.779,1.254v.277a1.349,1.349,0,0,0,.89,1.239A10.237,10.237,0,0,1,26.332,15.969ZM13.631,6.8l-.248.248,2.741,2.741V7.818A1.458,1.458,0,0,0,13.631,6.8Zm9.056,9.172a6.562,6.562,0,0,0-3.646-5.877V12.7l3.616,3.616A2.831,2.831,0,0,0,22.686,15.969Z" transform="translate(-3 -3.338)" fill="#707070" opacity="0.5"/></svg>