<svg xmlns="http://www.w3.org/2000/svg" width="26.864" height="25.249" viewBox="0 0 26.864 25.249"><path d="M3,13.182v5.97a1.5,1.5,0,0,0,1.492,1.492H8.97l4.91,4.91a1.5,1.5,0,0,0,2.552-1.06V7.824a1.5,1.5,0,0,0-2.552-1.06L8.97,11.689H4.492A1.5,1.5,0,0,0,3,13.182Zm20.148,2.985a6.716,6.716,0,0,0-3.731-6.014V22.166A6.677,6.677,0,0,0,23.148,16.166ZM19.417,4.9v.3a1.388,1.388,0,0,0,.9,1.269,10.449,10.449,0,0,1,0,19.4,1.366,1.366,0,0,0-.9,1.269v.3A1.345,1.345,0,0,0,21.223,28.7a13.414,13.414,0,0,0,0-25.073A1.339,1.339,0,0,0,19.417,4.9Z" transform="translate(-3 -3.539)" fill="#565aa7"/></svg>