<svg xmlns="http://www.w3.org/2000/svg" xmlns:xlink="http://www.w3.org/1999/xlink" width="38.318" height="43.682" viewBox="0 0 38.318 43.682"><defs><linearGradient id="a" x1="0.5" x2="0.5" y2="1" gradientUnits="objectBoundingBox"><stop offset="0" stop-color="#9bf8fb"/><stop offset="1" stop-color="#afb3fc"/></linearGradient></defs><path d="M4.373,0A4.38,4.38,0,0,0,.027,4.849L3.892,39.816a4.373,4.373,0,0,0,4.346,3.866H30.08a4.373,4.373,0,0,0,4.346-3.866L38.292,4.849A4.38,4.38,0,0,0,33.945,0ZM19.159,37.13a6.544,6.544,0,0,1-6.552-6.552c0-3.385,3.953-8.627,5.722-10.789a1.068,1.068,0,0,1,1.682,0c1.769,2.184,5.722,7.4,5.722,10.789A6.576,6.576,0,0,1,19.159,37.13Z" fill="url(#a)"/></svg>