<svg width="22" height="22" viewBox="0 0 22 22" fill="none" xmlns="http://www.w3.org/2000/svg">
<path d="M17.5625 5.09375H15.2886L14.1705 3.41703C14.1106 3.32725 14.0295 3.25363 13.9343 3.20269C13.8392 3.15175 13.7329 3.12506 13.625 3.125H8.375C8.26707 3.12506 8.16082 3.15175 8.06567 3.20269C7.97051 3.25363 7.88939 3.32725 7.82949 3.41703L6.71059 5.09375H4.4375C3.91536 5.09375 3.4146 5.30117 3.04538 5.67038C2.67617 6.0396 2.46875 6.54035 2.46875 7.0625V16.25C2.46875 16.7721 2.67617 17.2729 3.04538 17.6421C3.4146 18.0113 3.91536 18.2188 4.4375 18.2188H17.5625C18.0846 18.2188 18.5854 18.0113 18.9546 17.6421C19.3238 17.2729 19.5312 16.7721 19.5312 16.25V7.0625C19.5312 6.54035 19.3238 6.0396 18.9546 5.67038C18.5854 5.30117 18.0846 5.09375 17.5625 5.09375ZM18.2188 16.25C18.2188 16.424 18.1496 16.591 18.0265 16.714C17.9035 16.8371 17.7365 16.9062 17.5625 16.9062H4.4375C4.26345 16.9062 4.09653 16.8371 3.97346 16.714C3.85039 16.591 3.78125 16.424 3.78125 16.25V7.0625C3.78125 6.88845 3.85039 6.72153 3.97346 6.59846C4.09653 6.47539 4.26345 6.40625 4.4375 6.40625H7.0625C7.17057 6.40632 7.27698 6.3797 7.37229 6.32876C7.4676 6.27781 7.54885 6.20412 7.60883 6.11422L8.72609 4.4375H13.2731L14.3912 6.11422C14.4511 6.20412 14.5324 6.27781 14.6277 6.32876C14.723 6.3797 14.8294 6.40632 14.9375 6.40625H17.5625C17.7365 6.40625 17.9035 6.47539 18.0265 6.59846C18.1496 6.72153 18.2188 6.88845 18.2188 7.0625V16.25ZM14.9375 8.375V10.3438C14.9375 10.5178 14.8684 10.6847 14.7453 10.8078C14.6222 10.9309 14.4553 11 14.2812 11H12.3125C12.1385 11 11.9715 10.9309 11.8485 10.8078C11.7254 10.6847 11.6562 10.5178 11.6562 10.3438C11.6562 10.1697 11.7254 10.0028 11.8485 9.87971C11.9715 9.75664 12.1385 9.6875 12.3125 9.6875H12.735C12.2817 9.29036 11.7059 9.06062 11.1037 9.03658C10.5016 9.01255 9.90933 9.19568 9.42582 9.55543C9.28669 9.66008 9.11169 9.70517 8.93931 9.68078C8.76694 9.6564 8.61131 9.56454 8.50666 9.42541C8.40201 9.28628 8.35692 9.11128 8.38131 8.9389C8.40569 8.76653 8.49755 8.6109 8.63668 8.50625C9.36618 7.96315 10.2606 7.68807 11.1692 7.72737C12.0778 7.76667 12.9451 8.11793 13.625 8.72199V8.375C13.625 8.20095 13.6941 8.03403 13.8172 7.91096C13.9403 7.78789 14.1072 7.71875 14.2812 7.71875C14.4553 7.71875 14.6222 7.78789 14.7453 7.91096C14.8684 8.03403 14.9375 8.20095 14.9375 8.375ZM13.4929 13.2312C13.5975 13.3703 13.6426 13.5452 13.6183 13.7175C13.594 13.8897 13.5023 14.0453 13.3633 14.15C12.6338 14.6931 11.7394 14.9682 10.8308 14.9289C9.92219 14.8896 9.05488 14.5383 8.375 13.9343V14.2812C8.375 14.4553 8.30586 14.6222 8.18279 14.7453C8.05972 14.8684 7.8928 14.9375 7.71875 14.9375C7.5447 14.9375 7.37778 14.8684 7.25471 14.7453C7.13164 14.6222 7.0625 14.4553 7.0625 14.2812V12.3125C7.0625 12.1385 7.13164 11.9715 7.25471 11.8485C7.37778 11.7254 7.5447 11.6562 7.71875 11.6562H9.6875C9.86155 11.6562 10.0285 11.7254 10.1515 11.8485C10.2746 11.9715 10.3438 12.1385 10.3438 12.3125C10.3438 12.4865 10.2746 12.6535 10.1515 12.7765C10.0285 12.8996 9.86155 12.9688 9.6875 12.9688H9.26504C9.71834 13.3659 10.2941 13.5956 10.8963 13.6197C11.4984 13.6437 12.0907 13.4606 12.5742 13.1008C12.7133 12.9963 12.8883 12.9513 13.0606 12.9758C13.2329 13.0002 13.3884 13.0921 13.4929 13.2312Z" fill="white"/>
</svg>
